%TF.GenerationSoftware,KiCad,Pcbnew,7.0.9*%
%TF.CreationDate,2024-03-07T22:29:03+01:00*%
%TF.ProjectId,pcb-design,7063622d-6465-4736-9967-6e2e6b696361,rev?*%
%TF.SameCoordinates,Original*%
%TF.FileFunction,Copper,L2,Bot*%
%TF.FilePolarity,Positive*%
%FSLAX46Y46*%
G04 Gerber Fmt 4.6, Leading zero omitted, Abs format (unit mm)*
G04 Created by KiCad (PCBNEW 7.0.9) date 2024-03-07 22:29:03*
%MOMM*%
%LPD*%
G01*
G04 APERTURE LIST*
%TA.AperFunction,ComponentPad*%
%ADD10C,1.320800*%
%TD*%
%TA.AperFunction,ComponentPad*%
%ADD11C,2.006600*%
%TD*%
%TA.AperFunction,ViaPad*%
%ADD12C,0.800000*%
%TD*%
%TA.AperFunction,Conductor*%
%ADD13C,0.250000*%
%TD*%
G04 APERTURE END LIST*
D10*
%TO.P,U2,1,1*%
%TO.N,Net-(U4-GND)*%
X156822000Y-126382001D03*
%TO.P,U2,2,2*%
%TO.N,unconnected-(U2-Pad2)*%
X156822000Y-124382000D03*
%TO.P,U2,3,3*%
%TO.N,Net-(U4-PA02_A0_D0)*%
X156822000Y-122381999D03*
D11*
%TO.P,U2,4*%
%TO.N,N/C*%
X156822000Y-128484100D03*
%TO.P,U2,5*%
X156822000Y-120279900D03*
%TD*%
D12*
%TO.N,Net-(U4-3V3)*%
X146155129Y-122127442D03*
X152217000Y-148185000D03*
%TO.N,Net-(U4-PA6_A10_D10_MOSI)*%
X149672750Y-148160000D03*
X146042424Y-123946395D03*
%TO.N,Net-(U4-PA9_A5_D5_SCL)*%
X145317924Y-129979000D03*
X144603000Y-132003000D03*
%TO.N,Net-(U4-GND)*%
X154686000Y-148082000D03*
X151979000Y-124626000D03*
%TO.N,Net-(U4-5V)*%
X143347000Y-129961000D03*
X157303000Y-148168000D03*
%TD*%
D13*
%TO.N,Net-(U4-3V3)*%
X146767424Y-142735424D02*
X152217000Y-148185000D01*
X146155129Y-122127442D02*
X146767424Y-122739737D01*
X146767424Y-122739737D02*
X146767424Y-142735424D01*
%TO.N,Net-(U4-PA6_A10_D10_MOSI)*%
X146042424Y-144529674D02*
X149672750Y-148160000D01*
X146042424Y-123946395D02*
X146042424Y-144529674D01*
%TO.N,Net-(U4-PA9_A5_D5_SCL)*%
X145317924Y-129979000D02*
X145317924Y-131344076D01*
X145317924Y-131344076D02*
X144657000Y-132005000D01*
X144657000Y-132005000D02*
X144655000Y-132003000D01*
X144655000Y-132003000D02*
X144603000Y-132003000D01*
%TO.N,Net-(U4-GND)*%
X155063301Y-127710301D02*
X155240000Y-127710301D01*
X147740000Y-141136000D02*
X147740000Y-133396000D01*
X155493700Y-127710301D02*
X155487000Y-127717001D01*
X147740000Y-133396000D02*
X149554301Y-133396000D01*
X156822000Y-126382001D02*
X155493700Y-127710301D01*
X149554301Y-133396000D02*
X155240000Y-127710301D01*
X151979000Y-124626000D02*
X155063301Y-127710301D01*
X148507000Y-141903000D02*
X154686000Y-148082000D01*
X148507000Y-141903000D02*
X147740000Y-141136000D01*
X155240000Y-127710301D02*
X155493700Y-127710301D01*
%TO.N,Net-(U4-5V)*%
X143324500Y-129641000D02*
X143324500Y-149897000D01*
X157242500Y-149968000D02*
X157272500Y-149938000D01*
X157352000Y-148217000D02*
X157303000Y-148168000D01*
X143365500Y-149938000D02*
X143395500Y-149968000D01*
X157329500Y-149995000D02*
X157329500Y-147897000D01*
X143395500Y-149968000D02*
X157242500Y-149968000D01*
%TD*%
M02*
