%TF.GenerationSoftware,KiCad,Pcbnew,7.0.9*%
%TF.CreationDate,2024-03-07T22:29:10+01:00*%
%TF.ProjectId,pcb-design,7063622d-6465-4736-9967-6e2e6b696361,rev?*%
%TF.SameCoordinates,Original*%
%TF.FileFunction,Drillmap*%
%TF.FilePolarity,Positive*%
%FSLAX45Y45*%
G04 Gerber Fmt 4.5, Leading zero omitted, Abs format (unit mm)*
G04 Created by KiCad (PCBNEW 7.0.9) date 2024-03-07 22:29:10*
%MOMM*%
%LPD*%
G01*
G04 APERTURE LIST*
%ADD10C,0.100000*%
%ADD11C,0.200000*%
%ADD12C,0.149860*%
G04 APERTURE END LIST*
D10*
X15849000Y-13402900D02*
X14863200Y-13400800D01*
X14863200Y-13721400D01*
X15845200Y-13725400D01*
X15847700Y-15056800D01*
X13996200Y-15055500D01*
X14001100Y-11901900D01*
X15847700Y-11900200D01*
X15849000Y-13402900D01*
D11*
D10*
X14314700Y-12976100D02*
X14354700Y-13016100D01*
X14354700Y-12976100D02*
X14314700Y-13016100D01*
X14440300Y-13180300D02*
X14480300Y-13220300D01*
X14480300Y-13180300D02*
X14440300Y-13220300D01*
X14511792Y-12977900D02*
X14551792Y-13017900D01*
X14551792Y-12977900D02*
X14511792Y-13017900D01*
X14584242Y-12374639D02*
X14624242Y-12414639D01*
X14624242Y-12374639D02*
X14584242Y-12414639D01*
X14595513Y-12192744D02*
X14635513Y-12232744D01*
X14635513Y-12192744D02*
X14595513Y-12232744D01*
X14947275Y-14796000D02*
X14987275Y-14836000D01*
X14987275Y-14796000D02*
X14947275Y-14836000D01*
X15177900Y-12442600D02*
X15217900Y-12482600D01*
X15217900Y-12442600D02*
X15177900Y-12482600D01*
X15201700Y-14798500D02*
X15241700Y-14838500D01*
X15241700Y-14798500D02*
X15201700Y-14838500D01*
X15448600Y-14788200D02*
X15488600Y-14828200D01*
X15488600Y-14788200D02*
X15448600Y-14828200D01*
X15710300Y-14796800D02*
X15750300Y-14836800D01*
X15750300Y-14796800D02*
X15710300Y-14836800D01*
X15722840Y-12238200D02*
G75*
G03*
X15722840Y-12238200I-40640J0D01*
G01*
X15722840Y-12438200D02*
G75*
G03*
X15722840Y-12438200I-40640J0D01*
G01*
X15722840Y-12638200D02*
G75*
G03*
X15722840Y-12638200I-40640J0D01*
G01*
D12*
X15682200Y-11953060D02*
X15682200Y-12102920D01*
X15607270Y-12027990D02*
X15757130Y-12027990D01*
X15682200Y-12773480D02*
X15682200Y-12923340D01*
X15607270Y-12848410D02*
X15757130Y-12848410D01*
D11*
X14251977Y-15373284D02*
X14251977Y-15173284D01*
X14251977Y-15173284D02*
X14299596Y-15173284D01*
X14299596Y-15173284D02*
X14328167Y-15182808D01*
X14328167Y-15182808D02*
X14347215Y-15201855D01*
X14347215Y-15201855D02*
X14356739Y-15220903D01*
X14356739Y-15220903D02*
X14366262Y-15258998D01*
X14366262Y-15258998D02*
X14366262Y-15287569D01*
X14366262Y-15287569D02*
X14356739Y-15325665D01*
X14356739Y-15325665D02*
X14347215Y-15344712D01*
X14347215Y-15344712D02*
X14328167Y-15363760D01*
X14328167Y-15363760D02*
X14299596Y-15373284D01*
X14299596Y-15373284D02*
X14251977Y-15373284D01*
X14451977Y-15373284D02*
X14451977Y-15239950D01*
X14451977Y-15278046D02*
X14461501Y-15258998D01*
X14461501Y-15258998D02*
X14471024Y-15249474D01*
X14471024Y-15249474D02*
X14490072Y-15239950D01*
X14490072Y-15239950D02*
X14509120Y-15239950D01*
X14575786Y-15373284D02*
X14575786Y-15239950D01*
X14575786Y-15173284D02*
X14566262Y-15182808D01*
X14566262Y-15182808D02*
X14575786Y-15192331D01*
X14575786Y-15192331D02*
X14585310Y-15182808D01*
X14585310Y-15182808D02*
X14575786Y-15173284D01*
X14575786Y-15173284D02*
X14575786Y-15192331D01*
X14699596Y-15373284D02*
X14680548Y-15363760D01*
X14680548Y-15363760D02*
X14671024Y-15344712D01*
X14671024Y-15344712D02*
X14671024Y-15173284D01*
X14804358Y-15373284D02*
X14785310Y-15363760D01*
X14785310Y-15363760D02*
X14775786Y-15344712D01*
X14775786Y-15344712D02*
X14775786Y-15173284D01*
X15032929Y-15373284D02*
X15032929Y-15173284D01*
X15032929Y-15173284D02*
X15099596Y-15316141D01*
X15099596Y-15316141D02*
X15166262Y-15173284D01*
X15166262Y-15173284D02*
X15166262Y-15373284D01*
X15347215Y-15373284D02*
X15347215Y-15268522D01*
X15347215Y-15268522D02*
X15337691Y-15249474D01*
X15337691Y-15249474D02*
X15318643Y-15239950D01*
X15318643Y-15239950D02*
X15280548Y-15239950D01*
X15280548Y-15239950D02*
X15261501Y-15249474D01*
X15347215Y-15363760D02*
X15328167Y-15373284D01*
X15328167Y-15373284D02*
X15280548Y-15373284D01*
X15280548Y-15373284D02*
X15261501Y-15363760D01*
X15261501Y-15363760D02*
X15251977Y-15344712D01*
X15251977Y-15344712D02*
X15251977Y-15325665D01*
X15251977Y-15325665D02*
X15261501Y-15306617D01*
X15261501Y-15306617D02*
X15280548Y-15297093D01*
X15280548Y-15297093D02*
X15328167Y-15297093D01*
X15328167Y-15297093D02*
X15347215Y-15287569D01*
X15442453Y-15239950D02*
X15442453Y-15439950D01*
X15442453Y-15249474D02*
X15461501Y-15239950D01*
X15461501Y-15239950D02*
X15499596Y-15239950D01*
X15499596Y-15239950D02*
X15518643Y-15249474D01*
X15518643Y-15249474D02*
X15528167Y-15258998D01*
X15528167Y-15258998D02*
X15537691Y-15278046D01*
X15537691Y-15278046D02*
X15537691Y-15335188D01*
X15537691Y-15335188D02*
X15528167Y-15354236D01*
X15528167Y-15354236D02*
X15518643Y-15363760D01*
X15518643Y-15363760D02*
X15499596Y-15373284D01*
X15499596Y-15373284D02*
X15461501Y-15373284D01*
X15461501Y-15373284D02*
X15442453Y-15363760D01*
X15623405Y-15354236D02*
X15632929Y-15363760D01*
X15632929Y-15363760D02*
X15623405Y-15373284D01*
X15623405Y-15373284D02*
X15613882Y-15363760D01*
X15613882Y-15363760D02*
X15623405Y-15354236D01*
X15623405Y-15354236D02*
X15623405Y-15373284D01*
X15623405Y-15249474D02*
X15632929Y-15258998D01*
X15632929Y-15258998D02*
X15623405Y-15268522D01*
X15623405Y-15268522D02*
X15613882Y-15258998D01*
X15613882Y-15258998D02*
X15623405Y-15249474D01*
X15623405Y-15249474D02*
X15623405Y-15268522D01*
D10*
X13951200Y-15681800D02*
X13991200Y-15721800D01*
X13991200Y-15681800D02*
X13951200Y-15721800D01*
D11*
X14290072Y-15593284D02*
X14309120Y-15593284D01*
X14309120Y-15593284D02*
X14328167Y-15602808D01*
X14328167Y-15602808D02*
X14337691Y-15612331D01*
X14337691Y-15612331D02*
X14347215Y-15631379D01*
X14347215Y-15631379D02*
X14356739Y-15669474D01*
X14356739Y-15669474D02*
X14356739Y-15717093D01*
X14356739Y-15717093D02*
X14347215Y-15755188D01*
X14347215Y-15755188D02*
X14337691Y-15774236D01*
X14337691Y-15774236D02*
X14328167Y-15783760D01*
X14328167Y-15783760D02*
X14309120Y-15793284D01*
X14309120Y-15793284D02*
X14290072Y-15793284D01*
X14290072Y-15793284D02*
X14271024Y-15783760D01*
X14271024Y-15783760D02*
X14261501Y-15774236D01*
X14261501Y-15774236D02*
X14251977Y-15755188D01*
X14251977Y-15755188D02*
X14242453Y-15717093D01*
X14242453Y-15717093D02*
X14242453Y-15669474D01*
X14242453Y-15669474D02*
X14251977Y-15631379D01*
X14251977Y-15631379D02*
X14261501Y-15612331D01*
X14261501Y-15612331D02*
X14271024Y-15602808D01*
X14271024Y-15602808D02*
X14290072Y-15593284D01*
X14442453Y-15774236D02*
X14451977Y-15783760D01*
X14451977Y-15783760D02*
X14442453Y-15793284D01*
X14442453Y-15793284D02*
X14432929Y-15783760D01*
X14432929Y-15783760D02*
X14442453Y-15774236D01*
X14442453Y-15774236D02*
X14442453Y-15793284D01*
X14623405Y-15659950D02*
X14623405Y-15793284D01*
X14575786Y-15583760D02*
X14528167Y-15726617D01*
X14528167Y-15726617D02*
X14651977Y-15726617D01*
X14766262Y-15593284D02*
X14785310Y-15593284D01*
X14785310Y-15593284D02*
X14804358Y-15602808D01*
X14804358Y-15602808D02*
X14813882Y-15612331D01*
X14813882Y-15612331D02*
X14823405Y-15631379D01*
X14823405Y-15631379D02*
X14832929Y-15669474D01*
X14832929Y-15669474D02*
X14832929Y-15717093D01*
X14832929Y-15717093D02*
X14823405Y-15755188D01*
X14823405Y-15755188D02*
X14813882Y-15774236D01*
X14813882Y-15774236D02*
X14804358Y-15783760D01*
X14804358Y-15783760D02*
X14785310Y-15793284D01*
X14785310Y-15793284D02*
X14766262Y-15793284D01*
X14766262Y-15793284D02*
X14747215Y-15783760D01*
X14747215Y-15783760D02*
X14737691Y-15774236D01*
X14737691Y-15774236D02*
X14728167Y-15755188D01*
X14728167Y-15755188D02*
X14718643Y-15717093D01*
X14718643Y-15717093D02*
X14718643Y-15669474D01*
X14718643Y-15669474D02*
X14728167Y-15631379D01*
X14728167Y-15631379D02*
X14737691Y-15612331D01*
X14737691Y-15612331D02*
X14747215Y-15602808D01*
X14747215Y-15602808D02*
X14766262Y-15593284D01*
X14956739Y-15593284D02*
X14975786Y-15593284D01*
X14975786Y-15593284D02*
X14994834Y-15602808D01*
X14994834Y-15602808D02*
X15004358Y-15612331D01*
X15004358Y-15612331D02*
X15013882Y-15631379D01*
X15013882Y-15631379D02*
X15023405Y-15669474D01*
X15023405Y-15669474D02*
X15023405Y-15717093D01*
X15023405Y-15717093D02*
X15013882Y-15755188D01*
X15013882Y-15755188D02*
X15004358Y-15774236D01*
X15004358Y-15774236D02*
X14994834Y-15783760D01*
X14994834Y-15783760D02*
X14975786Y-15793284D01*
X14975786Y-15793284D02*
X14956739Y-15793284D01*
X14956739Y-15793284D02*
X14937691Y-15783760D01*
X14937691Y-15783760D02*
X14928167Y-15774236D01*
X14928167Y-15774236D02*
X14918643Y-15755188D01*
X14918643Y-15755188D02*
X14909120Y-15717093D01*
X14909120Y-15717093D02*
X14909120Y-15669474D01*
X14909120Y-15669474D02*
X14918643Y-15631379D01*
X14918643Y-15631379D02*
X14928167Y-15612331D01*
X14928167Y-15612331D02*
X14937691Y-15602808D01*
X14937691Y-15602808D02*
X14956739Y-15593284D01*
X15109120Y-15793284D02*
X15109120Y-15659950D01*
X15109120Y-15678998D02*
X15118643Y-15669474D01*
X15118643Y-15669474D02*
X15137691Y-15659950D01*
X15137691Y-15659950D02*
X15166263Y-15659950D01*
X15166263Y-15659950D02*
X15185310Y-15669474D01*
X15185310Y-15669474D02*
X15194834Y-15688522D01*
X15194834Y-15688522D02*
X15194834Y-15793284D01*
X15194834Y-15688522D02*
X15204358Y-15669474D01*
X15204358Y-15669474D02*
X15223405Y-15659950D01*
X15223405Y-15659950D02*
X15251977Y-15659950D01*
X15251977Y-15659950D02*
X15271024Y-15669474D01*
X15271024Y-15669474D02*
X15280548Y-15688522D01*
X15280548Y-15688522D02*
X15280548Y-15793284D01*
X15375786Y-15793284D02*
X15375786Y-15659950D01*
X15375786Y-15678998D02*
X15385310Y-15669474D01*
X15385310Y-15669474D02*
X15404358Y-15659950D01*
X15404358Y-15659950D02*
X15432929Y-15659950D01*
X15432929Y-15659950D02*
X15451977Y-15669474D01*
X15451977Y-15669474D02*
X15461501Y-15688522D01*
X15461501Y-15688522D02*
X15461501Y-15793284D01*
X15461501Y-15688522D02*
X15471024Y-15669474D01*
X15471024Y-15669474D02*
X15490072Y-15659950D01*
X15490072Y-15659950D02*
X15518643Y-15659950D01*
X15518643Y-15659950D02*
X15537691Y-15669474D01*
X15537691Y-15669474D02*
X15547215Y-15688522D01*
X15547215Y-15688522D02*
X15547215Y-15793284D01*
X15937691Y-15583760D02*
X15766263Y-15840903D01*
X16194834Y-15593284D02*
X16213882Y-15593284D01*
X16213882Y-15593284D02*
X16232929Y-15602808D01*
X16232929Y-15602808D02*
X16242453Y-15612331D01*
X16242453Y-15612331D02*
X16251977Y-15631379D01*
X16251977Y-15631379D02*
X16261501Y-15669474D01*
X16261501Y-15669474D02*
X16261501Y-15717093D01*
X16261501Y-15717093D02*
X16251977Y-15755188D01*
X16251977Y-15755188D02*
X16242453Y-15774236D01*
X16242453Y-15774236D02*
X16232929Y-15783760D01*
X16232929Y-15783760D02*
X16213882Y-15793284D01*
X16213882Y-15793284D02*
X16194834Y-15793284D01*
X16194834Y-15793284D02*
X16175786Y-15783760D01*
X16175786Y-15783760D02*
X16166263Y-15774236D01*
X16166263Y-15774236D02*
X16156739Y-15755188D01*
X16156739Y-15755188D02*
X16147215Y-15717093D01*
X16147215Y-15717093D02*
X16147215Y-15669474D01*
X16147215Y-15669474D02*
X16156739Y-15631379D01*
X16156739Y-15631379D02*
X16166263Y-15612331D01*
X16166263Y-15612331D02*
X16175786Y-15602808D01*
X16175786Y-15602808D02*
X16194834Y-15593284D01*
X16347215Y-15774236D02*
X16356739Y-15783760D01*
X16356739Y-15783760D02*
X16347215Y-15793284D01*
X16347215Y-15793284D02*
X16337691Y-15783760D01*
X16337691Y-15783760D02*
X16347215Y-15774236D01*
X16347215Y-15774236D02*
X16347215Y-15793284D01*
X16480548Y-15593284D02*
X16499596Y-15593284D01*
X16499596Y-15593284D02*
X16518644Y-15602808D01*
X16518644Y-15602808D02*
X16528167Y-15612331D01*
X16528167Y-15612331D02*
X16537691Y-15631379D01*
X16537691Y-15631379D02*
X16547215Y-15669474D01*
X16547215Y-15669474D02*
X16547215Y-15717093D01*
X16547215Y-15717093D02*
X16537691Y-15755188D01*
X16537691Y-15755188D02*
X16528167Y-15774236D01*
X16528167Y-15774236D02*
X16518644Y-15783760D01*
X16518644Y-15783760D02*
X16499596Y-15793284D01*
X16499596Y-15793284D02*
X16480548Y-15793284D01*
X16480548Y-15793284D02*
X16461501Y-15783760D01*
X16461501Y-15783760D02*
X16451977Y-15774236D01*
X16451977Y-15774236D02*
X16442453Y-15755188D01*
X16442453Y-15755188D02*
X16432929Y-15717093D01*
X16432929Y-15717093D02*
X16432929Y-15669474D01*
X16432929Y-15669474D02*
X16442453Y-15631379D01*
X16442453Y-15631379D02*
X16451977Y-15612331D01*
X16451977Y-15612331D02*
X16461501Y-15602808D01*
X16461501Y-15602808D02*
X16480548Y-15593284D01*
X16737691Y-15793284D02*
X16623406Y-15793284D01*
X16680548Y-15793284D02*
X16680548Y-15593284D01*
X16680548Y-15593284D02*
X16661501Y-15621855D01*
X16661501Y-15621855D02*
X16642453Y-15640903D01*
X16642453Y-15640903D02*
X16623406Y-15650427D01*
X16918644Y-15593284D02*
X16823406Y-15593284D01*
X16823406Y-15593284D02*
X16813882Y-15688522D01*
X16813882Y-15688522D02*
X16823406Y-15678998D01*
X16823406Y-15678998D02*
X16842453Y-15669474D01*
X16842453Y-15669474D02*
X16890072Y-15669474D01*
X16890072Y-15669474D02*
X16909120Y-15678998D01*
X16909120Y-15678998D02*
X16918644Y-15688522D01*
X16918644Y-15688522D02*
X16928168Y-15707569D01*
X16928168Y-15707569D02*
X16928168Y-15755188D01*
X16928168Y-15755188D02*
X16918644Y-15774236D01*
X16918644Y-15774236D02*
X16909120Y-15783760D01*
X16909120Y-15783760D02*
X16890072Y-15793284D01*
X16890072Y-15793284D02*
X16842453Y-15793284D01*
X16842453Y-15793284D02*
X16823406Y-15783760D01*
X16823406Y-15783760D02*
X16813882Y-15774236D01*
X16994834Y-15593284D02*
X17128168Y-15593284D01*
X17128168Y-15593284D02*
X17042453Y-15793284D01*
X17194834Y-15593284D02*
X17194834Y-15631379D01*
X17271025Y-15593284D02*
X17271025Y-15631379D01*
X17566263Y-15869474D02*
X17556739Y-15859950D01*
X17556739Y-15859950D02*
X17537691Y-15831379D01*
X17537691Y-15831379D02*
X17528168Y-15812331D01*
X17528168Y-15812331D02*
X17518644Y-15783760D01*
X17518644Y-15783760D02*
X17509120Y-15736141D01*
X17509120Y-15736141D02*
X17509120Y-15698046D01*
X17509120Y-15698046D02*
X17518644Y-15650427D01*
X17518644Y-15650427D02*
X17528168Y-15621855D01*
X17528168Y-15621855D02*
X17537691Y-15602808D01*
X17537691Y-15602808D02*
X17556739Y-15574236D01*
X17556739Y-15574236D02*
X17566263Y-15564712D01*
X17747215Y-15793284D02*
X17632930Y-15793284D01*
X17690072Y-15793284D02*
X17690072Y-15593284D01*
X17690072Y-15593284D02*
X17671025Y-15621855D01*
X17671025Y-15621855D02*
X17651977Y-15640903D01*
X17651977Y-15640903D02*
X17632930Y-15650427D01*
X17871025Y-15593284D02*
X17890072Y-15593284D01*
X17890072Y-15593284D02*
X17909120Y-15602808D01*
X17909120Y-15602808D02*
X17918644Y-15612331D01*
X17918644Y-15612331D02*
X17928168Y-15631379D01*
X17928168Y-15631379D02*
X17937691Y-15669474D01*
X17937691Y-15669474D02*
X17937691Y-15717093D01*
X17937691Y-15717093D02*
X17928168Y-15755188D01*
X17928168Y-15755188D02*
X17918644Y-15774236D01*
X17918644Y-15774236D02*
X17909120Y-15783760D01*
X17909120Y-15783760D02*
X17890072Y-15793284D01*
X17890072Y-15793284D02*
X17871025Y-15793284D01*
X17871025Y-15793284D02*
X17851977Y-15783760D01*
X17851977Y-15783760D02*
X17842453Y-15774236D01*
X17842453Y-15774236D02*
X17832930Y-15755188D01*
X17832930Y-15755188D02*
X17823406Y-15717093D01*
X17823406Y-15717093D02*
X17823406Y-15669474D01*
X17823406Y-15669474D02*
X17832930Y-15631379D01*
X17832930Y-15631379D02*
X17842453Y-15612331D01*
X17842453Y-15612331D02*
X17851977Y-15602808D01*
X17851977Y-15602808D02*
X17871025Y-15593284D01*
X18175787Y-15793284D02*
X18175787Y-15593284D01*
X18261501Y-15793284D02*
X18261501Y-15688522D01*
X18261501Y-15688522D02*
X18251977Y-15669474D01*
X18251977Y-15669474D02*
X18232930Y-15659950D01*
X18232930Y-15659950D02*
X18204358Y-15659950D01*
X18204358Y-15659950D02*
X18185311Y-15669474D01*
X18185311Y-15669474D02*
X18175787Y-15678998D01*
X18385311Y-15793284D02*
X18366263Y-15783760D01*
X18366263Y-15783760D02*
X18356739Y-15774236D01*
X18356739Y-15774236D02*
X18347215Y-15755188D01*
X18347215Y-15755188D02*
X18347215Y-15698046D01*
X18347215Y-15698046D02*
X18356739Y-15678998D01*
X18356739Y-15678998D02*
X18366263Y-15669474D01*
X18366263Y-15669474D02*
X18385311Y-15659950D01*
X18385311Y-15659950D02*
X18413882Y-15659950D01*
X18413882Y-15659950D02*
X18432930Y-15669474D01*
X18432930Y-15669474D02*
X18442453Y-15678998D01*
X18442453Y-15678998D02*
X18451977Y-15698046D01*
X18451977Y-15698046D02*
X18451977Y-15755188D01*
X18451977Y-15755188D02*
X18442453Y-15774236D01*
X18442453Y-15774236D02*
X18432930Y-15783760D01*
X18432930Y-15783760D02*
X18413882Y-15793284D01*
X18413882Y-15793284D02*
X18385311Y-15793284D01*
X18566263Y-15793284D02*
X18547215Y-15783760D01*
X18547215Y-15783760D02*
X18537692Y-15764712D01*
X18537692Y-15764712D02*
X18537692Y-15593284D01*
X18718644Y-15783760D02*
X18699596Y-15793284D01*
X18699596Y-15793284D02*
X18661501Y-15793284D01*
X18661501Y-15793284D02*
X18642453Y-15783760D01*
X18642453Y-15783760D02*
X18632930Y-15764712D01*
X18632930Y-15764712D02*
X18632930Y-15688522D01*
X18632930Y-15688522D02*
X18642453Y-15669474D01*
X18642453Y-15669474D02*
X18661501Y-15659950D01*
X18661501Y-15659950D02*
X18699596Y-15659950D01*
X18699596Y-15659950D02*
X18718644Y-15669474D01*
X18718644Y-15669474D02*
X18728168Y-15688522D01*
X18728168Y-15688522D02*
X18728168Y-15707569D01*
X18728168Y-15707569D02*
X18632930Y-15726617D01*
X18804358Y-15783760D02*
X18823406Y-15793284D01*
X18823406Y-15793284D02*
X18861501Y-15793284D01*
X18861501Y-15793284D02*
X18880549Y-15783760D01*
X18880549Y-15783760D02*
X18890073Y-15764712D01*
X18890073Y-15764712D02*
X18890073Y-15755188D01*
X18890073Y-15755188D02*
X18880549Y-15736141D01*
X18880549Y-15736141D02*
X18861501Y-15726617D01*
X18861501Y-15726617D02*
X18832930Y-15726617D01*
X18832930Y-15726617D02*
X18813882Y-15717093D01*
X18813882Y-15717093D02*
X18804358Y-15698046D01*
X18804358Y-15698046D02*
X18804358Y-15688522D01*
X18804358Y-15688522D02*
X18813882Y-15669474D01*
X18813882Y-15669474D02*
X18832930Y-15659950D01*
X18832930Y-15659950D02*
X18861501Y-15659950D01*
X18861501Y-15659950D02*
X18880549Y-15669474D01*
X18956739Y-15869474D02*
X18966263Y-15859950D01*
X18966263Y-15859950D02*
X18985311Y-15831379D01*
X18985311Y-15831379D02*
X18994834Y-15812331D01*
X18994834Y-15812331D02*
X19004358Y-15783760D01*
X19004358Y-15783760D02*
X19013882Y-15736141D01*
X19013882Y-15736141D02*
X19013882Y-15698046D01*
X19013882Y-15698046D02*
X19004358Y-15650427D01*
X19004358Y-15650427D02*
X18994834Y-15621855D01*
X18994834Y-15621855D02*
X18985311Y-15602808D01*
X18985311Y-15602808D02*
X18966263Y-15574236D01*
X18966263Y-15574236D02*
X18956739Y-15564712D01*
D10*
X13991200Y-15965800D02*
G75*
G03*
X13991200Y-15965800I-40640J0D01*
G01*
D11*
X14290072Y-15857284D02*
X14309120Y-15857284D01*
X14309120Y-15857284D02*
X14328167Y-15866808D01*
X14328167Y-15866808D02*
X14337691Y-15876331D01*
X14337691Y-15876331D02*
X14347215Y-15895379D01*
X14347215Y-15895379D02*
X14356739Y-15933474D01*
X14356739Y-15933474D02*
X14356739Y-15981093D01*
X14356739Y-15981093D02*
X14347215Y-16019188D01*
X14347215Y-16019188D02*
X14337691Y-16038236D01*
X14337691Y-16038236D02*
X14328167Y-16047760D01*
X14328167Y-16047760D02*
X14309120Y-16057284D01*
X14309120Y-16057284D02*
X14290072Y-16057284D01*
X14290072Y-16057284D02*
X14271024Y-16047760D01*
X14271024Y-16047760D02*
X14261501Y-16038236D01*
X14261501Y-16038236D02*
X14251977Y-16019188D01*
X14251977Y-16019188D02*
X14242453Y-15981093D01*
X14242453Y-15981093D02*
X14242453Y-15933474D01*
X14242453Y-15933474D02*
X14251977Y-15895379D01*
X14251977Y-15895379D02*
X14261501Y-15876331D01*
X14261501Y-15876331D02*
X14271024Y-15866808D01*
X14271024Y-15866808D02*
X14290072Y-15857284D01*
X14442453Y-16038236D02*
X14451977Y-16047760D01*
X14451977Y-16047760D02*
X14442453Y-16057284D01*
X14442453Y-16057284D02*
X14432929Y-16047760D01*
X14432929Y-16047760D02*
X14442453Y-16038236D01*
X14442453Y-16038236D02*
X14442453Y-16057284D01*
X14566262Y-15942998D02*
X14547215Y-15933474D01*
X14547215Y-15933474D02*
X14537691Y-15923950D01*
X14537691Y-15923950D02*
X14528167Y-15904903D01*
X14528167Y-15904903D02*
X14528167Y-15895379D01*
X14528167Y-15895379D02*
X14537691Y-15876331D01*
X14537691Y-15876331D02*
X14547215Y-15866808D01*
X14547215Y-15866808D02*
X14566262Y-15857284D01*
X14566262Y-15857284D02*
X14604358Y-15857284D01*
X14604358Y-15857284D02*
X14623405Y-15866808D01*
X14623405Y-15866808D02*
X14632929Y-15876331D01*
X14632929Y-15876331D02*
X14642453Y-15895379D01*
X14642453Y-15895379D02*
X14642453Y-15904903D01*
X14642453Y-15904903D02*
X14632929Y-15923950D01*
X14632929Y-15923950D02*
X14623405Y-15933474D01*
X14623405Y-15933474D02*
X14604358Y-15942998D01*
X14604358Y-15942998D02*
X14566262Y-15942998D01*
X14566262Y-15942998D02*
X14547215Y-15952522D01*
X14547215Y-15952522D02*
X14537691Y-15962046D01*
X14537691Y-15962046D02*
X14528167Y-15981093D01*
X14528167Y-15981093D02*
X14528167Y-16019188D01*
X14528167Y-16019188D02*
X14537691Y-16038236D01*
X14537691Y-16038236D02*
X14547215Y-16047760D01*
X14547215Y-16047760D02*
X14566262Y-16057284D01*
X14566262Y-16057284D02*
X14604358Y-16057284D01*
X14604358Y-16057284D02*
X14623405Y-16047760D01*
X14623405Y-16047760D02*
X14632929Y-16038236D01*
X14632929Y-16038236D02*
X14642453Y-16019188D01*
X14642453Y-16019188D02*
X14642453Y-15981093D01*
X14642453Y-15981093D02*
X14632929Y-15962046D01*
X14632929Y-15962046D02*
X14623405Y-15952522D01*
X14623405Y-15952522D02*
X14604358Y-15942998D01*
X14832929Y-16057284D02*
X14718643Y-16057284D01*
X14775786Y-16057284D02*
X14775786Y-15857284D01*
X14775786Y-15857284D02*
X14756739Y-15885855D01*
X14756739Y-15885855D02*
X14737691Y-15904903D01*
X14737691Y-15904903D02*
X14718643Y-15914427D01*
X14899596Y-15857284D02*
X15023405Y-15857284D01*
X15023405Y-15857284D02*
X14956739Y-15933474D01*
X14956739Y-15933474D02*
X14985310Y-15933474D01*
X14985310Y-15933474D02*
X15004358Y-15942998D01*
X15004358Y-15942998D02*
X15013882Y-15952522D01*
X15013882Y-15952522D02*
X15023405Y-15971569D01*
X15023405Y-15971569D02*
X15023405Y-16019188D01*
X15023405Y-16019188D02*
X15013882Y-16038236D01*
X15013882Y-16038236D02*
X15004358Y-16047760D01*
X15004358Y-16047760D02*
X14985310Y-16057284D01*
X14985310Y-16057284D02*
X14928167Y-16057284D01*
X14928167Y-16057284D02*
X14909120Y-16047760D01*
X14909120Y-16047760D02*
X14899596Y-16038236D01*
X15109120Y-16057284D02*
X15109120Y-15923950D01*
X15109120Y-15942998D02*
X15118643Y-15933474D01*
X15118643Y-15933474D02*
X15137691Y-15923950D01*
X15137691Y-15923950D02*
X15166263Y-15923950D01*
X15166263Y-15923950D02*
X15185310Y-15933474D01*
X15185310Y-15933474D02*
X15194834Y-15952522D01*
X15194834Y-15952522D02*
X15194834Y-16057284D01*
X15194834Y-15952522D02*
X15204358Y-15933474D01*
X15204358Y-15933474D02*
X15223405Y-15923950D01*
X15223405Y-15923950D02*
X15251977Y-15923950D01*
X15251977Y-15923950D02*
X15271024Y-15933474D01*
X15271024Y-15933474D02*
X15280548Y-15952522D01*
X15280548Y-15952522D02*
X15280548Y-16057284D01*
X15375786Y-16057284D02*
X15375786Y-15923950D01*
X15375786Y-15942998D02*
X15385310Y-15933474D01*
X15385310Y-15933474D02*
X15404358Y-15923950D01*
X15404358Y-15923950D02*
X15432929Y-15923950D01*
X15432929Y-15923950D02*
X15451977Y-15933474D01*
X15451977Y-15933474D02*
X15461501Y-15952522D01*
X15461501Y-15952522D02*
X15461501Y-16057284D01*
X15461501Y-15952522D02*
X15471024Y-15933474D01*
X15471024Y-15933474D02*
X15490072Y-15923950D01*
X15490072Y-15923950D02*
X15518643Y-15923950D01*
X15518643Y-15923950D02*
X15537691Y-15933474D01*
X15537691Y-15933474D02*
X15547215Y-15952522D01*
X15547215Y-15952522D02*
X15547215Y-16057284D01*
X15937691Y-15847760D02*
X15766263Y-16104903D01*
X16194834Y-15857284D02*
X16213882Y-15857284D01*
X16213882Y-15857284D02*
X16232929Y-15866808D01*
X16232929Y-15866808D02*
X16242453Y-15876331D01*
X16242453Y-15876331D02*
X16251977Y-15895379D01*
X16251977Y-15895379D02*
X16261501Y-15933474D01*
X16261501Y-15933474D02*
X16261501Y-15981093D01*
X16261501Y-15981093D02*
X16251977Y-16019188D01*
X16251977Y-16019188D02*
X16242453Y-16038236D01*
X16242453Y-16038236D02*
X16232929Y-16047760D01*
X16232929Y-16047760D02*
X16213882Y-16057284D01*
X16213882Y-16057284D02*
X16194834Y-16057284D01*
X16194834Y-16057284D02*
X16175786Y-16047760D01*
X16175786Y-16047760D02*
X16166263Y-16038236D01*
X16166263Y-16038236D02*
X16156739Y-16019188D01*
X16156739Y-16019188D02*
X16147215Y-15981093D01*
X16147215Y-15981093D02*
X16147215Y-15933474D01*
X16147215Y-15933474D02*
X16156739Y-15895379D01*
X16156739Y-15895379D02*
X16166263Y-15876331D01*
X16166263Y-15876331D02*
X16175786Y-15866808D01*
X16175786Y-15866808D02*
X16194834Y-15857284D01*
X16347215Y-16038236D02*
X16356739Y-16047760D01*
X16356739Y-16047760D02*
X16347215Y-16057284D01*
X16347215Y-16057284D02*
X16337691Y-16047760D01*
X16337691Y-16047760D02*
X16347215Y-16038236D01*
X16347215Y-16038236D02*
X16347215Y-16057284D01*
X16480548Y-15857284D02*
X16499596Y-15857284D01*
X16499596Y-15857284D02*
X16518644Y-15866808D01*
X16518644Y-15866808D02*
X16528167Y-15876331D01*
X16528167Y-15876331D02*
X16537691Y-15895379D01*
X16537691Y-15895379D02*
X16547215Y-15933474D01*
X16547215Y-15933474D02*
X16547215Y-15981093D01*
X16547215Y-15981093D02*
X16537691Y-16019188D01*
X16537691Y-16019188D02*
X16528167Y-16038236D01*
X16528167Y-16038236D02*
X16518644Y-16047760D01*
X16518644Y-16047760D02*
X16499596Y-16057284D01*
X16499596Y-16057284D02*
X16480548Y-16057284D01*
X16480548Y-16057284D02*
X16461501Y-16047760D01*
X16461501Y-16047760D02*
X16451977Y-16038236D01*
X16451977Y-16038236D02*
X16442453Y-16019188D01*
X16442453Y-16019188D02*
X16432929Y-15981093D01*
X16432929Y-15981093D02*
X16432929Y-15933474D01*
X16432929Y-15933474D02*
X16442453Y-15895379D01*
X16442453Y-15895379D02*
X16451977Y-15876331D01*
X16451977Y-15876331D02*
X16461501Y-15866808D01*
X16461501Y-15866808D02*
X16480548Y-15857284D01*
X16613882Y-15857284D02*
X16737691Y-15857284D01*
X16737691Y-15857284D02*
X16671025Y-15933474D01*
X16671025Y-15933474D02*
X16699596Y-15933474D01*
X16699596Y-15933474D02*
X16718644Y-15942998D01*
X16718644Y-15942998D02*
X16728167Y-15952522D01*
X16728167Y-15952522D02*
X16737691Y-15971569D01*
X16737691Y-15971569D02*
X16737691Y-16019188D01*
X16737691Y-16019188D02*
X16728167Y-16038236D01*
X16728167Y-16038236D02*
X16718644Y-16047760D01*
X16718644Y-16047760D02*
X16699596Y-16057284D01*
X16699596Y-16057284D02*
X16642453Y-16057284D01*
X16642453Y-16057284D02*
X16623406Y-16047760D01*
X16623406Y-16047760D02*
X16613882Y-16038236D01*
X16813882Y-15876331D02*
X16823406Y-15866808D01*
X16823406Y-15866808D02*
X16842453Y-15857284D01*
X16842453Y-15857284D02*
X16890072Y-15857284D01*
X16890072Y-15857284D02*
X16909120Y-15866808D01*
X16909120Y-15866808D02*
X16918644Y-15876331D01*
X16918644Y-15876331D02*
X16928168Y-15895379D01*
X16928168Y-15895379D02*
X16928168Y-15914427D01*
X16928168Y-15914427D02*
X16918644Y-15942998D01*
X16918644Y-15942998D02*
X16804358Y-16057284D01*
X16804358Y-16057284D02*
X16928168Y-16057284D01*
X17051977Y-15857284D02*
X17071025Y-15857284D01*
X17071025Y-15857284D02*
X17090072Y-15866808D01*
X17090072Y-15866808D02*
X17099596Y-15876331D01*
X17099596Y-15876331D02*
X17109120Y-15895379D01*
X17109120Y-15895379D02*
X17118644Y-15933474D01*
X17118644Y-15933474D02*
X17118644Y-15981093D01*
X17118644Y-15981093D02*
X17109120Y-16019188D01*
X17109120Y-16019188D02*
X17099596Y-16038236D01*
X17099596Y-16038236D02*
X17090072Y-16047760D01*
X17090072Y-16047760D02*
X17071025Y-16057284D01*
X17071025Y-16057284D02*
X17051977Y-16057284D01*
X17051977Y-16057284D02*
X17032929Y-16047760D01*
X17032929Y-16047760D02*
X17023406Y-16038236D01*
X17023406Y-16038236D02*
X17013882Y-16019188D01*
X17013882Y-16019188D02*
X17004358Y-15981093D01*
X17004358Y-15981093D02*
X17004358Y-15933474D01*
X17004358Y-15933474D02*
X17013882Y-15895379D01*
X17013882Y-15895379D02*
X17023406Y-15876331D01*
X17023406Y-15876331D02*
X17032929Y-15866808D01*
X17032929Y-15866808D02*
X17051977Y-15857284D01*
X17194834Y-15857284D02*
X17194834Y-15895379D01*
X17271025Y-15857284D02*
X17271025Y-15895379D01*
X17566263Y-16133474D02*
X17556739Y-16123950D01*
X17556739Y-16123950D02*
X17537691Y-16095379D01*
X17537691Y-16095379D02*
X17528168Y-16076331D01*
X17528168Y-16076331D02*
X17518644Y-16047760D01*
X17518644Y-16047760D02*
X17509120Y-16000141D01*
X17509120Y-16000141D02*
X17509120Y-15962046D01*
X17509120Y-15962046D02*
X17518644Y-15914427D01*
X17518644Y-15914427D02*
X17528168Y-15885855D01*
X17528168Y-15885855D02*
X17537691Y-15866808D01*
X17537691Y-15866808D02*
X17556739Y-15838236D01*
X17556739Y-15838236D02*
X17566263Y-15828712D01*
X17623406Y-15857284D02*
X17747215Y-15857284D01*
X17747215Y-15857284D02*
X17680549Y-15933474D01*
X17680549Y-15933474D02*
X17709120Y-15933474D01*
X17709120Y-15933474D02*
X17728168Y-15942998D01*
X17728168Y-15942998D02*
X17737691Y-15952522D01*
X17737691Y-15952522D02*
X17747215Y-15971569D01*
X17747215Y-15971569D02*
X17747215Y-16019188D01*
X17747215Y-16019188D02*
X17737691Y-16038236D01*
X17737691Y-16038236D02*
X17728168Y-16047760D01*
X17728168Y-16047760D02*
X17709120Y-16057284D01*
X17709120Y-16057284D02*
X17651977Y-16057284D01*
X17651977Y-16057284D02*
X17632930Y-16047760D01*
X17632930Y-16047760D02*
X17623406Y-16038236D01*
X17985311Y-16057284D02*
X17985311Y-15857284D01*
X18071025Y-16057284D02*
X18071025Y-15952522D01*
X18071025Y-15952522D02*
X18061501Y-15933474D01*
X18061501Y-15933474D02*
X18042453Y-15923950D01*
X18042453Y-15923950D02*
X18013882Y-15923950D01*
X18013882Y-15923950D02*
X17994834Y-15933474D01*
X17994834Y-15933474D02*
X17985311Y-15942998D01*
X18194834Y-16057284D02*
X18175787Y-16047760D01*
X18175787Y-16047760D02*
X18166263Y-16038236D01*
X18166263Y-16038236D02*
X18156739Y-16019188D01*
X18156739Y-16019188D02*
X18156739Y-15962046D01*
X18156739Y-15962046D02*
X18166263Y-15942998D01*
X18166263Y-15942998D02*
X18175787Y-15933474D01*
X18175787Y-15933474D02*
X18194834Y-15923950D01*
X18194834Y-15923950D02*
X18223406Y-15923950D01*
X18223406Y-15923950D02*
X18242453Y-15933474D01*
X18242453Y-15933474D02*
X18251977Y-15942998D01*
X18251977Y-15942998D02*
X18261501Y-15962046D01*
X18261501Y-15962046D02*
X18261501Y-16019188D01*
X18261501Y-16019188D02*
X18251977Y-16038236D01*
X18251977Y-16038236D02*
X18242453Y-16047760D01*
X18242453Y-16047760D02*
X18223406Y-16057284D01*
X18223406Y-16057284D02*
X18194834Y-16057284D01*
X18375787Y-16057284D02*
X18356739Y-16047760D01*
X18356739Y-16047760D02*
X18347215Y-16028712D01*
X18347215Y-16028712D02*
X18347215Y-15857284D01*
X18528168Y-16047760D02*
X18509120Y-16057284D01*
X18509120Y-16057284D02*
X18471025Y-16057284D01*
X18471025Y-16057284D02*
X18451977Y-16047760D01*
X18451977Y-16047760D02*
X18442453Y-16028712D01*
X18442453Y-16028712D02*
X18442453Y-15952522D01*
X18442453Y-15952522D02*
X18451977Y-15933474D01*
X18451977Y-15933474D02*
X18471025Y-15923950D01*
X18471025Y-15923950D02*
X18509120Y-15923950D01*
X18509120Y-15923950D02*
X18528168Y-15933474D01*
X18528168Y-15933474D02*
X18537692Y-15952522D01*
X18537692Y-15952522D02*
X18537692Y-15971569D01*
X18537692Y-15971569D02*
X18442453Y-15990617D01*
X18613882Y-16047760D02*
X18632930Y-16057284D01*
X18632930Y-16057284D02*
X18671025Y-16057284D01*
X18671025Y-16057284D02*
X18690073Y-16047760D01*
X18690073Y-16047760D02*
X18699596Y-16028712D01*
X18699596Y-16028712D02*
X18699596Y-16019188D01*
X18699596Y-16019188D02*
X18690073Y-16000141D01*
X18690073Y-16000141D02*
X18671025Y-15990617D01*
X18671025Y-15990617D02*
X18642453Y-15990617D01*
X18642453Y-15990617D02*
X18623406Y-15981093D01*
X18623406Y-15981093D02*
X18613882Y-15962046D01*
X18613882Y-15962046D02*
X18613882Y-15952522D01*
X18613882Y-15952522D02*
X18623406Y-15933474D01*
X18623406Y-15933474D02*
X18642453Y-15923950D01*
X18642453Y-15923950D02*
X18671025Y-15923950D01*
X18671025Y-15923950D02*
X18690073Y-15933474D01*
X18766263Y-16133474D02*
X18775787Y-16123950D01*
X18775787Y-16123950D02*
X18794834Y-16095379D01*
X18794834Y-16095379D02*
X18804358Y-16076331D01*
X18804358Y-16076331D02*
X18813882Y-16047760D01*
X18813882Y-16047760D02*
X18823406Y-16000141D01*
X18823406Y-16000141D02*
X18823406Y-15962046D01*
X18823406Y-15962046D02*
X18813882Y-15914427D01*
X18813882Y-15914427D02*
X18804358Y-15885855D01*
X18804358Y-15885855D02*
X18794834Y-15866808D01*
X18794834Y-15866808D02*
X18775787Y-15838236D01*
X18775787Y-15838236D02*
X18766263Y-15828712D01*
D12*
X13916270Y-16154870D02*
X13916270Y-16304730D01*
X13841340Y-16229800D02*
X13991200Y-16229800D01*
D11*
X14356739Y-16321284D02*
X14242453Y-16321284D01*
X14299596Y-16321284D02*
X14299596Y-16121284D01*
X14299596Y-16121284D02*
X14280548Y-16149855D01*
X14280548Y-16149855D02*
X14261501Y-16168903D01*
X14261501Y-16168903D02*
X14242453Y-16178427D01*
X14442453Y-16302236D02*
X14451977Y-16311760D01*
X14451977Y-16311760D02*
X14442453Y-16321284D01*
X14442453Y-16321284D02*
X14432929Y-16311760D01*
X14432929Y-16311760D02*
X14442453Y-16302236D01*
X14442453Y-16302236D02*
X14442453Y-16321284D01*
X14623405Y-16187950D02*
X14623405Y-16321284D01*
X14575786Y-16111760D02*
X14528167Y-16254617D01*
X14528167Y-16254617D02*
X14651977Y-16254617D01*
X14737691Y-16321284D02*
X14775786Y-16321284D01*
X14775786Y-16321284D02*
X14794834Y-16311760D01*
X14794834Y-16311760D02*
X14804358Y-16302236D01*
X14804358Y-16302236D02*
X14823405Y-16273665D01*
X14823405Y-16273665D02*
X14832929Y-16235569D01*
X14832929Y-16235569D02*
X14832929Y-16159379D01*
X14832929Y-16159379D02*
X14823405Y-16140331D01*
X14823405Y-16140331D02*
X14813882Y-16130808D01*
X14813882Y-16130808D02*
X14794834Y-16121284D01*
X14794834Y-16121284D02*
X14756739Y-16121284D01*
X14756739Y-16121284D02*
X14737691Y-16130808D01*
X14737691Y-16130808D02*
X14728167Y-16140331D01*
X14728167Y-16140331D02*
X14718643Y-16159379D01*
X14718643Y-16159379D02*
X14718643Y-16206998D01*
X14718643Y-16206998D02*
X14728167Y-16226046D01*
X14728167Y-16226046D02*
X14737691Y-16235569D01*
X14737691Y-16235569D02*
X14756739Y-16245093D01*
X14756739Y-16245093D02*
X14794834Y-16245093D01*
X14794834Y-16245093D02*
X14813882Y-16235569D01*
X14813882Y-16235569D02*
X14823405Y-16226046D01*
X14823405Y-16226046D02*
X14832929Y-16206998D01*
X14928167Y-16321284D02*
X14966262Y-16321284D01*
X14966262Y-16321284D02*
X14985310Y-16311760D01*
X14985310Y-16311760D02*
X14994834Y-16302236D01*
X14994834Y-16302236D02*
X15013882Y-16273665D01*
X15013882Y-16273665D02*
X15023405Y-16235569D01*
X15023405Y-16235569D02*
X15023405Y-16159379D01*
X15023405Y-16159379D02*
X15013882Y-16140331D01*
X15013882Y-16140331D02*
X15004358Y-16130808D01*
X15004358Y-16130808D02*
X14985310Y-16121284D01*
X14985310Y-16121284D02*
X14947215Y-16121284D01*
X14947215Y-16121284D02*
X14928167Y-16130808D01*
X14928167Y-16130808D02*
X14918643Y-16140331D01*
X14918643Y-16140331D02*
X14909120Y-16159379D01*
X14909120Y-16159379D02*
X14909120Y-16206998D01*
X14909120Y-16206998D02*
X14918643Y-16226046D01*
X14918643Y-16226046D02*
X14928167Y-16235569D01*
X14928167Y-16235569D02*
X14947215Y-16245093D01*
X14947215Y-16245093D02*
X14985310Y-16245093D01*
X14985310Y-16245093D02*
X15004358Y-16235569D01*
X15004358Y-16235569D02*
X15013882Y-16226046D01*
X15013882Y-16226046D02*
X15023405Y-16206998D01*
X15109120Y-16321284D02*
X15109120Y-16187950D01*
X15109120Y-16206998D02*
X15118643Y-16197474D01*
X15118643Y-16197474D02*
X15137691Y-16187950D01*
X15137691Y-16187950D02*
X15166263Y-16187950D01*
X15166263Y-16187950D02*
X15185310Y-16197474D01*
X15185310Y-16197474D02*
X15194834Y-16216522D01*
X15194834Y-16216522D02*
X15194834Y-16321284D01*
X15194834Y-16216522D02*
X15204358Y-16197474D01*
X15204358Y-16197474D02*
X15223405Y-16187950D01*
X15223405Y-16187950D02*
X15251977Y-16187950D01*
X15251977Y-16187950D02*
X15271024Y-16197474D01*
X15271024Y-16197474D02*
X15280548Y-16216522D01*
X15280548Y-16216522D02*
X15280548Y-16321284D01*
X15375786Y-16321284D02*
X15375786Y-16187950D01*
X15375786Y-16206998D02*
X15385310Y-16197474D01*
X15385310Y-16197474D02*
X15404358Y-16187950D01*
X15404358Y-16187950D02*
X15432929Y-16187950D01*
X15432929Y-16187950D02*
X15451977Y-16197474D01*
X15451977Y-16197474D02*
X15461501Y-16216522D01*
X15461501Y-16216522D02*
X15461501Y-16321284D01*
X15461501Y-16216522D02*
X15471024Y-16197474D01*
X15471024Y-16197474D02*
X15490072Y-16187950D01*
X15490072Y-16187950D02*
X15518643Y-16187950D01*
X15518643Y-16187950D02*
X15537691Y-16197474D01*
X15537691Y-16197474D02*
X15547215Y-16216522D01*
X15547215Y-16216522D02*
X15547215Y-16321284D01*
X15937691Y-16111760D02*
X15766263Y-16368903D01*
X16194834Y-16121284D02*
X16213882Y-16121284D01*
X16213882Y-16121284D02*
X16232929Y-16130808D01*
X16232929Y-16130808D02*
X16242453Y-16140331D01*
X16242453Y-16140331D02*
X16251977Y-16159379D01*
X16251977Y-16159379D02*
X16261501Y-16197474D01*
X16261501Y-16197474D02*
X16261501Y-16245093D01*
X16261501Y-16245093D02*
X16251977Y-16283188D01*
X16251977Y-16283188D02*
X16242453Y-16302236D01*
X16242453Y-16302236D02*
X16232929Y-16311760D01*
X16232929Y-16311760D02*
X16213882Y-16321284D01*
X16213882Y-16321284D02*
X16194834Y-16321284D01*
X16194834Y-16321284D02*
X16175786Y-16311760D01*
X16175786Y-16311760D02*
X16166263Y-16302236D01*
X16166263Y-16302236D02*
X16156739Y-16283188D01*
X16156739Y-16283188D02*
X16147215Y-16245093D01*
X16147215Y-16245093D02*
X16147215Y-16197474D01*
X16147215Y-16197474D02*
X16156739Y-16159379D01*
X16156739Y-16159379D02*
X16166263Y-16140331D01*
X16166263Y-16140331D02*
X16175786Y-16130808D01*
X16175786Y-16130808D02*
X16194834Y-16121284D01*
X16347215Y-16302236D02*
X16356739Y-16311760D01*
X16356739Y-16311760D02*
X16347215Y-16321284D01*
X16347215Y-16321284D02*
X16337691Y-16311760D01*
X16337691Y-16311760D02*
X16347215Y-16302236D01*
X16347215Y-16302236D02*
X16347215Y-16321284D01*
X16480548Y-16121284D02*
X16499596Y-16121284D01*
X16499596Y-16121284D02*
X16518644Y-16130808D01*
X16518644Y-16130808D02*
X16528167Y-16140331D01*
X16528167Y-16140331D02*
X16537691Y-16159379D01*
X16537691Y-16159379D02*
X16547215Y-16197474D01*
X16547215Y-16197474D02*
X16547215Y-16245093D01*
X16547215Y-16245093D02*
X16537691Y-16283188D01*
X16537691Y-16283188D02*
X16528167Y-16302236D01*
X16528167Y-16302236D02*
X16518644Y-16311760D01*
X16518644Y-16311760D02*
X16499596Y-16321284D01*
X16499596Y-16321284D02*
X16480548Y-16321284D01*
X16480548Y-16321284D02*
X16461501Y-16311760D01*
X16461501Y-16311760D02*
X16451977Y-16302236D01*
X16451977Y-16302236D02*
X16442453Y-16283188D01*
X16442453Y-16283188D02*
X16432929Y-16245093D01*
X16432929Y-16245093D02*
X16432929Y-16197474D01*
X16432929Y-16197474D02*
X16442453Y-16159379D01*
X16442453Y-16159379D02*
X16451977Y-16140331D01*
X16451977Y-16140331D02*
X16461501Y-16130808D01*
X16461501Y-16130808D02*
X16480548Y-16121284D01*
X16728167Y-16121284D02*
X16632929Y-16121284D01*
X16632929Y-16121284D02*
X16623406Y-16216522D01*
X16623406Y-16216522D02*
X16632929Y-16206998D01*
X16632929Y-16206998D02*
X16651977Y-16197474D01*
X16651977Y-16197474D02*
X16699596Y-16197474D01*
X16699596Y-16197474D02*
X16718644Y-16206998D01*
X16718644Y-16206998D02*
X16728167Y-16216522D01*
X16728167Y-16216522D02*
X16737691Y-16235569D01*
X16737691Y-16235569D02*
X16737691Y-16283188D01*
X16737691Y-16283188D02*
X16728167Y-16302236D01*
X16728167Y-16302236D02*
X16718644Y-16311760D01*
X16718644Y-16311760D02*
X16699596Y-16321284D01*
X16699596Y-16321284D02*
X16651977Y-16321284D01*
X16651977Y-16321284D02*
X16632929Y-16311760D01*
X16632929Y-16311760D02*
X16623406Y-16302236D01*
X16832929Y-16321284D02*
X16871025Y-16321284D01*
X16871025Y-16321284D02*
X16890072Y-16311760D01*
X16890072Y-16311760D02*
X16899596Y-16302236D01*
X16899596Y-16302236D02*
X16918644Y-16273665D01*
X16918644Y-16273665D02*
X16928168Y-16235569D01*
X16928168Y-16235569D02*
X16928168Y-16159379D01*
X16928168Y-16159379D02*
X16918644Y-16140331D01*
X16918644Y-16140331D02*
X16909120Y-16130808D01*
X16909120Y-16130808D02*
X16890072Y-16121284D01*
X16890072Y-16121284D02*
X16851977Y-16121284D01*
X16851977Y-16121284D02*
X16832929Y-16130808D01*
X16832929Y-16130808D02*
X16823406Y-16140331D01*
X16823406Y-16140331D02*
X16813882Y-16159379D01*
X16813882Y-16159379D02*
X16813882Y-16206998D01*
X16813882Y-16206998D02*
X16823406Y-16226046D01*
X16823406Y-16226046D02*
X16832929Y-16235569D01*
X16832929Y-16235569D02*
X16851977Y-16245093D01*
X16851977Y-16245093D02*
X16890072Y-16245093D01*
X16890072Y-16245093D02*
X16909120Y-16235569D01*
X16909120Y-16235569D02*
X16918644Y-16226046D01*
X16918644Y-16226046D02*
X16928168Y-16206998D01*
X17051977Y-16121284D02*
X17071025Y-16121284D01*
X17071025Y-16121284D02*
X17090072Y-16130808D01*
X17090072Y-16130808D02*
X17099596Y-16140331D01*
X17099596Y-16140331D02*
X17109120Y-16159379D01*
X17109120Y-16159379D02*
X17118644Y-16197474D01*
X17118644Y-16197474D02*
X17118644Y-16245093D01*
X17118644Y-16245093D02*
X17109120Y-16283188D01*
X17109120Y-16283188D02*
X17099596Y-16302236D01*
X17099596Y-16302236D02*
X17090072Y-16311760D01*
X17090072Y-16311760D02*
X17071025Y-16321284D01*
X17071025Y-16321284D02*
X17051977Y-16321284D01*
X17051977Y-16321284D02*
X17032929Y-16311760D01*
X17032929Y-16311760D02*
X17023406Y-16302236D01*
X17023406Y-16302236D02*
X17013882Y-16283188D01*
X17013882Y-16283188D02*
X17004358Y-16245093D01*
X17004358Y-16245093D02*
X17004358Y-16197474D01*
X17004358Y-16197474D02*
X17013882Y-16159379D01*
X17013882Y-16159379D02*
X17023406Y-16140331D01*
X17023406Y-16140331D02*
X17032929Y-16130808D01*
X17032929Y-16130808D02*
X17051977Y-16121284D01*
X17194834Y-16121284D02*
X17194834Y-16159379D01*
X17271025Y-16121284D02*
X17271025Y-16159379D01*
X17566263Y-16397474D02*
X17556739Y-16387950D01*
X17556739Y-16387950D02*
X17537691Y-16359379D01*
X17537691Y-16359379D02*
X17528168Y-16340331D01*
X17528168Y-16340331D02*
X17518644Y-16311760D01*
X17518644Y-16311760D02*
X17509120Y-16264141D01*
X17509120Y-16264141D02*
X17509120Y-16226046D01*
X17509120Y-16226046D02*
X17518644Y-16178427D01*
X17518644Y-16178427D02*
X17528168Y-16149855D01*
X17528168Y-16149855D02*
X17537691Y-16130808D01*
X17537691Y-16130808D02*
X17556739Y-16102236D01*
X17556739Y-16102236D02*
X17566263Y-16092712D01*
X17632930Y-16140331D02*
X17642453Y-16130808D01*
X17642453Y-16130808D02*
X17661501Y-16121284D01*
X17661501Y-16121284D02*
X17709120Y-16121284D01*
X17709120Y-16121284D02*
X17728168Y-16130808D01*
X17728168Y-16130808D02*
X17737691Y-16140331D01*
X17737691Y-16140331D02*
X17747215Y-16159379D01*
X17747215Y-16159379D02*
X17747215Y-16178427D01*
X17747215Y-16178427D02*
X17737691Y-16206998D01*
X17737691Y-16206998D02*
X17623406Y-16321284D01*
X17623406Y-16321284D02*
X17747215Y-16321284D01*
X17985311Y-16321284D02*
X17985311Y-16121284D01*
X18071025Y-16321284D02*
X18071025Y-16216522D01*
X18071025Y-16216522D02*
X18061501Y-16197474D01*
X18061501Y-16197474D02*
X18042453Y-16187950D01*
X18042453Y-16187950D02*
X18013882Y-16187950D01*
X18013882Y-16187950D02*
X17994834Y-16197474D01*
X17994834Y-16197474D02*
X17985311Y-16206998D01*
X18194834Y-16321284D02*
X18175787Y-16311760D01*
X18175787Y-16311760D02*
X18166263Y-16302236D01*
X18166263Y-16302236D02*
X18156739Y-16283188D01*
X18156739Y-16283188D02*
X18156739Y-16226046D01*
X18156739Y-16226046D02*
X18166263Y-16206998D01*
X18166263Y-16206998D02*
X18175787Y-16197474D01*
X18175787Y-16197474D02*
X18194834Y-16187950D01*
X18194834Y-16187950D02*
X18223406Y-16187950D01*
X18223406Y-16187950D02*
X18242453Y-16197474D01*
X18242453Y-16197474D02*
X18251977Y-16206998D01*
X18251977Y-16206998D02*
X18261501Y-16226046D01*
X18261501Y-16226046D02*
X18261501Y-16283188D01*
X18261501Y-16283188D02*
X18251977Y-16302236D01*
X18251977Y-16302236D02*
X18242453Y-16311760D01*
X18242453Y-16311760D02*
X18223406Y-16321284D01*
X18223406Y-16321284D02*
X18194834Y-16321284D01*
X18375787Y-16321284D02*
X18356739Y-16311760D01*
X18356739Y-16311760D02*
X18347215Y-16292712D01*
X18347215Y-16292712D02*
X18347215Y-16121284D01*
X18528168Y-16311760D02*
X18509120Y-16321284D01*
X18509120Y-16321284D02*
X18471025Y-16321284D01*
X18471025Y-16321284D02*
X18451977Y-16311760D01*
X18451977Y-16311760D02*
X18442453Y-16292712D01*
X18442453Y-16292712D02*
X18442453Y-16216522D01*
X18442453Y-16216522D02*
X18451977Y-16197474D01*
X18451977Y-16197474D02*
X18471025Y-16187950D01*
X18471025Y-16187950D02*
X18509120Y-16187950D01*
X18509120Y-16187950D02*
X18528168Y-16197474D01*
X18528168Y-16197474D02*
X18537692Y-16216522D01*
X18537692Y-16216522D02*
X18537692Y-16235569D01*
X18537692Y-16235569D02*
X18442453Y-16254617D01*
X18613882Y-16311760D02*
X18632930Y-16321284D01*
X18632930Y-16321284D02*
X18671025Y-16321284D01*
X18671025Y-16321284D02*
X18690073Y-16311760D01*
X18690073Y-16311760D02*
X18699596Y-16292712D01*
X18699596Y-16292712D02*
X18699596Y-16283188D01*
X18699596Y-16283188D02*
X18690073Y-16264141D01*
X18690073Y-16264141D02*
X18671025Y-16254617D01*
X18671025Y-16254617D02*
X18642453Y-16254617D01*
X18642453Y-16254617D02*
X18623406Y-16245093D01*
X18623406Y-16245093D02*
X18613882Y-16226046D01*
X18613882Y-16226046D02*
X18613882Y-16216522D01*
X18613882Y-16216522D02*
X18623406Y-16197474D01*
X18623406Y-16197474D02*
X18642453Y-16187950D01*
X18642453Y-16187950D02*
X18671025Y-16187950D01*
X18671025Y-16187950D02*
X18690073Y-16197474D01*
X18766263Y-16397474D02*
X18775787Y-16387950D01*
X18775787Y-16387950D02*
X18794834Y-16359379D01*
X18794834Y-16359379D02*
X18804358Y-16340331D01*
X18804358Y-16340331D02*
X18813882Y-16311760D01*
X18813882Y-16311760D02*
X18823406Y-16264141D01*
X18823406Y-16264141D02*
X18823406Y-16226046D01*
X18823406Y-16226046D02*
X18813882Y-16178427D01*
X18813882Y-16178427D02*
X18804358Y-16149855D01*
X18804358Y-16149855D02*
X18794834Y-16130808D01*
X18794834Y-16130808D02*
X18775787Y-16102236D01*
X18775787Y-16102236D02*
X18766263Y-16092712D01*
M02*
