%TF.GenerationSoftware,KiCad,Pcbnew,7.0.9*%
%TF.CreationDate,2024-03-07T22:29:10+01:00*%
%TF.ProjectId,pcb-design,7063622d-6465-4736-9967-6e2e6b696361,rev?*%
%TF.SameCoordinates,Original*%
%TF.FileFunction,Drillmap*%
%TF.FilePolarity,Positive*%
%FSLAX45Y45*%
G04 Gerber Fmt 4.5, Leading zero omitted, Abs format (unit mm)*
G04 Created by KiCad (PCBNEW 7.0.9) date 2024-03-07 22:29:10*
%MOMM*%
%LPD*%
G01*
G04 APERTURE LIST*
%ADD10C,0.100000*%
%ADD11C,0.200000*%
G04 APERTURE END LIST*
D10*
X15849000Y-13402900D02*
X14863200Y-13400800D01*
X14863200Y-13721400D01*
X15845200Y-13725400D01*
X15847700Y-15056800D01*
X13996200Y-15055500D01*
X14001100Y-11901900D01*
X15847700Y-11900200D01*
X15849000Y-13402900D01*
D11*
X14251977Y-15373284D02*
X14251977Y-15173284D01*
X14251977Y-15173284D02*
X14299596Y-15173284D01*
X14299596Y-15173284D02*
X14328167Y-15182808D01*
X14328167Y-15182808D02*
X14347215Y-15201855D01*
X14347215Y-15201855D02*
X14356739Y-15220903D01*
X14356739Y-15220903D02*
X14366262Y-15258998D01*
X14366262Y-15258998D02*
X14366262Y-15287569D01*
X14366262Y-15287569D02*
X14356739Y-15325665D01*
X14356739Y-15325665D02*
X14347215Y-15344712D01*
X14347215Y-15344712D02*
X14328167Y-15363760D01*
X14328167Y-15363760D02*
X14299596Y-15373284D01*
X14299596Y-15373284D02*
X14251977Y-15373284D01*
X14451977Y-15373284D02*
X14451977Y-15239950D01*
X14451977Y-15278046D02*
X14461501Y-15258998D01*
X14461501Y-15258998D02*
X14471024Y-15249474D01*
X14471024Y-15249474D02*
X14490072Y-15239950D01*
X14490072Y-15239950D02*
X14509120Y-15239950D01*
X14575786Y-15373284D02*
X14575786Y-15239950D01*
X14575786Y-15173284D02*
X14566262Y-15182808D01*
X14566262Y-15182808D02*
X14575786Y-15192331D01*
X14575786Y-15192331D02*
X14585310Y-15182808D01*
X14585310Y-15182808D02*
X14575786Y-15173284D01*
X14575786Y-15173284D02*
X14575786Y-15192331D01*
X14699596Y-15373284D02*
X14680548Y-15363760D01*
X14680548Y-15363760D02*
X14671024Y-15344712D01*
X14671024Y-15344712D02*
X14671024Y-15173284D01*
X14804358Y-15373284D02*
X14785310Y-15363760D01*
X14785310Y-15363760D02*
X14775786Y-15344712D01*
X14775786Y-15344712D02*
X14775786Y-15173284D01*
X15032929Y-15373284D02*
X15032929Y-15173284D01*
X15032929Y-15173284D02*
X15099596Y-15316141D01*
X15099596Y-15316141D02*
X15166262Y-15173284D01*
X15166262Y-15173284D02*
X15166262Y-15373284D01*
X15347215Y-15373284D02*
X15347215Y-15268522D01*
X15347215Y-15268522D02*
X15337691Y-15249474D01*
X15337691Y-15249474D02*
X15318643Y-15239950D01*
X15318643Y-15239950D02*
X15280548Y-15239950D01*
X15280548Y-15239950D02*
X15261501Y-15249474D01*
X15347215Y-15363760D02*
X15328167Y-15373284D01*
X15328167Y-15373284D02*
X15280548Y-15373284D01*
X15280548Y-15373284D02*
X15261501Y-15363760D01*
X15261501Y-15363760D02*
X15251977Y-15344712D01*
X15251977Y-15344712D02*
X15251977Y-15325665D01*
X15251977Y-15325665D02*
X15261501Y-15306617D01*
X15261501Y-15306617D02*
X15280548Y-15297093D01*
X15280548Y-15297093D02*
X15328167Y-15297093D01*
X15328167Y-15297093D02*
X15347215Y-15287569D01*
X15442453Y-15239950D02*
X15442453Y-15439950D01*
X15442453Y-15249474D02*
X15461501Y-15239950D01*
X15461501Y-15239950D02*
X15499596Y-15239950D01*
X15499596Y-15239950D02*
X15518643Y-15249474D01*
X15518643Y-15249474D02*
X15528167Y-15258998D01*
X15528167Y-15258998D02*
X15537691Y-15278046D01*
X15537691Y-15278046D02*
X15537691Y-15335188D01*
X15537691Y-15335188D02*
X15528167Y-15354236D01*
X15528167Y-15354236D02*
X15518643Y-15363760D01*
X15518643Y-15363760D02*
X15499596Y-15373284D01*
X15499596Y-15373284D02*
X15461501Y-15373284D01*
X15461501Y-15373284D02*
X15442453Y-15363760D01*
X15623405Y-15354236D02*
X15632929Y-15363760D01*
X15632929Y-15363760D02*
X15623405Y-15373284D01*
X15623405Y-15373284D02*
X15613882Y-15363760D01*
X15613882Y-15363760D02*
X15623405Y-15354236D01*
X15623405Y-15354236D02*
X15623405Y-15373284D01*
X15623405Y-15249474D02*
X15632929Y-15258998D01*
X15632929Y-15258998D02*
X15623405Y-15268522D01*
X15623405Y-15268522D02*
X15613882Y-15258998D01*
X15613882Y-15258998D02*
X15623405Y-15249474D01*
X15623405Y-15249474D02*
X15623405Y-15268522D01*
M02*
