%TF.GenerationSoftware,KiCad,Pcbnew,10.0.0*%
%TF.CreationDate,2026-07-23T16:12:42+02:00*%
%TF.ProjectId,v4.0.10c_SK6812,76342e30-2e31-4306-935f-534b36383132,rev?*%
%TF.SameCoordinates,Original*%
%TF.FileFunction,Copper,L1,Top*%
%TF.FilePolarity,Positive*%
%FSLAX46Y46*%
G04 Gerber Fmt 4.6, Leading zero omitted, Abs format (unit mm)*
G04 Created by KiCad (PCBNEW 10.0.0) date 2026-07-23 16:12:42*
%MOMM*%
%LPD*%
G01*
G04 APERTURE LIST*
G04 Aperture macros list*
%AMRoundRect*
0 Rectangle with rounded corners*
0 $1 Rounding radius*
0 $2 $3 $4 $5 $6 $7 $8 $9 X,Y pos of 4 corners*
0 Add a 4 corners polygon primitive as box body*
4,1,4,$2,$3,$4,$5,$6,$7,$8,$9,$2,$3,0*
0 Add four circle primitives for the rounded corners*
1,1,$1+$1,$2,$3*
1,1,$1+$1,$4,$5*
1,1,$1+$1,$6,$7*
1,1,$1+$1,$8,$9*
0 Add four rect primitives between the rounded corners*
20,1,$1+$1,$2,$3,$4,$5,0*
20,1,$1+$1,$4,$5,$6,$7,0*
20,1,$1+$1,$6,$7,$8,$9,0*
20,1,$1+$1,$8,$9,$2,$3,0*%
G04 Aperture macros list end*
%TA.AperFunction,SMDPad,CuDef*%
%ADD10RoundRect,0.250000X0.475000X-0.250000X0.475000X0.250000X-0.475000X0.250000X-0.475000X-0.250000X0*%
%TD*%
%TA.AperFunction,SMDPad,CuDef*%
%ADD11RoundRect,0.250000X-0.450000X0.262500X-0.450000X-0.262500X0.450000X-0.262500X0.450000X0.262500X0*%
%TD*%
%TA.AperFunction,SMDPad,CuDef*%
%ADD12RoundRect,0.250000X0.262500X0.450000X-0.262500X0.450000X-0.262500X-0.450000X0.262500X-0.450000X0*%
%TD*%
%TA.AperFunction,SMDPad,CuDef*%
%ADD13RoundRect,0.200000X0.550000X0.200000X-0.550000X0.200000X-0.550000X-0.200000X0.550000X-0.200000X0*%
%TD*%
%TA.AperFunction,SMDPad,CuDef*%
%ADD14RoundRect,0.150000X-0.625000X0.150000X-0.625000X-0.150000X0.625000X-0.150000X0.625000X0.150000X0*%
%TD*%
%TA.AperFunction,SMDPad,CuDef*%
%ADD15RoundRect,0.250000X-0.650000X0.350000X-0.650000X-0.350000X0.650000X-0.350000X0.650000X0.350000X0*%
%TD*%
%TA.AperFunction,SMDPad,CuDef*%
%ADD16RoundRect,0.225000X-0.225000X-0.375000X0.225000X-0.375000X0.225000X0.375000X-0.225000X0.375000X0*%
%TD*%
%TA.AperFunction,ComponentPad*%
%ADD17O,3.500000X2.200000*%
%TD*%
%TA.AperFunction,ComponentPad*%
%ADD18R,2.500000X1.500000*%
%TD*%
%TA.AperFunction,ComponentPad*%
%ADD19O,2.500000X1.500000*%
%TD*%
%TA.AperFunction,SMDPad,CuDef*%
%ADD20RoundRect,0.150000X-0.150000X-0.600000X0.150000X-0.600000X0.150000X0.600000X-0.150000X0.600000X0*%
%TD*%
%TA.AperFunction,CastellatedPad*%
%ADD21RoundRect,0.252500X-0.252500X0.472500X-0.252500X-0.472500X0.252500X-0.472500X0.252500X0.472500X0*%
%TD*%
%TA.AperFunction,CastellatedPad*%
%ADD22RoundRect,0.247500X-0.247500X0.502500X-0.247500X-0.502500X0.247500X-0.502500X0.247500X0.502500X0*%
%TD*%
%TA.AperFunction,SMDPad,CuDef*%
%ADD23RoundRect,1.000000X-0.000010X0.375000X-0.000010X-0.375000X0.000010X-0.375000X0.000010X0.375000X0*%
%TD*%
%TA.AperFunction,ComponentPad*%
%ADD24C,1.400000*%
%TD*%
%TA.AperFunction,SMDPad,CuDef*%
%ADD25RoundRect,0.250000X-0.262500X-0.450000X0.262500X-0.450000X0.262500X0.450000X-0.262500X0.450000X0*%
%TD*%
%TA.AperFunction,ComponentPad*%
%ADD26R,1.050000X1.500000*%
%TD*%
%TA.AperFunction,ComponentPad*%
%ADD27O,1.050000X1.500000*%
%TD*%
%TA.AperFunction,ViaPad*%
%ADD28C,2.000000*%
%TD*%
%TA.AperFunction,ViaPad*%
%ADD29C,0.800000*%
%TD*%
%TA.AperFunction,ViaPad*%
%ADD30C,0.500000*%
%TD*%
%TA.AperFunction,ViaPad*%
%ADD31C,0.600000*%
%TD*%
%TA.AperFunction,ViaPad*%
%ADD32C,1.400000*%
%TD*%
%TA.AperFunction,Conductor*%
%ADD33C,0.250000*%
%TD*%
%TA.AperFunction,Conductor*%
%ADD34C,0.500000*%
%TD*%
%TA.AperFunction,Conductor*%
%ADD35C,0.750000*%
%TD*%
%TA.AperFunction,Conductor*%
%ADD36C,1.500000*%
%TD*%
%TA.AperFunction,Conductor*%
%ADD37C,1.000000*%
%TD*%
%TA.AperFunction,Conductor*%
%ADD38C,0.300000*%
%TD*%
%TA.AperFunction,Conductor*%
%ADD39C,0.200000*%
%TD*%
G04 APERTURE END LIST*
D10*
%TO.P,C1,1*%
%TO.N,Net-(U4-PA10_A2_D2)*%
X152856000Y-126963000D03*
%TO.P,C1,2*%
%TO.N,/esp-gnd*%
X152856000Y-125063000D03*
%TD*%
D11*
%TO.P,R1,1*%
%TO.N,/B+*%
X149956000Y-125150500D03*
%TO.P,R1,2*%
%TO.N,Net-(U4-PA10_A2_D2)*%
X149956000Y-126975500D03*
%TD*%
D12*
%TO.P,R3,1*%
%TO.N,/D0*%
X152908500Y-129173000D03*
%TO.P,R3,2*%
%TO.N,/SW-OUT*%
X151083500Y-129173000D03*
%TD*%
D13*
%TO.P,D2,1,VSS*%
%TO.N,unconnected-(D2-VSS-Pad1)*%
X146256000Y-113073000D03*
%TO.P,D2,2,DIN*%
%TO.N,/esp-gnd*%
X146256000Y-111293000D03*
%TO.P,D2,3,VDD*%
%TO.N,/Licht*%
X142976000Y-111293000D03*
%TO.P,D2,4,DOUT*%
%TO.N,/3.3V*%
X142976000Y-113073000D03*
%TD*%
D14*
%TO.P,J2,1,1*%
%TO.N,/D8*%
X145096000Y-121854000D03*
%TO.P,J2,2,2*%
%TO.N,/D10*%
X145096000Y-122854000D03*
%TO.P,J2,3,3*%
%TO.N,/esp-gnd*%
X145096000Y-123854000D03*
%TO.P,J2,4,4*%
%TO.N,/SW-OUT*%
X145096000Y-124854000D03*
D15*
%TO.P,J2,MP*%
%TO.N,N/C*%
X141221000Y-120554000D03*
X141221000Y-126154000D03*
%TD*%
D16*
%TO.P,D1,1,K*%
%TO.N,/B+*%
X149758500Y-123083000D03*
%TO.P,D1,2,A*%
%TO.N,/B-*%
X153058500Y-123083000D03*
%TD*%
D17*
%TO.P,U2,*%
%TO.N,*%
X156646000Y-129083000D03*
X156646000Y-120883000D03*
D18*
%TO.P,U2,1,1*%
%TO.N,/esp-3.3*%
X156646000Y-126983000D03*
D19*
%TO.P,U2,2,2*%
%TO.N,/SW-OUT*%
X156646000Y-124983000D03*
%TO.P,U2,3,3*%
%TO.N,/esp-gnd*%
X156646000Y-122983000D03*
%TD*%
D20*
%TO.P,J1,1,1*%
%TO.N,/Temp*%
X143096000Y-115483000D03*
%TO.P,J1,2,2*%
%TO.N,/Licht*%
X144096000Y-115483000D03*
%TO.P,J1,3,3*%
%TO.N,/esp-gnd*%
X145096000Y-115483000D03*
%TO.P,J1,4,4*%
%TO.N,/3.3V*%
X146096000Y-115483000D03*
%TD*%
D21*
%TO.P,U1,1,+*%
%TO.N,/B+*%
X149800000Y-135534500D03*
D22*
%TO.P,U1,2,-*%
%TO.N,/esp-gnd*%
X151535000Y-135509500D03*
%TD*%
D23*
%TO.P,U4,1,PA02_A0_D0*%
%TO.N,/D0*%
X157000000Y-132000500D03*
%TO.P,U4,2,PA4_A1_D1*%
%TO.N,unconnected-(U4-PA4_A1_D1-Pad2)*%
X154460000Y-132000500D03*
%TO.P,U4,3,PA10_A2_D2*%
%TO.N,Net-(U4-PA10_A2_D2)*%
X151920000Y-132000500D03*
%TO.P,U4,4,PA11_A3_D3*%
%TO.N,unconnected-(U4-PA11_A3_D3-Pad4)*%
X149380000Y-132000500D03*
%TO.P,U4,5,PA8_A4_D4_SDA*%
%TO.N,unconnected-(U4-PA8_A4_D4_SDA-Pad5)*%
X146840000Y-132000500D03*
%TO.P,U4,6,PA9_A5_D5_SCL*%
%TO.N,unconnected-(U4-PA9_A5_D5_SCL-Pad6)*%
X144300000Y-132000500D03*
%TO.P,U4,7,PB08_A6_D6_TX*%
%TO.N,unconnected-(U4-PB08_A6_D6_TX-Pad7)*%
X141760000Y-132000500D03*
%TO.P,U4,8,PB09_A7_D7_RX*%
%TO.N,unconnected-(U4-PB09_A7_D7_RX-Pad8)*%
X141760000Y-148165500D03*
%TO.P,U4,9,PA7_A8_D8_SCK*%
%TO.N,/D8*%
X144300000Y-148165500D03*
%TO.P,U4,10,PA5_A9_D9_MISO*%
%TO.N,unconnected-(U4-PA5_A9_D9_MISO-Pad10)*%
X146840000Y-148165500D03*
%TO.P,U4,11,PA6_A10_D10_MOSI*%
%TO.N,/D10*%
X149380000Y-148165500D03*
%TO.P,U4,12,3V3*%
%TO.N,/esp-3.3*%
X151920000Y-148165500D03*
%TO.P,U4,13,GND*%
%TO.N,/esp-gnd*%
X154460000Y-148165500D03*
%TO.P,U4,14,5V*%
%TO.N,unconnected-(U4-5V-Pad14)*%
X157000000Y-148165500D03*
%TD*%
D24*
%TO.P,U5,1,+*%
%TO.N,/B+*%
X148106000Y-120303000D03*
%TO.P,U5,2,-*%
%TO.N,/esp-gnd*%
X150646000Y-120303000D03*
%TD*%
D25*
%TO.P,R2,1*%
%TO.N,/esp-gnd*%
X145963500Y-129263000D03*
%TO.P,R2,2*%
%TO.N,Net-(U4-PA10_A2_D2)*%
X147788500Y-129263000D03*
%TD*%
D26*
%TO.P,U3,1,V+*%
%TO.N,/Temp*%
X145971000Y-108808000D03*
D27*
%TO.P,U3,2,Signal*%
%TO.N,/3.3V*%
X144701000Y-108808000D03*
%TO.P,U3,3,GND*%
%TO.N,/esp-gnd*%
X143431000Y-108808000D03*
%TD*%
D28*
%TO.N,/esp-gnd*%
X155246000Y-144423000D03*
D29*
X147946000Y-111343000D03*
X146556000Y-126843000D03*
D30*
X144556000Y-114113000D03*
D31*
%TO.N,/B+*%
X143196000Y-134583000D03*
D29*
%TO.N,/D0*%
X156286000Y-134283000D03*
X154096000Y-129123000D03*
%TO.N,/SW-OUT*%
X145096000Y-125760700D03*
%TO.N,/D8*%
X141696000Y-135483000D03*
X143146000Y-121783000D03*
%TO.N,/D10*%
X144396000Y-127683000D03*
X144396000Y-137883000D03*
D32*
%TO.N,/esp-3.3*%
X151116000Y-144343000D03*
D30*
%TO.N,/Temp*%
X142196000Y-115513000D03*
%TD*%
%TO.N,Net-(U4-PA10_A2_D2)*%
D33*
X149956000Y-126975500D02*
X152843500Y-126975500D01*
X149956000Y-127095500D02*
X147788500Y-129263000D01*
D34*
X151920000Y-131957000D02*
X149786000Y-129823000D01*
X151920000Y-132000500D02*
X151920000Y-131957000D01*
X148348500Y-129823000D02*
X147788500Y-129263000D01*
D33*
X152843500Y-126975500D02*
X152856000Y-126963000D01*
X149956000Y-126975500D02*
X149956000Y-127095500D01*
D34*
X149786000Y-129823000D02*
X148348500Y-129823000D01*
%TO.N,/esp-gnd*%
D35*
X146427000Y-123854000D02*
X147156000Y-124583000D01*
D36*
X155246000Y-145233000D02*
X154460000Y-146019000D01*
D35*
X147156000Y-124583000D02*
X147156000Y-126243000D01*
D37*
X155536000Y-122983000D02*
X153456000Y-125063000D01*
D35*
X145096000Y-123854000D02*
X146427000Y-123854000D01*
D36*
X155246000Y-144423000D02*
X155246000Y-145233000D01*
D35*
X146556000Y-126843000D02*
X145963500Y-127435500D01*
D37*
X153456000Y-125063000D02*
X152856000Y-125063000D01*
D34*
X144556000Y-114113000D02*
X145096000Y-114653000D01*
D35*
X145963500Y-127435500D02*
X145963500Y-128673000D01*
D36*
X154460000Y-146019000D02*
X154460000Y-148165500D01*
D37*
X156646000Y-122983000D02*
X155536000Y-122983000D01*
D34*
X145066000Y-115453000D02*
X145096000Y-115483000D01*
X145096000Y-114653000D02*
X145096000Y-115483000D01*
D33*
X144996000Y-115383000D02*
X145096000Y-115483000D01*
D34*
X146536000Y-111343000D02*
X147976000Y-111343000D01*
D35*
X154460000Y-148165500D02*
X154460000Y-147883900D01*
X147156000Y-126243000D02*
X146556000Y-126843000D01*
%TO.N,/B+*%
X149956000Y-125150500D02*
X149758500Y-124953000D01*
D37*
X143196000Y-134583000D02*
X143426000Y-134813000D01*
X149078500Y-134813000D02*
X149800000Y-135534500D01*
D35*
X149758500Y-123083000D02*
X148136000Y-121460500D01*
X148136000Y-121460500D02*
X148136000Y-120343000D01*
D37*
X143426000Y-134813000D02*
X149078500Y-134813000D01*
D35*
X149758500Y-124953000D02*
X149758500Y-123083000D01*
%TO.N,/D0*%
D33*
X154096000Y-129123000D02*
X152958500Y-129123000D01*
X152958500Y-129123000D02*
X152908500Y-129173000D01*
X156286000Y-134241000D02*
X157000000Y-133527000D01*
X156286000Y-134283000D02*
X156286000Y-134241000D01*
X157000000Y-133527000D02*
X157000000Y-132000500D01*
%TO.N,/SW-OUT*%
X153916000Y-127913000D02*
X154616000Y-127213000D01*
X151083500Y-129173000D02*
X151083500Y-129055500D01*
X154616000Y-125563000D02*
X155196000Y-124983000D01*
X155196000Y-124983000D02*
X156646000Y-124983000D01*
X152226000Y-127913000D02*
X153916000Y-127913000D01*
X145096000Y-124854000D02*
X145096000Y-125760700D01*
X151083500Y-129055500D02*
X152226000Y-127913000D01*
X154616000Y-127213000D02*
X154616000Y-125563000D01*
%TO.N,/Licht*%
X142216000Y-114143000D02*
X143716000Y-114143000D01*
X144086000Y-115473000D02*
X144096000Y-115483000D01*
X144086000Y-114513000D02*
X144086000Y-115473000D01*
X142416000Y-111323000D02*
X142106000Y-111323000D01*
X142106000Y-111323000D02*
X141466000Y-111963000D01*
X141466000Y-111963000D02*
X141466000Y-113393000D01*
X142446000Y-111293000D02*
X142416000Y-111323000D01*
X144096000Y-115483000D02*
X144226000Y-115353000D01*
X141466000Y-113393000D02*
X142216000Y-114143000D01*
X142976000Y-111293000D02*
X142446000Y-111293000D01*
X143716000Y-114143000D02*
X144086000Y-114513000D01*
%TO.N,/3.3V*%
D38*
X144701000Y-113248000D02*
X146096000Y-114643000D01*
X144701000Y-113078000D02*
X144696000Y-113073000D01*
X144686000Y-113263000D02*
X144701000Y-113248000D01*
X142976000Y-113073000D02*
X143166000Y-113263000D01*
D33*
X144696000Y-113073000D02*
X144701000Y-113068000D01*
D38*
X144701000Y-113248000D02*
X144701000Y-113078000D01*
X144696000Y-108813000D02*
X144701000Y-108808000D01*
X146096000Y-114643000D02*
X146096000Y-115483000D01*
X143166000Y-113263000D02*
X144686000Y-113263000D01*
X144696000Y-113073000D02*
X144696000Y-108813000D01*
D34*
X142976000Y-113063000D02*
X142976000Y-113073000D01*
D38*
X144701000Y-108808000D02*
X144701000Y-113248000D01*
X144701000Y-113068000D02*
X144701000Y-108808000D01*
%TO.N,/D8*%
D33*
X144096000Y-142383000D02*
X141696000Y-139983000D01*
X143146000Y-121783000D02*
X145025000Y-121783000D01*
X141696000Y-139983000D02*
X141696000Y-135483000D01*
X145025000Y-121783000D02*
X145096000Y-121854000D01*
X144300000Y-148165500D02*
X144096000Y-147961500D01*
X144096000Y-147961500D02*
X144096000Y-142383000D01*
%TO.N,/D10*%
X143546000Y-123333000D02*
X144025000Y-122854000D01*
X144396000Y-138583000D02*
X149380000Y-143567000D01*
X144396000Y-127683000D02*
X143546000Y-126833000D01*
X144396000Y-137883000D02*
X144396000Y-138583000D01*
X143546000Y-126833000D02*
X143546000Y-123333000D01*
X149380000Y-143567000D02*
X149380000Y-148165500D01*
X144025000Y-122854000D02*
X145096000Y-122854000D01*
%TO.N,/B-*%
D39*
X153058500Y-123083000D02*
X153058500Y-122800500D01*
X153058500Y-122715500D02*
X153058500Y-123083000D01*
D35*
X150646000Y-120303000D02*
X153058500Y-122715500D01*
%TO.N,/esp-3.3*%
D36*
X151116000Y-144343000D02*
X151996000Y-145223000D01*
X151996000Y-145223000D02*
X151996000Y-148089500D01*
D33*
X151996000Y-148089500D02*
X151920000Y-148165500D01*
%TO.N,/Temp*%
X145562727Y-108683000D02*
X145896000Y-108683000D01*
X142196000Y-115513000D02*
X142876000Y-115513000D01*
X142876000Y-115513000D02*
X142906000Y-115483000D01*
X142906000Y-115483000D02*
X143096000Y-115483000D01*
%TD*%
M02*
