%TF.GenerationSoftware,KiCad,Pcbnew,10.0.0*%
%TF.CreationDate,2026-07-23T16:12:42+02:00*%
%TF.ProjectId,v4.0.10c_SK6812,76342e30-2e31-4306-935f-534b36383132,rev?*%
%TF.SameCoordinates,Original*%
%TF.FileFunction,Legend,Top*%
%TF.FilePolarity,Positive*%
%FSLAX46Y46*%
G04 Gerber Fmt 4.6, Leading zero omitted, Abs format (unit mm)*
G04 Created by KiCad (PCBNEW 10.0.0) date 2026-07-23 16:12:42*
%MOMM*%
%LPD*%
G01*
G04 APERTURE LIST*
%ADD10C,0.062500*%
%ADD11C,0.125000*%
%ADD12C,0.100000*%
%ADD13C,0.120000*%
%ADD14C,0.000000*%
%ADD15C,0.150000*%
G04 APERTURE END LIST*
D10*
X145684059Y-128356333D02*
X145445964Y-128522999D01*
X145684059Y-128642047D02*
X145184059Y-128642047D01*
X145184059Y-128642047D02*
X145184059Y-128451571D01*
X145184059Y-128451571D02*
X145207869Y-128403952D01*
X145207869Y-128403952D02*
X145231678Y-128380142D01*
X145231678Y-128380142D02*
X145279297Y-128356333D01*
X145279297Y-128356333D02*
X145350726Y-128356333D01*
X145350726Y-128356333D02*
X145398345Y-128380142D01*
X145398345Y-128380142D02*
X145422154Y-128403952D01*
X145422154Y-128403952D02*
X145445964Y-128451571D01*
X145445964Y-128451571D02*
X145445964Y-128642047D01*
X145231678Y-128165856D02*
X145207869Y-128142047D01*
X145207869Y-128142047D02*
X145184059Y-128094428D01*
X145184059Y-128094428D02*
X145184059Y-127975380D01*
X145184059Y-127975380D02*
X145207869Y-127927761D01*
X145207869Y-127927761D02*
X145231678Y-127903952D01*
X145231678Y-127903952D02*
X145279297Y-127880142D01*
X145279297Y-127880142D02*
X145326916Y-127880142D01*
X145326916Y-127880142D02*
X145398345Y-127903952D01*
X145398345Y-127903952D02*
X145684059Y-128189666D01*
X145684059Y-128189666D02*
X145684059Y-127880142D01*
D11*
X146589690Y-124734664D02*
X146589690Y-125044188D01*
X146589690Y-125044188D02*
X146399214Y-124877521D01*
X146399214Y-124877521D02*
X146399214Y-124948950D01*
X146399214Y-124948950D02*
X146375404Y-124996569D01*
X146375404Y-124996569D02*
X146351595Y-125020378D01*
X146351595Y-125020378D02*
X146303976Y-125044188D01*
X146303976Y-125044188D02*
X146184928Y-125044188D01*
X146184928Y-125044188D02*
X146137309Y-125020378D01*
X146137309Y-125020378D02*
X146113500Y-124996569D01*
X146113500Y-124996569D02*
X146089690Y-124948950D01*
X146089690Y-124948950D02*
X146089690Y-124806093D01*
X146089690Y-124806093D02*
X146113500Y-124758474D01*
X146113500Y-124758474D02*
X146137309Y-124734664D01*
X146137309Y-125258473D02*
X146113500Y-125282283D01*
X146113500Y-125282283D02*
X146089690Y-125258473D01*
X146089690Y-125258473D02*
X146113500Y-125234664D01*
X146113500Y-125234664D02*
X146137309Y-125258473D01*
X146137309Y-125258473D02*
X146089690Y-125258473D01*
X146589690Y-125448949D02*
X146589690Y-125758473D01*
X146589690Y-125758473D02*
X146399214Y-125591806D01*
X146399214Y-125591806D02*
X146399214Y-125663235D01*
X146399214Y-125663235D02*
X146375404Y-125710854D01*
X146375404Y-125710854D02*
X146351595Y-125734663D01*
X146351595Y-125734663D02*
X146303976Y-125758473D01*
X146303976Y-125758473D02*
X146184928Y-125758473D01*
X146184928Y-125758473D02*
X146137309Y-125734663D01*
X146137309Y-125734663D02*
X146113500Y-125710854D01*
X146113500Y-125710854D02*
X146089690Y-125663235D01*
X146089690Y-125663235D02*
X146089690Y-125520378D01*
X146089690Y-125520378D02*
X146113500Y-125472759D01*
X146113500Y-125472759D02*
X146137309Y-125448949D01*
X146132690Y-123063378D02*
X146132690Y-122825283D01*
X146132690Y-122825283D02*
X146632690Y-122825283D01*
X146608880Y-124080188D02*
X146632690Y-124032569D01*
X146632690Y-124032569D02*
X146632690Y-123961140D01*
X146632690Y-123961140D02*
X146608880Y-123889712D01*
X146608880Y-123889712D02*
X146561261Y-123842093D01*
X146561261Y-123842093D02*
X146513642Y-123818283D01*
X146513642Y-123818283D02*
X146418404Y-123794474D01*
X146418404Y-123794474D02*
X146346976Y-123794474D01*
X146346976Y-123794474D02*
X146251738Y-123818283D01*
X146251738Y-123818283D02*
X146204119Y-123842093D01*
X146204119Y-123842093D02*
X146156500Y-123889712D01*
X146156500Y-123889712D02*
X146132690Y-123961140D01*
X146132690Y-123961140D02*
X146132690Y-124008759D01*
X146132690Y-124008759D02*
X146156500Y-124080188D01*
X146156500Y-124080188D02*
X146180309Y-124103997D01*
X146180309Y-124103997D02*
X146346976Y-124103997D01*
X146346976Y-124103997D02*
X146346976Y-124008759D01*
X146659690Y-121770855D02*
X146659690Y-122056569D01*
X146159690Y-121913712D02*
X146659690Y-121913712D01*
D10*
X151392666Y-127753440D02*
X151368857Y-127777250D01*
X151368857Y-127777250D02*
X151297428Y-127801059D01*
X151297428Y-127801059D02*
X151249809Y-127801059D01*
X151249809Y-127801059D02*
X151178381Y-127777250D01*
X151178381Y-127777250D02*
X151130762Y-127729630D01*
X151130762Y-127729630D02*
X151106952Y-127682011D01*
X151106952Y-127682011D02*
X151083143Y-127586773D01*
X151083143Y-127586773D02*
X151083143Y-127515345D01*
X151083143Y-127515345D02*
X151106952Y-127420107D01*
X151106952Y-127420107D02*
X151130762Y-127372488D01*
X151130762Y-127372488D02*
X151178381Y-127324869D01*
X151178381Y-127324869D02*
X151249809Y-127301059D01*
X151249809Y-127301059D02*
X151297428Y-127301059D01*
X151297428Y-127301059D02*
X151368857Y-127324869D01*
X151368857Y-127324869D02*
X151392666Y-127348678D01*
X151868857Y-127801059D02*
X151583143Y-127801059D01*
X151726000Y-127801059D02*
X151726000Y-127301059D01*
X151726000Y-127301059D02*
X151678381Y-127372488D01*
X151678381Y-127372488D02*
X151630762Y-127420107D01*
X151630762Y-127420107D02*
X151583143Y-127443916D01*
X148894059Y-127666333D02*
X148655964Y-127832999D01*
X148894059Y-127952047D02*
X148394059Y-127952047D01*
X148394059Y-127952047D02*
X148394059Y-127761571D01*
X148394059Y-127761571D02*
X148417869Y-127713952D01*
X148417869Y-127713952D02*
X148441678Y-127690142D01*
X148441678Y-127690142D02*
X148489297Y-127666333D01*
X148489297Y-127666333D02*
X148560726Y-127666333D01*
X148560726Y-127666333D02*
X148608345Y-127690142D01*
X148608345Y-127690142D02*
X148632154Y-127713952D01*
X148632154Y-127713952D02*
X148655964Y-127761571D01*
X148655964Y-127761571D02*
X148655964Y-127952047D01*
X148894059Y-127190142D02*
X148894059Y-127475856D01*
X148894059Y-127332999D02*
X148394059Y-127332999D01*
X148394059Y-127332999D02*
X148465488Y-127380618D01*
X148465488Y-127380618D02*
X148513107Y-127428237D01*
X148513107Y-127428237D02*
X148536916Y-127475856D01*
X149692666Y-129041059D02*
X149526000Y-128802964D01*
X149406952Y-129041059D02*
X149406952Y-128541059D01*
X149406952Y-128541059D02*
X149597428Y-128541059D01*
X149597428Y-128541059D02*
X149645047Y-128564869D01*
X149645047Y-128564869D02*
X149668857Y-128588678D01*
X149668857Y-128588678D02*
X149692666Y-128636297D01*
X149692666Y-128636297D02*
X149692666Y-128707726D01*
X149692666Y-128707726D02*
X149668857Y-128755345D01*
X149668857Y-128755345D02*
X149645047Y-128779154D01*
X149645047Y-128779154D02*
X149597428Y-128802964D01*
X149597428Y-128802964D02*
X149406952Y-128802964D01*
X149859333Y-128541059D02*
X150168857Y-128541059D01*
X150168857Y-128541059D02*
X150002190Y-128731535D01*
X150002190Y-128731535D02*
X150073619Y-128731535D01*
X150073619Y-128731535D02*
X150121238Y-128755345D01*
X150121238Y-128755345D02*
X150145047Y-128779154D01*
X150145047Y-128779154D02*
X150168857Y-128826773D01*
X150168857Y-128826773D02*
X150168857Y-128945821D01*
X150168857Y-128945821D02*
X150145047Y-128993440D01*
X150145047Y-128993440D02*
X150121238Y-129017250D01*
X150121238Y-129017250D02*
X150073619Y-129041059D01*
X150073619Y-129041059D02*
X149930762Y-129041059D01*
X149930762Y-129041059D02*
X149883143Y-129017250D01*
X149883143Y-129017250D02*
X149859333Y-128993440D01*
D11*
X145360809Y-120269666D02*
X145717952Y-120269666D01*
X145717952Y-120269666D02*
X145789380Y-120293475D01*
X145789380Y-120293475D02*
X145837000Y-120341094D01*
X145837000Y-120341094D02*
X145860809Y-120412523D01*
X145860809Y-120412523D02*
X145860809Y-120460142D01*
X145408428Y-120055380D02*
X145384619Y-120031571D01*
X145384619Y-120031571D02*
X145360809Y-119983952D01*
X145360809Y-119983952D02*
X145360809Y-119864904D01*
X145360809Y-119864904D02*
X145384619Y-119817285D01*
X145384619Y-119817285D02*
X145408428Y-119793476D01*
X145408428Y-119793476D02*
X145456047Y-119769666D01*
X145456047Y-119769666D02*
X145503666Y-119769666D01*
X145503666Y-119769666D02*
X145575095Y-119793476D01*
X145575095Y-119793476D02*
X145860809Y-120079190D01*
X145860809Y-120079190D02*
X145860809Y-119769666D01*
X154440809Y-119903952D02*
X154845571Y-119903952D01*
X154845571Y-119903952D02*
X154893190Y-119880142D01*
X154893190Y-119880142D02*
X154917000Y-119856333D01*
X154917000Y-119856333D02*
X154940809Y-119808714D01*
X154940809Y-119808714D02*
X154940809Y-119713476D01*
X154940809Y-119713476D02*
X154917000Y-119665857D01*
X154917000Y-119665857D02*
X154893190Y-119642047D01*
X154893190Y-119642047D02*
X154845571Y-119618238D01*
X154845571Y-119618238D02*
X154440809Y-119618238D01*
X154488428Y-119403951D02*
X154464619Y-119380142D01*
X154464619Y-119380142D02*
X154440809Y-119332523D01*
X154440809Y-119332523D02*
X154440809Y-119213475D01*
X154440809Y-119213475D02*
X154464619Y-119165856D01*
X154464619Y-119165856D02*
X154488428Y-119142047D01*
X154488428Y-119142047D02*
X154536047Y-119118237D01*
X154536047Y-119118237D02*
X154583666Y-119118237D01*
X154583666Y-119118237D02*
X154655095Y-119142047D01*
X154655095Y-119142047D02*
X154940809Y-119427761D01*
X154940809Y-119427761D02*
X154940809Y-119118237D01*
D12*
X148971866Y-134574336D02*
X148971866Y-134955289D01*
X148781390Y-134764812D02*
X149162342Y-134764812D01*
X152311866Y-134604336D02*
X152311866Y-134985289D01*
D11*
X147383047Y-118508809D02*
X147383047Y-118913571D01*
X147383047Y-118913571D02*
X147406857Y-118961190D01*
X147406857Y-118961190D02*
X147430666Y-118985000D01*
X147430666Y-118985000D02*
X147478285Y-119008809D01*
X147478285Y-119008809D02*
X147573523Y-119008809D01*
X147573523Y-119008809D02*
X147621142Y-118985000D01*
X147621142Y-118985000D02*
X147644952Y-118961190D01*
X147644952Y-118961190D02*
X147668761Y-118913571D01*
X147668761Y-118913571D02*
X147668761Y-118508809D01*
X148144952Y-118508809D02*
X147906857Y-118508809D01*
X147906857Y-118508809D02*
X147883048Y-118746904D01*
X147883048Y-118746904D02*
X147906857Y-118723095D01*
X147906857Y-118723095D02*
X147954476Y-118699285D01*
X147954476Y-118699285D02*
X148073524Y-118699285D01*
X148073524Y-118699285D02*
X148121143Y-118723095D01*
X148121143Y-118723095D02*
X148144952Y-118746904D01*
X148144952Y-118746904D02*
X148168762Y-118794523D01*
X148168762Y-118794523D02*
X148168762Y-118913571D01*
X148168762Y-118913571D02*
X148144952Y-118961190D01*
X148144952Y-118961190D02*
X148121143Y-118985000D01*
X148121143Y-118985000D02*
X148073524Y-119008809D01*
X148073524Y-119008809D02*
X147954476Y-119008809D01*
X147954476Y-119008809D02*
X147906857Y-118985000D01*
X147906857Y-118985000D02*
X147883048Y-118961190D01*
X146307283Y-120044833D02*
X146688236Y-120044833D01*
X146497759Y-120235309D02*
X146497759Y-119854357D01*
X152107283Y-120044833D02*
X152488236Y-120044833D01*
D10*
X140885047Y-109571059D02*
X140885047Y-109975821D01*
X140885047Y-109975821D02*
X140908857Y-110023440D01*
X140908857Y-110023440D02*
X140932666Y-110047250D01*
X140932666Y-110047250D02*
X140980285Y-110071059D01*
X140980285Y-110071059D02*
X141075523Y-110071059D01*
X141075523Y-110071059D02*
X141123142Y-110047250D01*
X141123142Y-110047250D02*
X141146952Y-110023440D01*
X141146952Y-110023440D02*
X141170761Y-109975821D01*
X141170761Y-109975821D02*
X141170761Y-109571059D01*
X141361238Y-109571059D02*
X141670762Y-109571059D01*
X141670762Y-109571059D02*
X141504095Y-109761535D01*
X141504095Y-109761535D02*
X141575524Y-109761535D01*
X141575524Y-109761535D02*
X141623143Y-109785345D01*
X141623143Y-109785345D02*
X141646952Y-109809154D01*
X141646952Y-109809154D02*
X141670762Y-109856773D01*
X141670762Y-109856773D02*
X141670762Y-109975821D01*
X141670762Y-109975821D02*
X141646952Y-110023440D01*
X141646952Y-110023440D02*
X141623143Y-110047250D01*
X141623143Y-110047250D02*
X141575524Y-110071059D01*
X141575524Y-110071059D02*
X141432667Y-110071059D01*
X141432667Y-110071059D02*
X141385048Y-110047250D01*
X141385048Y-110047250D02*
X141361238Y-110023440D01*
%TO.C,C1*%
D13*
X152121000Y-126274252D02*
X152121000Y-125751748D01*
X153591000Y-126274252D02*
X153591000Y-125751748D01*
%TO.C,R1*%
X149221000Y-125835936D02*
X149221000Y-126290064D01*
X150691000Y-125835936D02*
X150691000Y-126290064D01*
%TO.C,R3*%
X152223064Y-128438000D02*
X151768936Y-128438000D01*
X152223064Y-129908000D02*
X151768936Y-129908000D01*
D14*
%TO.C,G\u002A\u002A\u002A*%
G36*
X145145385Y-127310599D02*
G01*
X145257001Y-127353203D01*
X145341494Y-127420899D01*
X145396245Y-127509382D01*
X145418638Y-127614346D01*
X145406056Y-127731486D01*
X145404602Y-127737064D01*
X145368862Y-127819512D01*
X145306071Y-127894330D01*
X145212915Y-127964310D01*
X145086084Y-128032245D01*
X145019290Y-128061982D01*
X144864459Y-128118610D01*
X144733559Y-128146271D01*
X144624912Y-128144727D01*
X144536843Y-128113737D01*
X144467672Y-128053063D01*
X144421974Y-127976854D01*
X144389723Y-127864277D01*
X144394537Y-127754226D01*
X144435000Y-127649626D01*
X144509696Y-127553400D01*
X144617207Y-127468473D01*
X144687488Y-127428802D01*
X144830357Y-127364977D01*
X144958731Y-127323485D01*
X145067801Y-127305566D01*
X145145385Y-127310599D01*
G37*
G36*
X155035991Y-126070905D02*
G01*
X155137759Y-126096667D01*
X155248926Y-126130529D01*
X155359287Y-126168822D01*
X155458636Y-126207874D01*
X155536766Y-126244015D01*
X155568907Y-126262572D01*
X155650522Y-126337759D01*
X155699618Y-126432996D01*
X155715446Y-126546612D01*
X155713513Y-126584954D01*
X155686513Y-126704919D01*
X155631683Y-126801882D01*
X155552812Y-126872558D01*
X155453692Y-126913659D01*
X155338112Y-126921901D01*
X155326154Y-126920828D01*
X155256723Y-126907820D01*
X155165543Y-126882548D01*
X155061493Y-126848379D01*
X154953453Y-126808680D01*
X154850302Y-126766819D01*
X154760920Y-126726163D01*
X154694185Y-126690078D01*
X154667686Y-126671136D01*
X154606397Y-126594212D01*
X154567496Y-126497643D01*
X154555278Y-126395583D01*
X154564320Y-126330585D01*
X154591318Y-126265411D01*
X154632528Y-126199735D01*
X154645188Y-126184170D01*
X154726793Y-126109173D01*
X154814854Y-126066819D01*
X154916613Y-126055007D01*
X155035991Y-126070905D01*
G37*
G36*
X148169984Y-128387575D02*
G01*
X148256914Y-128446969D01*
X148319959Y-128532248D01*
X148357818Y-128638136D01*
X148369192Y-128759359D01*
X148352780Y-128890639D01*
X148319984Y-128996299D01*
X148276255Y-129102098D01*
X148225533Y-129216152D01*
X148171420Y-129331192D01*
X148117524Y-129439948D01*
X148067448Y-129535151D01*
X148024798Y-129609531D01*
X147993180Y-129655818D01*
X147992530Y-129656590D01*
X147916744Y-129723036D01*
X147823959Y-129770830D01*
X147729524Y-129792421D01*
X147715513Y-129792937D01*
X147627018Y-129777446D01*
X147537303Y-129735414D01*
X147461601Y-129675092D01*
X147433417Y-129640127D01*
X147386571Y-129539358D01*
X147373383Y-129427386D01*
X147393657Y-129300766D01*
X147411197Y-129244951D01*
X147457203Y-129121996D01*
X147510286Y-128992419D01*
X147567200Y-128863061D01*
X147624700Y-128740765D01*
X147679541Y-128632376D01*
X147728479Y-128544736D01*
X147768268Y-128484688D01*
X147776415Y-128474777D01*
X147865254Y-128397586D01*
X147962452Y-128357891D01*
X148067227Y-128355865D01*
X148169984Y-128387575D01*
G37*
G36*
X152252710Y-127802725D02*
G01*
X152303567Y-127817870D01*
X152358686Y-127851424D01*
X152433416Y-127908607D01*
X152522152Y-127983977D01*
X152619292Y-128072090D01*
X152719230Y-128167502D01*
X152816364Y-128264770D01*
X152905090Y-128358449D01*
X152979803Y-128443095D01*
X153034900Y-128513266D01*
X153059514Y-128552223D01*
X153102503Y-128668217D01*
X153111792Y-128778597D01*
X153091572Y-128879485D01*
X153046032Y-128967003D01*
X152979363Y-129037274D01*
X152895756Y-129086419D01*
X152799400Y-129110561D01*
X152694487Y-129105821D01*
X152585205Y-129068322D01*
X152533982Y-129038579D01*
X152479221Y-128997391D01*
X152405020Y-128934722D01*
X152317632Y-128856554D01*
X152223308Y-128768870D01*
X152128302Y-128677651D01*
X152038866Y-128588881D01*
X151961251Y-128508540D01*
X151901710Y-128442612D01*
X151871829Y-128405028D01*
X151816215Y-128297455D01*
X151794837Y-128186155D01*
X151806540Y-128077623D01*
X151850170Y-127978355D01*
X151924575Y-127894845D01*
X151967908Y-127864065D01*
X152061350Y-127821479D01*
X152160532Y-127800448D01*
X152252710Y-127802725D01*
G37*
G36*
X153960606Y-124569095D02*
G01*
X154158084Y-124589005D01*
X154170082Y-124590509D01*
X154337321Y-124616282D01*
X154470126Y-124647949D01*
X154572352Y-124687524D01*
X154647855Y-124737019D01*
X154700488Y-124798448D01*
X154734107Y-124873823D01*
X154737898Y-124887012D01*
X154754513Y-125009441D01*
X154739609Y-125126171D01*
X154695364Y-125229548D01*
X154623956Y-125311918D01*
X154614971Y-125319036D01*
X154561803Y-125353806D01*
X154503201Y-125378641D01*
X154433607Y-125394011D01*
X154347464Y-125400388D01*
X154239217Y-125398239D01*
X154103307Y-125388036D01*
X153966328Y-125373878D01*
X153799013Y-125353053D01*
X153665353Y-125330951D01*
X153560519Y-125305990D01*
X153479683Y-125276583D01*
X153418016Y-125241148D01*
X153370689Y-125198098D01*
X153349682Y-125171531D01*
X153310718Y-125086474D01*
X153296793Y-124984516D01*
X153306765Y-124876961D01*
X153339492Y-124775113D01*
X153393829Y-124690276D01*
X153398893Y-124684756D01*
X153465216Y-124631616D01*
X153551327Y-124593874D01*
X153660449Y-124571135D01*
X153795801Y-124563007D01*
X153960606Y-124569095D01*
G37*
G36*
X145777119Y-125548547D02*
G01*
X145838470Y-125567600D01*
X145918149Y-125621099D01*
X145986014Y-125701574D01*
X146035072Y-125797817D01*
X146058328Y-125898622D01*
X146059293Y-125921440D01*
X146046585Y-125990069D01*
X146013123Y-126068830D01*
X145966330Y-126141637D01*
X145947735Y-126163204D01*
X145885842Y-126213077D01*
X145788153Y-126270494D01*
X145656427Y-126334585D01*
X145492425Y-126404481D01*
X145338795Y-126464131D01*
X145186218Y-126518577D01*
X145061651Y-126556376D01*
X144958965Y-126578643D01*
X144872028Y-126586492D01*
X144794712Y-126581039D01*
X144748864Y-126571453D01*
X144642696Y-126526014D01*
X144560789Y-126454674D01*
X144506159Y-126363622D01*
X144481822Y-126259047D01*
X144490796Y-126147137D01*
X144511303Y-126084027D01*
X144537045Y-126029448D01*
X144567320Y-125984031D01*
X144607193Y-125944574D01*
X144661731Y-125907872D01*
X144736002Y-125870724D01*
X144835071Y-125829927D01*
X144964006Y-125782278D01*
X145020309Y-125762265D01*
X145132802Y-125722172D01*
X145250204Y-125679706D01*
X145359036Y-125639776D01*
X145445823Y-125607292D01*
X145450104Y-125605661D01*
X145580448Y-125562856D01*
X145687384Y-125544021D01*
X145777119Y-125548547D01*
G37*
G36*
X149988547Y-128783292D02*
G01*
X150082851Y-128818288D01*
X150143136Y-128859569D01*
X150192705Y-128916083D01*
X150232506Y-128991312D01*
X150263485Y-129088738D01*
X150286589Y-129211842D01*
X150302766Y-129364105D01*
X150312961Y-129549011D01*
X150316619Y-129677905D01*
X150318169Y-129780348D01*
X150317064Y-129853489D01*
X150312133Y-129906481D01*
X150302202Y-129948478D01*
X150286099Y-129988635D01*
X150273491Y-130014648D01*
X150230034Y-130085192D01*
X150177025Y-130132776D01*
X150139527Y-130154155D01*
X150031905Y-130190717D01*
X149924487Y-130195282D01*
X149825066Y-130169212D01*
X149741430Y-130113867D01*
X149710610Y-130079227D01*
X149688028Y-130048115D01*
X149670662Y-130019095D01*
X149657273Y-129986176D01*
X149646623Y-129943369D01*
X149637475Y-129884685D01*
X149628590Y-129804135D01*
X149618730Y-129695729D01*
X149609910Y-129592059D01*
X149597339Y-129439702D01*
X149588539Y-129320098D01*
X149583721Y-129227677D01*
X149583095Y-129156871D01*
X149586872Y-129102113D01*
X149595264Y-129057835D01*
X149608481Y-129018468D01*
X149626735Y-128978444D01*
X149633680Y-128964575D01*
X149700170Y-128870286D01*
X149785137Y-128807451D01*
X149883092Y-128777858D01*
X149988547Y-128783292D01*
G37*
G36*
X152336623Y-126176207D02*
G01*
X152381537Y-126184516D01*
X152439861Y-126204729D01*
X152457506Y-126212474D01*
X152538722Y-126264895D01*
X152626236Y-126346274D01*
X152714109Y-126449083D01*
X152796398Y-126565792D01*
X152867165Y-126688872D01*
X152912219Y-126788736D01*
X152941514Y-126888778D01*
X152954775Y-127003239D01*
X152956147Y-127051314D01*
X152955347Y-127134197D01*
X152948809Y-127192673D01*
X152933558Y-127240721D01*
X152906617Y-127292321D01*
X152903829Y-127297086D01*
X152827186Y-127395732D01*
X152731759Y-127461093D01*
X152615070Y-127494744D01*
X152587839Y-127497911D01*
X152525035Y-127500776D01*
X152466684Y-127495259D01*
X152399944Y-127479045D01*
X152311971Y-127449819D01*
X152302731Y-127446528D01*
X152145999Y-127391225D01*
X152019601Y-127348532D01*
X151918058Y-127316975D01*
X151835888Y-127295080D01*
X151767611Y-127281373D01*
X151707748Y-127274377D01*
X151656337Y-127272602D01*
X151535913Y-127280580D01*
X151443415Y-127307447D01*
X151371116Y-127357602D01*
X151311289Y-127435445D01*
X151284566Y-127484269D01*
X151259825Y-127536250D01*
X151241589Y-127584046D01*
X151228593Y-127635329D01*
X151219574Y-127697769D01*
X151213265Y-127779038D01*
X151208403Y-127886808D01*
X151205832Y-127961844D01*
X151200197Y-128079788D01*
X151191648Y-128188016D01*
X151181106Y-128277143D01*
X151169489Y-128337787D01*
X151168708Y-128340557D01*
X151117481Y-128457275D01*
X151041066Y-128551238D01*
X150944843Y-128618098D01*
X150834194Y-128653506D01*
X150775813Y-128658057D01*
X150678112Y-128649672D01*
X150590196Y-128622050D01*
X150506528Y-128571490D01*
X150421570Y-128494291D01*
X150329783Y-128386752D01*
X150288302Y-128332237D01*
X150193679Y-128207853D01*
X150115581Y-128113093D01*
X150050512Y-128044714D01*
X149994982Y-127999471D01*
X149945497Y-127974118D01*
X149898564Y-127965410D01*
X149893365Y-127965329D01*
X149835498Y-127981537D01*
X149762333Y-128028098D01*
X149677612Y-128101918D01*
X149585075Y-128199907D01*
X149529898Y-128265846D01*
X149434321Y-128378771D01*
X149351376Y-128461710D01*
X149275316Y-128518488D01*
X149200397Y-128552932D01*
X149120873Y-128568869D01*
X149071540Y-128571139D01*
X148966489Y-128560780D01*
X148881978Y-128527089D01*
X148815512Y-128467108D01*
X148764597Y-128377877D01*
X148726738Y-128256434D01*
X148704374Y-128135457D01*
X148679639Y-127986108D01*
X148652986Y-127871114D01*
X148621739Y-127786351D01*
X148583225Y-127727697D01*
X148534769Y-127691028D01*
X148473697Y-127672222D01*
X148400615Y-127667145D01*
X148346994Y-127669017D01*
X148297768Y-127676427D01*
X148244051Y-127692174D01*
X148176956Y-127719060D01*
X148087596Y-127759883D01*
X148050492Y-127777470D01*
X147885899Y-127849647D01*
X147746178Y-127896339D01*
X147627461Y-127917661D01*
X147525884Y-127913725D01*
X147437580Y-127884644D01*
X147358683Y-127830532D01*
X147325814Y-127798676D01*
X147275253Y-127732330D01*
X147245972Y-127657518D01*
X147234014Y-127562347D01*
X147233188Y-127520216D01*
X147236927Y-127443512D01*
X147247092Y-127341276D01*
X147262107Y-127223939D01*
X147280393Y-127101933D01*
X147300374Y-126985691D01*
X147320474Y-126885645D01*
X147339113Y-126812226D01*
X147341239Y-126805512D01*
X147386192Y-126719138D01*
X147451928Y-126657568D01*
X147530880Y-126623255D01*
X147615478Y-126618657D01*
X147698157Y-126646229D01*
X147740154Y-126676071D01*
X147788624Y-126731922D01*
X147821634Y-126804034D01*
X147841031Y-126898892D01*
X147848660Y-127022984D01*
X147848946Y-127058367D01*
X147848946Y-127211938D01*
X148004250Y-127144637D01*
X148146741Y-127089418D01*
X148271066Y-127057154D01*
X148388486Y-127045997D01*
X148510263Y-127054097D01*
X148534456Y-127057604D01*
X148686809Y-127091218D01*
X148814239Y-127142778D01*
X148927950Y-127216969D01*
X148941420Y-127227790D01*
X149058339Y-127345024D01*
X149139660Y-127476180D01*
X149167460Y-127548196D01*
X149186653Y-127608993D01*
X149201715Y-127656667D01*
X149207020Y-127673430D01*
X149224747Y-127676027D01*
X149266402Y-127649829D01*
X149325792Y-127600134D01*
X149401097Y-127540645D01*
X149492271Y-127479649D01*
X149579611Y-127430325D01*
X149579832Y-127430215D01*
X149650066Y-127396683D01*
X149704936Y-127375831D01*
X149758135Y-127364714D01*
X149823356Y-127360390D01*
X149906954Y-127359884D01*
X149999023Y-127361596D01*
X150065753Y-127367556D01*
X150120245Y-127380232D01*
X150175603Y-127402094D01*
X150205329Y-127416089D01*
X150298477Y-127472862D01*
X150401793Y-127556210D01*
X150461051Y-127612227D01*
X150520316Y-127668541D01*
X150568585Y-127709168D01*
X150600203Y-127729650D01*
X150609557Y-127729204D01*
X150616348Y-127697208D01*
X150625215Y-127642626D01*
X150629740Y-127610675D01*
X150674047Y-127412685D01*
X150749893Y-127229261D01*
X150853974Y-127064119D01*
X150982984Y-126920979D01*
X151133620Y-126803557D01*
X151302578Y-126715571D01*
X151471288Y-126663834D01*
X151587391Y-126646506D01*
X151701495Y-126646113D01*
X151824793Y-126663565D01*
X151968475Y-126699768D01*
X151988997Y-126705828D01*
X152060784Y-126726525D01*
X152116843Y-126741197D01*
X152148365Y-126747600D01*
X152152099Y-126747378D01*
X152149685Y-126727659D01*
X152137946Y-126681457D01*
X152119986Y-126620630D01*
X152090776Y-126503104D01*
X152085070Y-126408941D01*
X152102896Y-126331010D01*
X152121257Y-126294891D01*
X152176797Y-126235462D01*
X152253283Y-126192814D01*
X152333921Y-126176203D01*
X152336623Y-126176207D01*
G37*
G36*
X150252091Y-121385875D02*
G01*
X150287745Y-121397105D01*
X150371597Y-121444541D01*
X150448369Y-121520404D01*
X150509133Y-121614679D01*
X150532971Y-121672175D01*
X150549819Y-121733057D01*
X150568723Y-121817039D01*
X150586398Y-121909107D01*
X150591641Y-121940187D01*
X150614327Y-122063926D01*
X150637388Y-122152992D01*
X150662393Y-122211179D01*
X150690912Y-122242280D01*
X150719896Y-122250257D01*
X150781516Y-122235755D01*
X150851636Y-122191181D01*
X150932710Y-122114654D01*
X151005171Y-122031521D01*
X151102713Y-121922448D01*
X151191243Y-121845647D01*
X151275825Y-121797571D01*
X151361520Y-121774671D01*
X151373739Y-121773288D01*
X151483775Y-121771567D01*
X151572876Y-121792664D01*
X151653375Y-121840047D01*
X151675721Y-121858212D01*
X151736664Y-121914925D01*
X151780855Y-121970063D01*
X151810872Y-122031340D01*
X151829298Y-122106472D01*
X151838712Y-122203172D01*
X151841695Y-122329155D01*
X151841749Y-122354525D01*
X151842634Y-122467448D01*
X151845588Y-122546758D01*
X151851057Y-122597295D01*
X151859490Y-122623895D01*
X151867290Y-122630829D01*
X151894700Y-122626753D01*
X151947886Y-122608879D01*
X152018084Y-122580384D01*
X152067288Y-122558320D01*
X152221449Y-122490069D01*
X152346583Y-122442301D01*
X152445605Y-122414035D01*
X152521429Y-122404288D01*
X152524439Y-122404269D01*
X152639654Y-122420717D01*
X152748141Y-122466221D01*
X152836425Y-122535021D01*
X152840445Y-122539386D01*
X152897454Y-122618389D01*
X152932098Y-122707276D01*
X152944414Y-122810343D01*
X152934439Y-122931887D01*
X152902207Y-123076203D01*
X152847757Y-123247587D01*
X152846460Y-123251270D01*
X152801358Y-123382024D01*
X152770017Y-123480393D01*
X152751654Y-123549622D01*
X152745488Y-123592956D01*
X152750735Y-123613641D01*
X152758449Y-123616542D01*
X152780760Y-123607105D01*
X152830643Y-123580800D01*
X152902713Y-123540634D01*
X152991588Y-123489616D01*
X153091885Y-123430752D01*
X153106495Y-123422078D01*
X153244831Y-123340292D01*
X153355453Y-123276443D01*
X153443434Y-123228318D01*
X153513851Y-123193707D01*
X153571779Y-123170398D01*
X153622291Y-123156179D01*
X153670462Y-123148840D01*
X153721369Y-123146168D01*
X153740207Y-123145930D01*
X153815502Y-123147818D01*
X153868525Y-123157572D01*
X153915328Y-123179544D01*
X153950950Y-123203096D01*
X154039211Y-123284753D01*
X154092980Y-123378597D01*
X154112586Y-123480424D01*
X154098360Y-123586033D01*
X154050630Y-123691221D01*
X153969726Y-123791786D01*
X153900080Y-123852245D01*
X153853375Y-123883071D01*
X153778024Y-123927220D01*
X153680157Y-123981539D01*
X153565905Y-124042871D01*
X153441402Y-124108063D01*
X153312778Y-124173960D01*
X153186164Y-124237408D01*
X153067693Y-124295250D01*
X152963495Y-124344334D01*
X152879703Y-124381504D01*
X152841463Y-124396892D01*
X152700981Y-124435102D01*
X152566199Y-124443847D01*
X152442953Y-124423954D01*
X152337074Y-124376252D01*
X152265712Y-124315167D01*
X152205232Y-124218558D01*
X152166830Y-124093029D01*
X152150705Y-123941321D01*
X152157055Y-123766174D01*
X152186081Y-123570330D01*
X152205250Y-123481845D01*
X152231988Y-123368111D01*
X152250825Y-123286500D01*
X152262747Y-123231688D01*
X152268743Y-123198352D01*
X152269801Y-123181171D01*
X152266909Y-123174822D01*
X152262403Y-123173966D01*
X152240394Y-123181544D01*
X152191750Y-123201936D01*
X152124686Y-123231623D01*
X152078093Y-123252864D01*
X151941561Y-123308525D01*
X151825827Y-123338495D01*
X151723781Y-123343578D01*
X151628310Y-123324578D01*
X151585940Y-123308533D01*
X151483167Y-123250295D01*
X151402672Y-123171611D01*
X151342100Y-123068504D01*
X151299097Y-122936995D01*
X151271873Y-122777937D01*
X151260823Y-122695294D01*
X151249274Y-122626904D01*
X151238900Y-122581898D01*
X151233711Y-122569652D01*
X151212958Y-122573365D01*
X151170699Y-122598961D01*
X151113620Y-122642126D01*
X151087344Y-122664025D01*
X151017782Y-122719967D01*
X150948527Y-122769789D01*
X150891856Y-122804806D01*
X150879627Y-122810908D01*
X150765202Y-122843082D01*
X150646436Y-122840954D01*
X150529666Y-122807198D01*
X150421230Y-122744486D01*
X150327467Y-122655490D01*
X150257530Y-122548587D01*
X150231429Y-122493120D01*
X150197698Y-122416891D01*
X150162947Y-122334889D01*
X150157476Y-122321606D01*
X150126798Y-122253448D01*
X150099045Y-122203636D01*
X150078639Y-122179742D01*
X150074093Y-122178890D01*
X150053863Y-122198150D01*
X150021856Y-122241637D01*
X149984994Y-122299943D01*
X149984939Y-122300038D01*
X149911869Y-122406976D01*
X149827919Y-122502699D01*
X149742188Y-122577572D01*
X149693480Y-122608587D01*
X149620186Y-122633023D01*
X149524715Y-122643628D01*
X149513415Y-122643827D01*
X149420809Y-122636492D01*
X149333302Y-122610496D01*
X149244180Y-122562311D01*
X149146724Y-122488409D01*
X149049842Y-122400366D01*
X148986409Y-122340462D01*
X148933042Y-122291926D01*
X148895801Y-122260149D01*
X148881178Y-122250329D01*
X148874949Y-122267916D01*
X148870440Y-122314067D01*
X148868609Y-122378870D01*
X148868606Y-122380216D01*
X148851340Y-122525763D01*
X148802475Y-122655916D01*
X148725750Y-122766484D01*
X148624907Y-122853275D01*
X148503684Y-122912098D01*
X148370419Y-122938452D01*
X148271550Y-122939145D01*
X148172273Y-122925193D01*
X148063511Y-122894379D01*
X147936186Y-122844484D01*
X147875510Y-122817542D01*
X147803762Y-122786036D01*
X147761105Y-122770876D01*
X147742416Y-122770789D01*
X147742570Y-122784496D01*
X147780858Y-122911578D01*
X147803115Y-123047504D01*
X147806104Y-123172397D01*
X147805995Y-123173959D01*
X147779010Y-123327361D01*
X147721486Y-123457702D01*
X147633148Y-123565280D01*
X147513719Y-123650396D01*
X147362924Y-123713350D01*
X147290915Y-123733076D01*
X147211003Y-123746475D01*
X147110396Y-123755347D01*
X147002504Y-123759317D01*
X146900740Y-123758012D01*
X146818515Y-123751057D01*
X146795423Y-123746909D01*
X146751395Y-123741949D01*
X146732957Y-123750431D01*
X146732885Y-123751401D01*
X146743172Y-123774020D01*
X146770983Y-123820728D01*
X146811740Y-123884105D01*
X146848337Y-123938533D01*
X146948189Y-124105282D01*
X147019019Y-124269037D01*
X147061004Y-124426628D01*
X147074321Y-124574881D01*
X147059148Y-124710625D01*
X147015662Y-124830688D01*
X146944041Y-124931898D01*
X146844464Y-125011083D01*
X146786639Y-125040402D01*
X146711161Y-125067184D01*
X146627056Y-125084825D01*
X146529374Y-125093334D01*
X146413170Y-125092720D01*
X146273496Y-125082996D01*
X146105404Y-125064169D01*
X145943946Y-125042098D01*
X145816117Y-125022858D01*
X145695827Y-125003366D01*
X145590221Y-124984888D01*
X145506442Y-124968688D01*
X145451635Y-124956032D01*
X145442377Y-124953270D01*
X145341191Y-124902620D01*
X145262554Y-124829040D01*
X145207388Y-124739090D01*
X145176613Y-124639333D01*
X145171151Y-124536329D01*
X145191921Y-124436642D01*
X145239846Y-124346831D01*
X145315847Y-124273461D01*
X145344449Y-124255529D01*
X145399267Y-124228958D01*
X145457710Y-124210826D01*
X145525024Y-124201183D01*
X145606457Y-124200083D01*
X145707253Y-124207575D01*
X145832660Y-124223712D01*
X145987925Y-124248544D01*
X146069203Y-124262617D01*
X146188134Y-124280425D01*
X146273979Y-124285491D01*
X146330105Y-124277413D01*
X146359877Y-124255791D01*
X146366986Y-124227122D01*
X146355720Y-124196713D01*
X146324999Y-124142828D01*
X146279103Y-124072286D01*
X146222314Y-123991904D01*
X146202546Y-123965225D01*
X146110556Y-123839496D01*
X146041575Y-123736718D01*
X145993119Y-123651013D01*
X145962703Y-123576501D01*
X145947842Y-123507305D01*
X145946052Y-123437545D01*
X145952809Y-123374359D01*
X145981114Y-123293772D01*
X146036464Y-123212735D01*
X146109066Y-123141928D01*
X146189124Y-123092030D01*
X146222961Y-123079782D01*
X146321330Y-123063535D01*
X146439054Y-123060045D01*
X146559287Y-123069011D01*
X146655915Y-123087535D01*
X146822769Y-123121955D01*
X146967175Y-123129431D01*
X147086922Y-123109888D01*
X147108112Y-123102581D01*
X147164804Y-123078351D01*
X147193016Y-123056669D01*
X147201295Y-123029585D01*
X147200989Y-123016181D01*
X147188137Y-122973821D01*
X147158399Y-122916069D01*
X147129302Y-122871355D01*
X147084535Y-122802317D01*
X147036297Y-122717667D01*
X147000218Y-122646432D01*
X146967701Y-122571946D01*
X146950853Y-122515134D01*
X146946360Y-122460195D01*
X146949597Y-122405133D01*
X146977465Y-122266842D01*
X147032878Y-122154476D01*
X147114576Y-122069360D01*
X147221300Y-122012823D01*
X147346952Y-121986593D01*
X147446940Y-121989244D01*
X147555843Y-122015266D01*
X147678297Y-122066386D01*
X147818939Y-122144330D01*
X147889602Y-122188750D01*
X147974105Y-122240991D01*
X148057185Y-122288040D01*
X148127790Y-122323857D01*
X148165646Y-122339625D01*
X148220742Y-122357072D01*
X148253403Y-122360433D01*
X148277386Y-122348710D01*
X148297298Y-122330075D01*
X148315996Y-122309104D01*
X148326515Y-122286319D01*
X148329579Y-122252823D01*
X148325910Y-122199719D01*
X148316231Y-122118111D01*
X148315196Y-122109908D01*
X148303599Y-121931331D01*
X148317388Y-121780895D01*
X148356478Y-121658870D01*
X148420780Y-121565527D01*
X148510207Y-121501137D01*
X148511354Y-121500579D01*
X148623213Y-121466712D01*
X148738386Y-121469249D01*
X148850890Y-121507246D01*
X148941901Y-121568381D01*
X148985101Y-121610924D01*
X149041882Y-121674492D01*
X149103346Y-121748870D01*
X149138340Y-121793868D01*
X149222006Y-121898054D01*
X149292484Y-121971059D01*
X149353728Y-122016156D01*
X149409693Y-122036619D01*
X149434091Y-122038663D01*
X149481927Y-122033816D01*
X149521935Y-122015750D01*
X149558995Y-121979178D01*
X149597983Y-121918815D01*
X149643780Y-121829372D01*
X149661258Y-121792490D01*
X149705109Y-121703137D01*
X149749767Y-121619435D01*
X149789397Y-121551950D01*
X149813517Y-121516788D01*
X149901322Y-121435127D01*
X150007347Y-121385164D01*
X150126100Y-121368285D01*
X150252091Y-121385875D01*
G37*
G36*
X152206039Y-129389863D02*
G01*
X152209612Y-129390893D01*
X152279225Y-129427639D01*
X152346922Y-129491513D01*
X152403831Y-129571790D01*
X152441079Y-129657746D01*
X152445746Y-129676315D01*
X152456010Y-129734936D01*
X152458592Y-129788720D01*
X152451230Y-129841273D01*
X152431658Y-129896200D01*
X152397610Y-129957106D01*
X152346822Y-130027598D01*
X152277030Y-130111281D01*
X152185968Y-130211761D01*
X152071371Y-130332642D01*
X151963318Y-130444309D01*
X151469299Y-130976225D01*
X151011805Y-131518712D01*
X150590081Y-132072776D01*
X150203376Y-132639422D01*
X149850935Y-133219656D01*
X149749588Y-133400498D01*
X149578787Y-133719011D01*
X149431322Y-134011042D01*
X149305887Y-134279672D01*
X149201176Y-134527979D01*
X149115883Y-134759045D01*
X149048702Y-134975948D01*
X149002558Y-135161996D01*
X148961170Y-135356973D01*
X148928504Y-135523085D01*
X148903432Y-135668667D01*
X148884826Y-135802058D01*
X148871559Y-135931594D01*
X148862501Y-136065613D01*
X148856527Y-136212451D01*
X148855462Y-136249193D01*
X148855704Y-136587821D01*
X148876479Y-136900462D01*
X148918948Y-137194380D01*
X148984270Y-137476840D01*
X149073605Y-137755108D01*
X149111978Y-137855935D01*
X149255291Y-138177277D01*
X149418288Y-138465855D01*
X149601892Y-138722513D01*
X149807029Y-138948089D01*
X150034622Y-139143426D01*
X150285595Y-139309363D01*
X150560871Y-139446741D01*
X150861376Y-139556400D01*
X151033567Y-139604164D01*
X151325537Y-139658638D01*
X151633022Y-139681595D01*
X151950521Y-139673756D01*
X152272528Y-139635842D01*
X152593541Y-139568571D01*
X152908055Y-139472666D01*
X153210567Y-139348847D01*
X153294552Y-139308179D01*
X153377965Y-139262715D01*
X153478063Y-139202744D01*
X153584506Y-139135004D01*
X153686953Y-139066230D01*
X153775064Y-139003159D01*
X153832682Y-138957595D01*
X153899374Y-138900342D01*
X153864950Y-138681207D01*
X153848337Y-138582157D01*
X153830475Y-138486574D01*
X153813817Y-138407077D01*
X153803661Y-138365860D01*
X153785320Y-138294943D01*
X153770156Y-138227414D01*
X153765842Y-138204462D01*
X153755541Y-138159921D01*
X153736029Y-138089222D01*
X153710269Y-138002717D01*
X153685980Y-137925447D01*
X153548742Y-137543196D01*
X153386170Y-137171688D01*
X153195832Y-136806551D01*
X152975294Y-136443414D01*
X152722125Y-136077907D01*
X152487349Y-135771955D01*
X152408415Y-135672091D01*
X152350869Y-135595907D01*
X152311142Y-135537787D01*
X152285665Y-135492115D01*
X152270871Y-135453274D01*
X152263845Y-135420230D01*
X152262552Y-135299409D01*
X152293695Y-135191765D01*
X152353226Y-135102187D01*
X152437098Y-135035564D01*
X152541263Y-134996785D01*
X152621067Y-134988814D01*
X152685077Y-134993207D01*
X152745564Y-135008367D01*
X152806193Y-135037269D01*
X152870629Y-135082889D01*
X152942534Y-135148200D01*
X153025575Y-135236178D01*
X153123414Y-135349796D01*
X153237373Y-135489117D01*
X153512145Y-135855320D01*
X153762500Y-136239734D01*
X153985780Y-136637235D01*
X154179328Y-137042697D01*
X154340489Y-137450996D01*
X154466607Y-137857009D01*
X154468479Y-137864036D01*
X154520334Y-138069658D01*
X154561756Y-138259854D01*
X154593966Y-138443819D01*
X154618189Y-138630750D01*
X154635648Y-138829841D01*
X154647565Y-139050289D01*
X154654234Y-139260632D01*
X154657825Y-139496443D01*
X154655999Y-139703376D01*
X154648129Y-139890735D01*
X154633593Y-140067828D01*
X154611766Y-140243962D01*
X154582023Y-140428441D01*
X154572252Y-140482526D01*
X154486357Y-140847780D01*
X154364201Y-141212405D01*
X154207805Y-141571843D01*
X154019193Y-141921536D01*
X153800386Y-142256926D01*
X153760719Y-142311666D01*
X153687135Y-142404199D01*
X153591116Y-142513751D01*
X153478843Y-142634208D01*
X153356494Y-142759454D01*
X153230252Y-142883375D01*
X153106295Y-142999855D01*
X152990805Y-143102780D01*
X152889961Y-143186033D01*
X152837710Y-143224945D01*
X152539091Y-143421036D01*
X152235807Y-143592699D01*
X151923147Y-143741648D01*
X151596397Y-143869596D01*
X151250844Y-143978256D01*
X150881776Y-144069342D01*
X150484481Y-144144567D01*
X150186874Y-144188729D01*
X150090030Y-144201086D01*
X150000739Y-144210915D01*
X149912725Y-144218496D01*
X149819711Y-144224110D01*
X149715421Y-144228037D01*
X149593578Y-144230557D01*
X149447905Y-144231949D01*
X149272125Y-144232495D01*
X149205537Y-144232538D01*
X148908947Y-144230339D01*
X148642795Y-144223144D01*
X148399270Y-144210251D01*
X148170566Y-144190957D01*
X147948873Y-144164562D01*
X147726385Y-144130362D01*
X147495291Y-144087656D01*
X147415991Y-144071613D01*
X147014176Y-143973204D01*
X146628977Y-143847676D01*
X146262914Y-143696466D01*
X145918503Y-143521008D01*
X145598263Y-143322736D01*
X145304712Y-143103085D01*
X145040367Y-142863490D01*
X144807746Y-142605387D01*
X144778575Y-142568775D01*
X144556257Y-142255660D01*
X144359914Y-141917650D01*
X144192249Y-141560501D01*
X144055964Y-141189969D01*
X143953916Y-140812502D01*
X143880119Y-140397329D01*
X143838603Y-139964595D01*
X143829444Y-139517811D01*
X143852721Y-139060490D01*
X143905360Y-138616752D01*
X143967166Y-138261239D01*
X144045313Y-137906200D01*
X144140839Y-137549260D01*
X144254780Y-137188046D01*
X144388173Y-136820187D01*
X144542054Y-136443307D01*
X144717460Y-136055035D01*
X144915428Y-135652997D01*
X145136994Y-135234820D01*
X145383195Y-134798130D01*
X145655068Y-134340556D01*
X145953650Y-133859722D01*
X146048509Y-133710705D01*
X146277264Y-133349979D01*
X146484423Y-133016100D01*
X146671937Y-132705478D01*
X146841758Y-132414522D01*
X146995838Y-132139640D01*
X147136131Y-131877241D01*
X147264587Y-131623734D01*
X147383160Y-131375527D01*
X147493801Y-131129030D01*
X147598463Y-130880652D01*
X147631891Y-130797988D01*
X147682187Y-130680019D01*
X147727927Y-130594340D01*
X147774451Y-130536051D01*
X147827098Y-130500250D01*
X147891205Y-130482037D01*
X147972113Y-130476510D01*
X147982145Y-130476466D01*
X148111429Y-130491921D01*
X148217180Y-130537639D01*
X148298266Y-130612651D01*
X148353553Y-130715986D01*
X148377993Y-130815328D01*
X148378758Y-130883837D01*
X148362919Y-130973456D01*
X148329698Y-131086525D01*
X148278316Y-131225384D01*
X148207995Y-131392370D01*
X148126146Y-131572333D01*
X148039764Y-131752095D01*
X147944147Y-131940942D01*
X147837783Y-132141504D01*
X147719160Y-132356407D01*
X147586764Y-132588280D01*
X147439083Y-132839750D01*
X147274606Y-133113446D01*
X147091819Y-133411996D01*
X146889211Y-133738027D01*
X146774535Y-133920860D01*
X146572877Y-134242770D01*
X146391108Y-134535940D01*
X146227533Y-134803490D01*
X146080456Y-135048542D01*
X145948181Y-135274216D01*
X145829013Y-135483635D01*
X145721256Y-135679918D01*
X145623214Y-135866186D01*
X145533191Y-136045562D01*
X145449493Y-136221166D01*
X145370422Y-136396119D01*
X145294284Y-136573541D01*
X145219383Y-136756555D01*
X145180219Y-136855329D01*
X145031945Y-137250307D01*
X144907114Y-137621378D01*
X144804239Y-137973954D01*
X144721836Y-138313451D01*
X144658420Y-138645282D01*
X144623311Y-138885405D01*
X144606177Y-139059980D01*
X144595137Y-139260187D01*
X144590118Y-139475769D01*
X144591049Y-139696465D01*
X144597857Y-139912017D01*
X144610470Y-140112166D01*
X144628816Y-140286653D01*
X144633374Y-140318966D01*
X144675438Y-140570884D01*
X144723489Y-140794226D01*
X144780496Y-140998781D01*
X144849426Y-141194339D01*
X144933247Y-141390691D01*
X145000622Y-141530366D01*
X145111993Y-141736509D01*
X145228831Y-141918355D01*
X145360046Y-142088189D01*
X145514545Y-142258298D01*
X145567061Y-142311514D01*
X145817779Y-142536291D01*
X146093907Y-142735638D01*
X146396693Y-142910212D01*
X146727387Y-143060672D01*
X147087238Y-143187675D01*
X147387127Y-143270426D01*
X147615682Y-143323228D01*
X147834661Y-143366253D01*
X148052263Y-143400494D01*
X148276683Y-143426940D01*
X148516119Y-143446585D01*
X148778766Y-143460418D01*
X149022734Y-143468258D01*
X149505366Y-143467786D01*
X149961160Y-143441581D01*
X150392205Y-143389291D01*
X150800589Y-143310565D01*
X151188403Y-143205051D01*
X151557737Y-143072396D01*
X151679429Y-143021068D01*
X152001508Y-142859828D01*
X152308366Y-142666207D01*
X152596489Y-142443496D01*
X152862362Y-142194985D01*
X153102473Y-141923963D01*
X153313307Y-141633723D01*
X153491351Y-141327553D01*
X153494458Y-141321476D01*
X153566704Y-141176476D01*
X153623953Y-141052481D01*
X153671008Y-140937498D01*
X153712671Y-140819530D01*
X153753744Y-140686582D01*
X153767139Y-140640341D01*
X153790522Y-140553109D01*
X153816245Y-140447952D01*
X153842696Y-140332564D01*
X153868261Y-140214640D01*
X153891326Y-140101874D01*
X153910280Y-140001961D01*
X153923507Y-139922594D01*
X153929396Y-139871468D01*
X153929552Y-139865727D01*
X153917049Y-139857580D01*
X153878423Y-139873351D01*
X153825133Y-139905179D01*
X153549200Y-140060764D01*
X153247458Y-140192602D01*
X152925073Y-140299787D01*
X152587209Y-140381415D01*
X152239033Y-140436578D01*
X151885709Y-140464373D01*
X151532402Y-140463892D01*
X151184278Y-140434231D01*
X150985461Y-140403058D01*
X150663549Y-140325459D01*
X150347339Y-140213980D01*
X150042661Y-140071570D01*
X149755344Y-139901182D01*
X149491220Y-139705766D01*
X149336376Y-139568289D01*
X149107469Y-139325554D01*
X148894679Y-139051956D01*
X148701056Y-138752834D01*
X148529651Y-138433523D01*
X148383511Y-138099359D01*
X148265688Y-137755680D01*
X148232253Y-137636217D01*
X148184362Y-137438139D01*
X148147747Y-137246532D01*
X148121337Y-137052066D01*
X148104055Y-136845410D01*
X148094829Y-136617234D01*
X148092542Y-136422375D01*
X148102786Y-136016941D01*
X148136330Y-135634536D01*
X148194904Y-135266318D01*
X148280238Y-134903445D01*
X148394061Y-134537076D01*
X148532907Y-134171011D01*
X148632898Y-133935012D01*
X148736582Y-133707065D01*
X148846750Y-133482121D01*
X148966191Y-133255130D01*
X149097695Y-133021042D01*
X149244053Y-132774807D01*
X149408056Y-132511374D01*
X149592492Y-132225694D01*
X149686429Y-132083208D01*
X149940963Y-131708543D01*
X150191346Y-131359720D01*
X150443702Y-131029239D01*
X150704157Y-130709601D01*
X150978836Y-130393308D01*
X151273865Y-130072860D01*
X151595369Y-129740759D01*
X151620461Y-129715433D01*
X151724426Y-129611611D01*
X151806169Y-129532503D01*
X151869705Y-129474673D01*
X151919052Y-129434684D01*
X151958227Y-129409097D01*
X151991246Y-129394476D01*
X151997921Y-129392436D01*
X152073474Y-129375344D01*
X152135693Y-129374538D01*
X152206039Y-129389863D01*
G37*
G36*
X149940846Y-122947383D02*
G01*
X150052381Y-122953165D01*
X150151309Y-122961289D01*
X150224863Y-122970907D01*
X150226355Y-122971175D01*
X150521604Y-123041214D01*
X150792368Y-123140063D01*
X151040838Y-123268792D01*
X151269206Y-123428473D01*
X151406309Y-123547865D01*
X151549201Y-123706012D01*
X151675323Y-123891871D01*
X151780217Y-124096695D01*
X151859426Y-124311735D01*
X151908492Y-124528242D01*
X151909605Y-124535711D01*
X151932332Y-124691142D01*
X152079465Y-124723816D01*
X152360760Y-124805196D01*
X152642176Y-124924000D01*
X152922016Y-125079210D01*
X153198582Y-125269808D01*
X153470178Y-125494777D01*
X153650537Y-125666246D01*
X153928969Y-125971890D01*
X154175061Y-126298377D01*
X154388779Y-126645630D01*
X154570086Y-127013572D01*
X154718945Y-127402128D01*
X154835321Y-127811220D01*
X154919177Y-128240772D01*
X154941880Y-128404269D01*
X154950943Y-128494512D01*
X154959166Y-128609417D01*
X154966438Y-128743295D01*
X154972649Y-128890455D01*
X154977689Y-129045209D01*
X154981448Y-129201868D01*
X154983814Y-129354741D01*
X154984677Y-129498139D01*
X154983927Y-129626373D01*
X154981454Y-129733753D01*
X154977148Y-129814590D01*
X154970896Y-129863195D01*
X154970241Y-129865771D01*
X154924242Y-129967430D01*
X154852181Y-130045683D01*
X154760703Y-130097407D01*
X154656455Y-130119473D01*
X154546084Y-130108757D01*
X154492037Y-130090699D01*
X154428300Y-130058622D01*
X154378274Y-130018613D01*
X154340098Y-129965741D01*
X154311913Y-129895074D01*
X154291857Y-129801678D01*
X154278069Y-129680624D01*
X154268688Y-129526978D01*
X154267308Y-129495102D01*
X154250375Y-129173850D01*
X154226970Y-128884839D01*
X154196184Y-128622229D01*
X154157110Y-128380181D01*
X154108839Y-128152856D01*
X154050464Y-127934413D01*
X153999508Y-127772905D01*
X153859502Y-127408434D01*
X153693408Y-127072190D01*
X153500909Y-126763814D01*
X153281685Y-126482949D01*
X153035417Y-126229235D01*
X152761786Y-126002316D01*
X152460471Y-125801831D01*
X152131155Y-125627423D01*
X152059086Y-125594378D01*
X151976698Y-125558185D01*
X151906838Y-125528682D01*
X151857138Y-125509013D01*
X151835566Y-125502299D01*
X151820647Y-125518984D01*
X151798519Y-125562681D01*
X151774493Y-125622564D01*
X151662071Y-125878310D01*
X151518364Y-126112230D01*
X151344324Y-126323517D01*
X151140902Y-126511366D01*
X150909052Y-126674970D01*
X150649724Y-126813524D01*
X150363872Y-126926222D01*
X150165433Y-126984931D01*
X150038910Y-127009877D01*
X149886504Y-127027350D01*
X149720160Y-127036966D01*
X149551821Y-127038337D01*
X149393431Y-127031078D01*
X149256934Y-127014804D01*
X149254395Y-127014364D01*
X148961878Y-126944114D01*
X148683482Y-126838586D01*
X148421723Y-126699084D01*
X148179116Y-126526913D01*
X147995335Y-126361371D01*
X147942164Y-126302860D01*
X147883163Y-126229394D01*
X147823335Y-126148311D01*
X147767684Y-126066947D01*
X147721214Y-125992641D01*
X147688929Y-125932730D01*
X147675833Y-125894551D01*
X147675764Y-125892763D01*
X147672208Y-125874776D01*
X147659287Y-125872614D01*
X147633620Y-125888906D01*
X147591827Y-125926276D01*
X147530528Y-125987353D01*
X147460125Y-126060325D01*
X147252366Y-126301004D01*
X147056851Y-126574472D01*
X146876422Y-126876201D01*
X146713919Y-127201664D01*
X146645515Y-127359193D01*
X146584026Y-127517092D01*
X146517166Y-127705871D01*
X146447061Y-127918661D01*
X146375836Y-128148593D01*
X146305616Y-128388799D01*
X146238526Y-128632411D01*
X146176691Y-128872560D01*
X146174294Y-128882249D01*
X146113405Y-129124331D01*
X146057849Y-129334771D01*
X146005740Y-129519729D01*
X145955193Y-129685365D01*
X145904321Y-129837840D01*
X145851240Y-129983312D01*
X145794063Y-130127943D01*
X145789770Y-130138410D01*
X145718535Y-130305641D01*
X145641885Y-130473055D01*
X145558006Y-130643767D01*
X145465089Y-130820892D01*
X145361320Y-131007545D01*
X145244890Y-131206839D01*
X145113985Y-131421891D01*
X144966795Y-131655815D01*
X144801508Y-131911725D01*
X144616312Y-132192737D01*
X144451609Y-132439193D01*
X144261720Y-132723338D01*
X144091710Y-132981147D01*
X143938751Y-133217357D01*
X143800015Y-133436704D01*
X143672673Y-133643925D01*
X143553899Y-133843757D01*
X143440862Y-134040936D01*
X143330737Y-134240198D01*
X143220694Y-134446279D01*
X143107905Y-134663917D01*
X143021172Y-134834875D01*
X142751110Y-135407757D01*
X142515800Y-135984109D01*
X142315778Y-136562098D01*
X142151577Y-137139892D01*
X142023733Y-137715659D01*
X141932779Y-138287566D01*
X141888880Y-138715629D01*
X141881992Y-138835270D01*
X141877308Y-138983132D01*
X141874736Y-139151893D01*
X141874182Y-139334231D01*
X141875553Y-139522823D01*
X141878757Y-139710348D01*
X141883701Y-139889482D01*
X141890291Y-140052905D01*
X141898436Y-140193294D01*
X141908041Y-140303326D01*
X141909150Y-140312984D01*
X141973187Y-140737790D01*
X142064826Y-141171894D01*
X142181394Y-141606299D01*
X142320216Y-142032009D01*
X142478620Y-142440026D01*
X142653931Y-142821354D01*
X142655550Y-142824584D01*
X142882743Y-143235689D01*
X143141829Y-143628492D01*
X143430356Y-144000222D01*
X143745873Y-144348104D01*
X144085929Y-144669367D01*
X144448073Y-144961237D01*
X144700696Y-145138207D01*
X144988376Y-145313994D01*
X145306482Y-145482754D01*
X145647133Y-145641139D01*
X146002445Y-145785800D01*
X146364536Y-145913388D01*
X146725525Y-146020555D01*
X146857364Y-146054393D01*
X147137602Y-146115776D01*
X147447582Y-146170575D01*
X147778996Y-146217985D01*
X148123538Y-146257201D01*
X148472901Y-146287415D01*
X148818777Y-146307821D01*
X149152859Y-146317615D01*
X149466840Y-146315988D01*
X149532658Y-146314009D01*
X150108529Y-146278156D01*
X150661652Y-146211613D01*
X151192800Y-146114152D01*
X151702745Y-145985544D01*
X152192261Y-145825559D01*
X152662120Y-145633968D01*
X153113096Y-145410544D01*
X153545961Y-145155055D01*
X153631050Y-145099679D01*
X154006163Y-144828917D01*
X154362345Y-144525995D01*
X154698098Y-144193061D01*
X155011925Y-143832266D01*
X155302327Y-143445758D01*
X155567807Y-143035686D01*
X155806865Y-142604201D01*
X156018005Y-142153452D01*
X156199728Y-141685588D01*
X156350536Y-141202759D01*
X156352816Y-141194461D01*
X156406776Y-140986960D01*
X156452933Y-140784442D01*
X156492926Y-140577816D01*
X156528398Y-140357991D01*
X156560989Y-140115878D01*
X156585516Y-139905254D01*
X156603478Y-139765232D01*
X156624583Y-139657666D01*
X156651941Y-139576523D01*
X156688660Y-139515774D01*
X156737850Y-139469388D01*
X156802620Y-139431334D01*
X156838256Y-139415074D01*
X156945809Y-139383695D01*
X157044968Y-139388128D01*
X157142831Y-139428959D01*
X157163275Y-139441810D01*
X157217767Y-139484079D01*
X157259548Y-139533030D01*
X157289359Y-139593171D01*
X157307943Y-139669013D01*
X157316040Y-139765064D01*
X157314392Y-139885833D01*
X157303742Y-140035831D01*
X157287412Y-140196487D01*
X157211674Y-140720663D01*
X157101751Y-141241082D01*
X156959194Y-141752422D01*
X156785557Y-142249362D01*
X156582389Y-142726583D01*
X156499357Y-142898467D01*
X156264618Y-143334284D01*
X156008576Y-143742872D01*
X155727156Y-144129768D01*
X155416281Y-144500513D01*
X155071875Y-144860644D01*
X155013661Y-144917385D01*
X154634365Y-145257065D01*
X154228901Y-145569292D01*
X153798773Y-145853358D01*
X153345484Y-146108559D01*
X152870536Y-146334187D01*
X152375433Y-146529536D01*
X151861677Y-146693899D01*
X151330773Y-146826572D01*
X150784222Y-146926846D01*
X150716067Y-146936896D01*
X150556065Y-146958938D01*
X150407628Y-146977098D01*
X150264614Y-146991715D01*
X150120883Y-147003128D01*
X149970294Y-147011676D01*
X149806705Y-147017697D01*
X149623977Y-147021530D01*
X149415968Y-147023515D01*
X149176537Y-147023990D01*
X149138188Y-147023952D01*
X148864337Y-147022498D01*
X148621907Y-147018531D01*
X148403886Y-147011523D01*
X148203260Y-147000943D01*
X148013019Y-146986263D01*
X147826148Y-146966955D01*
X147635636Y-146942488D01*
X147434469Y-146912335D01*
X147246302Y-146881229D01*
X146722305Y-146773857D01*
X146212323Y-146633704D01*
X145718143Y-146461772D01*
X145241553Y-146259064D01*
X144784340Y-146026580D01*
X144348292Y-145765323D01*
X143935195Y-145476293D01*
X143546838Y-145160493D01*
X143185007Y-144818924D01*
X142851489Y-144452588D01*
X142798407Y-144388738D01*
X142493789Y-143987787D01*
X142219148Y-143563956D01*
X141974288Y-143116811D01*
X141759013Y-142645918D01*
X141573129Y-142150841D01*
X141416440Y-141631147D01*
X141288749Y-141086399D01*
X141270139Y-140992451D01*
X141212591Y-140659835D01*
X141170602Y-140334600D01*
X141143008Y-140004318D01*
X141128644Y-139656560D01*
X141125961Y-139453057D01*
X141127781Y-139123783D01*
X141136928Y-138819303D01*
X141154386Y-138531139D01*
X141181139Y-138250815D01*
X141218173Y-137969854D01*
X141266472Y-137679779D01*
X141327019Y-137372114D01*
X141400800Y-137038382D01*
X141412025Y-136990026D01*
X141512596Y-136599117D01*
X141633037Y-136205232D01*
X141775073Y-135803795D01*
X141940430Y-135390232D01*
X142130835Y-134959965D01*
X142348013Y-134508418D01*
X142348275Y-134507892D01*
X142517618Y-134176540D01*
X142691483Y-133853641D01*
X142873838Y-133532465D01*
X143068648Y-133206281D01*
X143279878Y-132868360D01*
X143511494Y-132511971D01*
X143623964Y-132342981D01*
X143760012Y-132139743D01*
X143877048Y-131964463D01*
X143977615Y-131813220D01*
X144064259Y-131682091D01*
X144139523Y-131567152D01*
X144205950Y-131464481D01*
X144266084Y-131370156D01*
X144322470Y-131280254D01*
X144377651Y-131190852D01*
X144434172Y-131098028D01*
X144472533Y-131034496D01*
X144556822Y-130889757D01*
X144647097Y-130726309D01*
X144739787Y-130551310D01*
X144831324Y-130371916D01*
X144918136Y-130195284D01*
X144996653Y-130028571D01*
X145063306Y-129878935D01*
X145114523Y-129753532D01*
X145123533Y-129729447D01*
X145179716Y-129571307D01*
X145231987Y-129413532D01*
X145282206Y-129249597D01*
X145332230Y-129072978D01*
X145383917Y-128877150D01*
X145439125Y-128655590D01*
X145490648Y-128440291D01*
X145576430Y-128103086D01*
X145674070Y-127766402D01*
X145781059Y-127437443D01*
X145894885Y-127123415D01*
X146013040Y-126831523D01*
X146133013Y-126568973D01*
X146164861Y-126505092D01*
X146321724Y-126223952D01*
X146500263Y-125952450D01*
X146695748Y-125696353D01*
X146903446Y-125461425D01*
X147118624Y-125253432D01*
X147335406Y-125078966D01*
X147481972Y-124973132D01*
X147482656Y-124873368D01*
X147500094Y-124688207D01*
X147547796Y-124491348D01*
X147622480Y-124289958D01*
X147720864Y-124091201D01*
X147839667Y-123902245D01*
X147975607Y-123730255D01*
X148035295Y-123666549D01*
X148263525Y-123461849D01*
X148510436Y-123290634D01*
X148775076Y-123153285D01*
X149056496Y-123050184D01*
X149353746Y-122981714D01*
X149665874Y-122948258D01*
X149829470Y-122944793D01*
X149940846Y-122947383D01*
G37*
%TO.C,D2*%
D13*
X141966000Y-110883000D02*
X141966000Y-114173000D01*
X141966000Y-110883000D02*
X142626000Y-110193000D01*
X147266000Y-110193000D02*
X142626000Y-110193000D01*
X147266000Y-114173000D02*
X141966000Y-114173000D01*
D12*
X147266000Y-114173000D02*
X147266000Y-110183000D01*
%TO.C,J2*%
D13*
X140411000Y-121414000D02*
X140411000Y-125294000D01*
X142381000Y-120244000D02*
X144881000Y-120244000D01*
X142381000Y-126464000D02*
X144881000Y-126464000D01*
X144881000Y-120244000D02*
X144881000Y-121294000D01*
X144881000Y-121294000D02*
X145871000Y-121294000D01*
X144881000Y-126464000D02*
X144881000Y-125414000D01*
%TO.C,D1*%
X149048500Y-122083000D02*
X149048500Y-124083000D01*
X149048500Y-122083000D02*
X153058500Y-122083000D01*
X149048500Y-124083000D02*
X153058500Y-124083000D01*
%TO.C,U2*%
X154346000Y-129283000D02*
X154346000Y-120683000D01*
X158946000Y-122983000D02*
X158946000Y-120683000D01*
X158946000Y-129283000D02*
X158946000Y-127083000D01*
%TO.C,mouse-bite-2mm-slot*%
D12*
X140996000Y-116783000D02*
G75*
G02*
X140996000Y-118783000I0J-1000000D01*
G01*
X147996000Y-118783000D02*
G75*
G02*
X147996000Y-116783000I0J1000000D01*
G01*
%TO.C,U5*%
D15*
X147076000Y-119903000D02*
X147576000Y-119403000D01*
X147076000Y-120703000D02*
X147076000Y-119903000D01*
X147576000Y-119403000D02*
X151176000Y-119403000D01*
X147576000Y-121203000D02*
X147076000Y-120703000D01*
X151176000Y-119403000D02*
X151676000Y-119903000D01*
X151176000Y-121203000D02*
X147576000Y-121203000D01*
X151676000Y-119903000D02*
X151676000Y-120703000D01*
X151676000Y-120703000D02*
X151176000Y-121203000D01*
%TO.C,R2*%
D13*
X146648936Y-128528000D02*
X147103064Y-128528000D01*
X146648936Y-129998000D02*
X147103064Y-129998000D01*
%TD*%
M02*
