%TF.GenerationSoftware,KiCad,Pcbnew,10.0.0*%
%TF.CreationDate,2026-07-23T16:12:42+02:00*%
%TF.ProjectId,v4.0.10c_SK6812,76342e30-2e31-4306-935f-534b36383132,rev?*%
%TF.SameCoordinates,Original*%
%TF.FileFunction,Legend,Bot*%
%TF.FilePolarity,Positive*%
%FSLAX46Y46*%
G04 Gerber Fmt 4.6, Leading zero omitted, Abs format (unit mm)*
G04 Created by KiCad (PCBNEW 10.0.0) date 2026-07-23 16:12:42*
%MOMM*%
%LPD*%
G01*
G04 APERTURE LIST*
%ADD10C,0.062500*%
%ADD11C,0.125000*%
%ADD12C,0.150000*%
%ADD13C,0.120000*%
G04 APERTURE END LIST*
D10*
X141766952Y-110321059D02*
X141766952Y-110725821D01*
X141766952Y-110725821D02*
X141743142Y-110773440D01*
X141743142Y-110773440D02*
X141719333Y-110797250D01*
X141719333Y-110797250D02*
X141671714Y-110821059D01*
X141671714Y-110821059D02*
X141576476Y-110821059D01*
X141576476Y-110821059D02*
X141528857Y-110797250D01*
X141528857Y-110797250D02*
X141505047Y-110773440D01*
X141505047Y-110773440D02*
X141481238Y-110725821D01*
X141481238Y-110725821D02*
X141481238Y-110321059D01*
X141290761Y-110321059D02*
X140981237Y-110321059D01*
X140981237Y-110321059D02*
X141147904Y-110511535D01*
X141147904Y-110511535D02*
X141076475Y-110511535D01*
X141076475Y-110511535D02*
X141028856Y-110535345D01*
X141028856Y-110535345D02*
X141005047Y-110559154D01*
X141005047Y-110559154D02*
X140981237Y-110606773D01*
X140981237Y-110606773D02*
X140981237Y-110725821D01*
X140981237Y-110725821D02*
X141005047Y-110773440D01*
X141005047Y-110773440D02*
X141028856Y-110797250D01*
X141028856Y-110797250D02*
X141076475Y-110821059D01*
X141076475Y-110821059D02*
X141219332Y-110821059D01*
X141219332Y-110821059D02*
X141266951Y-110797250D01*
X141266951Y-110797250D02*
X141290761Y-110773440D01*
D11*
X157090239Y-143879132D02*
X157756906Y-144117227D01*
X157756906Y-144117227D02*
X157090239Y-144355322D01*
X157090239Y-145164846D02*
X157756906Y-145164846D01*
X156709287Y-144926751D02*
X157423572Y-144688656D01*
X157423572Y-144688656D02*
X157423572Y-145307703D01*
X157661667Y-145688656D02*
X157709287Y-145736275D01*
X157709287Y-145736275D02*
X157756906Y-145688656D01*
X157756906Y-145688656D02*
X157709287Y-145641037D01*
X157709287Y-145641037D02*
X157661667Y-145688656D01*
X157661667Y-145688656D02*
X157756906Y-145688656D01*
X157756906Y-146688655D02*
X157756906Y-146117227D01*
X157756906Y-146402941D02*
X156756906Y-146402941D01*
X156756906Y-146402941D02*
X156899763Y-146307703D01*
X156899763Y-146307703D02*
X156995001Y-146212465D01*
X156995001Y-146212465D02*
X157042620Y-146117227D01*
D12*
X141649715Y-148401520D02*
X141535429Y-148344377D01*
X141535429Y-148344377D02*
X141306858Y-148344377D01*
X141306858Y-148344377D02*
X141192572Y-148401520D01*
X141192572Y-148401520D02*
X141135429Y-148515805D01*
X141135429Y-148515805D02*
X141135429Y-148972948D01*
X141135429Y-148972948D02*
X141192572Y-149087234D01*
X141192572Y-149087234D02*
X141306858Y-149144377D01*
X141306858Y-149144377D02*
X141535429Y-149144377D01*
X141535429Y-149144377D02*
X141649715Y-149087234D01*
X141649715Y-149087234D02*
X141706858Y-148972948D01*
X141706858Y-148972948D02*
X141706858Y-148858662D01*
X141706858Y-148858662D02*
X141135429Y-148744377D01*
X142106857Y-148344377D02*
X142735429Y-149144377D01*
X142106857Y-149144377D02*
X142735429Y-148344377D01*
X143706858Y-148401520D02*
X143592572Y-148344377D01*
X143592572Y-148344377D02*
X143364000Y-148344377D01*
X143364000Y-148344377D02*
X143249715Y-148401520D01*
X143249715Y-148401520D02*
X143192572Y-148458662D01*
X143192572Y-148458662D02*
X143135429Y-148572948D01*
X143135429Y-148572948D02*
X143135429Y-148915805D01*
X143135429Y-148915805D02*
X143192572Y-149030091D01*
X143192572Y-149030091D02*
X143249715Y-149087234D01*
X143249715Y-149087234D02*
X143364000Y-149144377D01*
X143364000Y-149144377D02*
X143592572Y-149144377D01*
X143592572Y-149144377D02*
X143706858Y-149087234D01*
X144221143Y-148344377D02*
X144221143Y-149144377D01*
X144221143Y-149544377D02*
X144164000Y-149487234D01*
X144164000Y-149487234D02*
X144221143Y-149430091D01*
X144221143Y-149430091D02*
X144278286Y-149487234D01*
X144278286Y-149487234D02*
X144221143Y-149544377D01*
X144221143Y-149544377D02*
X144221143Y-149430091D01*
X144621143Y-149144377D02*
X145078286Y-149144377D01*
X144792572Y-149544377D02*
X144792572Y-148515805D01*
X144792572Y-148515805D02*
X144849715Y-148401520D01*
X144849715Y-148401520D02*
X144964000Y-148344377D01*
X144964000Y-148344377D02*
X145078286Y-148344377D01*
X145478286Y-148344377D02*
X145478286Y-149144377D01*
X145478286Y-149544377D02*
X145421143Y-149487234D01*
X145421143Y-149487234D02*
X145478286Y-149430091D01*
X145478286Y-149430091D02*
X145535429Y-149487234D01*
X145535429Y-149487234D02*
X145478286Y-149544377D01*
X145478286Y-149544377D02*
X145478286Y-149430091D01*
X146049715Y-149144377D02*
X146049715Y-148344377D01*
X146049715Y-149030091D02*
X146106858Y-149087234D01*
X146106858Y-149087234D02*
X146221143Y-149144377D01*
X146221143Y-149144377D02*
X146392572Y-149144377D01*
X146392572Y-149144377D02*
X146506858Y-149087234D01*
X146506858Y-149087234D02*
X146564001Y-148972948D01*
X146564001Y-148972948D02*
X146564001Y-148344377D01*
X147649715Y-149144377D02*
X147649715Y-148172948D01*
X147649715Y-148172948D02*
X147592572Y-148058662D01*
X147592572Y-148058662D02*
X147535429Y-148001520D01*
X147535429Y-148001520D02*
X147421143Y-147944377D01*
X147421143Y-147944377D02*
X147249715Y-147944377D01*
X147249715Y-147944377D02*
X147135429Y-148001520D01*
X147649715Y-148401520D02*
X147535429Y-148344377D01*
X147535429Y-148344377D02*
X147306857Y-148344377D01*
X147306857Y-148344377D02*
X147192572Y-148401520D01*
X147192572Y-148401520D02*
X147135429Y-148458662D01*
X147135429Y-148458662D02*
X147078286Y-148572948D01*
X147078286Y-148572948D02*
X147078286Y-148915805D01*
X147078286Y-148915805D02*
X147135429Y-149030091D01*
X147135429Y-149030091D02*
X147192572Y-149087234D01*
X147192572Y-149087234D02*
X147306857Y-149144377D01*
X147306857Y-149144377D02*
X147535429Y-149144377D01*
X147535429Y-149144377D02*
X147649715Y-149087234D01*
X148221143Y-148344377D02*
X148221143Y-149144377D01*
X148221143Y-148915805D02*
X148278286Y-149030091D01*
X148278286Y-149030091D02*
X148335429Y-149087234D01*
X148335429Y-149087234D02*
X148449714Y-149144377D01*
X148449714Y-149144377D02*
X148564000Y-149144377D01*
X149421143Y-148401520D02*
X149306857Y-148344377D01*
X149306857Y-148344377D02*
X149078286Y-148344377D01*
X149078286Y-148344377D02*
X148964000Y-148401520D01*
X148964000Y-148401520D02*
X148906857Y-148515805D01*
X148906857Y-148515805D02*
X148906857Y-148972948D01*
X148906857Y-148972948D02*
X148964000Y-149087234D01*
X148964000Y-149087234D02*
X149078286Y-149144377D01*
X149078286Y-149144377D02*
X149306857Y-149144377D01*
X149306857Y-149144377D02*
X149421143Y-149087234D01*
X149421143Y-149087234D02*
X149478286Y-148972948D01*
X149478286Y-148972948D02*
X149478286Y-148858662D01*
X149478286Y-148858662D02*
X148906857Y-148744377D01*
X149935428Y-148401520D02*
X150049714Y-148344377D01*
X150049714Y-148344377D02*
X150278285Y-148344377D01*
X150278285Y-148344377D02*
X150392571Y-148401520D01*
X150392571Y-148401520D02*
X150449714Y-148515805D01*
X150449714Y-148515805D02*
X150449714Y-148572948D01*
X150449714Y-148572948D02*
X150392571Y-148687234D01*
X150392571Y-148687234D02*
X150278285Y-148744377D01*
X150278285Y-148744377D02*
X150106857Y-148744377D01*
X150106857Y-148744377D02*
X149992571Y-148801520D01*
X149992571Y-148801520D02*
X149935428Y-148915805D01*
X149935428Y-148915805D02*
X149935428Y-148972948D01*
X149935428Y-148972948D02*
X149992571Y-149087234D01*
X149992571Y-149087234D02*
X150106857Y-149144377D01*
X150106857Y-149144377D02*
X150278285Y-149144377D01*
X150278285Y-149144377D02*
X150392571Y-149087234D01*
X151421143Y-148401520D02*
X151306857Y-148344377D01*
X151306857Y-148344377D02*
X151078286Y-148344377D01*
X151078286Y-148344377D02*
X150964000Y-148401520D01*
X150964000Y-148401520D02*
X150906857Y-148515805D01*
X150906857Y-148515805D02*
X150906857Y-148972948D01*
X150906857Y-148972948D02*
X150964000Y-149087234D01*
X150964000Y-149087234D02*
X151078286Y-149144377D01*
X151078286Y-149144377D02*
X151306857Y-149144377D01*
X151306857Y-149144377D02*
X151421143Y-149087234D01*
X151421143Y-149087234D02*
X151478286Y-148972948D01*
X151478286Y-148972948D02*
X151478286Y-148858662D01*
X151478286Y-148858662D02*
X150906857Y-148744377D01*
X152506857Y-148344377D02*
X152506857Y-148972948D01*
X152506857Y-148972948D02*
X152449714Y-149087234D01*
X152449714Y-149087234D02*
X152335428Y-149144377D01*
X152335428Y-149144377D02*
X152106857Y-149144377D01*
X152106857Y-149144377D02*
X151992571Y-149087234D01*
X152506857Y-148401520D02*
X152392571Y-148344377D01*
X152392571Y-148344377D02*
X152106857Y-148344377D01*
X152106857Y-148344377D02*
X151992571Y-148401520D01*
X151992571Y-148401520D02*
X151935428Y-148515805D01*
X151935428Y-148515805D02*
X151935428Y-148630091D01*
X151935428Y-148630091D02*
X151992571Y-148744377D01*
X151992571Y-148744377D02*
X152106857Y-148801520D01*
X152106857Y-148801520D02*
X152392571Y-148801520D01*
X152392571Y-148801520D02*
X152506857Y-148858662D01*
X153078285Y-148344377D02*
X153078285Y-149144377D01*
X153078285Y-148915805D02*
X153135428Y-149030091D01*
X153135428Y-149030091D02*
X153192571Y-149087234D01*
X153192571Y-149087234D02*
X153306856Y-149144377D01*
X153306856Y-149144377D02*
X153421142Y-149144377D01*
X154335428Y-148401520D02*
X154221142Y-148344377D01*
X154221142Y-148344377D02*
X153992570Y-148344377D01*
X153992570Y-148344377D02*
X153878285Y-148401520D01*
X153878285Y-148401520D02*
X153821142Y-148458662D01*
X153821142Y-148458662D02*
X153763999Y-148572948D01*
X153763999Y-148572948D02*
X153763999Y-148915805D01*
X153763999Y-148915805D02*
X153821142Y-149030091D01*
X153821142Y-149030091D02*
X153878285Y-149087234D01*
X153878285Y-149087234D02*
X153992570Y-149144377D01*
X153992570Y-149144377D02*
X154221142Y-149144377D01*
X154221142Y-149144377D02*
X154335428Y-149087234D01*
X154849713Y-148344377D02*
X154849713Y-149544377D01*
X155363999Y-148344377D02*
X155363999Y-148972948D01*
X155363999Y-148972948D02*
X155306856Y-149087234D01*
X155306856Y-149087234D02*
X155192570Y-149144377D01*
X155192570Y-149144377D02*
X155021141Y-149144377D01*
X155021141Y-149144377D02*
X154906856Y-149087234D01*
X154906856Y-149087234D02*
X154849713Y-149030091D01*
X155935427Y-148458662D02*
X155992570Y-148401520D01*
X155992570Y-148401520D02*
X155935427Y-148344377D01*
X155935427Y-148344377D02*
X155878284Y-148401520D01*
X155878284Y-148401520D02*
X155935427Y-148458662D01*
X155935427Y-148458662D02*
X155935427Y-148344377D01*
X156506856Y-148344377D02*
X156506856Y-149144377D01*
X156506856Y-149544377D02*
X156449713Y-149487234D01*
X156449713Y-149487234D02*
X156506856Y-149430091D01*
X156506856Y-149430091D02*
X156563999Y-149487234D01*
X156563999Y-149487234D02*
X156506856Y-149544377D01*
X156506856Y-149544377D02*
X156506856Y-149430091D01*
X157249713Y-148344377D02*
X157135428Y-148401520D01*
X157135428Y-148401520D02*
X157078285Y-148458662D01*
X157078285Y-148458662D02*
X157021142Y-148572948D01*
X157021142Y-148572948D02*
X157021142Y-148915805D01*
X157021142Y-148915805D02*
X157078285Y-149030091D01*
X157078285Y-149030091D02*
X157135428Y-149087234D01*
X157135428Y-149087234D02*
X157249713Y-149144377D01*
X157249713Y-149144377D02*
X157421142Y-149144377D01*
X157421142Y-149144377D02*
X157535428Y-149087234D01*
X157535428Y-149087234D02*
X157592571Y-149030091D01*
X157592571Y-149030091D02*
X157649713Y-148915805D01*
X157649713Y-148915805D02*
X157649713Y-148572948D01*
X157649713Y-148572948D02*
X157592571Y-148458662D01*
X157592571Y-148458662D02*
X157535428Y-148401520D01*
X157535428Y-148401520D02*
X157421142Y-148344377D01*
X157421142Y-148344377D02*
X157249713Y-148344377D01*
%TO.C,U3*%
D13*
X146721000Y-110508000D02*
X142871000Y-110508000D01*
X142832389Y-110498122D02*
G75*
G02*
X146721000Y-110508000I1948611J1690122D01*
G01*
%TD*%
M02*
