%TF.GenerationSoftware,KiCad,Pcbnew,10.0.0*%
%TF.CreationDate,2026-07-23T16:12:42+02:00*%
%TF.ProjectId,v4.0.10c_SK6812,76342e30-2e31-4306-935f-534b36383132,rev?*%
%TF.SameCoordinates,Original*%
%TF.FileFunction,Copper,L2,Bot*%
%TF.FilePolarity,Positive*%
%FSLAX46Y46*%
G04 Gerber Fmt 4.6, Leading zero omitted, Abs format (unit mm)*
G04 Created by KiCad (PCBNEW 10.0.0) date 2026-07-23 16:12:42*
%MOMM*%
%LPD*%
G01*
G04 APERTURE LIST*
G04 Aperture macros list*
%AMRoundRect*
0 Rectangle with rounded corners*
0 $1 Rounding radius*
0 $2 $3 $4 $5 $6 $7 $8 $9 X,Y pos of 4 corners*
0 Add a 4 corners polygon primitive as box body*
4,1,4,$2,$3,$4,$5,$6,$7,$8,$9,$2,$3,0*
0 Add four circle primitives for the rounded corners*
1,1,$1+$1,$2,$3*
1,1,$1+$1,$4,$5*
1,1,$1+$1,$6,$7*
1,1,$1+$1,$8,$9*
0 Add four rect primitives between the rounded corners*
20,1,$1+$1,$2,$3,$4,$5,0*
20,1,$1+$1,$4,$5,$6,$7,0*
20,1,$1+$1,$6,$7,$8,$9,0*
20,1,$1+$1,$8,$9,$2,$3,0*%
G04 Aperture macros list end*
%TA.AperFunction,ComponentPad*%
%ADD10O,3.500000X2.200000*%
%TD*%
%TA.AperFunction,ComponentPad*%
%ADD11R,2.500000X1.500000*%
%TD*%
%TA.AperFunction,ComponentPad*%
%ADD12O,2.500000X1.500000*%
%TD*%
%TA.AperFunction,CastellatedPad*%
%ADD13RoundRect,0.252500X-0.252500X0.472500X-0.252500X-0.472500X0.252500X-0.472500X0.252500X0.472500X0*%
%TD*%
%TA.AperFunction,CastellatedPad*%
%ADD14RoundRect,0.247500X-0.247500X0.502500X-0.247500X-0.502500X0.247500X-0.502500X0.247500X0.502500X0*%
%TD*%
%TA.AperFunction,ComponentPad*%
%ADD15C,1.400000*%
%TD*%
%TA.AperFunction,ComponentPad*%
%ADD16R,1.050000X1.500000*%
%TD*%
%TA.AperFunction,ComponentPad*%
%ADD17O,1.050000X1.500000*%
%TD*%
%TA.AperFunction,ViaPad*%
%ADD18C,2.000000*%
%TD*%
%TA.AperFunction,ViaPad*%
%ADD19C,0.800000*%
%TD*%
%TA.AperFunction,ViaPad*%
%ADD20C,0.500000*%
%TD*%
%TA.AperFunction,ViaPad*%
%ADD21C,0.600000*%
%TD*%
%TA.AperFunction,ViaPad*%
%ADD22C,1.400000*%
%TD*%
%TA.AperFunction,Conductor*%
%ADD23C,1.000000*%
%TD*%
%TA.AperFunction,Conductor*%
%ADD24C,0.250000*%
%TD*%
%TA.AperFunction,Conductor*%
%ADD25C,1.500000*%
%TD*%
G04 APERTURE END LIST*
D10*
%TO.P,U2,*%
%TO.N,*%
X156646000Y-129083000D03*
X156646000Y-120883000D03*
D11*
%TO.P,U2,1,1*%
%TO.N,/esp-3.3*%
X156646000Y-126983000D03*
D12*
%TO.P,U2,2,2*%
%TO.N,/SW-OUT*%
X156646000Y-124983000D03*
%TO.P,U2,3,3*%
%TO.N,/esp-gnd*%
X156646000Y-122983000D03*
%TD*%
D13*
%TO.P,U1,1,+*%
%TO.N,/B+*%
X149800000Y-135534500D03*
D14*
%TO.P,U1,2,-*%
%TO.N,/esp-gnd*%
X151535000Y-135509500D03*
%TD*%
D15*
%TO.P,U5,1,+*%
%TO.N,/B+*%
X148106000Y-120303000D03*
%TO.P,U5,2,-*%
%TO.N,/esp-gnd*%
X150646000Y-120303000D03*
%TD*%
D16*
%TO.P,U3,1,V+*%
%TO.N,/Temp*%
X145971000Y-108808000D03*
D17*
%TO.P,U3,2,Signal*%
%TO.N,/3.3V*%
X144701000Y-108808000D03*
%TO.P,U3,3,GND*%
%TO.N,/esp-gnd*%
X143431000Y-108808000D03*
%TD*%
D18*
%TO.N,/esp-gnd*%
X155246000Y-144423000D03*
D19*
X147946000Y-111343000D03*
X146556000Y-126843000D03*
D20*
X144556000Y-114113000D03*
D21*
%TO.N,/B+*%
X143196000Y-134583000D03*
D19*
%TO.N,/D0*%
X156286000Y-134283000D03*
X154096000Y-129123000D03*
%TO.N,/SW-OUT*%
X145096000Y-125760700D03*
%TO.N,/D8*%
X141696000Y-135483000D03*
X143146000Y-121783000D03*
%TO.N,/D10*%
X144396000Y-127683000D03*
X144396000Y-137883000D03*
D22*
%TO.N,/esp-3.3*%
X151116000Y-144343000D03*
D20*
%TO.N,/Temp*%
X142196000Y-115513000D03*
%TD*%
%TO.N,/B+*%
D23*
X146776000Y-120303000D02*
X148106000Y-120303000D01*
X148106000Y-121423000D02*
X148106000Y-120303000D01*
X142516000Y-133903000D02*
X142516000Y-124563000D01*
X143196000Y-134583000D02*
X142516000Y-133903000D01*
X148136000Y-120333000D02*
X148136000Y-120343000D01*
X148106000Y-120303000D02*
X148136000Y-120333000D01*
X149746000Y-123063000D02*
X148106000Y-121423000D01*
X142516000Y-124563000D02*
X146776000Y-120303000D01*
%TO.N,/D0*%
D24*
X154096000Y-129123000D02*
X154056000Y-129163000D01*
X156746000Y-133823000D02*
X156286000Y-134283000D01*
X154056000Y-130273000D02*
X156746000Y-132963000D01*
X156746000Y-132963000D02*
X156746000Y-133823000D01*
X154056000Y-129163000D02*
X154056000Y-130273000D01*
%TO.N,/SW-OUT*%
X147446000Y-124983000D02*
X146668300Y-125760700D01*
X156804000Y-124983000D02*
X147446000Y-124983000D01*
X146668300Y-125760700D02*
X145096000Y-125760700D01*
%TO.N,/D8*%
X141156000Y-123773000D02*
X143146000Y-121783000D01*
X143146000Y-121783000D02*
X143246000Y-121883000D01*
X141696000Y-135483000D02*
X141156000Y-134943000D01*
X141156000Y-134943000D02*
X141156000Y-123773000D01*
%TO.N,/D10*%
X144396000Y-137883000D02*
X144396000Y-127683000D01*
%TO.N,/esp-3.3*%
D25*
X146696000Y-140183000D02*
X146696000Y-133483000D01*
X146696000Y-133483000D02*
X153196000Y-126983000D01*
X153196000Y-126983000D02*
X156646000Y-126983000D01*
X151496000Y-144983000D02*
X146696000Y-140183000D01*
%TO.N,/Temp*%
D24*
X142196000Y-115513000D02*
X142196000Y-114973000D01*
X142196000Y-114973000D02*
X142196000Y-113223000D01*
X145971000Y-109448000D02*
X145971000Y-108808000D01*
X142196000Y-113223000D02*
X145971000Y-109448000D01*
%TD*%
%TA.AperFunction,Conductor*%
%TO.N,/esp-gnd*%
G36*
X144756988Y-106986358D02*
G01*
X144768562Y-106986948D01*
X145158380Y-107025180D01*
X145169868Y-107026854D01*
X145554376Y-107101417D01*
X145565641Y-107104155D01*
X145941495Y-107214401D01*
X145952455Y-107218182D01*
X146292977Y-107353833D01*
X146316318Y-107363131D01*
X146326903Y-107367934D01*
X146675586Y-107546313D01*
X146685668Y-107552083D01*
X147016116Y-107762330D01*
X147025620Y-107769022D01*
X147093864Y-107822032D01*
X147316018Y-107994597D01*
X147334925Y-108009283D01*
X147343757Y-108016833D01*
X147420199Y-108088648D01*
X147629201Y-108284998D01*
X147637290Y-108293345D01*
X147896378Y-108587069D01*
X147903651Y-108596138D01*
X148130391Y-108907741D01*
X148131741Y-108909633D01*
X148136247Y-108916076D01*
X148141288Y-108923893D01*
X148332064Y-109245597D01*
X148333343Y-109247804D01*
X148343473Y-109265716D01*
X148347648Y-109273774D01*
X148503013Y-109602512D01*
X148504178Y-109605050D01*
X148516757Y-109633296D01*
X148520061Y-109641488D01*
X148641030Y-109975242D01*
X148642025Y-109978097D01*
X148654569Y-110015531D01*
X148657018Y-110023778D01*
X148744382Y-110360379D01*
X148745159Y-110363540D01*
X148755691Y-110408993D01*
X148757304Y-110417208D01*
X148811806Y-110754572D01*
X148812314Y-110758023D01*
X148819237Y-110810151D01*
X148820043Y-110818249D01*
X148842378Y-111154161D01*
X148842569Y-111157877D01*
X148844665Y-111215449D01*
X148844701Y-111223355D01*
X148835600Y-111555630D01*
X148835428Y-111559580D01*
X148831769Y-111621242D01*
X148831078Y-111628884D01*
X148791335Y-111955303D01*
X148790759Y-111959447D01*
X148780693Y-112023909D01*
X148779325Y-112031225D01*
X148709825Y-112349586D01*
X148708805Y-112353886D01*
X148691909Y-112419897D01*
X148689920Y-112426825D01*
X148591661Y-112734937D01*
X148590165Y-112739341D01*
X148566246Y-112805644D01*
X148563695Y-112812136D01*
X148437793Y-113107872D01*
X148435792Y-113112327D01*
X148404855Y-113177724D01*
X148401807Y-113183739D01*
X148249497Y-113465036D01*
X148246968Y-113469484D01*
X148209200Y-113532846D01*
X148205721Y-113538349D01*
X148028353Y-113803233D01*
X148025282Y-113807613D01*
X147981085Y-113867828D01*
X147977243Y-113872794D01*
X147776296Y-114119356D01*
X147772674Y-114123600D01*
X147722535Y-114179760D01*
X147718399Y-114184172D01*
X147466919Y-114439611D01*
X147464568Y-114441890D01*
X147463414Y-114471605D01*
X147465111Y-114490209D01*
X147482198Y-116904007D01*
X147483965Y-117153641D01*
X147493125Y-118447690D01*
X147473915Y-118514867D01*
X147461644Y-118525653D01*
X147463002Y-118526503D01*
X147492782Y-118589709D01*
X147494260Y-118607938D01*
X147495386Y-118767028D01*
X147495497Y-118782622D01*
X147495498Y-118783200D01*
X147495499Y-118783208D01*
X147495502Y-118783214D01*
X147495790Y-118783500D01*
X147495796Y-118783502D01*
X147495796Y-118783501D01*
X147495797Y-118783502D01*
X147495797Y-118783501D01*
X147496557Y-118783500D01*
X158571500Y-118783500D01*
X158638539Y-118803185D01*
X158684294Y-118855989D01*
X158695500Y-118907500D01*
X158695500Y-120138444D01*
X158675815Y-120205483D01*
X158623011Y-120251238D01*
X158553853Y-120261182D01*
X158490297Y-120232157D01*
X158461016Y-120194740D01*
X158451050Y-120175182D01*
X158326109Y-120003213D01*
X158175786Y-119852890D01*
X158003820Y-119727951D01*
X157814414Y-119631444D01*
X157814413Y-119631443D01*
X157814412Y-119631443D01*
X157612243Y-119565754D01*
X157612241Y-119565753D01*
X157612240Y-119565753D01*
X157450957Y-119540208D01*
X157402287Y-119532500D01*
X155889713Y-119532500D01*
X155841042Y-119540208D01*
X155679760Y-119565753D01*
X155477585Y-119631444D01*
X155288179Y-119727951D01*
X155116213Y-119852890D01*
X154965890Y-120003213D01*
X154840951Y-120175179D01*
X154744444Y-120364585D01*
X154678753Y-120566760D01*
X154645500Y-120776713D01*
X154645500Y-120989286D01*
X154667151Y-121125989D01*
X154678754Y-121199243D01*
X154733694Y-121368331D01*
X154744444Y-121401414D01*
X154840951Y-121590820D01*
X154965890Y-121762786D01*
X155116211Y-121913107D01*
X155190996Y-121967440D01*
X155233663Y-122022769D01*
X155239643Y-122092383D01*
X155207037Y-122154178D01*
X155205796Y-122155438D01*
X155192554Y-122168680D01*
X155076904Y-122327856D01*
X154987581Y-122503162D01*
X154926781Y-122690283D01*
X154920016Y-122733000D01*
X156270722Y-122733000D01*
X156226667Y-122809306D01*
X156196000Y-122923756D01*
X156196000Y-123042244D01*
X156226667Y-123156694D01*
X156270722Y-123233000D01*
X154920016Y-123233000D01*
X154926781Y-123275716D01*
X154987581Y-123462837D01*
X155076904Y-123638143D01*
X155192555Y-123797321D01*
X155331678Y-123936444D01*
X155472514Y-124038769D01*
X155515180Y-124094100D01*
X155521158Y-124163713D01*
X155488552Y-124225508D01*
X155487310Y-124226768D01*
X155368860Y-124345218D01*
X155259371Y-124509080D01*
X155259367Y-124509087D01*
X155255201Y-124519144D01*
X155250310Y-124530952D01*
X155206471Y-124585355D01*
X155140177Y-124607421D01*
X155135750Y-124607500D01*
X147396564Y-124607500D01*
X147348812Y-124620295D01*
X147348811Y-124620294D01*
X147301063Y-124633089D01*
X147301062Y-124633089D01*
X147215435Y-124682527D01*
X146549082Y-125348881D01*
X146487759Y-125382366D01*
X146461401Y-125385200D01*
X145691808Y-125385200D01*
X145624769Y-125365515D01*
X145604127Y-125348881D01*
X145510672Y-125255426D01*
X145510668Y-125255423D01*
X145404133Y-125184238D01*
X145404124Y-125184233D01*
X145285744Y-125135199D01*
X145285738Y-125135197D01*
X145160071Y-125110200D01*
X145160069Y-125110200D01*
X145031931Y-125110200D01*
X145031929Y-125110200D01*
X144906261Y-125135197D01*
X144906255Y-125135199D01*
X144787875Y-125184233D01*
X144787866Y-125184238D01*
X144681331Y-125255423D01*
X144681327Y-125255426D01*
X144590726Y-125346027D01*
X144590723Y-125346031D01*
X144519538Y-125452566D01*
X144519533Y-125452575D01*
X144470499Y-125570955D01*
X144470497Y-125570961D01*
X144445500Y-125696628D01*
X144445500Y-125696631D01*
X144445500Y-125824769D01*
X144445500Y-125824771D01*
X144445499Y-125824771D01*
X144470497Y-125950438D01*
X144470499Y-125950444D01*
X144519533Y-126068824D01*
X144519538Y-126068833D01*
X144590723Y-126175368D01*
X144590726Y-126175372D01*
X144681327Y-126265973D01*
X144681331Y-126265976D01*
X144787866Y-126337161D01*
X144787875Y-126337166D01*
X144807322Y-126345221D01*
X144906256Y-126386201D01*
X144906260Y-126386201D01*
X144906261Y-126386202D01*
X145031928Y-126411200D01*
X145031931Y-126411200D01*
X145160071Y-126411200D01*
X145244615Y-126394382D01*
X145285744Y-126386201D01*
X145404127Y-126337165D01*
X145510669Y-126265976D01*
X145510672Y-126265973D01*
X145604127Y-126172519D01*
X145665450Y-126139034D01*
X145691808Y-126136200D01*
X146717734Y-126136200D01*
X146717736Y-126136200D01*
X146763984Y-126123807D01*
X146773758Y-126121189D01*
X146786917Y-126117662D01*
X146813238Y-126110610D01*
X146898862Y-126061175D01*
X146968775Y-125991262D01*
X147565218Y-125394819D01*
X147626541Y-125361334D01*
X147652899Y-125358500D01*
X155135750Y-125358500D01*
X155202789Y-125378185D01*
X155248544Y-125430989D01*
X155250297Y-125435016D01*
X155257558Y-125452546D01*
X155259367Y-125456912D01*
X155259371Y-125456919D01*
X155368860Y-125620782D01*
X155508212Y-125760134D01*
X155511275Y-125762648D01*
X155512447Y-125764369D01*
X155512525Y-125764447D01*
X155512510Y-125764461D01*
X155550608Y-125820395D01*
X155552477Y-125890239D01*
X155516289Y-125950007D01*
X155453532Y-125980722D01*
X155432608Y-125982500D01*
X153097455Y-125982500D01*
X153004773Y-126000935D01*
X153004756Y-126000939D01*
X153000812Y-126001724D01*
X152904164Y-126020949D01*
X152864658Y-126037313D01*
X152857130Y-126040431D01*
X152857123Y-126040433D01*
X152722092Y-126096364D01*
X152722079Y-126096371D01*
X152558219Y-126205859D01*
X152498106Y-126265973D01*
X152418861Y-126345218D01*
X152418858Y-126345221D01*
X146058221Y-132705858D01*
X146058218Y-132705861D01*
X145988538Y-132775540D01*
X145918859Y-132845219D01*
X145809371Y-133009080D01*
X145809366Y-133009089D01*
X145770549Y-133102803D01*
X145770547Y-133102808D01*
X145768423Y-133107937D01*
X145733949Y-133191164D01*
X145719566Y-133263474D01*
X145718274Y-133269965D01*
X145718274Y-133269968D01*
X145695500Y-133384456D01*
X145695500Y-133384459D01*
X145695500Y-140281541D01*
X145695500Y-140281543D01*
X145695499Y-140281543D01*
X145733947Y-140474829D01*
X145733950Y-140474839D01*
X145809364Y-140656907D01*
X145809371Y-140656920D01*
X145918860Y-140820781D01*
X145918863Y-140820785D01*
X146062537Y-140964459D01*
X146062559Y-140964479D01*
X150858215Y-145760136D01*
X150858219Y-145760139D01*
X151022079Y-145869627D01*
X151022083Y-145869629D01*
X151022086Y-145869631D01*
X151204164Y-145945051D01*
X151397455Y-145983499D01*
X151397458Y-145983500D01*
X151397460Y-145983500D01*
X151594542Y-145983500D01*
X151594543Y-145983499D01*
X151787836Y-145945051D01*
X151969914Y-145869631D01*
X152133781Y-145760139D01*
X152273139Y-145620781D01*
X152382631Y-145456914D01*
X152458051Y-145274836D01*
X152496500Y-145081540D01*
X152496500Y-144884460D01*
X152496500Y-144884457D01*
X152496499Y-144884455D01*
X152458052Y-144691171D01*
X152458051Y-144691164D01*
X152382631Y-144509086D01*
X152382629Y-144509083D01*
X152382627Y-144509079D01*
X152273139Y-144345219D01*
X152273136Y-144345215D01*
X152065585Y-144137665D01*
X152032100Y-144076342D01*
X152031648Y-144074172D01*
X152029973Y-144065751D01*
X152029973Y-144065749D01*
X151958322Y-143892769D01*
X151958321Y-143892768D01*
X151958318Y-143892762D01*
X151854302Y-143737092D01*
X151854299Y-143737088D01*
X151721911Y-143604700D01*
X151721907Y-143604697D01*
X151566237Y-143500681D01*
X151566228Y-143500676D01*
X151393249Y-143429026D01*
X151393245Y-143429025D01*
X151384823Y-143427350D01*
X151322912Y-143394965D01*
X151321334Y-143393414D01*
X147732819Y-139804899D01*
X147699334Y-139743576D01*
X147696500Y-139717218D01*
X147696500Y-135013875D01*
X149044500Y-135013875D01*
X149044500Y-136055124D01*
X149050941Y-136115021D01*
X149050942Y-136115026D01*
X149101487Y-136250540D01*
X149101488Y-136250541D01*
X149188168Y-136366332D01*
X149303959Y-136453012D01*
X149303958Y-136453012D01*
X149439473Y-136503557D01*
X149439476Y-136503557D01*
X149439480Y-136503559D01*
X149468634Y-136506693D01*
X149499375Y-136509999D01*
X149499392Y-136510000D01*
X150100608Y-136510000D01*
X150100624Y-136509999D01*
X150127371Y-136507122D01*
X150160520Y-136503559D01*
X150160524Y-136503557D01*
X150160526Y-136503557D01*
X150213299Y-136483873D01*
X150296041Y-136453012D01*
X150411832Y-136366332D01*
X150498512Y-136250541D01*
X150523651Y-136183139D01*
X150552150Y-136138795D01*
X151160000Y-135530946D01*
X151160000Y-135558870D01*
X151185556Y-135654245D01*
X151234925Y-135739755D01*
X151304745Y-135809575D01*
X151390255Y-135858944D01*
X151485630Y-135884500D01*
X151513553Y-135884500D01*
X150808214Y-136589839D01*
X150820716Y-136602341D01*
X150969439Y-136694075D01*
X150969444Y-136694077D01*
X151135317Y-136749041D01*
X151135314Y-136749041D01*
X151237680Y-136759499D01*
X151237693Y-136759500D01*
X151832307Y-136759500D01*
X151832319Y-136759499D01*
X151934683Y-136749041D01*
X152100555Y-136694077D01*
X152100560Y-136694075D01*
X152249283Y-136602341D01*
X152261786Y-136589839D01*
X151556447Y-135884500D01*
X151584370Y-135884500D01*
X151679745Y-135858944D01*
X151765255Y-135809575D01*
X151835075Y-135739755D01*
X151884444Y-135654245D01*
X151910000Y-135558870D01*
X151910000Y-135530948D01*
X152521736Y-136142684D01*
X152521737Y-136142684D01*
X152529999Y-136061817D01*
X152530000Y-136061808D01*
X152530000Y-134957191D01*
X152529999Y-134957182D01*
X152521737Y-134876314D01*
X152521736Y-134876314D01*
X151910000Y-135488051D01*
X151910000Y-135460130D01*
X151884444Y-135364755D01*
X151835075Y-135279245D01*
X151765255Y-135209425D01*
X151679745Y-135160056D01*
X151584370Y-135134500D01*
X151556447Y-135134500D01*
X152261786Y-134429161D01*
X152249283Y-134416658D01*
X152100560Y-134324924D01*
X152100555Y-134324922D01*
X151934682Y-134269958D01*
X151934685Y-134269958D01*
X151832319Y-134259500D01*
X151237680Y-134259500D01*
X151135316Y-134269958D01*
X150969444Y-134324922D01*
X150969439Y-134324924D01*
X150820716Y-134416658D01*
X150808214Y-134429161D01*
X151513553Y-135134500D01*
X151485630Y-135134500D01*
X151390255Y-135160056D01*
X151304745Y-135209425D01*
X151234925Y-135279245D01*
X151185556Y-135364755D01*
X151160000Y-135460130D01*
X151160000Y-135488053D01*
X150520869Y-134848922D01*
X150499715Y-134820663D01*
X150498513Y-134818464D01*
X150498512Y-134818459D01*
X150411832Y-134702668D01*
X150296041Y-134615988D01*
X150296039Y-134615987D01*
X150296041Y-134615987D01*
X150160526Y-134565442D01*
X150160521Y-134565441D01*
X150100624Y-134559000D01*
X150100608Y-134559000D01*
X149499392Y-134559000D01*
X149499375Y-134559000D01*
X149439478Y-134565441D01*
X149439473Y-134565442D01*
X149303959Y-134615987D01*
X149188168Y-134702668D01*
X149101487Y-134818459D01*
X149050942Y-134953973D01*
X149050941Y-134953978D01*
X149044500Y-135013875D01*
X147696500Y-135013875D01*
X147696500Y-133948782D01*
X147716185Y-133881743D01*
X147732819Y-133861101D01*
X153574101Y-128019819D01*
X153635424Y-127986334D01*
X153661782Y-127983500D01*
X154886242Y-127983500D01*
X154953281Y-128003185D01*
X154999036Y-128055989D01*
X155008980Y-128125147D01*
X154979955Y-128188703D01*
X154973923Y-128195181D01*
X154965894Y-128203209D01*
X154965890Y-128203213D01*
X154840951Y-128375179D01*
X154744444Y-128564584D01*
X154736610Y-128588694D01*
X154697170Y-128646368D01*
X154632811Y-128673564D01*
X154563965Y-128661647D01*
X154530999Y-128638053D01*
X154510672Y-128617726D01*
X154510668Y-128617723D01*
X154404133Y-128546538D01*
X154404124Y-128546533D01*
X154285744Y-128497499D01*
X154285738Y-128497497D01*
X154160071Y-128472500D01*
X154160069Y-128472500D01*
X154031931Y-128472500D01*
X154031929Y-128472500D01*
X153906261Y-128497497D01*
X153906255Y-128497499D01*
X153787875Y-128546533D01*
X153787866Y-128546538D01*
X153681331Y-128617723D01*
X153681327Y-128617726D01*
X153590726Y-128708327D01*
X153590723Y-128708331D01*
X153519538Y-128814866D01*
X153519533Y-128814875D01*
X153470499Y-128933255D01*
X153470497Y-128933261D01*
X153445500Y-129058928D01*
X153445500Y-129058931D01*
X153445500Y-129187069D01*
X153445500Y-129187071D01*
X153445499Y-129187071D01*
X153470497Y-129312738D01*
X153470499Y-129312744D01*
X153519533Y-129431124D01*
X153519538Y-129431133D01*
X153590723Y-129537668D01*
X153590726Y-129537672D01*
X153644180Y-129591125D01*
X153677666Y-129652448D01*
X153680500Y-129678807D01*
X153680500Y-130322435D01*
X153706090Y-130417938D01*
X153715073Y-130433497D01*
X153715074Y-130433500D01*
X153715075Y-130433500D01*
X153755526Y-130503563D01*
X153755528Y-130503565D01*
X156334181Y-133082218D01*
X156367666Y-133143541D01*
X156370500Y-133169899D01*
X156370500Y-133508500D01*
X156350815Y-133575539D01*
X156298011Y-133621294D01*
X156246500Y-133632500D01*
X156221929Y-133632500D01*
X156096261Y-133657497D01*
X156096255Y-133657499D01*
X155977875Y-133706533D01*
X155977866Y-133706538D01*
X155871331Y-133777723D01*
X155871327Y-133777726D01*
X155780726Y-133868327D01*
X155780723Y-133868331D01*
X155709538Y-133974866D01*
X155709533Y-133974875D01*
X155660499Y-134093255D01*
X155660497Y-134093261D01*
X155635500Y-134218928D01*
X155635500Y-134218931D01*
X155635500Y-134347069D01*
X155635500Y-134347071D01*
X155635499Y-134347071D01*
X155660497Y-134472738D01*
X155660499Y-134472744D01*
X155709533Y-134591124D01*
X155709538Y-134591133D01*
X155780723Y-134697668D01*
X155780726Y-134697672D01*
X155871327Y-134788273D01*
X155871331Y-134788276D01*
X155977866Y-134859461D01*
X155977872Y-134859464D01*
X155977873Y-134859465D01*
X156096256Y-134908501D01*
X156096260Y-134908501D01*
X156096261Y-134908502D01*
X156221928Y-134933500D01*
X156221931Y-134933500D01*
X156350071Y-134933500D01*
X156434615Y-134916682D01*
X156475744Y-134908501D01*
X156594127Y-134859465D01*
X156700669Y-134788276D01*
X156791276Y-134697669D01*
X156862465Y-134591127D01*
X156911501Y-134472744D01*
X156936500Y-134347069D01*
X156936500Y-134218931D01*
X156936500Y-134214899D01*
X156956185Y-134147860D01*
X156972819Y-134127218D01*
X157006782Y-134093255D01*
X157046474Y-134053563D01*
X157046475Y-134053562D01*
X157095910Y-133967938D01*
X157121500Y-133872435D01*
X157121500Y-132913565D01*
X157095910Y-132818062D01*
X157046475Y-132732438D01*
X156976562Y-132662525D01*
X154467819Y-130153782D01*
X154434334Y-130092459D01*
X154431500Y-130066101D01*
X154431500Y-129747453D01*
X154451185Y-129680414D01*
X154474210Y-129653815D01*
X154480102Y-129648699D01*
X154510669Y-129628276D01*
X154557018Y-129581926D01*
X154560310Y-129579069D01*
X154588265Y-129566271D01*
X154615241Y-129551541D01*
X154619739Y-129551862D01*
X154623839Y-129549986D01*
X154654267Y-129554332D01*
X154684932Y-129556525D01*
X154688541Y-129559227D01*
X154693007Y-129559865D01*
X154716261Y-129579977D01*
X154740866Y-129598396D01*
X154744728Y-129604598D01*
X154745853Y-129605571D01*
X154746319Y-129607152D01*
X154752085Y-129616412D01*
X154796545Y-129703669D01*
X154835907Y-129780921D01*
X154840951Y-129790819D01*
X154965890Y-129962786D01*
X155116213Y-130113109D01*
X155288179Y-130238048D01*
X155288181Y-130238049D01*
X155288184Y-130238051D01*
X155477588Y-130334557D01*
X155679757Y-130400246D01*
X155889713Y-130433500D01*
X155889714Y-130433500D01*
X157402286Y-130433500D01*
X157402287Y-130433500D01*
X157612243Y-130400246D01*
X157814412Y-130334557D01*
X158003816Y-130238051D01*
X158025789Y-130222086D01*
X158175786Y-130113109D01*
X158175788Y-130113106D01*
X158175792Y-130113104D01*
X158326104Y-129962792D01*
X158326106Y-129962788D01*
X158326109Y-129962786D01*
X158451050Y-129790817D01*
X158461015Y-129771261D01*
X158508989Y-129720464D01*
X158576810Y-129703669D01*
X158642945Y-129726206D01*
X158686397Y-129780921D01*
X158695500Y-129827555D01*
X158695500Y-150557645D01*
X158675815Y-150624684D01*
X158623011Y-150670439D01*
X158570653Y-150681642D01*
X140085395Y-150555342D01*
X140018491Y-150535200D01*
X139973098Y-150482085D01*
X139962242Y-150431606D01*
X139906763Y-123723565D01*
X140780500Y-123723565D01*
X140780500Y-134992435D01*
X140798985Y-135061421D01*
X140806091Y-135087942D01*
X140806092Y-135087943D01*
X140851129Y-135165948D01*
X140851131Y-135165951D01*
X140855526Y-135173563D01*
X141009182Y-135327219D01*
X141042666Y-135388541D01*
X141045500Y-135414899D01*
X141045500Y-135418931D01*
X141045500Y-135547069D01*
X141045500Y-135547071D01*
X141045499Y-135547071D01*
X141070497Y-135672738D01*
X141070499Y-135672744D01*
X141119533Y-135791124D01*
X141119538Y-135791133D01*
X141190723Y-135897668D01*
X141190726Y-135897672D01*
X141281327Y-135988273D01*
X141281331Y-135988276D01*
X141387866Y-136059461D01*
X141387872Y-136059464D01*
X141387873Y-136059465D01*
X141506256Y-136108501D01*
X141506260Y-136108501D01*
X141506261Y-136108502D01*
X141631928Y-136133500D01*
X141631931Y-136133500D01*
X141760071Y-136133500D01*
X141844615Y-136116682D01*
X141885744Y-136108501D01*
X142004127Y-136059465D01*
X142110669Y-135988276D01*
X142201276Y-135897669D01*
X142272465Y-135791127D01*
X142321501Y-135672744D01*
X142346500Y-135547069D01*
X142346500Y-135418931D01*
X142346500Y-135418928D01*
X142321502Y-135293261D01*
X142321501Y-135293260D01*
X142321501Y-135293256D01*
X142272465Y-135174873D01*
X142272464Y-135174872D01*
X142272461Y-135174866D01*
X142201276Y-135068331D01*
X142201273Y-135068327D01*
X142110672Y-134977726D01*
X142110668Y-134977723D01*
X142004133Y-134906538D01*
X142004124Y-134906533D01*
X141885744Y-134857499D01*
X141885738Y-134857497D01*
X141760071Y-134832500D01*
X141760069Y-134832500D01*
X141655500Y-134832500D01*
X141588461Y-134812815D01*
X141542706Y-134760011D01*
X141531500Y-134708500D01*
X141531500Y-134059513D01*
X141551185Y-133992474D01*
X141603989Y-133946719D01*
X141673147Y-133936775D01*
X141736703Y-133965800D01*
X141774477Y-134024578D01*
X141777117Y-134035321D01*
X141794340Y-134121907D01*
X141794343Y-134121917D01*
X141850914Y-134258492D01*
X141883812Y-134307727D01*
X141883813Y-134307730D01*
X141933046Y-134381414D01*
X141933052Y-134381421D01*
X142717580Y-135165948D01*
X142717584Y-135165951D01*
X142840498Y-135248080D01*
X142840511Y-135248087D01*
X142949560Y-135293256D01*
X142977087Y-135304658D01*
X142977091Y-135304658D01*
X142977092Y-135304659D01*
X143122079Y-135333500D01*
X143122082Y-135333500D01*
X143269919Y-135333500D01*
X143367461Y-135314096D01*
X143414912Y-135304658D01*
X143551494Y-135248084D01*
X143674416Y-135165951D01*
X143778951Y-135061416D01*
X143793398Y-135039793D01*
X143847008Y-134994989D01*
X143916333Y-134986280D01*
X143979361Y-135016434D01*
X144016081Y-135075876D01*
X144020500Y-135108684D01*
X144020500Y-137287192D01*
X144000815Y-137354231D01*
X143984181Y-137374873D01*
X143890726Y-137468327D01*
X143890723Y-137468331D01*
X143819538Y-137574866D01*
X143819533Y-137574875D01*
X143770499Y-137693255D01*
X143770497Y-137693261D01*
X143745500Y-137818928D01*
X143745500Y-137818931D01*
X143745500Y-137947069D01*
X143745500Y-137947071D01*
X143745499Y-137947071D01*
X143770497Y-138072738D01*
X143770499Y-138072744D01*
X143819533Y-138191124D01*
X143819538Y-138191133D01*
X143890723Y-138297668D01*
X143890726Y-138297672D01*
X143981327Y-138388273D01*
X143981331Y-138388276D01*
X144087866Y-138459461D01*
X144087872Y-138459464D01*
X144087873Y-138459465D01*
X144206256Y-138508501D01*
X144206260Y-138508501D01*
X144206261Y-138508502D01*
X144331928Y-138533500D01*
X144331931Y-138533500D01*
X144460071Y-138533500D01*
X144544615Y-138516682D01*
X144585744Y-138508501D01*
X144704127Y-138459465D01*
X144810669Y-138388276D01*
X144901276Y-138297669D01*
X144972465Y-138191127D01*
X145021501Y-138072744D01*
X145046500Y-137947069D01*
X145046500Y-137818931D01*
X145046500Y-137818928D01*
X145021502Y-137693261D01*
X145021501Y-137693260D01*
X145021501Y-137693256D01*
X144972465Y-137574873D01*
X144972464Y-137574872D01*
X144972461Y-137574866D01*
X144901276Y-137468331D01*
X144901273Y-137468327D01*
X144807819Y-137374873D01*
X144774334Y-137313550D01*
X144771500Y-137287192D01*
X144771500Y-128278807D01*
X144791185Y-128211768D01*
X144807819Y-128191125D01*
X144810665Y-128188278D01*
X144810669Y-128188276D01*
X144901276Y-128097669D01*
X144972465Y-127991127D01*
X145021501Y-127872744D01*
X145044390Y-127757676D01*
X145046500Y-127747071D01*
X145046500Y-127618928D01*
X145021502Y-127493261D01*
X145021501Y-127493260D01*
X145021501Y-127493256D01*
X144972465Y-127374873D01*
X144972464Y-127374872D01*
X144972461Y-127374866D01*
X144901276Y-127268331D01*
X144901273Y-127268327D01*
X144810672Y-127177726D01*
X144810668Y-127177723D01*
X144704133Y-127106538D01*
X144704124Y-127106533D01*
X144585744Y-127057499D01*
X144585738Y-127057497D01*
X144460071Y-127032500D01*
X144460069Y-127032500D01*
X144331931Y-127032500D01*
X144331929Y-127032500D01*
X144206261Y-127057497D01*
X144206255Y-127057499D01*
X144087875Y-127106533D01*
X144087866Y-127106538D01*
X143981331Y-127177723D01*
X143981327Y-127177726D01*
X143890726Y-127268327D01*
X143890723Y-127268331D01*
X143819538Y-127374866D01*
X143819533Y-127374875D01*
X143770499Y-127493255D01*
X143770497Y-127493261D01*
X143745500Y-127618928D01*
X143745500Y-127618931D01*
X143745500Y-127747069D01*
X143745500Y-127747071D01*
X143745499Y-127747071D01*
X143770497Y-127872738D01*
X143770499Y-127872744D01*
X143819533Y-127991124D01*
X143819538Y-127991133D01*
X143890722Y-128097667D01*
X143890723Y-128097668D01*
X143890724Y-128097669D01*
X143981331Y-128188276D01*
X143981333Y-128188277D01*
X143984181Y-128191125D01*
X144017666Y-128252448D01*
X144020500Y-128278807D01*
X144020500Y-134057313D01*
X144000815Y-134124352D01*
X143948011Y-134170107D01*
X143878853Y-134180051D01*
X143815297Y-134151026D01*
X143793399Y-134126205D01*
X143778953Y-134104587D01*
X143778948Y-134104580D01*
X143302819Y-133628451D01*
X143269334Y-133567128D01*
X143266500Y-133540770D01*
X143266500Y-124925230D01*
X143286185Y-124858191D01*
X143302819Y-124837549D01*
X147050549Y-121089819D01*
X147111872Y-121056334D01*
X147138230Y-121053500D01*
X147231500Y-121053500D01*
X147298539Y-121073185D01*
X147344294Y-121125989D01*
X147355500Y-121177500D01*
X147355500Y-121496918D01*
X147355500Y-121496920D01*
X147355499Y-121496920D01*
X147384340Y-121641907D01*
X147384343Y-121641917D01*
X147440914Y-121778492D01*
X147473812Y-121827727D01*
X147473813Y-121827730D01*
X147523046Y-121901414D01*
X147523052Y-121901421D01*
X149267580Y-123645948D01*
X149267584Y-123645951D01*
X149390498Y-123728080D01*
X149390511Y-123728087D01*
X149527082Y-123784656D01*
X149527087Y-123784658D01*
X149527091Y-123784658D01*
X149527092Y-123784659D01*
X149672079Y-123813500D01*
X149672082Y-123813500D01*
X149819919Y-123813500D01*
X149917461Y-123794096D01*
X149964912Y-123784658D01*
X150101494Y-123728084D01*
X150224416Y-123645951D01*
X150328951Y-123541416D01*
X150411084Y-123418494D01*
X150467658Y-123281912D01*
X150496500Y-123136917D01*
X150496500Y-122989082D01*
X150496500Y-122989079D01*
X150467659Y-122844092D01*
X150467658Y-122844091D01*
X150467658Y-122844087D01*
X150453251Y-122809306D01*
X150411087Y-122707511D01*
X150411080Y-122707498D01*
X150328951Y-122584584D01*
X150328948Y-122584580D01*
X148892819Y-121148451D01*
X148859334Y-121087128D01*
X148856500Y-121060770D01*
X148856500Y-120928267D01*
X148876185Y-120861228D01*
X148877398Y-120859376D01*
X148948322Y-120753231D01*
X149019973Y-120580251D01*
X149056500Y-120396616D01*
X149056500Y-120209384D01*
X149056335Y-120208552D01*
X149446000Y-120208552D01*
X149446000Y-120397447D01*
X149475548Y-120584002D01*
X149533914Y-120763637D01*
X149619666Y-120931933D01*
X149638116Y-120957328D01*
X150246000Y-120349445D01*
X150246000Y-120355661D01*
X150273259Y-120457394D01*
X150325920Y-120548606D01*
X150400394Y-120623080D01*
X150491606Y-120675741D01*
X150593339Y-120703000D01*
X150599554Y-120703000D01*
X149991669Y-121310882D01*
X149991670Y-121310883D01*
X150017059Y-121329329D01*
X150185362Y-121415085D01*
X150364997Y-121473451D01*
X150551553Y-121503000D01*
X150740447Y-121503000D01*
X150927002Y-121473451D01*
X151106637Y-121415085D01*
X151274937Y-121329331D01*
X151300328Y-121310883D01*
X151300328Y-121310882D01*
X150692447Y-120703000D01*
X150698661Y-120703000D01*
X150800394Y-120675741D01*
X150891606Y-120623080D01*
X150966080Y-120548606D01*
X151018741Y-120457394D01*
X151046000Y-120355661D01*
X151046000Y-120349446D01*
X151653882Y-120957328D01*
X151653883Y-120957328D01*
X151672331Y-120931937D01*
X151758085Y-120763637D01*
X151816451Y-120584002D01*
X151846000Y-120397447D01*
X151846000Y-120208552D01*
X151816451Y-120021997D01*
X151758085Y-119842362D01*
X151672329Y-119674059D01*
X151653883Y-119648670D01*
X151653882Y-119648669D01*
X151046000Y-120256552D01*
X151046000Y-120250339D01*
X151018741Y-120148606D01*
X150966080Y-120057394D01*
X150891606Y-119982920D01*
X150800394Y-119930259D01*
X150698661Y-119903000D01*
X150692447Y-119903000D01*
X151300328Y-119295116D01*
X151274933Y-119276666D01*
X151106637Y-119190914D01*
X150927002Y-119132548D01*
X150740447Y-119103000D01*
X150551553Y-119103000D01*
X150364997Y-119132548D01*
X150185362Y-119190914D01*
X150017060Y-119276669D01*
X149991670Y-119295116D01*
X149991669Y-119295116D01*
X150599554Y-119903000D01*
X150593339Y-119903000D01*
X150491606Y-119930259D01*
X150400394Y-119982920D01*
X150325920Y-120057394D01*
X150273259Y-120148606D01*
X150246000Y-120250339D01*
X150246000Y-120256553D01*
X149638116Y-119648669D01*
X149638116Y-119648670D01*
X149619669Y-119674060D01*
X149533914Y-119842362D01*
X149475548Y-120021997D01*
X149446000Y-120208552D01*
X149056335Y-120208552D01*
X149019973Y-120025749D01*
X148948322Y-119852769D01*
X148948321Y-119852768D01*
X148948318Y-119852762D01*
X148844302Y-119697092D01*
X148844299Y-119697088D01*
X148711911Y-119564700D01*
X148711907Y-119564697D01*
X148556237Y-119460681D01*
X148556230Y-119460677D01*
X148547199Y-119456937D01*
X148547198Y-119456936D01*
X148547197Y-119456936D01*
X148383251Y-119389027D01*
X148383243Y-119389025D01*
X148199620Y-119352500D01*
X148199616Y-119352500D01*
X148012384Y-119352500D01*
X148012379Y-119352500D01*
X147828756Y-119389025D01*
X147828748Y-119389027D01*
X147655771Y-119460676D01*
X147655763Y-119460681D01*
X147549624Y-119531602D01*
X147482947Y-119552480D01*
X147480733Y-119552500D01*
X146702080Y-119552500D01*
X146557092Y-119581340D01*
X146557082Y-119581343D01*
X146420511Y-119637912D01*
X146420499Y-119637919D01*
X146375608Y-119667915D01*
X146375606Y-119667916D01*
X146297589Y-119720043D01*
X146297584Y-119720047D01*
X143992664Y-122024967D01*
X143931341Y-122058452D01*
X143861649Y-122053468D01*
X143805716Y-122011596D01*
X143781299Y-121946132D01*
X143783365Y-121913097D01*
X143796500Y-121847069D01*
X143796500Y-121718931D01*
X143796500Y-121718928D01*
X143771502Y-121593261D01*
X143771501Y-121593260D01*
X143771501Y-121593256D01*
X143722465Y-121474873D01*
X143722464Y-121474872D01*
X143722461Y-121474866D01*
X143651276Y-121368331D01*
X143651273Y-121368327D01*
X143560672Y-121277726D01*
X143560668Y-121277723D01*
X143454133Y-121206538D01*
X143454124Y-121206533D01*
X143335744Y-121157499D01*
X143335738Y-121157497D01*
X143210071Y-121132500D01*
X143210069Y-121132500D01*
X143081931Y-121132500D01*
X143081929Y-121132500D01*
X142956261Y-121157497D01*
X142956255Y-121157499D01*
X142837875Y-121206533D01*
X142837866Y-121206538D01*
X142731331Y-121277723D01*
X142731327Y-121277726D01*
X142640726Y-121368327D01*
X142640723Y-121368331D01*
X142569538Y-121474866D01*
X142569533Y-121474875D01*
X142520499Y-121593255D01*
X142520497Y-121593261D01*
X142495500Y-121718928D01*
X142495500Y-121851100D01*
X142475815Y-121918139D01*
X142459181Y-121938781D01*
X140925438Y-123472525D01*
X140855526Y-123542436D01*
X140806091Y-123628059D01*
X140806091Y-123628060D01*
X140806090Y-123628062D01*
X140780500Y-123723565D01*
X139906763Y-123723565D01*
X139896759Y-118907757D01*
X139916305Y-118840677D01*
X139969013Y-118794813D01*
X140020759Y-118783500D01*
X141596207Y-118783500D01*
X141596208Y-118783499D01*
X141613934Y-118765774D01*
X141615188Y-118767028D01*
X141634370Y-118743231D01*
X141700667Y-118721174D01*
X141768364Y-118738462D01*
X141812465Y-118783096D01*
X141845500Y-118840314D01*
X141938686Y-118933500D01*
X142052814Y-118999392D01*
X142180108Y-119033500D01*
X142180110Y-119033500D01*
X142311890Y-119033500D01*
X142311892Y-119033500D01*
X142439186Y-118999392D01*
X142553314Y-118933500D01*
X142553315Y-118933498D01*
X142558999Y-118930217D01*
X142626899Y-118913744D01*
X142683001Y-118930217D01*
X142688684Y-118933498D01*
X142688686Y-118933500D01*
X142802814Y-118999392D01*
X142930108Y-119033500D01*
X142930110Y-119033500D01*
X143061890Y-119033500D01*
X143061892Y-119033500D01*
X143189186Y-118999392D01*
X143303314Y-118933500D01*
X143303315Y-118933498D01*
X143308999Y-118930217D01*
X143376899Y-118913744D01*
X143433001Y-118930217D01*
X143438684Y-118933498D01*
X143438686Y-118933500D01*
X143552814Y-118999392D01*
X143680108Y-119033500D01*
X143680110Y-119033500D01*
X143811890Y-119033500D01*
X143811892Y-119033500D01*
X143939186Y-118999392D01*
X144053314Y-118933500D01*
X144053315Y-118933498D01*
X144058999Y-118930217D01*
X144126899Y-118913744D01*
X144183001Y-118930217D01*
X144188684Y-118933498D01*
X144188686Y-118933500D01*
X144302814Y-118999392D01*
X144430108Y-119033500D01*
X144430110Y-119033500D01*
X144561890Y-119033500D01*
X144561892Y-119033500D01*
X144689186Y-118999392D01*
X144803314Y-118933500D01*
X144803315Y-118933498D01*
X144808999Y-118930217D01*
X144876899Y-118913744D01*
X144933001Y-118930217D01*
X144938684Y-118933498D01*
X144938686Y-118933500D01*
X145052814Y-118999392D01*
X145180108Y-119033500D01*
X145180110Y-119033500D01*
X145311890Y-119033500D01*
X145311892Y-119033500D01*
X145439186Y-118999392D01*
X145553314Y-118933500D01*
X145553315Y-118933498D01*
X145558999Y-118930217D01*
X145626899Y-118913744D01*
X145683001Y-118930217D01*
X145688684Y-118933498D01*
X145688686Y-118933500D01*
X145802814Y-118999392D01*
X145930108Y-119033500D01*
X145930110Y-119033500D01*
X146061890Y-119033500D01*
X146061892Y-119033500D01*
X146189186Y-118999392D01*
X146303314Y-118933500D01*
X146303315Y-118933498D01*
X146308999Y-118930217D01*
X146376899Y-118913744D01*
X146433001Y-118930217D01*
X146438684Y-118933498D01*
X146438686Y-118933500D01*
X146552814Y-118999392D01*
X146680108Y-119033500D01*
X146680110Y-119033500D01*
X146811890Y-119033500D01*
X146811892Y-119033500D01*
X146939186Y-118999392D01*
X147053314Y-118933500D01*
X147146500Y-118840314D01*
X147212392Y-118726186D01*
X147246500Y-118598892D01*
X147246500Y-118598889D01*
X147247324Y-118592632D01*
X147275590Y-118528735D01*
X147278236Y-118526989D01*
X147250401Y-118484344D01*
X147247495Y-118470825D01*
X147246500Y-118467111D01*
X147246500Y-118467108D01*
X147212392Y-118339814D01*
X147146500Y-118225686D01*
X147053314Y-118132500D01*
X146996250Y-118099554D01*
X146939187Y-118066608D01*
X146875539Y-118049554D01*
X146811892Y-118032500D01*
X146680108Y-118032500D01*
X146552814Y-118066608D01*
X146552813Y-118066608D01*
X146552811Y-118066609D01*
X146552810Y-118066609D01*
X146433000Y-118135782D01*
X146365100Y-118152255D01*
X146309000Y-118135782D01*
X146189189Y-118066609D01*
X146189186Y-118066608D01*
X146061892Y-118032500D01*
X145930108Y-118032500D01*
X145802814Y-118066608D01*
X145802813Y-118066608D01*
X145802811Y-118066609D01*
X145802810Y-118066609D01*
X145683000Y-118135782D01*
X145615100Y-118152255D01*
X145559000Y-118135782D01*
X145439189Y-118066609D01*
X145439186Y-118066608D01*
X145311892Y-118032500D01*
X145180108Y-118032500D01*
X145052814Y-118066608D01*
X145052813Y-118066608D01*
X145052811Y-118066609D01*
X145052810Y-118066609D01*
X144933000Y-118135782D01*
X144865100Y-118152255D01*
X144809000Y-118135782D01*
X144689189Y-118066609D01*
X144689186Y-118066608D01*
X144561892Y-118032500D01*
X144430108Y-118032500D01*
X144302814Y-118066608D01*
X144302813Y-118066608D01*
X144302811Y-118066609D01*
X144302810Y-118066609D01*
X144183000Y-118135782D01*
X144115100Y-118152255D01*
X144059000Y-118135782D01*
X143939189Y-118066609D01*
X143939186Y-118066608D01*
X143811892Y-118032500D01*
X143680108Y-118032500D01*
X143552814Y-118066608D01*
X143552813Y-118066608D01*
X143552811Y-118066609D01*
X143552810Y-118066609D01*
X143433000Y-118135782D01*
X143365100Y-118152255D01*
X143309000Y-118135782D01*
X143189189Y-118066609D01*
X143189186Y-118066608D01*
X143061892Y-118032500D01*
X142930108Y-118032500D01*
X142802814Y-118066608D01*
X142802813Y-118066608D01*
X142802811Y-118066609D01*
X142802810Y-118066609D01*
X142683000Y-118135782D01*
X142615100Y-118152255D01*
X142559000Y-118135782D01*
X142439189Y-118066609D01*
X142439186Y-118066608D01*
X142311892Y-118032500D01*
X142180108Y-118032500D01*
X142052812Y-118066608D01*
X141938686Y-118132500D01*
X141938683Y-118132502D01*
X141845502Y-118225683D01*
X141845497Y-118225689D01*
X141828103Y-118255817D01*
X141777535Y-118304032D01*
X141708927Y-118317253D01*
X141644063Y-118291284D01*
X141603536Y-118234369D01*
X141596717Y-118193773D01*
X141597021Y-117372664D01*
X141616730Y-117305632D01*
X141669551Y-117259897D01*
X141738713Y-117249979D01*
X141802258Y-117279027D01*
X141828408Y-117310710D01*
X141845500Y-117340314D01*
X141938686Y-117433500D01*
X142052814Y-117499392D01*
X142180108Y-117533500D01*
X142180110Y-117533500D01*
X142311890Y-117533500D01*
X142311892Y-117533500D01*
X142439186Y-117499392D01*
X142553314Y-117433500D01*
X142553315Y-117433498D01*
X142558999Y-117430217D01*
X142626899Y-117413744D01*
X142683001Y-117430217D01*
X142688684Y-117433498D01*
X142688686Y-117433500D01*
X142802814Y-117499392D01*
X142930108Y-117533500D01*
X142930110Y-117533500D01*
X143061890Y-117533500D01*
X143061892Y-117533500D01*
X143189186Y-117499392D01*
X143303314Y-117433500D01*
X143303315Y-117433498D01*
X143308999Y-117430217D01*
X143376899Y-117413744D01*
X143433001Y-117430217D01*
X143438684Y-117433498D01*
X143438686Y-117433500D01*
X143552814Y-117499392D01*
X143680108Y-117533500D01*
X143680110Y-117533500D01*
X143811890Y-117533500D01*
X143811892Y-117533500D01*
X143939186Y-117499392D01*
X144053314Y-117433500D01*
X144053315Y-117433498D01*
X144058999Y-117430217D01*
X144126899Y-117413744D01*
X144183001Y-117430217D01*
X144188684Y-117433498D01*
X144188686Y-117433500D01*
X144302814Y-117499392D01*
X144430108Y-117533500D01*
X144430110Y-117533500D01*
X144561890Y-117533500D01*
X144561892Y-117533500D01*
X144689186Y-117499392D01*
X144803314Y-117433500D01*
X144803315Y-117433498D01*
X144808999Y-117430217D01*
X144876899Y-117413744D01*
X144933001Y-117430217D01*
X144938684Y-117433498D01*
X144938686Y-117433500D01*
X145052814Y-117499392D01*
X145180108Y-117533500D01*
X145180110Y-117533500D01*
X145311890Y-117533500D01*
X145311892Y-117533500D01*
X145439186Y-117499392D01*
X145553314Y-117433500D01*
X145553315Y-117433498D01*
X145558999Y-117430217D01*
X145626899Y-117413744D01*
X145683001Y-117430217D01*
X145688684Y-117433498D01*
X145688686Y-117433500D01*
X145802814Y-117499392D01*
X145930108Y-117533500D01*
X145930110Y-117533500D01*
X146061890Y-117533500D01*
X146061892Y-117533500D01*
X146189186Y-117499392D01*
X146303314Y-117433500D01*
X146303315Y-117433498D01*
X146308999Y-117430217D01*
X146376899Y-117413744D01*
X146433001Y-117430217D01*
X146438684Y-117433498D01*
X146438686Y-117433500D01*
X146552814Y-117499392D01*
X146680108Y-117533500D01*
X146680110Y-117533500D01*
X146811890Y-117533500D01*
X146811892Y-117533500D01*
X146939186Y-117499392D01*
X147053314Y-117433500D01*
X147146500Y-117340314D01*
X147212392Y-117226186D01*
X147246500Y-117098892D01*
X147246500Y-116967108D01*
X147212392Y-116839814D01*
X147146500Y-116725686D01*
X147053314Y-116632500D01*
X146996250Y-116599554D01*
X146939187Y-116566608D01*
X146875539Y-116549554D01*
X146811892Y-116532500D01*
X146680108Y-116532500D01*
X146552814Y-116566608D01*
X146552813Y-116566608D01*
X146552811Y-116566609D01*
X146552810Y-116566609D01*
X146433000Y-116635782D01*
X146365100Y-116652255D01*
X146309000Y-116635782D01*
X146189189Y-116566609D01*
X146189186Y-116566608D01*
X146061892Y-116532500D01*
X145930108Y-116532500D01*
X145802814Y-116566608D01*
X145802813Y-116566608D01*
X145802811Y-116566609D01*
X145802810Y-116566609D01*
X145683000Y-116635782D01*
X145615100Y-116652255D01*
X145559000Y-116635782D01*
X145439189Y-116566609D01*
X145439186Y-116566608D01*
X145311892Y-116532500D01*
X145180108Y-116532500D01*
X145052814Y-116566608D01*
X145052813Y-116566608D01*
X145052811Y-116566609D01*
X145052810Y-116566609D01*
X144933000Y-116635782D01*
X144865100Y-116652255D01*
X144809000Y-116635782D01*
X144689189Y-116566609D01*
X144689186Y-116566608D01*
X144561892Y-116532500D01*
X144430108Y-116532500D01*
X144302814Y-116566608D01*
X144302813Y-116566608D01*
X144302811Y-116566609D01*
X144302810Y-116566609D01*
X144183000Y-116635782D01*
X144115100Y-116652255D01*
X144059000Y-116635782D01*
X143939189Y-116566609D01*
X143939186Y-116566608D01*
X143811892Y-116532500D01*
X143680108Y-116532500D01*
X143552814Y-116566608D01*
X143552813Y-116566608D01*
X143552811Y-116566609D01*
X143552810Y-116566609D01*
X143433000Y-116635782D01*
X143365100Y-116652255D01*
X143309000Y-116635782D01*
X143189189Y-116566609D01*
X143189186Y-116566608D01*
X143061892Y-116532500D01*
X142930108Y-116532500D01*
X142802814Y-116566608D01*
X142802813Y-116566608D01*
X142802811Y-116566609D01*
X142802810Y-116566609D01*
X142683000Y-116635782D01*
X142615100Y-116652255D01*
X142559000Y-116635782D01*
X142439189Y-116566609D01*
X142439186Y-116566608D01*
X142311892Y-116532500D01*
X142180108Y-116532500D01*
X142052812Y-116566608D01*
X141938686Y-116632500D01*
X141938683Y-116632502D01*
X141845502Y-116725683D01*
X141845498Y-116725689D01*
X141828658Y-116754856D01*
X141778090Y-116803071D01*
X141709483Y-116816292D01*
X141644619Y-116790323D01*
X141604091Y-116733408D01*
X141597272Y-116692808D01*
X141597294Y-116632500D01*
X141597556Y-115921682D01*
X141617265Y-115854654D01*
X141670086Y-115808919D01*
X141739248Y-115799001D01*
X141802793Y-115828049D01*
X141809237Y-115834051D01*
X141888686Y-115913500D01*
X142002814Y-115979392D01*
X142130108Y-116013500D01*
X142130110Y-116013500D01*
X142261890Y-116013500D01*
X142261892Y-116013500D01*
X142389186Y-115979392D01*
X142503314Y-115913500D01*
X142596500Y-115820314D01*
X142662392Y-115706186D01*
X142696500Y-115578892D01*
X142696500Y-115447108D01*
X142662392Y-115319814D01*
X142596500Y-115205686D01*
X142596498Y-115205684D01*
X142592436Y-115198648D01*
X142593786Y-115197868D01*
X142571930Y-115141329D01*
X142571500Y-115131013D01*
X142571500Y-113429899D01*
X142591185Y-113362860D01*
X142607819Y-113342218D01*
X146105218Y-109844819D01*
X146166541Y-109811334D01*
X146192899Y-109808500D01*
X146520676Y-109808500D01*
X146520677Y-109808499D01*
X146593740Y-109793966D01*
X146676601Y-109738601D01*
X146731966Y-109655740D01*
X146746500Y-109582674D01*
X146746500Y-108033326D01*
X146746500Y-108033323D01*
X146746499Y-108033321D01*
X146731967Y-107960264D01*
X146731966Y-107960260D01*
X146706954Y-107922827D01*
X146676601Y-107877399D01*
X146593740Y-107822034D01*
X146593739Y-107822033D01*
X146593735Y-107822032D01*
X146520677Y-107807500D01*
X146520674Y-107807500D01*
X145421326Y-107807500D01*
X145421323Y-107807500D01*
X145348264Y-107822032D01*
X145348260Y-107822033D01*
X145265398Y-107877399D01*
X145264983Y-107878022D01*
X145263722Y-107879075D01*
X145256763Y-107886035D01*
X145256140Y-107885412D01*
X145211371Y-107922827D01*
X145142046Y-107931534D01*
X145092990Y-107912233D01*
X145068343Y-107895764D01*
X145068334Y-107895759D01*
X144927205Y-107837302D01*
X144927197Y-107837300D01*
X144777384Y-107807500D01*
X144777380Y-107807500D01*
X144624620Y-107807500D01*
X144624615Y-107807500D01*
X144474802Y-107837300D01*
X144474794Y-107837302D01*
X144333660Y-107895761D01*
X144328293Y-107898631D01*
X144327670Y-107897466D01*
X144267459Y-107916311D01*
X144200082Y-107897816D01*
X144177582Y-107880011D01*
X144084403Y-107786832D01*
X144084399Y-107786829D01*
X143916526Y-107674659D01*
X143916513Y-107674652D01*
X143729984Y-107597390D01*
X143729977Y-107597388D01*
X143681000Y-107587645D01*
X143681000Y-108527670D01*
X143661255Y-108507925D01*
X143575745Y-108458556D01*
X143480370Y-108433000D01*
X143381630Y-108433000D01*
X143286255Y-108458556D01*
X143200745Y-108507925D01*
X143181000Y-108527670D01*
X143181000Y-107587646D01*
X143180999Y-107587645D01*
X143132022Y-107597388D01*
X143132015Y-107597390D01*
X142945486Y-107674652D01*
X142945473Y-107674659D01*
X142777600Y-107786829D01*
X142777596Y-107786832D01*
X142634832Y-107929596D01*
X142634829Y-107929600D01*
X142522659Y-108097473D01*
X142522652Y-108097486D01*
X142445390Y-108284016D01*
X142445387Y-108284025D01*
X142406000Y-108482041D01*
X142406000Y-108558000D01*
X143150670Y-108558000D01*
X143130925Y-108577745D01*
X143081556Y-108663255D01*
X143056000Y-108758630D01*
X143056000Y-108857370D01*
X143081556Y-108952745D01*
X143130925Y-109038255D01*
X143150670Y-109058000D01*
X142406000Y-109058000D01*
X142406000Y-109133958D01*
X142445387Y-109331974D01*
X142445390Y-109331983D01*
X142522652Y-109518513D01*
X142522659Y-109518526D01*
X142634829Y-109686399D01*
X142634832Y-109686403D01*
X142777596Y-109829167D01*
X142777600Y-109829170D01*
X142945473Y-109941340D01*
X142945486Y-109941347D01*
X143132016Y-110018609D01*
X143132025Y-110018612D01*
X143181000Y-110028353D01*
X143181000Y-109088330D01*
X143200745Y-109108075D01*
X143286255Y-109157444D01*
X143381630Y-109183000D01*
X143480370Y-109183000D01*
X143575745Y-109157444D01*
X143661255Y-109108075D01*
X143681000Y-109088330D01*
X143681000Y-110028352D01*
X143729974Y-110018612D01*
X143729983Y-110018609D01*
X143916513Y-109941347D01*
X143916526Y-109941340D01*
X144084399Y-109829170D01*
X144084403Y-109829167D01*
X144177581Y-109735988D01*
X144238904Y-109702502D01*
X144308595Y-109707486D01*
X144328212Y-109717526D01*
X144328296Y-109717370D01*
X144333659Y-109720236D01*
X144333663Y-109720239D01*
X144474795Y-109778698D01*
X144624615Y-109808499D01*
X144624619Y-109808500D01*
X144780100Y-109808500D01*
X144847139Y-109828185D01*
X144892894Y-109880989D01*
X144902838Y-109950147D01*
X144873813Y-110013703D01*
X144867781Y-110020181D01*
X141965438Y-112922525D01*
X141895526Y-112992436D01*
X141846091Y-113078059D01*
X141846091Y-113078060D01*
X141846090Y-113078062D01*
X141820500Y-113173565D01*
X141820500Y-113173567D01*
X141820500Y-114340632D01*
X141800815Y-114407671D01*
X141748011Y-114453426D01*
X141678853Y-114463370D01*
X141615297Y-114434345D01*
X141611710Y-114431112D01*
X141600134Y-114420264D01*
X141595869Y-114416070D01*
X141464693Y-114280684D01*
X141346544Y-114158744D01*
X141342447Y-114154303D01*
X141292746Y-114097732D01*
X141289158Y-114093458D01*
X141090194Y-113845310D01*
X141086447Y-113840386D01*
X141042641Y-113779695D01*
X141039654Y-113775362D01*
X140864383Y-113509038D01*
X140860953Y-113503514D01*
X140823705Y-113439875D01*
X140821213Y-113435408D01*
X140671156Y-113152913D01*
X140668156Y-113146874D01*
X140637724Y-113081196D01*
X140635775Y-113076765D01*
X140512208Y-112779963D01*
X140509751Y-112773562D01*
X140486318Y-112706944D01*
X140484886Y-112702613D01*
X140389074Y-112393678D01*
X140387158Y-112386797D01*
X140370767Y-112320564D01*
X140369801Y-112316337D01*
X140302834Y-111997391D01*
X140301539Y-111990147D01*
X140291957Y-111925407D01*
X140291439Y-111921447D01*
X140254290Y-111594612D01*
X140253669Y-111587071D01*
X140250495Y-111525236D01*
X140250360Y-111521430D01*
X140243909Y-111189007D01*
X140244007Y-111181177D01*
X140246570Y-111123443D01*
X140246778Y-111119953D01*
X140271803Y-110784098D01*
X140272663Y-110776110D01*
X140280031Y-110723831D01*
X140280525Y-110720650D01*
X140337741Y-110383588D01*
X140339402Y-110375475D01*
X140350346Y-110329898D01*
X140351084Y-110326991D01*
X140441161Y-109990988D01*
X140443660Y-109982813D01*
X140456575Y-109945269D01*
X140457521Y-109942626D01*
X140581168Y-109609797D01*
X140584515Y-109601687D01*
X140597377Y-109573416D01*
X140598507Y-109571002D01*
X140756516Y-109243463D01*
X140760724Y-109235498D01*
X140771096Y-109217492D01*
X140772254Y-109215530D01*
X140965658Y-108895250D01*
X140970730Y-108887519D01*
X140975437Y-108880902D01*
X140976581Y-108879326D01*
X141205906Y-108569400D01*
X141213233Y-108560412D01*
X141474669Y-108268749D01*
X141482813Y-108260481D01*
X141531288Y-108215663D01*
X141770400Y-107994590D01*
X141779268Y-107987130D01*
X142090518Y-107749316D01*
X142100048Y-107742719D01*
X142432173Y-107535109D01*
X142442293Y-107529424D01*
X142792406Y-107353824D01*
X142802992Y-107349122D01*
X143168016Y-107207075D01*
X143179023Y-107203376D01*
X143555735Y-107096136D01*
X143567022Y-107093488D01*
X143952120Y-107021994D01*
X143963616Y-107020413D01*
X144353717Y-106985293D01*
X144365320Y-106984796D01*
X144756988Y-106986358D01*
G37*
%TD.AperFunction*%
%TA.AperFunction,Conductor*%
G36*
X158642945Y-121526206D02*
G01*
X158686397Y-121580921D01*
X158695500Y-121627555D01*
X158695500Y-128338444D01*
X158675815Y-128405483D01*
X158623011Y-128451238D01*
X158553853Y-128461182D01*
X158490297Y-128432157D01*
X158461016Y-128394740D01*
X158451050Y-128375182D01*
X158326109Y-128203213D01*
X158175788Y-128052892D01*
X158142815Y-128028937D01*
X158100149Y-127973608D01*
X158094168Y-127903995D01*
X158112594Y-127859731D01*
X158131966Y-127830740D01*
X158146500Y-127757674D01*
X158146500Y-126208326D01*
X158146500Y-126208323D01*
X158146499Y-126208321D01*
X158131967Y-126135264D01*
X158131966Y-126135260D01*
X158122564Y-126121189D01*
X158076601Y-126052399D01*
X158021235Y-126015405D01*
X157993739Y-125997033D01*
X157993735Y-125997032D01*
X157920677Y-125982500D01*
X157920674Y-125982500D01*
X157859392Y-125982500D01*
X157792353Y-125962815D01*
X157746598Y-125910011D01*
X157736654Y-125840853D01*
X157765679Y-125777297D01*
X157780725Y-125762648D01*
X157783776Y-125760142D01*
X157783782Y-125760139D01*
X157923139Y-125620782D01*
X158032632Y-125456914D01*
X158108051Y-125274835D01*
X158135827Y-125135197D01*
X158146500Y-125081543D01*
X158146500Y-124884456D01*
X158108052Y-124691170D01*
X158108051Y-124691169D01*
X158108051Y-124691165D01*
X158083996Y-124633090D01*
X158032635Y-124509092D01*
X158032628Y-124509079D01*
X157923139Y-124345218D01*
X157923136Y-124345214D01*
X157804690Y-124226768D01*
X157771205Y-124165445D01*
X157776189Y-124095753D01*
X157818061Y-124039820D01*
X157819485Y-124038769D01*
X157960321Y-123936443D01*
X157960322Y-123936443D01*
X158099444Y-123797321D01*
X158215095Y-123638143D01*
X158304418Y-123462837D01*
X158365218Y-123275716D01*
X158371984Y-123233000D01*
X157021278Y-123233000D01*
X157065333Y-123156694D01*
X157096000Y-123042244D01*
X157096000Y-122923756D01*
X157065333Y-122809306D01*
X157021278Y-122733000D01*
X158371984Y-122733000D01*
X158365218Y-122690283D01*
X158304418Y-122503162D01*
X158215095Y-122327856D01*
X158099444Y-122168678D01*
X158086206Y-122155440D01*
X158052721Y-122094117D01*
X158057705Y-122024425D01*
X158099577Y-121968492D01*
X158100912Y-121967506D01*
X158175792Y-121913104D01*
X158326104Y-121762792D01*
X158326106Y-121762788D01*
X158326109Y-121762786D01*
X158424359Y-121627555D01*
X158451051Y-121590816D01*
X158461015Y-121571261D01*
X158508989Y-121520464D01*
X158576810Y-121503669D01*
X158642945Y-121526206D01*
G37*
%TD.AperFunction*%
%TD*%
M02*
