%TF.GenerationSoftware,KiCad,Pcbnew,8.0.1*%
%TF.CreationDate,2024-04-25T21:08:23+02:00*%
%TF.ProjectId,pcb-design,7063622d-6465-4736-9967-6e2e6b696361,rev?*%
%TF.SameCoordinates,Original*%
%TF.FileFunction,Copper,L2,Bot*%
%TF.FilePolarity,Positive*%
%FSLAX46Y46*%
G04 Gerber Fmt 4.6, Leading zero omitted, Abs format (unit mm)*
G04 Created by KiCad (PCBNEW 8.0.1) date 2024-04-25 21:08:23*
%MOMM*%
%LPD*%
G01*
G04 APERTURE LIST*
G04 Aperture macros list*
%AMRoundRect*
0 Rectangle with rounded corners*
0 $1 Rounding radius*
0 $2 $3 $4 $5 $6 $7 $8 $9 X,Y pos of 4 corners*
0 Add a 4 corners polygon primitive as box body*
4,1,4,$2,$3,$4,$5,$6,$7,$8,$9,$2,$3,0*
0 Add four circle primitives for the rounded corners*
1,1,$1+$1,$2,$3*
1,1,$1+$1,$4,$5*
1,1,$1+$1,$6,$7*
1,1,$1+$1,$8,$9*
0 Add four rect primitives between the rounded corners*
20,1,$1+$1,$2,$3,$4,$5,0*
20,1,$1+$1,$4,$5,$6,$7,0*
20,1,$1+$1,$6,$7,$8,$9,0*
20,1,$1+$1,$8,$9,$2,$3,0*%
G04 Aperture macros list end*
%TA.AperFunction,ComponentPad*%
%ADD10C,1.400000*%
%TD*%
%TA.AperFunction,ComponentPad*%
%ADD11R,1.000000X1.000000*%
%TD*%
%TA.AperFunction,ComponentPad*%
%ADD12O,1.000000X1.000000*%
%TD*%
%TA.AperFunction,ComponentPad*%
%ADD13C,1.320800*%
%TD*%
%TA.AperFunction,ComponentPad*%
%ADD14C,2.006600*%
%TD*%
%TA.AperFunction,CastellatedPad*%
%ADD15RoundRect,0.252500X-0.252500X0.472500X-0.252500X-0.472500X0.252500X-0.472500X0.252500X0.472500X0*%
%TD*%
%TA.AperFunction,CastellatedPad*%
%ADD16RoundRect,0.247500X-0.247500X0.502500X-0.247500X-0.502500X0.247500X-0.502500X0.247500X0.502500X0*%
%TD*%
%TA.AperFunction,ViaPad*%
%ADD17C,0.800000*%
%TD*%
%TA.AperFunction,Conductor*%
%ADD18C,0.250000*%
%TD*%
%TA.AperFunction,Conductor*%
%ADD19C,0.200000*%
%TD*%
G04 APERTURE END LIST*
D10*
%TO.P,U5,1,+*%
%TO.N,/B+*%
X149508000Y-121252000D03*
%TO.P,U5,2,-*%
%TO.N,/B-*%
X152048000Y-121252000D03*
%TD*%
D11*
%TO.P,U3,1,V+*%
%TO.N,/3.3v*%
X145896000Y-108683000D03*
D12*
%TO.P,U3,2,Signal*%
%TO.N,/Temp*%
X144396000Y-108683000D03*
%TO.P,U3,3,GND*%
%TO.N,/GND*%
X142896000Y-108683000D03*
%TD*%
D13*
%TO.P,U2,1,1*%
%TO.N,/esp-3.3*%
X157096000Y-126691000D03*
%TO.P,U2,2,2*%
%TO.N,/SW-OUT*%
X157096000Y-124690999D03*
%TO.P,U2,3,3*%
%TO.N,/esp-gnd*%
X157096000Y-122690998D03*
D14*
%TO.P,U2,4*%
%TO.N,N/C*%
X157096000Y-128793099D03*
%TO.P,U2,5*%
X157096000Y-120588899D03*
%TD*%
D15*
%TO.P,U1,1,+*%
%TO.N,/B+*%
X149800000Y-135534500D03*
D16*
%TO.P,U1,2,-*%
%TO.N,/B-*%
X151535000Y-135509500D03*
%TD*%
D17*
%TO.N,/esp-gnd*%
X146906900Y-134262700D03*
%TO.N,/esp-3.3*%
X151725400Y-146177000D03*
%TO.N,/D10*%
X143917400Y-127399100D03*
X145006900Y-133984300D03*
%TO.N,/SW-OUT*%
X145096000Y-125760700D03*
%TO.N,/B-*%
X155396000Y-134375500D03*
%TD*%
D18*
%TO.N,/esp-3.3*%
X148265900Y-138852900D02*
X148265900Y-142717500D01*
X148265900Y-142717500D02*
X151725400Y-146177000D01*
X147796000Y-138383000D02*
X148265900Y-138852900D01*
X156488000Y-126691000D02*
X147796000Y-135383000D01*
X147796000Y-135383000D02*
X147796000Y-138383000D01*
X157096000Y-126691000D02*
X156488000Y-126691000D01*
D19*
%TO.N,/B-*%
X154014401Y-119285599D02*
X152048000Y-121252000D01*
X158399300Y-120049054D02*
X157635845Y-119285599D01*
X158399300Y-121128744D02*
X158399300Y-120049054D01*
X158396000Y-121132044D02*
X158399300Y-121128744D01*
X157635845Y-119285599D02*
X154014401Y-119285599D01*
X158396000Y-125438441D02*
X158506400Y-125328041D01*
X158396000Y-123389959D02*
X158396000Y-121132044D01*
X158506400Y-123500359D02*
X158396000Y-123389959D01*
X158396000Y-128249954D02*
X158396000Y-125438441D01*
X158399300Y-128253254D02*
X158396000Y-128249954D01*
X158506400Y-125328041D02*
X158506400Y-123500359D01*
X158399300Y-131372200D02*
X158399300Y-128253254D01*
X155396000Y-134375500D02*
X158399300Y-131372200D01*
D18*
%TO.N,/esp-gnd*%
X157529500Y-125703900D02*
X155465700Y-125703900D01*
X155465700Y-125703900D02*
X146906900Y-134262700D01*
X158081400Y-125152000D02*
X157529500Y-125703900D01*
X158081400Y-123676400D02*
X158081400Y-125152000D01*
X157096000Y-122691000D02*
X158081400Y-123676400D01*
%TO.N,/D10*%
X143930600Y-127412200D02*
X143930500Y-127412200D01*
X145006900Y-133984300D02*
X143930600Y-132908000D01*
X143930500Y-127412200D02*
X143917400Y-127399100D01*
X143930600Y-132908000D02*
X143930600Y-127412200D01*
%TO.N,/SW-OUT*%
X146165700Y-124691000D02*
X145096000Y-125760700D01*
X157096000Y-124691000D02*
X146165700Y-124691000D01*
%TD*%
M02*
