%TF.GenerationSoftware,KiCad,Pcbnew,8.0.1*%
%TF.CreationDate,2024-04-25T21:08:23+02:00*%
%TF.ProjectId,pcb-design,7063622d-6465-4736-9967-6e2e6b696361,rev?*%
%TF.SameCoordinates,Original*%
%TF.FileFunction,Soldermask,Top*%
%TF.FilePolarity,Negative*%
%FSLAX46Y46*%
G04 Gerber Fmt 4.6, Leading zero omitted, Abs format (unit mm)*
G04 Created by KiCad (PCBNEW 8.0.1) date 2024-04-25 21:08:23*
%MOMM*%
%LPD*%
G01*
G04 APERTURE LIST*
G04 Aperture macros list*
%AMRoundRect*
0 Rectangle with rounded corners*
0 $1 Rounding radius*
0 $2 $3 $4 $5 $6 $7 $8 $9 X,Y pos of 4 corners*
0 Add a 4 corners polygon primitive as box body*
4,1,4,$2,$3,$4,$5,$6,$7,$8,$9,$2,$3,0*
0 Add four circle primitives for the rounded corners*
1,1,$1+$1,$2,$3*
1,1,$1+$1,$4,$5*
1,1,$1+$1,$6,$7*
1,1,$1+$1,$8,$9*
0 Add four rect primitives between the rounded corners*
20,1,$1+$1,$2,$3,$4,$5,0*
20,1,$1+$1,$4,$5,$6,$7,0*
20,1,$1+$1,$6,$7,$8,$9,0*
20,1,$1+$1,$8,$9,$2,$3,0*%
G04 Aperture macros list end*
%ADD10C,1.400000*%
%ADD11R,0.558800X0.660400*%
%ADD12R,0.654800X0.508000*%
%ADD13RoundRect,0.200000X-0.550000X-0.200000X0.550000X-0.200000X0.550000X0.200000X-0.550000X0.200000X0*%
%ADD14R,1.000000X1.000000*%
%ADD15O,1.000000X1.000000*%
%ADD16RoundRect,0.150000X-0.625000X0.150000X-0.625000X-0.150000X0.625000X-0.150000X0.625000X0.150000X0*%
%ADD17RoundRect,0.250000X-0.650000X0.350000X-0.650000X-0.350000X0.650000X-0.350000X0.650000X0.350000X0*%
%ADD18C,1.320800*%
%ADD19C,2.006600*%
%ADD20RoundRect,0.150000X-0.150000X-0.600000X0.150000X-0.600000X0.150000X0.600000X-0.150000X0.600000X0*%
%ADD21RoundRect,0.252500X-0.252500X0.472500X-0.252500X-0.472500X0.252500X-0.472500X0.252500X0.472500X0*%
%ADD22RoundRect,0.247500X-0.247500X0.502500X-0.247500X-0.502500X0.247500X-0.502500X0.247500X0.502500X0*%
%ADD23RoundRect,1.000000X-0.000010X0.375000X-0.000010X-0.375000X0.000010X-0.375000X0.000010X0.375000X0*%
%ADD24C,0.500000*%
G04 APERTURE END LIST*
D10*
%TO.C,U5*%
X149508000Y-121252000D03*
X152048000Y-121252000D03*
%TD*%
D11*
%TO.C,C1*%
X152646000Y-123886900D03*
X152646000Y-124979100D03*
%TD*%
D12*
%TO.C,R1*%
X148340000Y-123683000D03*
X149452000Y-123683000D03*
%TD*%
%TO.C,R3*%
X152052000Y-127983000D03*
X150940000Y-127983000D03*
%TD*%
D13*
%TO.C,D2*%
X143056000Y-111393000D03*
X143056000Y-113173000D03*
X146336000Y-113173000D03*
X146336000Y-111393000D03*
%TD*%
D14*
%TO.C,U3*%
X145896000Y-108683000D03*
D15*
X144396000Y-108683000D03*
X142896000Y-108683000D03*
%TD*%
D16*
%TO.C,J2*%
X145096000Y-121854000D03*
X145096000Y-122854000D03*
X145096000Y-123854000D03*
X145096000Y-124854000D03*
D17*
X141221000Y-120554000D03*
X141221000Y-126154000D03*
%TD*%
D18*
%TO.C,U2*%
X157096000Y-126691000D03*
X157096000Y-124690999D03*
X157096000Y-122690998D03*
D19*
X157096000Y-128793099D03*
X157096000Y-120588899D03*
%TD*%
D20*
%TO.C,J1*%
X143096000Y-115483000D03*
X144096000Y-115483000D03*
X145096000Y-115483000D03*
X146096000Y-115483000D03*
%TD*%
D21*
%TO.C,U1*%
X149800000Y-135534500D03*
D22*
X151535000Y-135509500D03*
%TD*%
D23*
%TO.C,U4*%
X157000000Y-132000500D03*
X154460000Y-132000500D03*
X151920000Y-132000500D03*
X149380000Y-132000500D03*
X146840000Y-132000500D03*
X144300000Y-132000500D03*
X141760000Y-132000500D03*
X141760000Y-148165500D03*
X144300000Y-148165500D03*
X146840000Y-148165500D03*
X149380000Y-148165500D03*
X151920000Y-148165500D03*
X154460000Y-148165500D03*
X157000000Y-148165500D03*
%TD*%
D24*
%TO.C,mouse-bite-2mm-slot*%
X142246000Y-117033000D03*
X142246000Y-118533000D03*
X142996000Y-117033000D03*
X142996000Y-118533000D03*
X143746000Y-117033000D03*
X143746000Y-118533000D03*
X144496000Y-117033000D03*
X144496000Y-118533000D03*
X145246000Y-117033000D03*
X145246000Y-118533000D03*
X145996000Y-117033000D03*
X145996000Y-118533000D03*
X146746000Y-117033000D03*
X146746000Y-118533000D03*
%TD*%
D12*
%TO.C,R2*%
X148440000Y-125983000D03*
X149552000Y-125983000D03*
%TD*%
M02*
