%TF.GenerationSoftware,KiCad,Pcbnew,7.0.9*%
%TF.CreationDate,2024-01-18T21:49:24+01:00*%
%TF.ProjectId,pcb-design,7063622d-6465-4736-9967-6e2e6b696361,rev?*%
%TF.SameCoordinates,Original*%
%TF.FileFunction,Copper,L1,Top*%
%TF.FilePolarity,Positive*%
%FSLAX46Y46*%
G04 Gerber Fmt 4.6, Leading zero omitted, Abs format (unit mm)*
G04 Created by KiCad (PCBNEW 7.0.9) date 2024-01-18 21:49:24*
%MOMM*%
%LPD*%
G01*
G04 APERTURE LIST*
G04 Aperture macros list*
%AMRoundRect*
0 Rectangle with rounded corners*
0 $1 Rounding radius*
0 $2 $3 $4 $5 $6 $7 $8 $9 X,Y pos of 4 corners*
0 Add a 4 corners polygon primitive as box body*
4,1,4,$2,$3,$4,$5,$6,$7,$8,$9,$2,$3,0*
0 Add four circle primitives for the rounded corners*
1,1,$1+$1,$2,$3*
1,1,$1+$1,$4,$5*
1,1,$1+$1,$6,$7*
1,1,$1+$1,$8,$9*
0 Add four rect primitives between the rounded corners*
20,1,$1+$1,$2,$3,$4,$5,0*
20,1,$1+$1,$4,$5,$6,$7,0*
20,1,$1+$1,$6,$7,$8,$9,0*
20,1,$1+$1,$8,$9,$2,$3,0*%
G04 Aperture macros list end*
%TA.AperFunction,SMDPad,CuDef*%
%ADD10R,1.905000X1.295400*%
%TD*%
%TA.AperFunction,SMDPad,CuDef*%
%ADD11R,1.549400X0.660400*%
%TD*%
%TA.AperFunction,SMDPad,CuDef*%
%ADD12RoundRect,0.250000X-0.250000X1.250000X-0.250000X-1.250000X0.250000X-1.250000X0.250000X1.250000X0*%
%TD*%
%TA.AperFunction,SMDPad,CuDef*%
%ADD13R,0.558800X0.660400*%
%TD*%
%TA.AperFunction,SMDPad,CuDef*%
%ADD14R,0.508000X0.654800*%
%TD*%
%TA.AperFunction,ComponentPad*%
%ADD15C,1.320800*%
%TD*%
%TA.AperFunction,ComponentPad*%
%ADD16C,2.006600*%
%TD*%
%TA.AperFunction,SMDPad,CuDef*%
%ADD17RoundRect,1.000000X0.000000X0.375000X0.000000X-0.375000X0.000000X-0.375000X0.000000X0.375000X0*%
%TD*%
%TA.AperFunction,ViaPad*%
%ADD18C,0.800000*%
%TD*%
%TA.AperFunction,Conductor*%
%ADD19C,0.250000*%
%TD*%
G04 APERTURE END LIST*
D10*
%TO.P,J1,7*%
%TO.N,N/C*%
X141913201Y-121342002D03*
%TO.P,J1,6*%
X141913201Y-127941998D03*
D11*
%TO.P,J1,5,5*%
%TO.N,Net-(U4-PA9_A5_D5_SCL)*%
X144383201Y-122641999D03*
%TO.P,J1,4,4*%
%TO.N,Net-(U4-PA8_A4_D4_SDA)*%
X144383201Y-123641999D03*
%TO.P,J1,3,3*%
%TO.N,Net-(U4-PA6_A10_D10_MOSI)*%
X144383201Y-124642000D03*
%TO.P,J1,2,2*%
%TO.N,Net-(U4-GND)*%
X144383201Y-125642001D03*
%TO.P,J1,1,1*%
%TO.N,Net-(U4-3V3)*%
X144383201Y-126642001D03*
%TD*%
D12*
%TO.P,U1,1,+*%
%TO.N,Net-(U1-+)*%
X150441000Y-121166000D03*
%TO.P,U1,2,-*%
%TO.N,Net-(U1--)*%
X148941000Y-121166000D03*
%TD*%
D13*
%TO.P,C1,1*%
%TO.N,Net-(U4-PA11_A3_D3)*%
X148731600Y-124488800D03*
%TO.P,C1,2*%
%TO.N,Net-(U4-GND)*%
X148731600Y-125581000D03*
%TD*%
D14*
%TO.P,R1,1*%
%TO.N,Net-(U1-+)*%
X153087000Y-124486000D03*
%TO.P,R1,2*%
%TO.N,Net-(U4-PA11_A3_D3)*%
X153087000Y-125598000D03*
%TD*%
D15*
%TO.P,U2,1,1*%
%TO.N,Net-(U4-GND)*%
X156822000Y-126382001D03*
%TO.P,U2,2,2*%
%TO.N,unconnected-(U2-Pad2)*%
X156822000Y-124382000D03*
%TO.P,U2,3,3*%
%TO.N,Net-(U4-PA02_A0_D0)*%
X156822000Y-122381999D03*
D16*
%TO.P,U2,4*%
%TO.N,N/C*%
X156822000Y-128484100D03*
%TO.P,U2,5*%
X156822000Y-120279900D03*
%TD*%
D17*
%TO.P,U4,1,PA02_A0_D0*%
%TO.N,Net-(U4-PA02_A0_D0)*%
X157303000Y-132003000D03*
%TO.P,U4,2,PA4_A1_D1*%
%TO.N,unconnected-(U4-PA4_A1_D1-Pad2)*%
X154763000Y-132003000D03*
%TO.P,U4,3,PA10_A2_D2*%
%TO.N,unconnected-(U4-PA10_A2_D2-Pad3)*%
X152223000Y-132003000D03*
%TO.P,U4,4,PA11_A3_D3*%
%TO.N,Net-(U4-PA11_A3_D3)*%
X149683000Y-132003000D03*
%TO.P,U4,5,PA8_A4_D4_SDA*%
%TO.N,Net-(U4-PA8_A4_D4_SDA)*%
X147143000Y-132003000D03*
%TO.P,U4,6,PA9_A5_D5_SCL*%
%TO.N,Net-(U4-PA9_A5_D5_SCL)*%
X144603000Y-132003000D03*
%TO.P,U4,7,PB08_A6_D6_TX*%
%TO.N,unconnected-(U4-PB08_A6_D6_TX-Pad7)*%
X142063000Y-132003000D03*
%TO.P,U4,8,PB09_A7_D7_RX*%
%TO.N,unconnected-(U4-PB09_A7_D7_RX-Pad8)*%
X142063000Y-148168000D03*
%TO.P,U4,9,PA7_A8_D8_SCK*%
%TO.N,unconnected-(U4-PA7_A8_D8_SCK-Pad9)*%
X144603000Y-148168000D03*
%TO.P,U4,10,PA5_A9_D9_MISO*%
%TO.N,unconnected-(U4-PA5_A9_D9_MISO-Pad10)*%
X147143000Y-148168000D03*
%TO.P,U4,11,PA6_A10_D10_MOSI*%
%TO.N,Net-(U4-PA6_A10_D10_MOSI)*%
X149683000Y-148168000D03*
%TO.P,U4,12,3V3*%
%TO.N,Net-(U4-3V3)*%
X152223000Y-148168000D03*
%TO.P,U4,13,GND*%
%TO.N,Net-(U4-GND)*%
X154763000Y-148168000D03*
%TO.P,U4,14,5V*%
%TO.N,unconnected-(U4-5V-Pad14)*%
X157303000Y-148168000D03*
D12*
%TO.P,U4,15,-*%
%TO.N,Net-(U1--)*%
X151723000Y-135638000D03*
%TO.P,U4,16,+*%
%TO.N,Net-(U1-+)*%
X150263000Y-135638000D03*
%TD*%
D14*
%TO.P,R2,1*%
%TO.N,Net-(U4-GND)*%
X150918600Y-124486000D03*
%TO.P,R2,2*%
%TO.N,Net-(U4-PA11_A3_D3)*%
X150918600Y-125598000D03*
%TD*%
D18*
%TO.N,Net-(U4-3V3)*%
X152217000Y-148185000D03*
X144272000Y-126746000D03*
%TO.N,Net-(U4-PA6_A10_D10_MOSI)*%
X149672750Y-148160000D03*
X144232000Y-124646000D03*
%TO.N,Net-(U1--)*%
X151723000Y-135638000D03*
X148941000Y-121166000D03*
%TO.N,Net-(U1-+)*%
X150441000Y-121166000D03*
X150263000Y-135638000D03*
%TO.N,Net-(U4-GND)*%
X154686000Y-148082000D03*
X144377000Y-125653000D03*
X147069000Y-123097000D03*
%TD*%
D19*
%TO.N,Net-(U4-PA11_A3_D3)*%
X149116800Y-124488800D02*
X150226000Y-125598000D01*
X150226000Y-125598000D02*
X150918600Y-125598000D01*
X150226000Y-125598000D02*
X149683000Y-126141000D01*
X150918600Y-125598000D02*
X153087000Y-125598000D01*
X148731600Y-124488800D02*
X149116800Y-124488800D01*
X149683000Y-126141000D02*
X149683000Y-132003000D01*
%TO.N,Net-(U4-3V3)*%
X152212750Y-148180750D02*
X152217000Y-148185000D01*
X152212750Y-148160000D02*
X152212750Y-148180750D01*
%TO.N,Net-(U4-PA8_A4_D4_SDA)*%
X147143000Y-125377098D02*
X145407901Y-123641999D01*
X145407901Y-123641999D02*
X144383201Y-123641999D01*
X147143000Y-132003000D02*
X147143000Y-125377098D01*
%TO.N,Net-(U4-PA9_A5_D5_SCL)*%
X143283501Y-127027501D02*
X143283501Y-130683501D01*
X144383201Y-122641999D02*
X142809001Y-122641999D01*
X142809001Y-126553001D02*
X143283501Y-127027501D01*
X143283501Y-130683501D02*
X144603000Y-132003000D01*
X142809001Y-122641999D02*
X142809001Y-126553001D01*
%TO.N,Net-(U1--)*%
X151723000Y-134958000D02*
X151936000Y-134745000D01*
X151723000Y-135638000D02*
X151723000Y-134958000D01*
%TO.N,Net-(U1-+)*%
X150441000Y-121166000D02*
X153087000Y-123812000D01*
X153087000Y-123812000D02*
X153087000Y-124486000D01*
%TO.N,Net-(U4-GND)*%
X147069000Y-123097000D02*
X147069000Y-124447800D01*
X149500600Y-123068000D02*
X150918600Y-124486000D01*
X147069000Y-123068000D02*
X147069000Y-123097000D01*
X148202200Y-125581000D02*
X148731600Y-125581000D01*
X147069000Y-123068000D02*
X149500600Y-123068000D01*
X147069000Y-124447800D02*
X148202200Y-125581000D01*
%TO.N,unconnected-(U2-Pad2)*%
X156718000Y-124486000D02*
X156822000Y-124382000D01*
%TO.N,Net-(U4-PA02_A0_D0)*%
X157303000Y-132003000D02*
X158172766Y-131133234D01*
X158172766Y-131133234D02*
X158172766Y-123732765D01*
X158172766Y-123732765D02*
X156822000Y-122381999D01*
%TD*%
M02*
