%TF.GenerationSoftware,KiCad,Pcbnew,7.0.9*%
%TF.CreationDate,2024-01-18T21:49:33+01:00*%
%TF.ProjectId,pcb-design,7063622d-6465-4736-9967-6e2e6b696361,rev?*%
%TF.SameCoordinates,Original*%
%TF.FileFunction,Drillmap*%
%TF.FilePolarity,Positive*%
%FSLAX45Y45*%
G04 Gerber Fmt 4.5, Leading zero omitted, Abs format (unit mm)*
G04 Created by KiCad (PCBNEW 7.0.9) date 2024-01-18 21:49:33*
%MOMM*%
%LPD*%
G01*
G04 APERTURE LIST*
%ADD10C,0.100000*%
%ADD11C,0.200000*%
%ADD12C,0.149860*%
G04 APERTURE END LIST*
D10*
X14066100Y-11896100D02*
X15877500Y-11896100D01*
X15877500Y-15052700D01*
X14066100Y-15052700D01*
X14066100Y-11896100D01*
D11*
D10*
X14403200Y-12444600D02*
X14443200Y-12484600D01*
X14443200Y-12444600D02*
X14403200Y-12484600D01*
X14407200Y-12654600D02*
X14447200Y-12694600D01*
X14447200Y-12654600D02*
X14407200Y-12694600D01*
X14417700Y-12545300D02*
X14457700Y-12585300D01*
X14457700Y-12545300D02*
X14417700Y-12585300D01*
X14686900Y-12289700D02*
X14726900Y-12329700D01*
X14726900Y-12289700D02*
X14686900Y-12329700D01*
X14874100Y-12096600D02*
X14914100Y-12136600D01*
X14914100Y-12096600D02*
X14874100Y-12136600D01*
X14947275Y-14796000D02*
X14987275Y-14836000D01*
X14987275Y-14796000D02*
X14947275Y-14836000D01*
X15006300Y-13543800D02*
X15046300Y-13583800D01*
X15046300Y-13543800D02*
X15006300Y-13583800D01*
X15024100Y-12096600D02*
X15064100Y-12136600D01*
X15064100Y-12096600D02*
X15024100Y-12136600D01*
X15152300Y-13543800D02*
X15192300Y-13583800D01*
X15192300Y-13543800D02*
X15152300Y-13583800D01*
X15201700Y-14798500D02*
X15241700Y-14838500D01*
X15241700Y-14798500D02*
X15201700Y-14838500D01*
X15448600Y-14788200D02*
X15488600Y-14828200D01*
X15488600Y-14788200D02*
X15448600Y-14828200D01*
X15722840Y-12238200D02*
G75*
G03*
X15722840Y-12238200I-40640J0D01*
G01*
X15722840Y-12438200D02*
G75*
G03*
X15722840Y-12438200I-40640J0D01*
G01*
X15722840Y-12638200D02*
G75*
G03*
X15722840Y-12638200I-40640J0D01*
G01*
D12*
X15682200Y-11953060D02*
X15682200Y-12102920D01*
X15607270Y-12027990D02*
X15757130Y-12027990D01*
X15682200Y-12773480D02*
X15682200Y-12923340D01*
X15607270Y-12848410D02*
X15757130Y-12848410D01*
D11*
X14321877Y-15369184D02*
X14321877Y-15169184D01*
X14321877Y-15169184D02*
X14369496Y-15169184D01*
X14369496Y-15169184D02*
X14398067Y-15178708D01*
X14398067Y-15178708D02*
X14417115Y-15197755D01*
X14417115Y-15197755D02*
X14426639Y-15216803D01*
X14426639Y-15216803D02*
X14436162Y-15254898D01*
X14436162Y-15254898D02*
X14436162Y-15283469D01*
X14436162Y-15283469D02*
X14426639Y-15321565D01*
X14426639Y-15321565D02*
X14417115Y-15340612D01*
X14417115Y-15340612D02*
X14398067Y-15359660D01*
X14398067Y-15359660D02*
X14369496Y-15369184D01*
X14369496Y-15369184D02*
X14321877Y-15369184D01*
X14521877Y-15369184D02*
X14521877Y-15235850D01*
X14521877Y-15273946D02*
X14531401Y-15254898D01*
X14531401Y-15254898D02*
X14540924Y-15245374D01*
X14540924Y-15245374D02*
X14559972Y-15235850D01*
X14559972Y-15235850D02*
X14579020Y-15235850D01*
X14645686Y-15369184D02*
X14645686Y-15235850D01*
X14645686Y-15169184D02*
X14636162Y-15178708D01*
X14636162Y-15178708D02*
X14645686Y-15188231D01*
X14645686Y-15188231D02*
X14655210Y-15178708D01*
X14655210Y-15178708D02*
X14645686Y-15169184D01*
X14645686Y-15169184D02*
X14645686Y-15188231D01*
X14769496Y-15369184D02*
X14750448Y-15359660D01*
X14750448Y-15359660D02*
X14740924Y-15340612D01*
X14740924Y-15340612D02*
X14740924Y-15169184D01*
X14874258Y-15369184D02*
X14855210Y-15359660D01*
X14855210Y-15359660D02*
X14845686Y-15340612D01*
X14845686Y-15340612D02*
X14845686Y-15169184D01*
X15102829Y-15369184D02*
X15102829Y-15169184D01*
X15102829Y-15169184D02*
X15169496Y-15312041D01*
X15169496Y-15312041D02*
X15236162Y-15169184D01*
X15236162Y-15169184D02*
X15236162Y-15369184D01*
X15417115Y-15369184D02*
X15417115Y-15264422D01*
X15417115Y-15264422D02*
X15407591Y-15245374D01*
X15407591Y-15245374D02*
X15388543Y-15235850D01*
X15388543Y-15235850D02*
X15350448Y-15235850D01*
X15350448Y-15235850D02*
X15331401Y-15245374D01*
X15417115Y-15359660D02*
X15398067Y-15369184D01*
X15398067Y-15369184D02*
X15350448Y-15369184D01*
X15350448Y-15369184D02*
X15331401Y-15359660D01*
X15331401Y-15359660D02*
X15321877Y-15340612D01*
X15321877Y-15340612D02*
X15321877Y-15321565D01*
X15321877Y-15321565D02*
X15331401Y-15302517D01*
X15331401Y-15302517D02*
X15350448Y-15292993D01*
X15350448Y-15292993D02*
X15398067Y-15292993D01*
X15398067Y-15292993D02*
X15417115Y-15283469D01*
X15512353Y-15235850D02*
X15512353Y-15435850D01*
X15512353Y-15245374D02*
X15531401Y-15235850D01*
X15531401Y-15235850D02*
X15569496Y-15235850D01*
X15569496Y-15235850D02*
X15588543Y-15245374D01*
X15588543Y-15245374D02*
X15598067Y-15254898D01*
X15598067Y-15254898D02*
X15607591Y-15273946D01*
X15607591Y-15273946D02*
X15607591Y-15331088D01*
X15607591Y-15331088D02*
X15598067Y-15350136D01*
X15598067Y-15350136D02*
X15588543Y-15359660D01*
X15588543Y-15359660D02*
X15569496Y-15369184D01*
X15569496Y-15369184D02*
X15531401Y-15369184D01*
X15531401Y-15369184D02*
X15512353Y-15359660D01*
X15693305Y-15350136D02*
X15702829Y-15359660D01*
X15702829Y-15359660D02*
X15693305Y-15369184D01*
X15693305Y-15369184D02*
X15683782Y-15359660D01*
X15683782Y-15359660D02*
X15693305Y-15350136D01*
X15693305Y-15350136D02*
X15693305Y-15369184D01*
X15693305Y-15245374D02*
X15702829Y-15254898D01*
X15702829Y-15254898D02*
X15693305Y-15264422D01*
X15693305Y-15264422D02*
X15683782Y-15254898D01*
X15683782Y-15254898D02*
X15693305Y-15245374D01*
X15693305Y-15245374D02*
X15693305Y-15264422D01*
D10*
X14021100Y-15677700D02*
X14061100Y-15717700D01*
X14061100Y-15677700D02*
X14021100Y-15717700D01*
D11*
X14359972Y-15589184D02*
X14379020Y-15589184D01*
X14379020Y-15589184D02*
X14398067Y-15598708D01*
X14398067Y-15598708D02*
X14407591Y-15608231D01*
X14407591Y-15608231D02*
X14417115Y-15627279D01*
X14417115Y-15627279D02*
X14426639Y-15665374D01*
X14426639Y-15665374D02*
X14426639Y-15712993D01*
X14426639Y-15712993D02*
X14417115Y-15751088D01*
X14417115Y-15751088D02*
X14407591Y-15770136D01*
X14407591Y-15770136D02*
X14398067Y-15779660D01*
X14398067Y-15779660D02*
X14379020Y-15789184D01*
X14379020Y-15789184D02*
X14359972Y-15789184D01*
X14359972Y-15789184D02*
X14340924Y-15779660D01*
X14340924Y-15779660D02*
X14331401Y-15770136D01*
X14331401Y-15770136D02*
X14321877Y-15751088D01*
X14321877Y-15751088D02*
X14312353Y-15712993D01*
X14312353Y-15712993D02*
X14312353Y-15665374D01*
X14312353Y-15665374D02*
X14321877Y-15627279D01*
X14321877Y-15627279D02*
X14331401Y-15608231D01*
X14331401Y-15608231D02*
X14340924Y-15598708D01*
X14340924Y-15598708D02*
X14359972Y-15589184D01*
X14512353Y-15770136D02*
X14521877Y-15779660D01*
X14521877Y-15779660D02*
X14512353Y-15789184D01*
X14512353Y-15789184D02*
X14502829Y-15779660D01*
X14502829Y-15779660D02*
X14512353Y-15770136D01*
X14512353Y-15770136D02*
X14512353Y-15789184D01*
X14693305Y-15655850D02*
X14693305Y-15789184D01*
X14645686Y-15579660D02*
X14598067Y-15722517D01*
X14598067Y-15722517D02*
X14721877Y-15722517D01*
X14836162Y-15589184D02*
X14855210Y-15589184D01*
X14855210Y-15589184D02*
X14874258Y-15598708D01*
X14874258Y-15598708D02*
X14883782Y-15608231D01*
X14883782Y-15608231D02*
X14893305Y-15627279D01*
X14893305Y-15627279D02*
X14902829Y-15665374D01*
X14902829Y-15665374D02*
X14902829Y-15712993D01*
X14902829Y-15712993D02*
X14893305Y-15751088D01*
X14893305Y-15751088D02*
X14883782Y-15770136D01*
X14883782Y-15770136D02*
X14874258Y-15779660D01*
X14874258Y-15779660D02*
X14855210Y-15789184D01*
X14855210Y-15789184D02*
X14836162Y-15789184D01*
X14836162Y-15789184D02*
X14817115Y-15779660D01*
X14817115Y-15779660D02*
X14807591Y-15770136D01*
X14807591Y-15770136D02*
X14798067Y-15751088D01*
X14798067Y-15751088D02*
X14788543Y-15712993D01*
X14788543Y-15712993D02*
X14788543Y-15665374D01*
X14788543Y-15665374D02*
X14798067Y-15627279D01*
X14798067Y-15627279D02*
X14807591Y-15608231D01*
X14807591Y-15608231D02*
X14817115Y-15598708D01*
X14817115Y-15598708D02*
X14836162Y-15589184D01*
X15026639Y-15589184D02*
X15045686Y-15589184D01*
X15045686Y-15589184D02*
X15064734Y-15598708D01*
X15064734Y-15598708D02*
X15074258Y-15608231D01*
X15074258Y-15608231D02*
X15083782Y-15627279D01*
X15083782Y-15627279D02*
X15093305Y-15665374D01*
X15093305Y-15665374D02*
X15093305Y-15712993D01*
X15093305Y-15712993D02*
X15083782Y-15751088D01*
X15083782Y-15751088D02*
X15074258Y-15770136D01*
X15074258Y-15770136D02*
X15064734Y-15779660D01*
X15064734Y-15779660D02*
X15045686Y-15789184D01*
X15045686Y-15789184D02*
X15026639Y-15789184D01*
X15026639Y-15789184D02*
X15007591Y-15779660D01*
X15007591Y-15779660D02*
X14998067Y-15770136D01*
X14998067Y-15770136D02*
X14988543Y-15751088D01*
X14988543Y-15751088D02*
X14979020Y-15712993D01*
X14979020Y-15712993D02*
X14979020Y-15665374D01*
X14979020Y-15665374D02*
X14988543Y-15627279D01*
X14988543Y-15627279D02*
X14998067Y-15608231D01*
X14998067Y-15608231D02*
X15007591Y-15598708D01*
X15007591Y-15598708D02*
X15026639Y-15589184D01*
X15179020Y-15789184D02*
X15179020Y-15655850D01*
X15179020Y-15674898D02*
X15188543Y-15665374D01*
X15188543Y-15665374D02*
X15207591Y-15655850D01*
X15207591Y-15655850D02*
X15236163Y-15655850D01*
X15236163Y-15655850D02*
X15255210Y-15665374D01*
X15255210Y-15665374D02*
X15264734Y-15684422D01*
X15264734Y-15684422D02*
X15264734Y-15789184D01*
X15264734Y-15684422D02*
X15274258Y-15665374D01*
X15274258Y-15665374D02*
X15293305Y-15655850D01*
X15293305Y-15655850D02*
X15321877Y-15655850D01*
X15321877Y-15655850D02*
X15340924Y-15665374D01*
X15340924Y-15665374D02*
X15350448Y-15684422D01*
X15350448Y-15684422D02*
X15350448Y-15789184D01*
X15445686Y-15789184D02*
X15445686Y-15655850D01*
X15445686Y-15674898D02*
X15455210Y-15665374D01*
X15455210Y-15665374D02*
X15474258Y-15655850D01*
X15474258Y-15655850D02*
X15502829Y-15655850D01*
X15502829Y-15655850D02*
X15521877Y-15665374D01*
X15521877Y-15665374D02*
X15531401Y-15684422D01*
X15531401Y-15684422D02*
X15531401Y-15789184D01*
X15531401Y-15684422D02*
X15540924Y-15665374D01*
X15540924Y-15665374D02*
X15559972Y-15655850D01*
X15559972Y-15655850D02*
X15588543Y-15655850D01*
X15588543Y-15655850D02*
X15607591Y-15665374D01*
X15607591Y-15665374D02*
X15617115Y-15684422D01*
X15617115Y-15684422D02*
X15617115Y-15789184D01*
X16007591Y-15579660D02*
X15836163Y-15836803D01*
X16264734Y-15589184D02*
X16283782Y-15589184D01*
X16283782Y-15589184D02*
X16302829Y-15598708D01*
X16302829Y-15598708D02*
X16312353Y-15608231D01*
X16312353Y-15608231D02*
X16321877Y-15627279D01*
X16321877Y-15627279D02*
X16331401Y-15665374D01*
X16331401Y-15665374D02*
X16331401Y-15712993D01*
X16331401Y-15712993D02*
X16321877Y-15751088D01*
X16321877Y-15751088D02*
X16312353Y-15770136D01*
X16312353Y-15770136D02*
X16302829Y-15779660D01*
X16302829Y-15779660D02*
X16283782Y-15789184D01*
X16283782Y-15789184D02*
X16264734Y-15789184D01*
X16264734Y-15789184D02*
X16245686Y-15779660D01*
X16245686Y-15779660D02*
X16236163Y-15770136D01*
X16236163Y-15770136D02*
X16226639Y-15751088D01*
X16226639Y-15751088D02*
X16217115Y-15712993D01*
X16217115Y-15712993D02*
X16217115Y-15665374D01*
X16217115Y-15665374D02*
X16226639Y-15627279D01*
X16226639Y-15627279D02*
X16236163Y-15608231D01*
X16236163Y-15608231D02*
X16245686Y-15598708D01*
X16245686Y-15598708D02*
X16264734Y-15589184D01*
X16417115Y-15770136D02*
X16426639Y-15779660D01*
X16426639Y-15779660D02*
X16417115Y-15789184D01*
X16417115Y-15789184D02*
X16407591Y-15779660D01*
X16407591Y-15779660D02*
X16417115Y-15770136D01*
X16417115Y-15770136D02*
X16417115Y-15789184D01*
X16550448Y-15589184D02*
X16569496Y-15589184D01*
X16569496Y-15589184D02*
X16588544Y-15598708D01*
X16588544Y-15598708D02*
X16598067Y-15608231D01*
X16598067Y-15608231D02*
X16607591Y-15627279D01*
X16607591Y-15627279D02*
X16617115Y-15665374D01*
X16617115Y-15665374D02*
X16617115Y-15712993D01*
X16617115Y-15712993D02*
X16607591Y-15751088D01*
X16607591Y-15751088D02*
X16598067Y-15770136D01*
X16598067Y-15770136D02*
X16588544Y-15779660D01*
X16588544Y-15779660D02*
X16569496Y-15789184D01*
X16569496Y-15789184D02*
X16550448Y-15789184D01*
X16550448Y-15789184D02*
X16531401Y-15779660D01*
X16531401Y-15779660D02*
X16521877Y-15770136D01*
X16521877Y-15770136D02*
X16512353Y-15751088D01*
X16512353Y-15751088D02*
X16502829Y-15712993D01*
X16502829Y-15712993D02*
X16502829Y-15665374D01*
X16502829Y-15665374D02*
X16512353Y-15627279D01*
X16512353Y-15627279D02*
X16521877Y-15608231D01*
X16521877Y-15608231D02*
X16531401Y-15598708D01*
X16531401Y-15598708D02*
X16550448Y-15589184D01*
X16807591Y-15789184D02*
X16693306Y-15789184D01*
X16750448Y-15789184D02*
X16750448Y-15589184D01*
X16750448Y-15589184D02*
X16731401Y-15617755D01*
X16731401Y-15617755D02*
X16712353Y-15636803D01*
X16712353Y-15636803D02*
X16693306Y-15646327D01*
X16988544Y-15589184D02*
X16893306Y-15589184D01*
X16893306Y-15589184D02*
X16883782Y-15684422D01*
X16883782Y-15684422D02*
X16893306Y-15674898D01*
X16893306Y-15674898D02*
X16912353Y-15665374D01*
X16912353Y-15665374D02*
X16959972Y-15665374D01*
X16959972Y-15665374D02*
X16979020Y-15674898D01*
X16979020Y-15674898D02*
X16988544Y-15684422D01*
X16988544Y-15684422D02*
X16998068Y-15703469D01*
X16998068Y-15703469D02*
X16998068Y-15751088D01*
X16998068Y-15751088D02*
X16988544Y-15770136D01*
X16988544Y-15770136D02*
X16979020Y-15779660D01*
X16979020Y-15779660D02*
X16959972Y-15789184D01*
X16959972Y-15789184D02*
X16912353Y-15789184D01*
X16912353Y-15789184D02*
X16893306Y-15779660D01*
X16893306Y-15779660D02*
X16883782Y-15770136D01*
X17064734Y-15589184D02*
X17198068Y-15589184D01*
X17198068Y-15589184D02*
X17112353Y-15789184D01*
X17264734Y-15589184D02*
X17264734Y-15627279D01*
X17340925Y-15589184D02*
X17340925Y-15627279D01*
X17636163Y-15865374D02*
X17626639Y-15855850D01*
X17626639Y-15855850D02*
X17607591Y-15827279D01*
X17607591Y-15827279D02*
X17598068Y-15808231D01*
X17598068Y-15808231D02*
X17588544Y-15779660D01*
X17588544Y-15779660D02*
X17579020Y-15732041D01*
X17579020Y-15732041D02*
X17579020Y-15693946D01*
X17579020Y-15693946D02*
X17588544Y-15646327D01*
X17588544Y-15646327D02*
X17598068Y-15617755D01*
X17598068Y-15617755D02*
X17607591Y-15598708D01*
X17607591Y-15598708D02*
X17626639Y-15570136D01*
X17626639Y-15570136D02*
X17636163Y-15560612D01*
X17817115Y-15789184D02*
X17702830Y-15789184D01*
X17759972Y-15789184D02*
X17759972Y-15589184D01*
X17759972Y-15589184D02*
X17740925Y-15617755D01*
X17740925Y-15617755D02*
X17721877Y-15636803D01*
X17721877Y-15636803D02*
X17702830Y-15646327D01*
X18007591Y-15789184D02*
X17893306Y-15789184D01*
X17950449Y-15789184D02*
X17950449Y-15589184D01*
X17950449Y-15589184D02*
X17931401Y-15617755D01*
X17931401Y-15617755D02*
X17912353Y-15636803D01*
X17912353Y-15636803D02*
X17893306Y-15646327D01*
X18245687Y-15789184D02*
X18245687Y-15589184D01*
X18331401Y-15789184D02*
X18331401Y-15684422D01*
X18331401Y-15684422D02*
X18321877Y-15665374D01*
X18321877Y-15665374D02*
X18302830Y-15655850D01*
X18302830Y-15655850D02*
X18274258Y-15655850D01*
X18274258Y-15655850D02*
X18255211Y-15665374D01*
X18255211Y-15665374D02*
X18245687Y-15674898D01*
X18455211Y-15789184D02*
X18436163Y-15779660D01*
X18436163Y-15779660D02*
X18426639Y-15770136D01*
X18426639Y-15770136D02*
X18417115Y-15751088D01*
X18417115Y-15751088D02*
X18417115Y-15693946D01*
X18417115Y-15693946D02*
X18426639Y-15674898D01*
X18426639Y-15674898D02*
X18436163Y-15665374D01*
X18436163Y-15665374D02*
X18455211Y-15655850D01*
X18455211Y-15655850D02*
X18483782Y-15655850D01*
X18483782Y-15655850D02*
X18502830Y-15665374D01*
X18502830Y-15665374D02*
X18512353Y-15674898D01*
X18512353Y-15674898D02*
X18521877Y-15693946D01*
X18521877Y-15693946D02*
X18521877Y-15751088D01*
X18521877Y-15751088D02*
X18512353Y-15770136D01*
X18512353Y-15770136D02*
X18502830Y-15779660D01*
X18502830Y-15779660D02*
X18483782Y-15789184D01*
X18483782Y-15789184D02*
X18455211Y-15789184D01*
X18636163Y-15789184D02*
X18617115Y-15779660D01*
X18617115Y-15779660D02*
X18607592Y-15760612D01*
X18607592Y-15760612D02*
X18607592Y-15589184D01*
X18788544Y-15779660D02*
X18769496Y-15789184D01*
X18769496Y-15789184D02*
X18731401Y-15789184D01*
X18731401Y-15789184D02*
X18712353Y-15779660D01*
X18712353Y-15779660D02*
X18702830Y-15760612D01*
X18702830Y-15760612D02*
X18702830Y-15684422D01*
X18702830Y-15684422D02*
X18712353Y-15665374D01*
X18712353Y-15665374D02*
X18731401Y-15655850D01*
X18731401Y-15655850D02*
X18769496Y-15655850D01*
X18769496Y-15655850D02*
X18788544Y-15665374D01*
X18788544Y-15665374D02*
X18798068Y-15684422D01*
X18798068Y-15684422D02*
X18798068Y-15703469D01*
X18798068Y-15703469D02*
X18702830Y-15722517D01*
X18874258Y-15779660D02*
X18893306Y-15789184D01*
X18893306Y-15789184D02*
X18931401Y-15789184D01*
X18931401Y-15789184D02*
X18950449Y-15779660D01*
X18950449Y-15779660D02*
X18959973Y-15760612D01*
X18959973Y-15760612D02*
X18959973Y-15751088D01*
X18959973Y-15751088D02*
X18950449Y-15732041D01*
X18950449Y-15732041D02*
X18931401Y-15722517D01*
X18931401Y-15722517D02*
X18902830Y-15722517D01*
X18902830Y-15722517D02*
X18883782Y-15712993D01*
X18883782Y-15712993D02*
X18874258Y-15693946D01*
X18874258Y-15693946D02*
X18874258Y-15684422D01*
X18874258Y-15684422D02*
X18883782Y-15665374D01*
X18883782Y-15665374D02*
X18902830Y-15655850D01*
X18902830Y-15655850D02*
X18931401Y-15655850D01*
X18931401Y-15655850D02*
X18950449Y-15665374D01*
X19026639Y-15865374D02*
X19036163Y-15855850D01*
X19036163Y-15855850D02*
X19055211Y-15827279D01*
X19055211Y-15827279D02*
X19064734Y-15808231D01*
X19064734Y-15808231D02*
X19074258Y-15779660D01*
X19074258Y-15779660D02*
X19083782Y-15732041D01*
X19083782Y-15732041D02*
X19083782Y-15693946D01*
X19083782Y-15693946D02*
X19074258Y-15646327D01*
X19074258Y-15646327D02*
X19064734Y-15617755D01*
X19064734Y-15617755D02*
X19055211Y-15598708D01*
X19055211Y-15598708D02*
X19036163Y-15570136D01*
X19036163Y-15570136D02*
X19026639Y-15560612D01*
D10*
X14061100Y-15961700D02*
G75*
G03*
X14061100Y-15961700I-40640J0D01*
G01*
D11*
X14359972Y-15853184D02*
X14379020Y-15853184D01*
X14379020Y-15853184D02*
X14398067Y-15862708D01*
X14398067Y-15862708D02*
X14407591Y-15872231D01*
X14407591Y-15872231D02*
X14417115Y-15891279D01*
X14417115Y-15891279D02*
X14426639Y-15929374D01*
X14426639Y-15929374D02*
X14426639Y-15976993D01*
X14426639Y-15976993D02*
X14417115Y-16015088D01*
X14417115Y-16015088D02*
X14407591Y-16034136D01*
X14407591Y-16034136D02*
X14398067Y-16043660D01*
X14398067Y-16043660D02*
X14379020Y-16053184D01*
X14379020Y-16053184D02*
X14359972Y-16053184D01*
X14359972Y-16053184D02*
X14340924Y-16043660D01*
X14340924Y-16043660D02*
X14331401Y-16034136D01*
X14331401Y-16034136D02*
X14321877Y-16015088D01*
X14321877Y-16015088D02*
X14312353Y-15976993D01*
X14312353Y-15976993D02*
X14312353Y-15929374D01*
X14312353Y-15929374D02*
X14321877Y-15891279D01*
X14321877Y-15891279D02*
X14331401Y-15872231D01*
X14331401Y-15872231D02*
X14340924Y-15862708D01*
X14340924Y-15862708D02*
X14359972Y-15853184D01*
X14512353Y-16034136D02*
X14521877Y-16043660D01*
X14521877Y-16043660D02*
X14512353Y-16053184D01*
X14512353Y-16053184D02*
X14502829Y-16043660D01*
X14502829Y-16043660D02*
X14512353Y-16034136D01*
X14512353Y-16034136D02*
X14512353Y-16053184D01*
X14636162Y-15938898D02*
X14617115Y-15929374D01*
X14617115Y-15929374D02*
X14607591Y-15919850D01*
X14607591Y-15919850D02*
X14598067Y-15900803D01*
X14598067Y-15900803D02*
X14598067Y-15891279D01*
X14598067Y-15891279D02*
X14607591Y-15872231D01*
X14607591Y-15872231D02*
X14617115Y-15862708D01*
X14617115Y-15862708D02*
X14636162Y-15853184D01*
X14636162Y-15853184D02*
X14674258Y-15853184D01*
X14674258Y-15853184D02*
X14693305Y-15862708D01*
X14693305Y-15862708D02*
X14702829Y-15872231D01*
X14702829Y-15872231D02*
X14712353Y-15891279D01*
X14712353Y-15891279D02*
X14712353Y-15900803D01*
X14712353Y-15900803D02*
X14702829Y-15919850D01*
X14702829Y-15919850D02*
X14693305Y-15929374D01*
X14693305Y-15929374D02*
X14674258Y-15938898D01*
X14674258Y-15938898D02*
X14636162Y-15938898D01*
X14636162Y-15938898D02*
X14617115Y-15948422D01*
X14617115Y-15948422D02*
X14607591Y-15957946D01*
X14607591Y-15957946D02*
X14598067Y-15976993D01*
X14598067Y-15976993D02*
X14598067Y-16015088D01*
X14598067Y-16015088D02*
X14607591Y-16034136D01*
X14607591Y-16034136D02*
X14617115Y-16043660D01*
X14617115Y-16043660D02*
X14636162Y-16053184D01*
X14636162Y-16053184D02*
X14674258Y-16053184D01*
X14674258Y-16053184D02*
X14693305Y-16043660D01*
X14693305Y-16043660D02*
X14702829Y-16034136D01*
X14702829Y-16034136D02*
X14712353Y-16015088D01*
X14712353Y-16015088D02*
X14712353Y-15976993D01*
X14712353Y-15976993D02*
X14702829Y-15957946D01*
X14702829Y-15957946D02*
X14693305Y-15948422D01*
X14693305Y-15948422D02*
X14674258Y-15938898D01*
X14902829Y-16053184D02*
X14788543Y-16053184D01*
X14845686Y-16053184D02*
X14845686Y-15853184D01*
X14845686Y-15853184D02*
X14826639Y-15881755D01*
X14826639Y-15881755D02*
X14807591Y-15900803D01*
X14807591Y-15900803D02*
X14788543Y-15910327D01*
X14969496Y-15853184D02*
X15093305Y-15853184D01*
X15093305Y-15853184D02*
X15026639Y-15929374D01*
X15026639Y-15929374D02*
X15055210Y-15929374D01*
X15055210Y-15929374D02*
X15074258Y-15938898D01*
X15074258Y-15938898D02*
X15083782Y-15948422D01*
X15083782Y-15948422D02*
X15093305Y-15967469D01*
X15093305Y-15967469D02*
X15093305Y-16015088D01*
X15093305Y-16015088D02*
X15083782Y-16034136D01*
X15083782Y-16034136D02*
X15074258Y-16043660D01*
X15074258Y-16043660D02*
X15055210Y-16053184D01*
X15055210Y-16053184D02*
X14998067Y-16053184D01*
X14998067Y-16053184D02*
X14979020Y-16043660D01*
X14979020Y-16043660D02*
X14969496Y-16034136D01*
X15179020Y-16053184D02*
X15179020Y-15919850D01*
X15179020Y-15938898D02*
X15188543Y-15929374D01*
X15188543Y-15929374D02*
X15207591Y-15919850D01*
X15207591Y-15919850D02*
X15236163Y-15919850D01*
X15236163Y-15919850D02*
X15255210Y-15929374D01*
X15255210Y-15929374D02*
X15264734Y-15948422D01*
X15264734Y-15948422D02*
X15264734Y-16053184D01*
X15264734Y-15948422D02*
X15274258Y-15929374D01*
X15274258Y-15929374D02*
X15293305Y-15919850D01*
X15293305Y-15919850D02*
X15321877Y-15919850D01*
X15321877Y-15919850D02*
X15340924Y-15929374D01*
X15340924Y-15929374D02*
X15350448Y-15948422D01*
X15350448Y-15948422D02*
X15350448Y-16053184D01*
X15445686Y-16053184D02*
X15445686Y-15919850D01*
X15445686Y-15938898D02*
X15455210Y-15929374D01*
X15455210Y-15929374D02*
X15474258Y-15919850D01*
X15474258Y-15919850D02*
X15502829Y-15919850D01*
X15502829Y-15919850D02*
X15521877Y-15929374D01*
X15521877Y-15929374D02*
X15531401Y-15948422D01*
X15531401Y-15948422D02*
X15531401Y-16053184D01*
X15531401Y-15948422D02*
X15540924Y-15929374D01*
X15540924Y-15929374D02*
X15559972Y-15919850D01*
X15559972Y-15919850D02*
X15588543Y-15919850D01*
X15588543Y-15919850D02*
X15607591Y-15929374D01*
X15607591Y-15929374D02*
X15617115Y-15948422D01*
X15617115Y-15948422D02*
X15617115Y-16053184D01*
X16007591Y-15843660D02*
X15836163Y-16100803D01*
X16264734Y-15853184D02*
X16283782Y-15853184D01*
X16283782Y-15853184D02*
X16302829Y-15862708D01*
X16302829Y-15862708D02*
X16312353Y-15872231D01*
X16312353Y-15872231D02*
X16321877Y-15891279D01*
X16321877Y-15891279D02*
X16331401Y-15929374D01*
X16331401Y-15929374D02*
X16331401Y-15976993D01*
X16331401Y-15976993D02*
X16321877Y-16015088D01*
X16321877Y-16015088D02*
X16312353Y-16034136D01*
X16312353Y-16034136D02*
X16302829Y-16043660D01*
X16302829Y-16043660D02*
X16283782Y-16053184D01*
X16283782Y-16053184D02*
X16264734Y-16053184D01*
X16264734Y-16053184D02*
X16245686Y-16043660D01*
X16245686Y-16043660D02*
X16236163Y-16034136D01*
X16236163Y-16034136D02*
X16226639Y-16015088D01*
X16226639Y-16015088D02*
X16217115Y-15976993D01*
X16217115Y-15976993D02*
X16217115Y-15929374D01*
X16217115Y-15929374D02*
X16226639Y-15891279D01*
X16226639Y-15891279D02*
X16236163Y-15872231D01*
X16236163Y-15872231D02*
X16245686Y-15862708D01*
X16245686Y-15862708D02*
X16264734Y-15853184D01*
X16417115Y-16034136D02*
X16426639Y-16043660D01*
X16426639Y-16043660D02*
X16417115Y-16053184D01*
X16417115Y-16053184D02*
X16407591Y-16043660D01*
X16407591Y-16043660D02*
X16417115Y-16034136D01*
X16417115Y-16034136D02*
X16417115Y-16053184D01*
X16550448Y-15853184D02*
X16569496Y-15853184D01*
X16569496Y-15853184D02*
X16588544Y-15862708D01*
X16588544Y-15862708D02*
X16598067Y-15872231D01*
X16598067Y-15872231D02*
X16607591Y-15891279D01*
X16607591Y-15891279D02*
X16617115Y-15929374D01*
X16617115Y-15929374D02*
X16617115Y-15976993D01*
X16617115Y-15976993D02*
X16607591Y-16015088D01*
X16607591Y-16015088D02*
X16598067Y-16034136D01*
X16598067Y-16034136D02*
X16588544Y-16043660D01*
X16588544Y-16043660D02*
X16569496Y-16053184D01*
X16569496Y-16053184D02*
X16550448Y-16053184D01*
X16550448Y-16053184D02*
X16531401Y-16043660D01*
X16531401Y-16043660D02*
X16521877Y-16034136D01*
X16521877Y-16034136D02*
X16512353Y-16015088D01*
X16512353Y-16015088D02*
X16502829Y-15976993D01*
X16502829Y-15976993D02*
X16502829Y-15929374D01*
X16502829Y-15929374D02*
X16512353Y-15891279D01*
X16512353Y-15891279D02*
X16521877Y-15872231D01*
X16521877Y-15872231D02*
X16531401Y-15862708D01*
X16531401Y-15862708D02*
X16550448Y-15853184D01*
X16683782Y-15853184D02*
X16807591Y-15853184D01*
X16807591Y-15853184D02*
X16740925Y-15929374D01*
X16740925Y-15929374D02*
X16769496Y-15929374D01*
X16769496Y-15929374D02*
X16788544Y-15938898D01*
X16788544Y-15938898D02*
X16798068Y-15948422D01*
X16798068Y-15948422D02*
X16807591Y-15967469D01*
X16807591Y-15967469D02*
X16807591Y-16015088D01*
X16807591Y-16015088D02*
X16798068Y-16034136D01*
X16798068Y-16034136D02*
X16788544Y-16043660D01*
X16788544Y-16043660D02*
X16769496Y-16053184D01*
X16769496Y-16053184D02*
X16712353Y-16053184D01*
X16712353Y-16053184D02*
X16693306Y-16043660D01*
X16693306Y-16043660D02*
X16683782Y-16034136D01*
X16883782Y-15872231D02*
X16893306Y-15862708D01*
X16893306Y-15862708D02*
X16912353Y-15853184D01*
X16912353Y-15853184D02*
X16959972Y-15853184D01*
X16959972Y-15853184D02*
X16979020Y-15862708D01*
X16979020Y-15862708D02*
X16988544Y-15872231D01*
X16988544Y-15872231D02*
X16998068Y-15891279D01*
X16998068Y-15891279D02*
X16998068Y-15910327D01*
X16998068Y-15910327D02*
X16988544Y-15938898D01*
X16988544Y-15938898D02*
X16874258Y-16053184D01*
X16874258Y-16053184D02*
X16998068Y-16053184D01*
X17121877Y-15853184D02*
X17140925Y-15853184D01*
X17140925Y-15853184D02*
X17159972Y-15862708D01*
X17159972Y-15862708D02*
X17169496Y-15872231D01*
X17169496Y-15872231D02*
X17179020Y-15891279D01*
X17179020Y-15891279D02*
X17188544Y-15929374D01*
X17188544Y-15929374D02*
X17188544Y-15976993D01*
X17188544Y-15976993D02*
X17179020Y-16015088D01*
X17179020Y-16015088D02*
X17169496Y-16034136D01*
X17169496Y-16034136D02*
X17159972Y-16043660D01*
X17159972Y-16043660D02*
X17140925Y-16053184D01*
X17140925Y-16053184D02*
X17121877Y-16053184D01*
X17121877Y-16053184D02*
X17102829Y-16043660D01*
X17102829Y-16043660D02*
X17093306Y-16034136D01*
X17093306Y-16034136D02*
X17083782Y-16015088D01*
X17083782Y-16015088D02*
X17074258Y-15976993D01*
X17074258Y-15976993D02*
X17074258Y-15929374D01*
X17074258Y-15929374D02*
X17083782Y-15891279D01*
X17083782Y-15891279D02*
X17093306Y-15872231D01*
X17093306Y-15872231D02*
X17102829Y-15862708D01*
X17102829Y-15862708D02*
X17121877Y-15853184D01*
X17264734Y-15853184D02*
X17264734Y-15891279D01*
X17340925Y-15853184D02*
X17340925Y-15891279D01*
X17636163Y-16129374D02*
X17626639Y-16119850D01*
X17626639Y-16119850D02*
X17607591Y-16091279D01*
X17607591Y-16091279D02*
X17598068Y-16072231D01*
X17598068Y-16072231D02*
X17588544Y-16043660D01*
X17588544Y-16043660D02*
X17579020Y-15996041D01*
X17579020Y-15996041D02*
X17579020Y-15957946D01*
X17579020Y-15957946D02*
X17588544Y-15910327D01*
X17588544Y-15910327D02*
X17598068Y-15881755D01*
X17598068Y-15881755D02*
X17607591Y-15862708D01*
X17607591Y-15862708D02*
X17626639Y-15834136D01*
X17626639Y-15834136D02*
X17636163Y-15824612D01*
X17693306Y-15853184D02*
X17817115Y-15853184D01*
X17817115Y-15853184D02*
X17750449Y-15929374D01*
X17750449Y-15929374D02*
X17779020Y-15929374D01*
X17779020Y-15929374D02*
X17798068Y-15938898D01*
X17798068Y-15938898D02*
X17807591Y-15948422D01*
X17807591Y-15948422D02*
X17817115Y-15967469D01*
X17817115Y-15967469D02*
X17817115Y-16015088D01*
X17817115Y-16015088D02*
X17807591Y-16034136D01*
X17807591Y-16034136D02*
X17798068Y-16043660D01*
X17798068Y-16043660D02*
X17779020Y-16053184D01*
X17779020Y-16053184D02*
X17721877Y-16053184D01*
X17721877Y-16053184D02*
X17702830Y-16043660D01*
X17702830Y-16043660D02*
X17693306Y-16034136D01*
X18055211Y-16053184D02*
X18055211Y-15853184D01*
X18140925Y-16053184D02*
X18140925Y-15948422D01*
X18140925Y-15948422D02*
X18131401Y-15929374D01*
X18131401Y-15929374D02*
X18112353Y-15919850D01*
X18112353Y-15919850D02*
X18083782Y-15919850D01*
X18083782Y-15919850D02*
X18064734Y-15929374D01*
X18064734Y-15929374D02*
X18055211Y-15938898D01*
X18264734Y-16053184D02*
X18245687Y-16043660D01*
X18245687Y-16043660D02*
X18236163Y-16034136D01*
X18236163Y-16034136D02*
X18226639Y-16015088D01*
X18226639Y-16015088D02*
X18226639Y-15957946D01*
X18226639Y-15957946D02*
X18236163Y-15938898D01*
X18236163Y-15938898D02*
X18245687Y-15929374D01*
X18245687Y-15929374D02*
X18264734Y-15919850D01*
X18264734Y-15919850D02*
X18293306Y-15919850D01*
X18293306Y-15919850D02*
X18312353Y-15929374D01*
X18312353Y-15929374D02*
X18321877Y-15938898D01*
X18321877Y-15938898D02*
X18331401Y-15957946D01*
X18331401Y-15957946D02*
X18331401Y-16015088D01*
X18331401Y-16015088D02*
X18321877Y-16034136D01*
X18321877Y-16034136D02*
X18312353Y-16043660D01*
X18312353Y-16043660D02*
X18293306Y-16053184D01*
X18293306Y-16053184D02*
X18264734Y-16053184D01*
X18445687Y-16053184D02*
X18426639Y-16043660D01*
X18426639Y-16043660D02*
X18417115Y-16024612D01*
X18417115Y-16024612D02*
X18417115Y-15853184D01*
X18598068Y-16043660D02*
X18579020Y-16053184D01*
X18579020Y-16053184D02*
X18540925Y-16053184D01*
X18540925Y-16053184D02*
X18521877Y-16043660D01*
X18521877Y-16043660D02*
X18512353Y-16024612D01*
X18512353Y-16024612D02*
X18512353Y-15948422D01*
X18512353Y-15948422D02*
X18521877Y-15929374D01*
X18521877Y-15929374D02*
X18540925Y-15919850D01*
X18540925Y-15919850D02*
X18579020Y-15919850D01*
X18579020Y-15919850D02*
X18598068Y-15929374D01*
X18598068Y-15929374D02*
X18607592Y-15948422D01*
X18607592Y-15948422D02*
X18607592Y-15967469D01*
X18607592Y-15967469D02*
X18512353Y-15986517D01*
X18683782Y-16043660D02*
X18702830Y-16053184D01*
X18702830Y-16053184D02*
X18740925Y-16053184D01*
X18740925Y-16053184D02*
X18759973Y-16043660D01*
X18759973Y-16043660D02*
X18769496Y-16024612D01*
X18769496Y-16024612D02*
X18769496Y-16015088D01*
X18769496Y-16015088D02*
X18759973Y-15996041D01*
X18759973Y-15996041D02*
X18740925Y-15986517D01*
X18740925Y-15986517D02*
X18712353Y-15986517D01*
X18712353Y-15986517D02*
X18693306Y-15976993D01*
X18693306Y-15976993D02*
X18683782Y-15957946D01*
X18683782Y-15957946D02*
X18683782Y-15948422D01*
X18683782Y-15948422D02*
X18693306Y-15929374D01*
X18693306Y-15929374D02*
X18712353Y-15919850D01*
X18712353Y-15919850D02*
X18740925Y-15919850D01*
X18740925Y-15919850D02*
X18759973Y-15929374D01*
X18836163Y-16129374D02*
X18845687Y-16119850D01*
X18845687Y-16119850D02*
X18864734Y-16091279D01*
X18864734Y-16091279D02*
X18874258Y-16072231D01*
X18874258Y-16072231D02*
X18883782Y-16043660D01*
X18883782Y-16043660D02*
X18893306Y-15996041D01*
X18893306Y-15996041D02*
X18893306Y-15957946D01*
X18893306Y-15957946D02*
X18883782Y-15910327D01*
X18883782Y-15910327D02*
X18874258Y-15881755D01*
X18874258Y-15881755D02*
X18864734Y-15862708D01*
X18864734Y-15862708D02*
X18845687Y-15834136D01*
X18845687Y-15834136D02*
X18836163Y-15824612D01*
D12*
X13986170Y-16150770D02*
X13986170Y-16300630D01*
X13911240Y-16225700D02*
X14061100Y-16225700D01*
D11*
X14426639Y-16317184D02*
X14312353Y-16317184D01*
X14369496Y-16317184D02*
X14369496Y-16117184D01*
X14369496Y-16117184D02*
X14350448Y-16145755D01*
X14350448Y-16145755D02*
X14331401Y-16164803D01*
X14331401Y-16164803D02*
X14312353Y-16174327D01*
X14512353Y-16298136D02*
X14521877Y-16307660D01*
X14521877Y-16307660D02*
X14512353Y-16317184D01*
X14512353Y-16317184D02*
X14502829Y-16307660D01*
X14502829Y-16307660D02*
X14512353Y-16298136D01*
X14512353Y-16298136D02*
X14512353Y-16317184D01*
X14693305Y-16183850D02*
X14693305Y-16317184D01*
X14645686Y-16107660D02*
X14598067Y-16250517D01*
X14598067Y-16250517D02*
X14721877Y-16250517D01*
X14807591Y-16317184D02*
X14845686Y-16317184D01*
X14845686Y-16317184D02*
X14864734Y-16307660D01*
X14864734Y-16307660D02*
X14874258Y-16298136D01*
X14874258Y-16298136D02*
X14893305Y-16269565D01*
X14893305Y-16269565D02*
X14902829Y-16231469D01*
X14902829Y-16231469D02*
X14902829Y-16155279D01*
X14902829Y-16155279D02*
X14893305Y-16136231D01*
X14893305Y-16136231D02*
X14883782Y-16126708D01*
X14883782Y-16126708D02*
X14864734Y-16117184D01*
X14864734Y-16117184D02*
X14826639Y-16117184D01*
X14826639Y-16117184D02*
X14807591Y-16126708D01*
X14807591Y-16126708D02*
X14798067Y-16136231D01*
X14798067Y-16136231D02*
X14788543Y-16155279D01*
X14788543Y-16155279D02*
X14788543Y-16202898D01*
X14788543Y-16202898D02*
X14798067Y-16221946D01*
X14798067Y-16221946D02*
X14807591Y-16231469D01*
X14807591Y-16231469D02*
X14826639Y-16240993D01*
X14826639Y-16240993D02*
X14864734Y-16240993D01*
X14864734Y-16240993D02*
X14883782Y-16231469D01*
X14883782Y-16231469D02*
X14893305Y-16221946D01*
X14893305Y-16221946D02*
X14902829Y-16202898D01*
X14998067Y-16317184D02*
X15036162Y-16317184D01*
X15036162Y-16317184D02*
X15055210Y-16307660D01*
X15055210Y-16307660D02*
X15064734Y-16298136D01*
X15064734Y-16298136D02*
X15083782Y-16269565D01*
X15083782Y-16269565D02*
X15093305Y-16231469D01*
X15093305Y-16231469D02*
X15093305Y-16155279D01*
X15093305Y-16155279D02*
X15083782Y-16136231D01*
X15083782Y-16136231D02*
X15074258Y-16126708D01*
X15074258Y-16126708D02*
X15055210Y-16117184D01*
X15055210Y-16117184D02*
X15017115Y-16117184D01*
X15017115Y-16117184D02*
X14998067Y-16126708D01*
X14998067Y-16126708D02*
X14988543Y-16136231D01*
X14988543Y-16136231D02*
X14979020Y-16155279D01*
X14979020Y-16155279D02*
X14979020Y-16202898D01*
X14979020Y-16202898D02*
X14988543Y-16221946D01*
X14988543Y-16221946D02*
X14998067Y-16231469D01*
X14998067Y-16231469D02*
X15017115Y-16240993D01*
X15017115Y-16240993D02*
X15055210Y-16240993D01*
X15055210Y-16240993D02*
X15074258Y-16231469D01*
X15074258Y-16231469D02*
X15083782Y-16221946D01*
X15083782Y-16221946D02*
X15093305Y-16202898D01*
X15179020Y-16317184D02*
X15179020Y-16183850D01*
X15179020Y-16202898D02*
X15188543Y-16193374D01*
X15188543Y-16193374D02*
X15207591Y-16183850D01*
X15207591Y-16183850D02*
X15236163Y-16183850D01*
X15236163Y-16183850D02*
X15255210Y-16193374D01*
X15255210Y-16193374D02*
X15264734Y-16212422D01*
X15264734Y-16212422D02*
X15264734Y-16317184D01*
X15264734Y-16212422D02*
X15274258Y-16193374D01*
X15274258Y-16193374D02*
X15293305Y-16183850D01*
X15293305Y-16183850D02*
X15321877Y-16183850D01*
X15321877Y-16183850D02*
X15340924Y-16193374D01*
X15340924Y-16193374D02*
X15350448Y-16212422D01*
X15350448Y-16212422D02*
X15350448Y-16317184D01*
X15445686Y-16317184D02*
X15445686Y-16183850D01*
X15445686Y-16202898D02*
X15455210Y-16193374D01*
X15455210Y-16193374D02*
X15474258Y-16183850D01*
X15474258Y-16183850D02*
X15502829Y-16183850D01*
X15502829Y-16183850D02*
X15521877Y-16193374D01*
X15521877Y-16193374D02*
X15531401Y-16212422D01*
X15531401Y-16212422D02*
X15531401Y-16317184D01*
X15531401Y-16212422D02*
X15540924Y-16193374D01*
X15540924Y-16193374D02*
X15559972Y-16183850D01*
X15559972Y-16183850D02*
X15588543Y-16183850D01*
X15588543Y-16183850D02*
X15607591Y-16193374D01*
X15607591Y-16193374D02*
X15617115Y-16212422D01*
X15617115Y-16212422D02*
X15617115Y-16317184D01*
X16007591Y-16107660D02*
X15836163Y-16364803D01*
X16264734Y-16117184D02*
X16283782Y-16117184D01*
X16283782Y-16117184D02*
X16302829Y-16126708D01*
X16302829Y-16126708D02*
X16312353Y-16136231D01*
X16312353Y-16136231D02*
X16321877Y-16155279D01*
X16321877Y-16155279D02*
X16331401Y-16193374D01*
X16331401Y-16193374D02*
X16331401Y-16240993D01*
X16331401Y-16240993D02*
X16321877Y-16279088D01*
X16321877Y-16279088D02*
X16312353Y-16298136D01*
X16312353Y-16298136D02*
X16302829Y-16307660D01*
X16302829Y-16307660D02*
X16283782Y-16317184D01*
X16283782Y-16317184D02*
X16264734Y-16317184D01*
X16264734Y-16317184D02*
X16245686Y-16307660D01*
X16245686Y-16307660D02*
X16236163Y-16298136D01*
X16236163Y-16298136D02*
X16226639Y-16279088D01*
X16226639Y-16279088D02*
X16217115Y-16240993D01*
X16217115Y-16240993D02*
X16217115Y-16193374D01*
X16217115Y-16193374D02*
X16226639Y-16155279D01*
X16226639Y-16155279D02*
X16236163Y-16136231D01*
X16236163Y-16136231D02*
X16245686Y-16126708D01*
X16245686Y-16126708D02*
X16264734Y-16117184D01*
X16417115Y-16298136D02*
X16426639Y-16307660D01*
X16426639Y-16307660D02*
X16417115Y-16317184D01*
X16417115Y-16317184D02*
X16407591Y-16307660D01*
X16407591Y-16307660D02*
X16417115Y-16298136D01*
X16417115Y-16298136D02*
X16417115Y-16317184D01*
X16550448Y-16117184D02*
X16569496Y-16117184D01*
X16569496Y-16117184D02*
X16588544Y-16126708D01*
X16588544Y-16126708D02*
X16598067Y-16136231D01*
X16598067Y-16136231D02*
X16607591Y-16155279D01*
X16607591Y-16155279D02*
X16617115Y-16193374D01*
X16617115Y-16193374D02*
X16617115Y-16240993D01*
X16617115Y-16240993D02*
X16607591Y-16279088D01*
X16607591Y-16279088D02*
X16598067Y-16298136D01*
X16598067Y-16298136D02*
X16588544Y-16307660D01*
X16588544Y-16307660D02*
X16569496Y-16317184D01*
X16569496Y-16317184D02*
X16550448Y-16317184D01*
X16550448Y-16317184D02*
X16531401Y-16307660D01*
X16531401Y-16307660D02*
X16521877Y-16298136D01*
X16521877Y-16298136D02*
X16512353Y-16279088D01*
X16512353Y-16279088D02*
X16502829Y-16240993D01*
X16502829Y-16240993D02*
X16502829Y-16193374D01*
X16502829Y-16193374D02*
X16512353Y-16155279D01*
X16512353Y-16155279D02*
X16521877Y-16136231D01*
X16521877Y-16136231D02*
X16531401Y-16126708D01*
X16531401Y-16126708D02*
X16550448Y-16117184D01*
X16798068Y-16117184D02*
X16702829Y-16117184D01*
X16702829Y-16117184D02*
X16693306Y-16212422D01*
X16693306Y-16212422D02*
X16702829Y-16202898D01*
X16702829Y-16202898D02*
X16721877Y-16193374D01*
X16721877Y-16193374D02*
X16769496Y-16193374D01*
X16769496Y-16193374D02*
X16788544Y-16202898D01*
X16788544Y-16202898D02*
X16798068Y-16212422D01*
X16798068Y-16212422D02*
X16807591Y-16231469D01*
X16807591Y-16231469D02*
X16807591Y-16279088D01*
X16807591Y-16279088D02*
X16798068Y-16298136D01*
X16798068Y-16298136D02*
X16788544Y-16307660D01*
X16788544Y-16307660D02*
X16769496Y-16317184D01*
X16769496Y-16317184D02*
X16721877Y-16317184D01*
X16721877Y-16317184D02*
X16702829Y-16307660D01*
X16702829Y-16307660D02*
X16693306Y-16298136D01*
X16902829Y-16317184D02*
X16940925Y-16317184D01*
X16940925Y-16317184D02*
X16959972Y-16307660D01*
X16959972Y-16307660D02*
X16969496Y-16298136D01*
X16969496Y-16298136D02*
X16988544Y-16269565D01*
X16988544Y-16269565D02*
X16998068Y-16231469D01*
X16998068Y-16231469D02*
X16998068Y-16155279D01*
X16998068Y-16155279D02*
X16988544Y-16136231D01*
X16988544Y-16136231D02*
X16979020Y-16126708D01*
X16979020Y-16126708D02*
X16959972Y-16117184D01*
X16959972Y-16117184D02*
X16921877Y-16117184D01*
X16921877Y-16117184D02*
X16902829Y-16126708D01*
X16902829Y-16126708D02*
X16893306Y-16136231D01*
X16893306Y-16136231D02*
X16883782Y-16155279D01*
X16883782Y-16155279D02*
X16883782Y-16202898D01*
X16883782Y-16202898D02*
X16893306Y-16221946D01*
X16893306Y-16221946D02*
X16902829Y-16231469D01*
X16902829Y-16231469D02*
X16921877Y-16240993D01*
X16921877Y-16240993D02*
X16959972Y-16240993D01*
X16959972Y-16240993D02*
X16979020Y-16231469D01*
X16979020Y-16231469D02*
X16988544Y-16221946D01*
X16988544Y-16221946D02*
X16998068Y-16202898D01*
X17121877Y-16117184D02*
X17140925Y-16117184D01*
X17140925Y-16117184D02*
X17159972Y-16126708D01*
X17159972Y-16126708D02*
X17169496Y-16136231D01*
X17169496Y-16136231D02*
X17179020Y-16155279D01*
X17179020Y-16155279D02*
X17188544Y-16193374D01*
X17188544Y-16193374D02*
X17188544Y-16240993D01*
X17188544Y-16240993D02*
X17179020Y-16279088D01*
X17179020Y-16279088D02*
X17169496Y-16298136D01*
X17169496Y-16298136D02*
X17159972Y-16307660D01*
X17159972Y-16307660D02*
X17140925Y-16317184D01*
X17140925Y-16317184D02*
X17121877Y-16317184D01*
X17121877Y-16317184D02*
X17102829Y-16307660D01*
X17102829Y-16307660D02*
X17093306Y-16298136D01*
X17093306Y-16298136D02*
X17083782Y-16279088D01*
X17083782Y-16279088D02*
X17074258Y-16240993D01*
X17074258Y-16240993D02*
X17074258Y-16193374D01*
X17074258Y-16193374D02*
X17083782Y-16155279D01*
X17083782Y-16155279D02*
X17093306Y-16136231D01*
X17093306Y-16136231D02*
X17102829Y-16126708D01*
X17102829Y-16126708D02*
X17121877Y-16117184D01*
X17264734Y-16117184D02*
X17264734Y-16155279D01*
X17340925Y-16117184D02*
X17340925Y-16155279D01*
X17636163Y-16393374D02*
X17626639Y-16383850D01*
X17626639Y-16383850D02*
X17607591Y-16355279D01*
X17607591Y-16355279D02*
X17598068Y-16336231D01*
X17598068Y-16336231D02*
X17588544Y-16307660D01*
X17588544Y-16307660D02*
X17579020Y-16260041D01*
X17579020Y-16260041D02*
X17579020Y-16221946D01*
X17579020Y-16221946D02*
X17588544Y-16174327D01*
X17588544Y-16174327D02*
X17598068Y-16145755D01*
X17598068Y-16145755D02*
X17607591Y-16126708D01*
X17607591Y-16126708D02*
X17626639Y-16098136D01*
X17626639Y-16098136D02*
X17636163Y-16088612D01*
X17702830Y-16136231D02*
X17712353Y-16126708D01*
X17712353Y-16126708D02*
X17731401Y-16117184D01*
X17731401Y-16117184D02*
X17779020Y-16117184D01*
X17779020Y-16117184D02*
X17798068Y-16126708D01*
X17798068Y-16126708D02*
X17807591Y-16136231D01*
X17807591Y-16136231D02*
X17817115Y-16155279D01*
X17817115Y-16155279D02*
X17817115Y-16174327D01*
X17817115Y-16174327D02*
X17807591Y-16202898D01*
X17807591Y-16202898D02*
X17693306Y-16317184D01*
X17693306Y-16317184D02*
X17817115Y-16317184D01*
X18055211Y-16317184D02*
X18055211Y-16117184D01*
X18140925Y-16317184D02*
X18140925Y-16212422D01*
X18140925Y-16212422D02*
X18131401Y-16193374D01*
X18131401Y-16193374D02*
X18112353Y-16183850D01*
X18112353Y-16183850D02*
X18083782Y-16183850D01*
X18083782Y-16183850D02*
X18064734Y-16193374D01*
X18064734Y-16193374D02*
X18055211Y-16202898D01*
X18264734Y-16317184D02*
X18245687Y-16307660D01*
X18245687Y-16307660D02*
X18236163Y-16298136D01*
X18236163Y-16298136D02*
X18226639Y-16279088D01*
X18226639Y-16279088D02*
X18226639Y-16221946D01*
X18226639Y-16221946D02*
X18236163Y-16202898D01*
X18236163Y-16202898D02*
X18245687Y-16193374D01*
X18245687Y-16193374D02*
X18264734Y-16183850D01*
X18264734Y-16183850D02*
X18293306Y-16183850D01*
X18293306Y-16183850D02*
X18312353Y-16193374D01*
X18312353Y-16193374D02*
X18321877Y-16202898D01*
X18321877Y-16202898D02*
X18331401Y-16221946D01*
X18331401Y-16221946D02*
X18331401Y-16279088D01*
X18331401Y-16279088D02*
X18321877Y-16298136D01*
X18321877Y-16298136D02*
X18312353Y-16307660D01*
X18312353Y-16307660D02*
X18293306Y-16317184D01*
X18293306Y-16317184D02*
X18264734Y-16317184D01*
X18445687Y-16317184D02*
X18426639Y-16307660D01*
X18426639Y-16307660D02*
X18417115Y-16288612D01*
X18417115Y-16288612D02*
X18417115Y-16117184D01*
X18598068Y-16307660D02*
X18579020Y-16317184D01*
X18579020Y-16317184D02*
X18540925Y-16317184D01*
X18540925Y-16317184D02*
X18521877Y-16307660D01*
X18521877Y-16307660D02*
X18512353Y-16288612D01*
X18512353Y-16288612D02*
X18512353Y-16212422D01*
X18512353Y-16212422D02*
X18521877Y-16193374D01*
X18521877Y-16193374D02*
X18540925Y-16183850D01*
X18540925Y-16183850D02*
X18579020Y-16183850D01*
X18579020Y-16183850D02*
X18598068Y-16193374D01*
X18598068Y-16193374D02*
X18607592Y-16212422D01*
X18607592Y-16212422D02*
X18607592Y-16231469D01*
X18607592Y-16231469D02*
X18512353Y-16250517D01*
X18683782Y-16307660D02*
X18702830Y-16317184D01*
X18702830Y-16317184D02*
X18740925Y-16317184D01*
X18740925Y-16317184D02*
X18759973Y-16307660D01*
X18759973Y-16307660D02*
X18769496Y-16288612D01*
X18769496Y-16288612D02*
X18769496Y-16279088D01*
X18769496Y-16279088D02*
X18759973Y-16260041D01*
X18759973Y-16260041D02*
X18740925Y-16250517D01*
X18740925Y-16250517D02*
X18712353Y-16250517D01*
X18712353Y-16250517D02*
X18693306Y-16240993D01*
X18693306Y-16240993D02*
X18683782Y-16221946D01*
X18683782Y-16221946D02*
X18683782Y-16212422D01*
X18683782Y-16212422D02*
X18693306Y-16193374D01*
X18693306Y-16193374D02*
X18712353Y-16183850D01*
X18712353Y-16183850D02*
X18740925Y-16183850D01*
X18740925Y-16183850D02*
X18759973Y-16193374D01*
X18836163Y-16393374D02*
X18845687Y-16383850D01*
X18845687Y-16383850D02*
X18864734Y-16355279D01*
X18864734Y-16355279D02*
X18874258Y-16336231D01*
X18874258Y-16336231D02*
X18883782Y-16307660D01*
X18883782Y-16307660D02*
X18893306Y-16260041D01*
X18893306Y-16260041D02*
X18893306Y-16221946D01*
X18893306Y-16221946D02*
X18883782Y-16174327D01*
X18883782Y-16174327D02*
X18874258Y-16145755D01*
X18874258Y-16145755D02*
X18864734Y-16126708D01*
X18864734Y-16126708D02*
X18845687Y-16098136D01*
X18845687Y-16098136D02*
X18836163Y-16088612D01*
M02*
