%TF.GenerationSoftware,KiCad,Pcbnew,7.0.9*%
%TF.CreationDate,2024-01-18T21:49:24+01:00*%
%TF.ProjectId,pcb-design,7063622d-6465-4736-9967-6e2e6b696361,rev?*%
%TF.SameCoordinates,Original*%
%TF.FileFunction,Legend,Bot*%
%TF.FilePolarity,Positive*%
%FSLAX46Y46*%
G04 Gerber Fmt 4.6, Leading zero omitted, Abs format (unit mm)*
G04 Created by KiCad (PCBNEW 7.0.9) date 2024-01-18 21:49:24*
%MOMM*%
%LPD*%
G01*
G04 APERTURE LIST*
%ADD10C,0.150000*%
G04 APERTURE END LIST*
D10*
X148362819Y-123853998D02*
X147362819Y-123853998D01*
X147362819Y-123853998D02*
X148077104Y-124187331D01*
X148077104Y-124187331D02*
X147362819Y-124520664D01*
X147362819Y-124520664D02*
X148362819Y-124520664D01*
X147362819Y-125187331D02*
X147362819Y-125377807D01*
X147362819Y-125377807D02*
X147410438Y-125473045D01*
X147410438Y-125473045D02*
X147505676Y-125568283D01*
X147505676Y-125568283D02*
X147696152Y-125615902D01*
X147696152Y-125615902D02*
X148029485Y-125615902D01*
X148029485Y-125615902D02*
X148219961Y-125568283D01*
X148219961Y-125568283D02*
X148315200Y-125473045D01*
X148315200Y-125473045D02*
X148362819Y-125377807D01*
X148362819Y-125377807D02*
X148362819Y-125187331D01*
X148362819Y-125187331D02*
X148315200Y-125092093D01*
X148315200Y-125092093D02*
X148219961Y-124996855D01*
X148219961Y-124996855D02*
X148029485Y-124949236D01*
X148029485Y-124949236D02*
X147696152Y-124949236D01*
X147696152Y-124949236D02*
X147505676Y-124996855D01*
X147505676Y-124996855D02*
X147410438Y-125092093D01*
X147410438Y-125092093D02*
X147362819Y-125187331D01*
X147362819Y-126234950D02*
X147362819Y-126425426D01*
X147362819Y-126425426D02*
X147410438Y-126520664D01*
X147410438Y-126520664D02*
X147505676Y-126615902D01*
X147505676Y-126615902D02*
X147696152Y-126663521D01*
X147696152Y-126663521D02*
X148029485Y-126663521D01*
X148029485Y-126663521D02*
X148219961Y-126615902D01*
X148219961Y-126615902D02*
X148315200Y-126520664D01*
X148315200Y-126520664D02*
X148362819Y-126425426D01*
X148362819Y-126425426D02*
X148362819Y-126234950D01*
X148362819Y-126234950D02*
X148315200Y-126139712D01*
X148315200Y-126139712D02*
X148219961Y-126044474D01*
X148219961Y-126044474D02*
X148029485Y-125996855D01*
X148029485Y-125996855D02*
X147696152Y-125996855D01*
X147696152Y-125996855D02*
X147505676Y-126044474D01*
X147505676Y-126044474D02*
X147410438Y-126139712D01*
X147410438Y-126139712D02*
X147362819Y-126234950D01*
X148362819Y-127092093D02*
X147362819Y-127092093D01*
X147362819Y-127092093D02*
X147362819Y-127330188D01*
X147362819Y-127330188D02*
X147410438Y-127473045D01*
X147410438Y-127473045D02*
X147505676Y-127568283D01*
X147505676Y-127568283D02*
X147600914Y-127615902D01*
X147600914Y-127615902D02*
X147791390Y-127663521D01*
X147791390Y-127663521D02*
X147934247Y-127663521D01*
X147934247Y-127663521D02*
X148124723Y-127615902D01*
X148124723Y-127615902D02*
X148219961Y-127568283D01*
X148219961Y-127568283D02*
X148315200Y-127473045D01*
X148315200Y-127473045D02*
X148362819Y-127330188D01*
X148362819Y-127330188D02*
X148362819Y-127092093D01*
X147886628Y-128282569D02*
X148362819Y-128282569D01*
X147362819Y-127949236D02*
X147886628Y-128282569D01*
X147886628Y-128282569D02*
X147362819Y-128615902D01*
X147839009Y-129711141D02*
X147839009Y-130044474D01*
X148362819Y-130187331D02*
X148362819Y-129711141D01*
X148362819Y-129711141D02*
X147362819Y-129711141D01*
X147362819Y-129711141D02*
X147362819Y-130187331D01*
X148362819Y-130520665D02*
X147696152Y-131044474D01*
X147696152Y-130520665D02*
X148362819Y-131044474D01*
X148315200Y-131853998D02*
X148362819Y-131758760D01*
X148362819Y-131758760D02*
X148362819Y-131568284D01*
X148362819Y-131568284D02*
X148315200Y-131473046D01*
X148315200Y-131473046D02*
X148267580Y-131425427D01*
X148267580Y-131425427D02*
X148172342Y-131377808D01*
X148172342Y-131377808D02*
X147886628Y-131377808D01*
X147886628Y-131377808D02*
X147791390Y-131425427D01*
X147791390Y-131425427D02*
X147743771Y-131473046D01*
X147743771Y-131473046D02*
X147696152Y-131568284D01*
X147696152Y-131568284D02*
X147696152Y-131758760D01*
X147696152Y-131758760D02*
X147743771Y-131853998D01*
X148362819Y-132282570D02*
X147696152Y-132282570D01*
X147362819Y-132282570D02*
X147410438Y-132234951D01*
X147410438Y-132234951D02*
X147458057Y-132282570D01*
X147458057Y-132282570D02*
X147410438Y-132330189D01*
X147410438Y-132330189D02*
X147362819Y-132282570D01*
X147362819Y-132282570D02*
X147458057Y-132282570D01*
X147696152Y-132615903D02*
X147696152Y-132996855D01*
X147362819Y-132758760D02*
X148219961Y-132758760D01*
X148219961Y-132758760D02*
X148315200Y-132806379D01*
X148315200Y-132806379D02*
X148362819Y-132901617D01*
X148362819Y-132901617D02*
X148362819Y-132996855D01*
X148315200Y-133711141D02*
X148362819Y-133615903D01*
X148362819Y-133615903D02*
X148362819Y-133425427D01*
X148362819Y-133425427D02*
X148315200Y-133330189D01*
X148315200Y-133330189D02*
X148219961Y-133282570D01*
X148219961Y-133282570D02*
X147839009Y-133282570D01*
X147839009Y-133282570D02*
X147743771Y-133330189D01*
X147743771Y-133330189D02*
X147696152Y-133425427D01*
X147696152Y-133425427D02*
X147696152Y-133615903D01*
X147696152Y-133615903D02*
X147743771Y-133711141D01*
X147743771Y-133711141D02*
X147839009Y-133758760D01*
X147839009Y-133758760D02*
X147934247Y-133758760D01*
X147934247Y-133758760D02*
X148029485Y-133282570D01*
X148362819Y-134187332D02*
X147696152Y-134187332D01*
X147791390Y-134187332D02*
X147743771Y-134234951D01*
X147743771Y-134234951D02*
X147696152Y-134330189D01*
X147696152Y-134330189D02*
X147696152Y-134473046D01*
X147696152Y-134473046D02*
X147743771Y-134568284D01*
X147743771Y-134568284D02*
X147839009Y-134615903D01*
X147839009Y-134615903D02*
X148362819Y-134615903D01*
X147839009Y-134615903D02*
X147743771Y-134663522D01*
X147743771Y-134663522D02*
X147696152Y-134758760D01*
X147696152Y-134758760D02*
X147696152Y-134901617D01*
X147696152Y-134901617D02*
X147743771Y-134996856D01*
X147743771Y-134996856D02*
X147839009Y-135044475D01*
X147839009Y-135044475D02*
X148362819Y-135044475D01*
X148315200Y-135901617D02*
X148362819Y-135806379D01*
X148362819Y-135806379D02*
X148362819Y-135615903D01*
X148362819Y-135615903D02*
X148315200Y-135520665D01*
X148315200Y-135520665D02*
X148219961Y-135473046D01*
X148219961Y-135473046D02*
X147839009Y-135473046D01*
X147839009Y-135473046D02*
X147743771Y-135520665D01*
X147743771Y-135520665D02*
X147696152Y-135615903D01*
X147696152Y-135615903D02*
X147696152Y-135806379D01*
X147696152Y-135806379D02*
X147743771Y-135901617D01*
X147743771Y-135901617D02*
X147839009Y-135949236D01*
X147839009Y-135949236D02*
X147934247Y-135949236D01*
X147934247Y-135949236D02*
X148029485Y-135473046D01*
X147696152Y-136377808D02*
X148362819Y-136377808D01*
X147791390Y-136377808D02*
X147743771Y-136425427D01*
X147743771Y-136425427D02*
X147696152Y-136520665D01*
X147696152Y-136520665D02*
X147696152Y-136663522D01*
X147696152Y-136663522D02*
X147743771Y-136758760D01*
X147743771Y-136758760D02*
X147839009Y-136806379D01*
X147839009Y-136806379D02*
X148362819Y-136806379D01*
X147696152Y-137139713D02*
X147696152Y-137520665D01*
X147362819Y-137282570D02*
X148219961Y-137282570D01*
X148219961Y-137282570D02*
X148315200Y-137330189D01*
X148315200Y-137330189D02*
X148362819Y-137425427D01*
X148362819Y-137425427D02*
X148362819Y-137520665D01*
X148267580Y-139187332D02*
X148315200Y-139139713D01*
X148315200Y-139139713D02*
X148362819Y-138996856D01*
X148362819Y-138996856D02*
X148362819Y-138901618D01*
X148362819Y-138901618D02*
X148315200Y-138758761D01*
X148315200Y-138758761D02*
X148219961Y-138663523D01*
X148219961Y-138663523D02*
X148124723Y-138615904D01*
X148124723Y-138615904D02*
X147934247Y-138568285D01*
X147934247Y-138568285D02*
X147791390Y-138568285D01*
X147791390Y-138568285D02*
X147600914Y-138615904D01*
X147600914Y-138615904D02*
X147505676Y-138663523D01*
X147505676Y-138663523D02*
X147410438Y-138758761D01*
X147410438Y-138758761D02*
X147362819Y-138901618D01*
X147362819Y-138901618D02*
X147362819Y-138996856D01*
X147362819Y-138996856D02*
X147410438Y-139139713D01*
X147410438Y-139139713D02*
X147458057Y-139187332D01*
X148362819Y-140044475D02*
X147839009Y-140044475D01*
X147839009Y-140044475D02*
X147743771Y-139996856D01*
X147743771Y-139996856D02*
X147696152Y-139901618D01*
X147696152Y-139901618D02*
X147696152Y-139711142D01*
X147696152Y-139711142D02*
X147743771Y-139615904D01*
X148315200Y-140044475D02*
X148362819Y-139949237D01*
X148362819Y-139949237D02*
X148362819Y-139711142D01*
X148362819Y-139711142D02*
X148315200Y-139615904D01*
X148315200Y-139615904D02*
X148219961Y-139568285D01*
X148219961Y-139568285D02*
X148124723Y-139568285D01*
X148124723Y-139568285D02*
X148029485Y-139615904D01*
X148029485Y-139615904D02*
X147981866Y-139711142D01*
X147981866Y-139711142D02*
X147981866Y-139949237D01*
X147981866Y-139949237D02*
X147934247Y-140044475D01*
X148362819Y-140663523D02*
X148315200Y-140568285D01*
X148315200Y-140568285D02*
X148219961Y-140520666D01*
X148219961Y-140520666D02*
X147362819Y-140520666D01*
X148315200Y-141473047D02*
X148362819Y-141377809D01*
X148362819Y-141377809D02*
X148362819Y-141187333D01*
X148362819Y-141187333D02*
X148315200Y-141092095D01*
X148315200Y-141092095D02*
X148267580Y-141044476D01*
X148267580Y-141044476D02*
X148172342Y-140996857D01*
X148172342Y-140996857D02*
X147886628Y-140996857D01*
X147886628Y-140996857D02*
X147791390Y-141044476D01*
X147791390Y-141044476D02*
X147743771Y-141092095D01*
X147743771Y-141092095D02*
X147696152Y-141187333D01*
X147696152Y-141187333D02*
X147696152Y-141377809D01*
X147696152Y-141377809D02*
X147743771Y-141473047D01*
X147696152Y-142330190D02*
X148362819Y-142330190D01*
X147696152Y-141901619D02*
X148219961Y-141901619D01*
X148219961Y-141901619D02*
X148315200Y-141949238D01*
X148315200Y-141949238D02*
X148362819Y-142044476D01*
X148362819Y-142044476D02*
X148362819Y-142187333D01*
X148362819Y-142187333D02*
X148315200Y-142282571D01*
X148315200Y-142282571D02*
X148267580Y-142330190D01*
X148362819Y-142949238D02*
X148315200Y-142854000D01*
X148315200Y-142854000D02*
X148219961Y-142806381D01*
X148219961Y-142806381D02*
X147362819Y-142806381D01*
X148362819Y-143758762D02*
X147839009Y-143758762D01*
X147839009Y-143758762D02*
X147743771Y-143711143D01*
X147743771Y-143711143D02*
X147696152Y-143615905D01*
X147696152Y-143615905D02*
X147696152Y-143425429D01*
X147696152Y-143425429D02*
X147743771Y-143330191D01*
X148315200Y-143758762D02*
X148362819Y-143663524D01*
X148362819Y-143663524D02*
X148362819Y-143425429D01*
X148362819Y-143425429D02*
X148315200Y-143330191D01*
X148315200Y-143330191D02*
X148219961Y-143282572D01*
X148219961Y-143282572D02*
X148124723Y-143282572D01*
X148124723Y-143282572D02*
X148029485Y-143330191D01*
X148029485Y-143330191D02*
X147981866Y-143425429D01*
X147981866Y-143425429D02*
X147981866Y-143663524D01*
X147981866Y-143663524D02*
X147934247Y-143758762D01*
X147696152Y-144092096D02*
X147696152Y-144473048D01*
X147362819Y-144234953D02*
X148219961Y-144234953D01*
X148219961Y-144234953D02*
X148315200Y-144282572D01*
X148315200Y-144282572D02*
X148362819Y-144377810D01*
X148362819Y-144377810D02*
X148362819Y-144473048D01*
X148362819Y-144949239D02*
X148315200Y-144854001D01*
X148315200Y-144854001D02*
X148267580Y-144806382D01*
X148267580Y-144806382D02*
X148172342Y-144758763D01*
X148172342Y-144758763D02*
X147886628Y-144758763D01*
X147886628Y-144758763D02*
X147791390Y-144806382D01*
X147791390Y-144806382D02*
X147743771Y-144854001D01*
X147743771Y-144854001D02*
X147696152Y-144949239D01*
X147696152Y-144949239D02*
X147696152Y-145092096D01*
X147696152Y-145092096D02*
X147743771Y-145187334D01*
X147743771Y-145187334D02*
X147791390Y-145234953D01*
X147791390Y-145234953D02*
X147886628Y-145282572D01*
X147886628Y-145282572D02*
X148172342Y-145282572D01*
X148172342Y-145282572D02*
X148267580Y-145234953D01*
X148267580Y-145234953D02*
X148315200Y-145187334D01*
X148315200Y-145187334D02*
X148362819Y-145092096D01*
X148362819Y-145092096D02*
X148362819Y-144949239D01*
X148362819Y-145711144D02*
X147696152Y-145711144D01*
X147886628Y-145711144D02*
X147791390Y-145758763D01*
X147791390Y-145758763D02*
X147743771Y-145806382D01*
X147743771Y-145806382D02*
X147696152Y-145901620D01*
X147696152Y-145901620D02*
X147696152Y-145996858D01*
X151535200Y-128401618D02*
X151582819Y-128306380D01*
X151582819Y-128306380D02*
X151582819Y-128115904D01*
X151582819Y-128115904D02*
X151535200Y-128020666D01*
X151535200Y-128020666D02*
X151439961Y-127973047D01*
X151439961Y-127973047D02*
X151059009Y-127973047D01*
X151059009Y-127973047D02*
X150963771Y-128020666D01*
X150963771Y-128020666D02*
X150916152Y-128115904D01*
X150916152Y-128115904D02*
X150916152Y-128306380D01*
X150916152Y-128306380D02*
X150963771Y-128401618D01*
X150963771Y-128401618D02*
X151059009Y-128449237D01*
X151059009Y-128449237D02*
X151154247Y-128449237D01*
X151154247Y-128449237D02*
X151249485Y-127973047D01*
X151582819Y-128782571D02*
X150916152Y-129306380D01*
X150916152Y-128782571D02*
X151582819Y-129306380D01*
X151535200Y-130115904D02*
X151582819Y-130020666D01*
X151582819Y-130020666D02*
X151582819Y-129830190D01*
X151582819Y-129830190D02*
X151535200Y-129734952D01*
X151535200Y-129734952D02*
X151487580Y-129687333D01*
X151487580Y-129687333D02*
X151392342Y-129639714D01*
X151392342Y-129639714D02*
X151106628Y-129639714D01*
X151106628Y-129639714D02*
X151011390Y-129687333D01*
X151011390Y-129687333D02*
X150963771Y-129734952D01*
X150963771Y-129734952D02*
X150916152Y-129830190D01*
X150916152Y-129830190D02*
X150916152Y-130020666D01*
X150916152Y-130020666D02*
X150963771Y-130115904D01*
X151582819Y-130544476D02*
X150916152Y-130544476D01*
X150582819Y-130544476D02*
X150630438Y-130496857D01*
X150630438Y-130496857D02*
X150678057Y-130544476D01*
X150678057Y-130544476D02*
X150630438Y-130592095D01*
X150630438Y-130592095D02*
X150582819Y-130544476D01*
X150582819Y-130544476D02*
X150678057Y-130544476D01*
X150916152Y-130877809D02*
X150916152Y-131258761D01*
X150582819Y-131020666D02*
X151439961Y-131020666D01*
X151439961Y-131020666D02*
X151535200Y-131068285D01*
X151535200Y-131068285D02*
X151582819Y-131163523D01*
X151582819Y-131163523D02*
X151582819Y-131258761D01*
X151582819Y-131592095D02*
X150916152Y-131592095D01*
X150582819Y-131592095D02*
X150630438Y-131544476D01*
X150630438Y-131544476D02*
X150678057Y-131592095D01*
X150678057Y-131592095D02*
X150630438Y-131639714D01*
X150630438Y-131639714D02*
X150582819Y-131592095D01*
X150582819Y-131592095D02*
X150678057Y-131592095D01*
X150916152Y-132068285D02*
X151582819Y-132068285D01*
X151011390Y-132068285D02*
X150963771Y-132115904D01*
X150963771Y-132115904D02*
X150916152Y-132211142D01*
X150916152Y-132211142D02*
X150916152Y-132353999D01*
X150916152Y-132353999D02*
X150963771Y-132449237D01*
X150963771Y-132449237D02*
X151059009Y-132496856D01*
X151059009Y-132496856D02*
X151582819Y-132496856D01*
X150916152Y-133401618D02*
X151725676Y-133401618D01*
X151725676Y-133401618D02*
X151820914Y-133353999D01*
X151820914Y-133353999D02*
X151868533Y-133306380D01*
X151868533Y-133306380D02*
X151916152Y-133211142D01*
X151916152Y-133211142D02*
X151916152Y-133068285D01*
X151916152Y-133068285D02*
X151868533Y-132973047D01*
X151535200Y-133401618D02*
X151582819Y-133306380D01*
X151582819Y-133306380D02*
X151582819Y-133115904D01*
X151582819Y-133115904D02*
X151535200Y-133020666D01*
X151535200Y-133020666D02*
X151487580Y-132973047D01*
X151487580Y-132973047D02*
X151392342Y-132925428D01*
X151392342Y-132925428D02*
X151106628Y-132925428D01*
X151106628Y-132925428D02*
X151011390Y-132973047D01*
X151011390Y-132973047D02*
X150963771Y-133020666D01*
X150963771Y-133020666D02*
X150916152Y-133115904D01*
X150916152Y-133115904D02*
X150916152Y-133306380D01*
X150916152Y-133306380D02*
X150963771Y-133401618D01*
X151582819Y-133877809D02*
X150916152Y-133877809D01*
X151106628Y-133877809D02*
X151011390Y-133925428D01*
X151011390Y-133925428D02*
X150963771Y-133973047D01*
X150963771Y-133973047D02*
X150916152Y-134068285D01*
X150916152Y-134068285D02*
X150916152Y-134163523D01*
X151535200Y-134877809D02*
X151582819Y-134782571D01*
X151582819Y-134782571D02*
X151582819Y-134592095D01*
X151582819Y-134592095D02*
X151535200Y-134496857D01*
X151535200Y-134496857D02*
X151439961Y-134449238D01*
X151439961Y-134449238D02*
X151059009Y-134449238D01*
X151059009Y-134449238D02*
X150963771Y-134496857D01*
X150963771Y-134496857D02*
X150916152Y-134592095D01*
X150916152Y-134592095D02*
X150916152Y-134782571D01*
X150916152Y-134782571D02*
X150963771Y-134877809D01*
X150963771Y-134877809D02*
X151059009Y-134925428D01*
X151059009Y-134925428D02*
X151154247Y-134925428D01*
X151154247Y-134925428D02*
X151249485Y-134449238D01*
X151535200Y-135306381D02*
X151582819Y-135401619D01*
X151582819Y-135401619D02*
X151582819Y-135592095D01*
X151582819Y-135592095D02*
X151535200Y-135687333D01*
X151535200Y-135687333D02*
X151439961Y-135734952D01*
X151439961Y-135734952D02*
X151392342Y-135734952D01*
X151392342Y-135734952D02*
X151297104Y-135687333D01*
X151297104Y-135687333D02*
X151249485Y-135592095D01*
X151249485Y-135592095D02*
X151249485Y-135449238D01*
X151249485Y-135449238D02*
X151201866Y-135354000D01*
X151201866Y-135354000D02*
X151106628Y-135306381D01*
X151106628Y-135306381D02*
X151059009Y-135306381D01*
X151059009Y-135306381D02*
X150963771Y-135354000D01*
X150963771Y-135354000D02*
X150916152Y-135449238D01*
X150916152Y-135449238D02*
X150916152Y-135592095D01*
X150916152Y-135592095D02*
X150963771Y-135687333D01*
X151535200Y-136544476D02*
X151582819Y-136449238D01*
X151582819Y-136449238D02*
X151582819Y-136258762D01*
X151582819Y-136258762D02*
X151535200Y-136163524D01*
X151535200Y-136163524D02*
X151439961Y-136115905D01*
X151439961Y-136115905D02*
X151059009Y-136115905D01*
X151059009Y-136115905D02*
X150963771Y-136163524D01*
X150963771Y-136163524D02*
X150916152Y-136258762D01*
X150916152Y-136258762D02*
X150916152Y-136449238D01*
X150916152Y-136449238D02*
X150963771Y-136544476D01*
X150963771Y-136544476D02*
X151059009Y-136592095D01*
X151059009Y-136592095D02*
X151154247Y-136592095D01*
X151154247Y-136592095D02*
X151249485Y-136115905D01*
X151582819Y-137449238D02*
X151059009Y-137449238D01*
X151059009Y-137449238D02*
X150963771Y-137401619D01*
X150963771Y-137401619D02*
X150916152Y-137306381D01*
X150916152Y-137306381D02*
X150916152Y-137115905D01*
X150916152Y-137115905D02*
X150963771Y-137020667D01*
X151535200Y-137449238D02*
X151582819Y-137354000D01*
X151582819Y-137354000D02*
X151582819Y-137115905D01*
X151582819Y-137115905D02*
X151535200Y-137020667D01*
X151535200Y-137020667D02*
X151439961Y-136973048D01*
X151439961Y-136973048D02*
X151344723Y-136973048D01*
X151344723Y-136973048D02*
X151249485Y-137020667D01*
X151249485Y-137020667D02*
X151201866Y-137115905D01*
X151201866Y-137115905D02*
X151201866Y-137354000D01*
X151201866Y-137354000D02*
X151154247Y-137449238D01*
X151582819Y-137925429D02*
X150916152Y-137925429D01*
X151106628Y-137925429D02*
X151011390Y-137973048D01*
X151011390Y-137973048D02*
X150963771Y-138020667D01*
X150963771Y-138020667D02*
X150916152Y-138115905D01*
X150916152Y-138115905D02*
X150916152Y-138211143D01*
X151535200Y-138973048D02*
X151582819Y-138877810D01*
X151582819Y-138877810D02*
X151582819Y-138687334D01*
X151582819Y-138687334D02*
X151535200Y-138592096D01*
X151535200Y-138592096D02*
X151487580Y-138544477D01*
X151487580Y-138544477D02*
X151392342Y-138496858D01*
X151392342Y-138496858D02*
X151106628Y-138496858D01*
X151106628Y-138496858D02*
X151011390Y-138544477D01*
X151011390Y-138544477D02*
X150963771Y-138592096D01*
X150963771Y-138592096D02*
X150916152Y-138687334D01*
X150916152Y-138687334D02*
X150916152Y-138877810D01*
X150916152Y-138877810D02*
X150963771Y-138973048D01*
X151582819Y-139401620D02*
X150582819Y-139401620D01*
X151582819Y-139830191D02*
X151059009Y-139830191D01*
X151059009Y-139830191D02*
X150963771Y-139782572D01*
X150963771Y-139782572D02*
X150916152Y-139687334D01*
X150916152Y-139687334D02*
X150916152Y-139544477D01*
X150916152Y-139544477D02*
X150963771Y-139449239D01*
X150963771Y-139449239D02*
X151011390Y-139401620D01*
X151487580Y-140306382D02*
X151535200Y-140354001D01*
X151535200Y-140354001D02*
X151582819Y-140306382D01*
X151582819Y-140306382D02*
X151535200Y-140258763D01*
X151535200Y-140258763D02*
X151487580Y-140306382D01*
X151487580Y-140306382D02*
X151582819Y-140306382D01*
X151582819Y-140782572D02*
X150916152Y-140782572D01*
X150582819Y-140782572D02*
X150630438Y-140734953D01*
X150630438Y-140734953D02*
X150678057Y-140782572D01*
X150678057Y-140782572D02*
X150630438Y-140830191D01*
X150630438Y-140830191D02*
X150582819Y-140782572D01*
X150582819Y-140782572D02*
X150678057Y-140782572D01*
X151582819Y-141401619D02*
X151535200Y-141306381D01*
X151535200Y-141306381D02*
X151487580Y-141258762D01*
X151487580Y-141258762D02*
X151392342Y-141211143D01*
X151392342Y-141211143D02*
X151106628Y-141211143D01*
X151106628Y-141211143D02*
X151011390Y-141258762D01*
X151011390Y-141258762D02*
X150963771Y-141306381D01*
X150963771Y-141306381D02*
X150916152Y-141401619D01*
X150916152Y-141401619D02*
X150916152Y-141544476D01*
X150916152Y-141544476D02*
X150963771Y-141639714D01*
X150963771Y-141639714D02*
X151011390Y-141687333D01*
X151011390Y-141687333D02*
X151106628Y-141734952D01*
X151106628Y-141734952D02*
X151392342Y-141734952D01*
X151392342Y-141734952D02*
X151487580Y-141687333D01*
X151487580Y-141687333D02*
X151535200Y-141639714D01*
X151535200Y-141639714D02*
X151582819Y-141544476D01*
X151582819Y-141544476D02*
X151582819Y-141401619D01*
X156775152Y-145172745D02*
X157441819Y-145410840D01*
X157441819Y-145410840D02*
X156775152Y-145648935D01*
X156775152Y-146458459D02*
X157441819Y-146458459D01*
X156394200Y-146220364D02*
X157108485Y-145982269D01*
X157108485Y-145982269D02*
X157108485Y-146601316D01*
X157346580Y-146982269D02*
X157394200Y-147029888D01*
X157394200Y-147029888D02*
X157441819Y-146982269D01*
X157441819Y-146982269D02*
X157394200Y-146934650D01*
X157394200Y-146934650D02*
X157346580Y-146982269D01*
X157346580Y-146982269D02*
X157441819Y-146982269D01*
X156441819Y-147648935D02*
X156441819Y-147744173D01*
X156441819Y-147744173D02*
X156489438Y-147839411D01*
X156489438Y-147839411D02*
X156537057Y-147887030D01*
X156537057Y-147887030D02*
X156632295Y-147934649D01*
X156632295Y-147934649D02*
X156822771Y-147982268D01*
X156822771Y-147982268D02*
X157060866Y-147982268D01*
X157060866Y-147982268D02*
X157251342Y-147934649D01*
X157251342Y-147934649D02*
X157346580Y-147887030D01*
X157346580Y-147887030D02*
X157394200Y-147839411D01*
X157394200Y-147839411D02*
X157441819Y-147744173D01*
X157441819Y-147744173D02*
X157441819Y-147648935D01*
X157441819Y-147648935D02*
X157394200Y-147553697D01*
X157394200Y-147553697D02*
X157346580Y-147506078D01*
X157346580Y-147506078D02*
X157251342Y-147458459D01*
X157251342Y-147458459D02*
X157060866Y-147410840D01*
X157060866Y-147410840D02*
X156822771Y-147410840D01*
X156822771Y-147410840D02*
X156632295Y-147458459D01*
X156632295Y-147458459D02*
X156537057Y-147506078D01*
X156537057Y-147506078D02*
X156489438Y-147553697D01*
X156489438Y-147553697D02*
X156441819Y-147648935D01*
X157346580Y-148410840D02*
X157394200Y-148458459D01*
X157394200Y-148458459D02*
X157441819Y-148410840D01*
X157441819Y-148410840D02*
X157394200Y-148363221D01*
X157394200Y-148363221D02*
X157346580Y-148410840D01*
X157346580Y-148410840D02*
X157441819Y-148410840D01*
X157441819Y-149410839D02*
X157441819Y-148839411D01*
X157441819Y-149125125D02*
X156441819Y-149125125D01*
X156441819Y-149125125D02*
X156584676Y-149029887D01*
X156584676Y-149029887D02*
X156679914Y-148934649D01*
X156679914Y-148934649D02*
X156727533Y-148839411D01*
M02*
