%TF.GenerationSoftware,KiCad,Pcbnew,8.0.1*%
%TF.CreationDate,2024-04-25T21:49:44+02:00*%
%TF.ProjectId,pcb-design,7063622d-6465-4736-9967-6e2e6b696361,rev?*%
%TF.SameCoordinates,Original*%
%TF.FileFunction,Drillmap*%
%TF.FilePolarity,Positive*%
%FSLAX45Y45*%
G04 Gerber Fmt 4.5, Leading zero omitted, Abs format (unit mm)*
G04 Created by KiCad (PCBNEW 8.0.1) date 2024-04-25 21:49:44*
%MOMM*%
%LPD*%
G01*
G04 APERTURE LIST*
%ADD10C,0.100000*%
%ADD11C,0.200000*%
%ADD12C,0.149860*%
G04 APERTURE END LIST*
D10*
X13989600Y-11878300D02*
X13996200Y-15055500D01*
X14814600Y-13568300D02*
X14899600Y-13568300D01*
X15869600Y-13818300D02*
X15869600Y-15068300D01*
X15232100Y-13668300D02*
X15232100Y-13568300D01*
X15869600Y-13818300D02*
X14814600Y-13818300D01*
X14746527Y-11444200D02*
X14749600Y-11878300D01*
X14814600Y-13818300D02*
X14814600Y-13568300D01*
X15869600Y-13568300D02*
X15232100Y-13568300D01*
X15869600Y-15068300D02*
X13996200Y-15055500D01*
X14159761Y-11441859D02*
G75*
G02*
X14746527Y-11444200I294639J313559D01*
G01*
X14899600Y-13568300D02*
X14899600Y-13668300D01*
X15869600Y-11878300D02*
X14749600Y-11878300D01*
X14159600Y-11878300D02*
X13989600Y-11878300D01*
X14899600Y-13668300D02*
X15232100Y-13668300D01*
X15869600Y-13568300D02*
X15869600Y-11878300D01*
X14159761Y-11441859D02*
X14159600Y-11878300D01*
D11*
D10*
X14371740Y-12719910D02*
X14411740Y-12759910D01*
X14411740Y-12719910D02*
X14371740Y-12759910D01*
X14480690Y-13378430D02*
X14520690Y-13418430D01*
X14520690Y-13378430D02*
X14480690Y-13418430D01*
X14489600Y-12556070D02*
X14529600Y-12596070D01*
X14529600Y-12556070D02*
X14489600Y-12596070D01*
X14670690Y-13406270D02*
X14710690Y-13446270D01*
X14710690Y-13406270D02*
X14670690Y-13446270D01*
X15152540Y-14597700D02*
X15192540Y-14637700D01*
X15192540Y-14597700D02*
X15152540Y-14637700D01*
X15519600Y-13417550D02*
X15559600Y-13457550D01*
X15559600Y-13417550D02*
X15519600Y-13457550D01*
X14322100Y-10868300D02*
G75*
G02*
X14257100Y-10868300I-32500J0D01*
G01*
X14257100Y-10868300D02*
G75*
G02*
X14322100Y-10868300I32500J0D01*
G01*
X14472100Y-10868300D02*
G75*
G02*
X14407100Y-10868300I-32500J0D01*
G01*
X14407100Y-10868300D02*
G75*
G02*
X14472100Y-10868300I32500J0D01*
G01*
X14622100Y-10868300D02*
G75*
G02*
X14557100Y-10868300I-32500J0D01*
G01*
X14557100Y-10868300D02*
G75*
G02*
X14622100Y-10868300I32500J0D01*
G01*
X14980000Y-13515950D02*
X14980000Y-13590950D01*
X14942500Y-13553450D02*
X15017500Y-13553450D01*
X15153500Y-13513450D02*
X15153500Y-13588450D01*
X15116000Y-13550950D02*
X15191000Y-13550950D01*
X14979084Y-12153484D02*
X14979084Y-12096915D01*
X14922515Y-12096915D01*
X14922515Y-12153484D01*
X14979084Y-12153484D01*
X15233084Y-12153484D02*
X15233084Y-12096915D01*
X15176515Y-12096915D01*
X15176515Y-12153484D01*
X15233084Y-12153484D01*
X15709600Y-12309740D02*
X15750240Y-12269100D01*
X15709600Y-12228460D01*
X15668960Y-12269100D01*
X15709600Y-12309740D01*
X15709600Y-12509740D02*
X15750240Y-12469100D01*
X15709600Y-12428460D01*
X15668960Y-12469100D01*
X15709600Y-12509740D01*
X15709600Y-12709740D02*
X15750240Y-12669100D01*
X15709600Y-12628460D01*
X15668960Y-12669100D01*
X15709600Y-12709740D01*
D12*
X15634670Y-11983960D02*
X15784530Y-12133820D01*
X15784530Y-11983960D02*
X15634670Y-12133820D01*
X15784530Y-12058890D02*
G75*
G02*
X15634670Y-12058890I-74930J0D01*
G01*
X15634670Y-12058890D02*
G75*
G02*
X15784530Y-12058890I74930J0D01*
G01*
X15634670Y-12804380D02*
X15784530Y-12954240D01*
X15784530Y-12804380D02*
X15634670Y-12954240D01*
X15784530Y-12879310D02*
G75*
G02*
X15634670Y-12879310I-74930J0D01*
G01*
X15634670Y-12879310D02*
G75*
G02*
X15784530Y-12879310I74930J0D01*
G01*
D11*
X14245377Y-15384784D02*
X14245377Y-15184784D01*
X14245377Y-15184784D02*
X14292996Y-15184784D01*
X14292996Y-15184784D02*
X14321567Y-15194308D01*
X14321567Y-15194308D02*
X14340615Y-15213355D01*
X14340615Y-15213355D02*
X14350139Y-15232403D01*
X14350139Y-15232403D02*
X14359662Y-15270498D01*
X14359662Y-15270498D02*
X14359662Y-15299069D01*
X14359662Y-15299069D02*
X14350139Y-15337165D01*
X14350139Y-15337165D02*
X14340615Y-15356212D01*
X14340615Y-15356212D02*
X14321567Y-15375260D01*
X14321567Y-15375260D02*
X14292996Y-15384784D01*
X14292996Y-15384784D02*
X14245377Y-15384784D01*
X14445377Y-15384784D02*
X14445377Y-15251450D01*
X14445377Y-15289546D02*
X14454901Y-15270498D01*
X14454901Y-15270498D02*
X14464424Y-15260974D01*
X14464424Y-15260974D02*
X14483472Y-15251450D01*
X14483472Y-15251450D02*
X14502520Y-15251450D01*
X14569186Y-15384784D02*
X14569186Y-15251450D01*
X14569186Y-15184784D02*
X14559662Y-15194308D01*
X14559662Y-15194308D02*
X14569186Y-15203831D01*
X14569186Y-15203831D02*
X14578710Y-15194308D01*
X14578710Y-15194308D02*
X14569186Y-15184784D01*
X14569186Y-15184784D02*
X14569186Y-15203831D01*
X14692996Y-15384784D02*
X14673948Y-15375260D01*
X14673948Y-15375260D02*
X14664424Y-15356212D01*
X14664424Y-15356212D02*
X14664424Y-15184784D01*
X14797758Y-15384784D02*
X14778710Y-15375260D01*
X14778710Y-15375260D02*
X14769186Y-15356212D01*
X14769186Y-15356212D02*
X14769186Y-15184784D01*
X15026329Y-15384784D02*
X15026329Y-15184784D01*
X15026329Y-15184784D02*
X15092996Y-15327641D01*
X15092996Y-15327641D02*
X15159662Y-15184784D01*
X15159662Y-15184784D02*
X15159662Y-15384784D01*
X15340615Y-15384784D02*
X15340615Y-15280022D01*
X15340615Y-15280022D02*
X15331091Y-15260974D01*
X15331091Y-15260974D02*
X15312043Y-15251450D01*
X15312043Y-15251450D02*
X15273948Y-15251450D01*
X15273948Y-15251450D02*
X15254901Y-15260974D01*
X15340615Y-15375260D02*
X15321567Y-15384784D01*
X15321567Y-15384784D02*
X15273948Y-15384784D01*
X15273948Y-15384784D02*
X15254901Y-15375260D01*
X15254901Y-15375260D02*
X15245377Y-15356212D01*
X15245377Y-15356212D02*
X15245377Y-15337165D01*
X15245377Y-15337165D02*
X15254901Y-15318117D01*
X15254901Y-15318117D02*
X15273948Y-15308593D01*
X15273948Y-15308593D02*
X15321567Y-15308593D01*
X15321567Y-15308593D02*
X15340615Y-15299069D01*
X15435853Y-15251450D02*
X15435853Y-15451450D01*
X15435853Y-15260974D02*
X15454901Y-15251450D01*
X15454901Y-15251450D02*
X15492996Y-15251450D01*
X15492996Y-15251450D02*
X15512043Y-15260974D01*
X15512043Y-15260974D02*
X15521567Y-15270498D01*
X15521567Y-15270498D02*
X15531091Y-15289546D01*
X15531091Y-15289546D02*
X15531091Y-15346688D01*
X15531091Y-15346688D02*
X15521567Y-15365736D01*
X15521567Y-15365736D02*
X15512043Y-15375260D01*
X15512043Y-15375260D02*
X15492996Y-15384784D01*
X15492996Y-15384784D02*
X15454901Y-15384784D01*
X15454901Y-15384784D02*
X15435853Y-15375260D01*
X15616805Y-15365736D02*
X15626329Y-15375260D01*
X15626329Y-15375260D02*
X15616805Y-15384784D01*
X15616805Y-15384784D02*
X15607282Y-15375260D01*
X15607282Y-15375260D02*
X15616805Y-15365736D01*
X15616805Y-15365736D02*
X15616805Y-15384784D01*
X15616805Y-15260974D02*
X15626329Y-15270498D01*
X15626329Y-15270498D02*
X15616805Y-15280022D01*
X15616805Y-15280022D02*
X15607282Y-15270498D01*
X15607282Y-15270498D02*
X15616805Y-15260974D01*
X15616805Y-15260974D02*
X15616805Y-15280022D01*
D10*
X13944600Y-15693300D02*
X13984600Y-15733300D01*
X13984600Y-15693300D02*
X13944600Y-15733300D01*
D11*
X14283472Y-15604784D02*
X14302520Y-15604784D01*
X14302520Y-15604784D02*
X14321567Y-15614308D01*
X14321567Y-15614308D02*
X14331091Y-15623831D01*
X14331091Y-15623831D02*
X14340615Y-15642879D01*
X14340615Y-15642879D02*
X14350139Y-15680974D01*
X14350139Y-15680974D02*
X14350139Y-15728593D01*
X14350139Y-15728593D02*
X14340615Y-15766688D01*
X14340615Y-15766688D02*
X14331091Y-15785736D01*
X14331091Y-15785736D02*
X14321567Y-15795260D01*
X14321567Y-15795260D02*
X14302520Y-15804784D01*
X14302520Y-15804784D02*
X14283472Y-15804784D01*
X14283472Y-15804784D02*
X14264424Y-15795260D01*
X14264424Y-15795260D02*
X14254901Y-15785736D01*
X14254901Y-15785736D02*
X14245377Y-15766688D01*
X14245377Y-15766688D02*
X14235853Y-15728593D01*
X14235853Y-15728593D02*
X14235853Y-15680974D01*
X14235853Y-15680974D02*
X14245377Y-15642879D01*
X14245377Y-15642879D02*
X14254901Y-15623831D01*
X14254901Y-15623831D02*
X14264424Y-15614308D01*
X14264424Y-15614308D02*
X14283472Y-15604784D01*
X14435853Y-15785736D02*
X14445377Y-15795260D01*
X14445377Y-15795260D02*
X14435853Y-15804784D01*
X14435853Y-15804784D02*
X14426329Y-15795260D01*
X14426329Y-15795260D02*
X14435853Y-15785736D01*
X14435853Y-15785736D02*
X14435853Y-15804784D01*
X14616805Y-15671450D02*
X14616805Y-15804784D01*
X14569186Y-15595260D02*
X14521567Y-15738117D01*
X14521567Y-15738117D02*
X14645377Y-15738117D01*
X14759662Y-15604784D02*
X14778710Y-15604784D01*
X14778710Y-15604784D02*
X14797758Y-15614308D01*
X14797758Y-15614308D02*
X14807282Y-15623831D01*
X14807282Y-15623831D02*
X14816805Y-15642879D01*
X14816805Y-15642879D02*
X14826329Y-15680974D01*
X14826329Y-15680974D02*
X14826329Y-15728593D01*
X14826329Y-15728593D02*
X14816805Y-15766688D01*
X14816805Y-15766688D02*
X14807282Y-15785736D01*
X14807282Y-15785736D02*
X14797758Y-15795260D01*
X14797758Y-15795260D02*
X14778710Y-15804784D01*
X14778710Y-15804784D02*
X14759662Y-15804784D01*
X14759662Y-15804784D02*
X14740615Y-15795260D01*
X14740615Y-15795260D02*
X14731091Y-15785736D01*
X14731091Y-15785736D02*
X14721567Y-15766688D01*
X14721567Y-15766688D02*
X14712043Y-15728593D01*
X14712043Y-15728593D02*
X14712043Y-15680974D01*
X14712043Y-15680974D02*
X14721567Y-15642879D01*
X14721567Y-15642879D02*
X14731091Y-15623831D01*
X14731091Y-15623831D02*
X14740615Y-15614308D01*
X14740615Y-15614308D02*
X14759662Y-15604784D01*
X14950139Y-15604784D02*
X14969186Y-15604784D01*
X14969186Y-15604784D02*
X14988234Y-15614308D01*
X14988234Y-15614308D02*
X14997758Y-15623831D01*
X14997758Y-15623831D02*
X15007282Y-15642879D01*
X15007282Y-15642879D02*
X15016805Y-15680974D01*
X15016805Y-15680974D02*
X15016805Y-15728593D01*
X15016805Y-15728593D02*
X15007282Y-15766688D01*
X15007282Y-15766688D02*
X14997758Y-15785736D01*
X14997758Y-15785736D02*
X14988234Y-15795260D01*
X14988234Y-15795260D02*
X14969186Y-15804784D01*
X14969186Y-15804784D02*
X14950139Y-15804784D01*
X14950139Y-15804784D02*
X14931091Y-15795260D01*
X14931091Y-15795260D02*
X14921567Y-15785736D01*
X14921567Y-15785736D02*
X14912043Y-15766688D01*
X14912043Y-15766688D02*
X14902520Y-15728593D01*
X14902520Y-15728593D02*
X14902520Y-15680974D01*
X14902520Y-15680974D02*
X14912043Y-15642879D01*
X14912043Y-15642879D02*
X14921567Y-15623831D01*
X14921567Y-15623831D02*
X14931091Y-15614308D01*
X14931091Y-15614308D02*
X14950139Y-15604784D01*
X15102520Y-15804784D02*
X15102520Y-15671450D01*
X15102520Y-15690498D02*
X15112043Y-15680974D01*
X15112043Y-15680974D02*
X15131091Y-15671450D01*
X15131091Y-15671450D02*
X15159663Y-15671450D01*
X15159663Y-15671450D02*
X15178710Y-15680974D01*
X15178710Y-15680974D02*
X15188234Y-15700022D01*
X15188234Y-15700022D02*
X15188234Y-15804784D01*
X15188234Y-15700022D02*
X15197758Y-15680974D01*
X15197758Y-15680974D02*
X15216805Y-15671450D01*
X15216805Y-15671450D02*
X15245377Y-15671450D01*
X15245377Y-15671450D02*
X15264424Y-15680974D01*
X15264424Y-15680974D02*
X15273948Y-15700022D01*
X15273948Y-15700022D02*
X15273948Y-15804784D01*
X15369186Y-15804784D02*
X15369186Y-15671450D01*
X15369186Y-15690498D02*
X15378710Y-15680974D01*
X15378710Y-15680974D02*
X15397758Y-15671450D01*
X15397758Y-15671450D02*
X15426329Y-15671450D01*
X15426329Y-15671450D02*
X15445377Y-15680974D01*
X15445377Y-15680974D02*
X15454901Y-15700022D01*
X15454901Y-15700022D02*
X15454901Y-15804784D01*
X15454901Y-15700022D02*
X15464424Y-15680974D01*
X15464424Y-15680974D02*
X15483472Y-15671450D01*
X15483472Y-15671450D02*
X15512043Y-15671450D01*
X15512043Y-15671450D02*
X15531091Y-15680974D01*
X15531091Y-15680974D02*
X15540615Y-15700022D01*
X15540615Y-15700022D02*
X15540615Y-15804784D01*
X15931091Y-15595260D02*
X15759663Y-15852403D01*
X16188234Y-15604784D02*
X16207282Y-15604784D01*
X16207282Y-15604784D02*
X16226329Y-15614308D01*
X16226329Y-15614308D02*
X16235853Y-15623831D01*
X16235853Y-15623831D02*
X16245377Y-15642879D01*
X16245377Y-15642879D02*
X16254901Y-15680974D01*
X16254901Y-15680974D02*
X16254901Y-15728593D01*
X16254901Y-15728593D02*
X16245377Y-15766688D01*
X16245377Y-15766688D02*
X16235853Y-15785736D01*
X16235853Y-15785736D02*
X16226329Y-15795260D01*
X16226329Y-15795260D02*
X16207282Y-15804784D01*
X16207282Y-15804784D02*
X16188234Y-15804784D01*
X16188234Y-15804784D02*
X16169186Y-15795260D01*
X16169186Y-15795260D02*
X16159663Y-15785736D01*
X16159663Y-15785736D02*
X16150139Y-15766688D01*
X16150139Y-15766688D02*
X16140615Y-15728593D01*
X16140615Y-15728593D02*
X16140615Y-15680974D01*
X16140615Y-15680974D02*
X16150139Y-15642879D01*
X16150139Y-15642879D02*
X16159663Y-15623831D01*
X16159663Y-15623831D02*
X16169186Y-15614308D01*
X16169186Y-15614308D02*
X16188234Y-15604784D01*
X16340615Y-15785736D02*
X16350139Y-15795260D01*
X16350139Y-15795260D02*
X16340615Y-15804784D01*
X16340615Y-15804784D02*
X16331091Y-15795260D01*
X16331091Y-15795260D02*
X16340615Y-15785736D01*
X16340615Y-15785736D02*
X16340615Y-15804784D01*
X16473948Y-15604784D02*
X16492996Y-15604784D01*
X16492996Y-15604784D02*
X16512044Y-15614308D01*
X16512044Y-15614308D02*
X16521567Y-15623831D01*
X16521567Y-15623831D02*
X16531091Y-15642879D01*
X16531091Y-15642879D02*
X16540615Y-15680974D01*
X16540615Y-15680974D02*
X16540615Y-15728593D01*
X16540615Y-15728593D02*
X16531091Y-15766688D01*
X16531091Y-15766688D02*
X16521567Y-15785736D01*
X16521567Y-15785736D02*
X16512044Y-15795260D01*
X16512044Y-15795260D02*
X16492996Y-15804784D01*
X16492996Y-15804784D02*
X16473948Y-15804784D01*
X16473948Y-15804784D02*
X16454901Y-15795260D01*
X16454901Y-15795260D02*
X16445377Y-15785736D01*
X16445377Y-15785736D02*
X16435853Y-15766688D01*
X16435853Y-15766688D02*
X16426329Y-15728593D01*
X16426329Y-15728593D02*
X16426329Y-15680974D01*
X16426329Y-15680974D02*
X16435853Y-15642879D01*
X16435853Y-15642879D02*
X16445377Y-15623831D01*
X16445377Y-15623831D02*
X16454901Y-15614308D01*
X16454901Y-15614308D02*
X16473948Y-15604784D01*
X16731091Y-15804784D02*
X16616806Y-15804784D01*
X16673948Y-15804784D02*
X16673948Y-15604784D01*
X16673948Y-15604784D02*
X16654901Y-15633355D01*
X16654901Y-15633355D02*
X16635853Y-15652403D01*
X16635853Y-15652403D02*
X16616806Y-15661927D01*
X16912044Y-15604784D02*
X16816806Y-15604784D01*
X16816806Y-15604784D02*
X16807282Y-15700022D01*
X16807282Y-15700022D02*
X16816806Y-15690498D01*
X16816806Y-15690498D02*
X16835853Y-15680974D01*
X16835853Y-15680974D02*
X16883472Y-15680974D01*
X16883472Y-15680974D02*
X16902520Y-15690498D01*
X16902520Y-15690498D02*
X16912044Y-15700022D01*
X16912044Y-15700022D02*
X16921568Y-15719069D01*
X16921568Y-15719069D02*
X16921568Y-15766688D01*
X16921568Y-15766688D02*
X16912044Y-15785736D01*
X16912044Y-15785736D02*
X16902520Y-15795260D01*
X16902520Y-15795260D02*
X16883472Y-15804784D01*
X16883472Y-15804784D02*
X16835853Y-15804784D01*
X16835853Y-15804784D02*
X16816806Y-15795260D01*
X16816806Y-15795260D02*
X16807282Y-15785736D01*
X16988234Y-15604784D02*
X17121568Y-15604784D01*
X17121568Y-15604784D02*
X17035853Y-15804784D01*
X17188234Y-15604784D02*
X17188234Y-15642879D01*
X17264425Y-15604784D02*
X17264425Y-15642879D01*
X17559663Y-15880974D02*
X17550139Y-15871450D01*
X17550139Y-15871450D02*
X17531091Y-15842879D01*
X17531091Y-15842879D02*
X17521568Y-15823831D01*
X17521568Y-15823831D02*
X17512044Y-15795260D01*
X17512044Y-15795260D02*
X17502520Y-15747641D01*
X17502520Y-15747641D02*
X17502520Y-15709546D01*
X17502520Y-15709546D02*
X17512044Y-15661927D01*
X17512044Y-15661927D02*
X17521568Y-15633355D01*
X17521568Y-15633355D02*
X17531091Y-15614308D01*
X17531091Y-15614308D02*
X17550139Y-15585736D01*
X17550139Y-15585736D02*
X17559663Y-15576212D01*
X17721568Y-15604784D02*
X17683472Y-15604784D01*
X17683472Y-15604784D02*
X17664425Y-15614308D01*
X17664425Y-15614308D02*
X17654901Y-15623831D01*
X17654901Y-15623831D02*
X17635853Y-15652403D01*
X17635853Y-15652403D02*
X17626330Y-15690498D01*
X17626330Y-15690498D02*
X17626330Y-15766688D01*
X17626330Y-15766688D02*
X17635853Y-15785736D01*
X17635853Y-15785736D02*
X17645377Y-15795260D01*
X17645377Y-15795260D02*
X17664425Y-15804784D01*
X17664425Y-15804784D02*
X17702520Y-15804784D01*
X17702520Y-15804784D02*
X17721568Y-15795260D01*
X17721568Y-15795260D02*
X17731091Y-15785736D01*
X17731091Y-15785736D02*
X17740615Y-15766688D01*
X17740615Y-15766688D02*
X17740615Y-15719069D01*
X17740615Y-15719069D02*
X17731091Y-15700022D01*
X17731091Y-15700022D02*
X17721568Y-15690498D01*
X17721568Y-15690498D02*
X17702520Y-15680974D01*
X17702520Y-15680974D02*
X17664425Y-15680974D01*
X17664425Y-15680974D02*
X17645377Y-15690498D01*
X17645377Y-15690498D02*
X17635853Y-15700022D01*
X17635853Y-15700022D02*
X17626330Y-15719069D01*
X17978711Y-15804784D02*
X17978711Y-15604784D01*
X18064425Y-15804784D02*
X18064425Y-15700022D01*
X18064425Y-15700022D02*
X18054901Y-15680974D01*
X18054901Y-15680974D02*
X18035853Y-15671450D01*
X18035853Y-15671450D02*
X18007282Y-15671450D01*
X18007282Y-15671450D02*
X17988234Y-15680974D01*
X17988234Y-15680974D02*
X17978711Y-15690498D01*
X18188234Y-15804784D02*
X18169187Y-15795260D01*
X18169187Y-15795260D02*
X18159663Y-15785736D01*
X18159663Y-15785736D02*
X18150139Y-15766688D01*
X18150139Y-15766688D02*
X18150139Y-15709546D01*
X18150139Y-15709546D02*
X18159663Y-15690498D01*
X18159663Y-15690498D02*
X18169187Y-15680974D01*
X18169187Y-15680974D02*
X18188234Y-15671450D01*
X18188234Y-15671450D02*
X18216806Y-15671450D01*
X18216806Y-15671450D02*
X18235853Y-15680974D01*
X18235853Y-15680974D02*
X18245377Y-15690498D01*
X18245377Y-15690498D02*
X18254901Y-15709546D01*
X18254901Y-15709546D02*
X18254901Y-15766688D01*
X18254901Y-15766688D02*
X18245377Y-15785736D01*
X18245377Y-15785736D02*
X18235853Y-15795260D01*
X18235853Y-15795260D02*
X18216806Y-15804784D01*
X18216806Y-15804784D02*
X18188234Y-15804784D01*
X18369187Y-15804784D02*
X18350139Y-15795260D01*
X18350139Y-15795260D02*
X18340615Y-15776212D01*
X18340615Y-15776212D02*
X18340615Y-15604784D01*
X18521568Y-15795260D02*
X18502520Y-15804784D01*
X18502520Y-15804784D02*
X18464425Y-15804784D01*
X18464425Y-15804784D02*
X18445377Y-15795260D01*
X18445377Y-15795260D02*
X18435853Y-15776212D01*
X18435853Y-15776212D02*
X18435853Y-15700022D01*
X18435853Y-15700022D02*
X18445377Y-15680974D01*
X18445377Y-15680974D02*
X18464425Y-15671450D01*
X18464425Y-15671450D02*
X18502520Y-15671450D01*
X18502520Y-15671450D02*
X18521568Y-15680974D01*
X18521568Y-15680974D02*
X18531092Y-15700022D01*
X18531092Y-15700022D02*
X18531092Y-15719069D01*
X18531092Y-15719069D02*
X18435853Y-15738117D01*
X18607282Y-15795260D02*
X18626330Y-15804784D01*
X18626330Y-15804784D02*
X18664425Y-15804784D01*
X18664425Y-15804784D02*
X18683473Y-15795260D01*
X18683473Y-15795260D02*
X18692996Y-15776212D01*
X18692996Y-15776212D02*
X18692996Y-15766688D01*
X18692996Y-15766688D02*
X18683473Y-15747641D01*
X18683473Y-15747641D02*
X18664425Y-15738117D01*
X18664425Y-15738117D02*
X18635853Y-15738117D01*
X18635853Y-15738117D02*
X18616806Y-15728593D01*
X18616806Y-15728593D02*
X18607282Y-15709546D01*
X18607282Y-15709546D02*
X18607282Y-15700022D01*
X18607282Y-15700022D02*
X18616806Y-15680974D01*
X18616806Y-15680974D02*
X18635853Y-15671450D01*
X18635853Y-15671450D02*
X18664425Y-15671450D01*
X18664425Y-15671450D02*
X18683473Y-15680974D01*
X18759663Y-15880974D02*
X18769187Y-15871450D01*
X18769187Y-15871450D02*
X18788234Y-15842879D01*
X18788234Y-15842879D02*
X18797758Y-15823831D01*
X18797758Y-15823831D02*
X18807282Y-15795260D01*
X18807282Y-15795260D02*
X18816806Y-15747641D01*
X18816806Y-15747641D02*
X18816806Y-15709546D01*
X18816806Y-15709546D02*
X18807282Y-15661927D01*
X18807282Y-15661927D02*
X18797758Y-15633355D01*
X18797758Y-15633355D02*
X18788234Y-15614308D01*
X18788234Y-15614308D02*
X18769187Y-15585736D01*
X18769187Y-15585736D02*
X18759663Y-15576212D01*
D10*
X13984600Y-15977300D02*
G75*
G02*
X13919600Y-15977300I-32500J0D01*
G01*
X13919600Y-15977300D02*
G75*
G02*
X13984600Y-15977300I32500J0D01*
G01*
D11*
X14283472Y-15868784D02*
X14302520Y-15868784D01*
X14302520Y-15868784D02*
X14321567Y-15878308D01*
X14321567Y-15878308D02*
X14331091Y-15887831D01*
X14331091Y-15887831D02*
X14340615Y-15906879D01*
X14340615Y-15906879D02*
X14350139Y-15944974D01*
X14350139Y-15944974D02*
X14350139Y-15992593D01*
X14350139Y-15992593D02*
X14340615Y-16030688D01*
X14340615Y-16030688D02*
X14331091Y-16049736D01*
X14331091Y-16049736D02*
X14321567Y-16059260D01*
X14321567Y-16059260D02*
X14302520Y-16068784D01*
X14302520Y-16068784D02*
X14283472Y-16068784D01*
X14283472Y-16068784D02*
X14264424Y-16059260D01*
X14264424Y-16059260D02*
X14254901Y-16049736D01*
X14254901Y-16049736D02*
X14245377Y-16030688D01*
X14245377Y-16030688D02*
X14235853Y-15992593D01*
X14235853Y-15992593D02*
X14235853Y-15944974D01*
X14235853Y-15944974D02*
X14245377Y-15906879D01*
X14245377Y-15906879D02*
X14254901Y-15887831D01*
X14254901Y-15887831D02*
X14264424Y-15878308D01*
X14264424Y-15878308D02*
X14283472Y-15868784D01*
X14435853Y-16049736D02*
X14445377Y-16059260D01*
X14445377Y-16059260D02*
X14435853Y-16068784D01*
X14435853Y-16068784D02*
X14426329Y-16059260D01*
X14426329Y-16059260D02*
X14435853Y-16049736D01*
X14435853Y-16049736D02*
X14435853Y-16068784D01*
X14616805Y-15868784D02*
X14578710Y-15868784D01*
X14578710Y-15868784D02*
X14559662Y-15878308D01*
X14559662Y-15878308D02*
X14550139Y-15887831D01*
X14550139Y-15887831D02*
X14531091Y-15916403D01*
X14531091Y-15916403D02*
X14521567Y-15954498D01*
X14521567Y-15954498D02*
X14521567Y-16030688D01*
X14521567Y-16030688D02*
X14531091Y-16049736D01*
X14531091Y-16049736D02*
X14540615Y-16059260D01*
X14540615Y-16059260D02*
X14559662Y-16068784D01*
X14559662Y-16068784D02*
X14597758Y-16068784D01*
X14597758Y-16068784D02*
X14616805Y-16059260D01*
X14616805Y-16059260D02*
X14626329Y-16049736D01*
X14626329Y-16049736D02*
X14635853Y-16030688D01*
X14635853Y-16030688D02*
X14635853Y-15983069D01*
X14635853Y-15983069D02*
X14626329Y-15964022D01*
X14626329Y-15964022D02*
X14616805Y-15954498D01*
X14616805Y-15954498D02*
X14597758Y-15944974D01*
X14597758Y-15944974D02*
X14559662Y-15944974D01*
X14559662Y-15944974D02*
X14540615Y-15954498D01*
X14540615Y-15954498D02*
X14531091Y-15964022D01*
X14531091Y-15964022D02*
X14521567Y-15983069D01*
X14816805Y-15868784D02*
X14721567Y-15868784D01*
X14721567Y-15868784D02*
X14712043Y-15964022D01*
X14712043Y-15964022D02*
X14721567Y-15954498D01*
X14721567Y-15954498D02*
X14740615Y-15944974D01*
X14740615Y-15944974D02*
X14788234Y-15944974D01*
X14788234Y-15944974D02*
X14807282Y-15954498D01*
X14807282Y-15954498D02*
X14816805Y-15964022D01*
X14816805Y-15964022D02*
X14826329Y-15983069D01*
X14826329Y-15983069D02*
X14826329Y-16030688D01*
X14826329Y-16030688D02*
X14816805Y-16049736D01*
X14816805Y-16049736D02*
X14807282Y-16059260D01*
X14807282Y-16059260D02*
X14788234Y-16068784D01*
X14788234Y-16068784D02*
X14740615Y-16068784D01*
X14740615Y-16068784D02*
X14721567Y-16059260D01*
X14721567Y-16059260D02*
X14712043Y-16049736D01*
X14950139Y-15868784D02*
X14969186Y-15868784D01*
X14969186Y-15868784D02*
X14988234Y-15878308D01*
X14988234Y-15878308D02*
X14997758Y-15887831D01*
X14997758Y-15887831D02*
X15007282Y-15906879D01*
X15007282Y-15906879D02*
X15016805Y-15944974D01*
X15016805Y-15944974D02*
X15016805Y-15992593D01*
X15016805Y-15992593D02*
X15007282Y-16030688D01*
X15007282Y-16030688D02*
X14997758Y-16049736D01*
X14997758Y-16049736D02*
X14988234Y-16059260D01*
X14988234Y-16059260D02*
X14969186Y-16068784D01*
X14969186Y-16068784D02*
X14950139Y-16068784D01*
X14950139Y-16068784D02*
X14931091Y-16059260D01*
X14931091Y-16059260D02*
X14921567Y-16049736D01*
X14921567Y-16049736D02*
X14912043Y-16030688D01*
X14912043Y-16030688D02*
X14902520Y-15992593D01*
X14902520Y-15992593D02*
X14902520Y-15944974D01*
X14902520Y-15944974D02*
X14912043Y-15906879D01*
X14912043Y-15906879D02*
X14921567Y-15887831D01*
X14921567Y-15887831D02*
X14931091Y-15878308D01*
X14931091Y-15878308D02*
X14950139Y-15868784D01*
X15102520Y-16068784D02*
X15102520Y-15935450D01*
X15102520Y-15954498D02*
X15112043Y-15944974D01*
X15112043Y-15944974D02*
X15131091Y-15935450D01*
X15131091Y-15935450D02*
X15159663Y-15935450D01*
X15159663Y-15935450D02*
X15178710Y-15944974D01*
X15178710Y-15944974D02*
X15188234Y-15964022D01*
X15188234Y-15964022D02*
X15188234Y-16068784D01*
X15188234Y-15964022D02*
X15197758Y-15944974D01*
X15197758Y-15944974D02*
X15216805Y-15935450D01*
X15216805Y-15935450D02*
X15245377Y-15935450D01*
X15245377Y-15935450D02*
X15264424Y-15944974D01*
X15264424Y-15944974D02*
X15273948Y-15964022D01*
X15273948Y-15964022D02*
X15273948Y-16068784D01*
X15369186Y-16068784D02*
X15369186Y-15935450D01*
X15369186Y-15954498D02*
X15378710Y-15944974D01*
X15378710Y-15944974D02*
X15397758Y-15935450D01*
X15397758Y-15935450D02*
X15426329Y-15935450D01*
X15426329Y-15935450D02*
X15445377Y-15944974D01*
X15445377Y-15944974D02*
X15454901Y-15964022D01*
X15454901Y-15964022D02*
X15454901Y-16068784D01*
X15454901Y-15964022D02*
X15464424Y-15944974D01*
X15464424Y-15944974D02*
X15483472Y-15935450D01*
X15483472Y-15935450D02*
X15512043Y-15935450D01*
X15512043Y-15935450D02*
X15531091Y-15944974D01*
X15531091Y-15944974D02*
X15540615Y-15964022D01*
X15540615Y-15964022D02*
X15540615Y-16068784D01*
X15931091Y-15859260D02*
X15759663Y-16116403D01*
X16188234Y-15868784D02*
X16207282Y-15868784D01*
X16207282Y-15868784D02*
X16226329Y-15878308D01*
X16226329Y-15878308D02*
X16235853Y-15887831D01*
X16235853Y-15887831D02*
X16245377Y-15906879D01*
X16245377Y-15906879D02*
X16254901Y-15944974D01*
X16254901Y-15944974D02*
X16254901Y-15992593D01*
X16254901Y-15992593D02*
X16245377Y-16030688D01*
X16245377Y-16030688D02*
X16235853Y-16049736D01*
X16235853Y-16049736D02*
X16226329Y-16059260D01*
X16226329Y-16059260D02*
X16207282Y-16068784D01*
X16207282Y-16068784D02*
X16188234Y-16068784D01*
X16188234Y-16068784D02*
X16169186Y-16059260D01*
X16169186Y-16059260D02*
X16159663Y-16049736D01*
X16159663Y-16049736D02*
X16150139Y-16030688D01*
X16150139Y-16030688D02*
X16140615Y-15992593D01*
X16140615Y-15992593D02*
X16140615Y-15944974D01*
X16140615Y-15944974D02*
X16150139Y-15906879D01*
X16150139Y-15906879D02*
X16159663Y-15887831D01*
X16159663Y-15887831D02*
X16169186Y-15878308D01*
X16169186Y-15878308D02*
X16188234Y-15868784D01*
X16340615Y-16049736D02*
X16350139Y-16059260D01*
X16350139Y-16059260D02*
X16340615Y-16068784D01*
X16340615Y-16068784D02*
X16331091Y-16059260D01*
X16331091Y-16059260D02*
X16340615Y-16049736D01*
X16340615Y-16049736D02*
X16340615Y-16068784D01*
X16473948Y-15868784D02*
X16492996Y-15868784D01*
X16492996Y-15868784D02*
X16512044Y-15878308D01*
X16512044Y-15878308D02*
X16521567Y-15887831D01*
X16521567Y-15887831D02*
X16531091Y-15906879D01*
X16531091Y-15906879D02*
X16540615Y-15944974D01*
X16540615Y-15944974D02*
X16540615Y-15992593D01*
X16540615Y-15992593D02*
X16531091Y-16030688D01*
X16531091Y-16030688D02*
X16521567Y-16049736D01*
X16521567Y-16049736D02*
X16512044Y-16059260D01*
X16512044Y-16059260D02*
X16492996Y-16068784D01*
X16492996Y-16068784D02*
X16473948Y-16068784D01*
X16473948Y-16068784D02*
X16454901Y-16059260D01*
X16454901Y-16059260D02*
X16445377Y-16049736D01*
X16445377Y-16049736D02*
X16435853Y-16030688D01*
X16435853Y-16030688D02*
X16426329Y-15992593D01*
X16426329Y-15992593D02*
X16426329Y-15944974D01*
X16426329Y-15944974D02*
X16435853Y-15906879D01*
X16435853Y-15906879D02*
X16445377Y-15887831D01*
X16445377Y-15887831D02*
X16454901Y-15878308D01*
X16454901Y-15878308D02*
X16473948Y-15868784D01*
X16616806Y-15887831D02*
X16626329Y-15878308D01*
X16626329Y-15878308D02*
X16645377Y-15868784D01*
X16645377Y-15868784D02*
X16692996Y-15868784D01*
X16692996Y-15868784D02*
X16712044Y-15878308D01*
X16712044Y-15878308D02*
X16721567Y-15887831D01*
X16721567Y-15887831D02*
X16731091Y-15906879D01*
X16731091Y-15906879D02*
X16731091Y-15925927D01*
X16731091Y-15925927D02*
X16721567Y-15954498D01*
X16721567Y-15954498D02*
X16607282Y-16068784D01*
X16607282Y-16068784D02*
X16731091Y-16068784D01*
X16912044Y-15868784D02*
X16816806Y-15868784D01*
X16816806Y-15868784D02*
X16807282Y-15964022D01*
X16807282Y-15964022D02*
X16816806Y-15954498D01*
X16816806Y-15954498D02*
X16835853Y-15944974D01*
X16835853Y-15944974D02*
X16883472Y-15944974D01*
X16883472Y-15944974D02*
X16902520Y-15954498D01*
X16902520Y-15954498D02*
X16912044Y-15964022D01*
X16912044Y-15964022D02*
X16921568Y-15983069D01*
X16921568Y-15983069D02*
X16921568Y-16030688D01*
X16921568Y-16030688D02*
X16912044Y-16049736D01*
X16912044Y-16049736D02*
X16902520Y-16059260D01*
X16902520Y-16059260D02*
X16883472Y-16068784D01*
X16883472Y-16068784D02*
X16835853Y-16068784D01*
X16835853Y-16068784D02*
X16816806Y-16059260D01*
X16816806Y-16059260D02*
X16807282Y-16049736D01*
X17092996Y-15868784D02*
X17054901Y-15868784D01*
X17054901Y-15868784D02*
X17035853Y-15878308D01*
X17035853Y-15878308D02*
X17026329Y-15887831D01*
X17026329Y-15887831D02*
X17007282Y-15916403D01*
X17007282Y-15916403D02*
X16997758Y-15954498D01*
X16997758Y-15954498D02*
X16997758Y-16030688D01*
X16997758Y-16030688D02*
X17007282Y-16049736D01*
X17007282Y-16049736D02*
X17016806Y-16059260D01*
X17016806Y-16059260D02*
X17035853Y-16068784D01*
X17035853Y-16068784D02*
X17073949Y-16068784D01*
X17073949Y-16068784D02*
X17092996Y-16059260D01*
X17092996Y-16059260D02*
X17102520Y-16049736D01*
X17102520Y-16049736D02*
X17112044Y-16030688D01*
X17112044Y-16030688D02*
X17112044Y-15983069D01*
X17112044Y-15983069D02*
X17102520Y-15964022D01*
X17102520Y-15964022D02*
X17092996Y-15954498D01*
X17092996Y-15954498D02*
X17073949Y-15944974D01*
X17073949Y-15944974D02*
X17035853Y-15944974D01*
X17035853Y-15944974D02*
X17016806Y-15954498D01*
X17016806Y-15954498D02*
X17007282Y-15964022D01*
X17007282Y-15964022D02*
X16997758Y-15983069D01*
X17188234Y-15868784D02*
X17188234Y-15906879D01*
X17264425Y-15868784D02*
X17264425Y-15906879D01*
X17559663Y-16144974D02*
X17550139Y-16135450D01*
X17550139Y-16135450D02*
X17531091Y-16106879D01*
X17531091Y-16106879D02*
X17521568Y-16087831D01*
X17521568Y-16087831D02*
X17512044Y-16059260D01*
X17512044Y-16059260D02*
X17502520Y-16011641D01*
X17502520Y-16011641D02*
X17502520Y-15973546D01*
X17502520Y-15973546D02*
X17512044Y-15925927D01*
X17512044Y-15925927D02*
X17521568Y-15897355D01*
X17521568Y-15897355D02*
X17531091Y-15878308D01*
X17531091Y-15878308D02*
X17550139Y-15849736D01*
X17550139Y-15849736D02*
X17559663Y-15840212D01*
X17616806Y-15868784D02*
X17740615Y-15868784D01*
X17740615Y-15868784D02*
X17673949Y-15944974D01*
X17673949Y-15944974D02*
X17702520Y-15944974D01*
X17702520Y-15944974D02*
X17721568Y-15954498D01*
X17721568Y-15954498D02*
X17731091Y-15964022D01*
X17731091Y-15964022D02*
X17740615Y-15983069D01*
X17740615Y-15983069D02*
X17740615Y-16030688D01*
X17740615Y-16030688D02*
X17731091Y-16049736D01*
X17731091Y-16049736D02*
X17721568Y-16059260D01*
X17721568Y-16059260D02*
X17702520Y-16068784D01*
X17702520Y-16068784D02*
X17645377Y-16068784D01*
X17645377Y-16068784D02*
X17626330Y-16059260D01*
X17626330Y-16059260D02*
X17616806Y-16049736D01*
X17978711Y-16068784D02*
X17978711Y-15868784D01*
X18064425Y-16068784D02*
X18064425Y-15964022D01*
X18064425Y-15964022D02*
X18054901Y-15944974D01*
X18054901Y-15944974D02*
X18035853Y-15935450D01*
X18035853Y-15935450D02*
X18007282Y-15935450D01*
X18007282Y-15935450D02*
X17988234Y-15944974D01*
X17988234Y-15944974D02*
X17978711Y-15954498D01*
X18188234Y-16068784D02*
X18169187Y-16059260D01*
X18169187Y-16059260D02*
X18159663Y-16049736D01*
X18159663Y-16049736D02*
X18150139Y-16030688D01*
X18150139Y-16030688D02*
X18150139Y-15973546D01*
X18150139Y-15973546D02*
X18159663Y-15954498D01*
X18159663Y-15954498D02*
X18169187Y-15944974D01*
X18169187Y-15944974D02*
X18188234Y-15935450D01*
X18188234Y-15935450D02*
X18216806Y-15935450D01*
X18216806Y-15935450D02*
X18235853Y-15944974D01*
X18235853Y-15944974D02*
X18245377Y-15954498D01*
X18245377Y-15954498D02*
X18254901Y-15973546D01*
X18254901Y-15973546D02*
X18254901Y-16030688D01*
X18254901Y-16030688D02*
X18245377Y-16049736D01*
X18245377Y-16049736D02*
X18235853Y-16059260D01*
X18235853Y-16059260D02*
X18216806Y-16068784D01*
X18216806Y-16068784D02*
X18188234Y-16068784D01*
X18369187Y-16068784D02*
X18350139Y-16059260D01*
X18350139Y-16059260D02*
X18340615Y-16040212D01*
X18340615Y-16040212D02*
X18340615Y-15868784D01*
X18521568Y-16059260D02*
X18502520Y-16068784D01*
X18502520Y-16068784D02*
X18464425Y-16068784D01*
X18464425Y-16068784D02*
X18445377Y-16059260D01*
X18445377Y-16059260D02*
X18435853Y-16040212D01*
X18435853Y-16040212D02*
X18435853Y-15964022D01*
X18435853Y-15964022D02*
X18445377Y-15944974D01*
X18445377Y-15944974D02*
X18464425Y-15935450D01*
X18464425Y-15935450D02*
X18502520Y-15935450D01*
X18502520Y-15935450D02*
X18521568Y-15944974D01*
X18521568Y-15944974D02*
X18531092Y-15964022D01*
X18531092Y-15964022D02*
X18531092Y-15983069D01*
X18531092Y-15983069D02*
X18435853Y-16002117D01*
X18607282Y-16059260D02*
X18626330Y-16068784D01*
X18626330Y-16068784D02*
X18664425Y-16068784D01*
X18664425Y-16068784D02*
X18683473Y-16059260D01*
X18683473Y-16059260D02*
X18692996Y-16040212D01*
X18692996Y-16040212D02*
X18692996Y-16030688D01*
X18692996Y-16030688D02*
X18683473Y-16011641D01*
X18683473Y-16011641D02*
X18664425Y-16002117D01*
X18664425Y-16002117D02*
X18635853Y-16002117D01*
X18635853Y-16002117D02*
X18616806Y-15992593D01*
X18616806Y-15992593D02*
X18607282Y-15973546D01*
X18607282Y-15973546D02*
X18607282Y-15964022D01*
X18607282Y-15964022D02*
X18616806Y-15944974D01*
X18616806Y-15944974D02*
X18635853Y-15935450D01*
X18635853Y-15935450D02*
X18664425Y-15935450D01*
X18664425Y-15935450D02*
X18683473Y-15944974D01*
X18759663Y-16144974D02*
X18769187Y-16135450D01*
X18769187Y-16135450D02*
X18788234Y-16106879D01*
X18788234Y-16106879D02*
X18797758Y-16087831D01*
X18797758Y-16087831D02*
X18807282Y-16059260D01*
X18807282Y-16059260D02*
X18816806Y-16011641D01*
X18816806Y-16011641D02*
X18816806Y-15973546D01*
X18816806Y-15973546D02*
X18807282Y-15925927D01*
X18807282Y-15925927D02*
X18797758Y-15897355D01*
X18797758Y-15897355D02*
X18788234Y-15878308D01*
X18788234Y-15878308D02*
X18769187Y-15849736D01*
X18769187Y-15849736D02*
X18759663Y-15840212D01*
D10*
X13947100Y-16203800D02*
X13947100Y-16278800D01*
X13909600Y-16241300D02*
X13984600Y-16241300D01*
D11*
X14283472Y-16132784D02*
X14302520Y-16132784D01*
X14302520Y-16132784D02*
X14321567Y-16142308D01*
X14321567Y-16142308D02*
X14331091Y-16151831D01*
X14331091Y-16151831D02*
X14340615Y-16170879D01*
X14340615Y-16170879D02*
X14350139Y-16208974D01*
X14350139Y-16208974D02*
X14350139Y-16256593D01*
X14350139Y-16256593D02*
X14340615Y-16294688D01*
X14340615Y-16294688D02*
X14331091Y-16313736D01*
X14331091Y-16313736D02*
X14321567Y-16323260D01*
X14321567Y-16323260D02*
X14302520Y-16332784D01*
X14302520Y-16332784D02*
X14283472Y-16332784D01*
X14283472Y-16332784D02*
X14264424Y-16323260D01*
X14264424Y-16323260D02*
X14254901Y-16313736D01*
X14254901Y-16313736D02*
X14245377Y-16294688D01*
X14245377Y-16294688D02*
X14235853Y-16256593D01*
X14235853Y-16256593D02*
X14235853Y-16208974D01*
X14235853Y-16208974D02*
X14245377Y-16170879D01*
X14245377Y-16170879D02*
X14254901Y-16151831D01*
X14254901Y-16151831D02*
X14264424Y-16142308D01*
X14264424Y-16142308D02*
X14283472Y-16132784D01*
X14435853Y-16313736D02*
X14445377Y-16323260D01*
X14445377Y-16323260D02*
X14435853Y-16332784D01*
X14435853Y-16332784D02*
X14426329Y-16323260D01*
X14426329Y-16323260D02*
X14435853Y-16313736D01*
X14435853Y-16313736D02*
X14435853Y-16332784D01*
X14512043Y-16132784D02*
X14645377Y-16132784D01*
X14645377Y-16132784D02*
X14559662Y-16332784D01*
X14816805Y-16132784D02*
X14721567Y-16132784D01*
X14721567Y-16132784D02*
X14712043Y-16228022D01*
X14712043Y-16228022D02*
X14721567Y-16218498D01*
X14721567Y-16218498D02*
X14740615Y-16208974D01*
X14740615Y-16208974D02*
X14788234Y-16208974D01*
X14788234Y-16208974D02*
X14807282Y-16218498D01*
X14807282Y-16218498D02*
X14816805Y-16228022D01*
X14816805Y-16228022D02*
X14826329Y-16247069D01*
X14826329Y-16247069D02*
X14826329Y-16294688D01*
X14826329Y-16294688D02*
X14816805Y-16313736D01*
X14816805Y-16313736D02*
X14807282Y-16323260D01*
X14807282Y-16323260D02*
X14788234Y-16332784D01*
X14788234Y-16332784D02*
X14740615Y-16332784D01*
X14740615Y-16332784D02*
X14721567Y-16323260D01*
X14721567Y-16323260D02*
X14712043Y-16313736D01*
X14950139Y-16132784D02*
X14969186Y-16132784D01*
X14969186Y-16132784D02*
X14988234Y-16142308D01*
X14988234Y-16142308D02*
X14997758Y-16151831D01*
X14997758Y-16151831D02*
X15007282Y-16170879D01*
X15007282Y-16170879D02*
X15016805Y-16208974D01*
X15016805Y-16208974D02*
X15016805Y-16256593D01*
X15016805Y-16256593D02*
X15007282Y-16294688D01*
X15007282Y-16294688D02*
X14997758Y-16313736D01*
X14997758Y-16313736D02*
X14988234Y-16323260D01*
X14988234Y-16323260D02*
X14969186Y-16332784D01*
X14969186Y-16332784D02*
X14950139Y-16332784D01*
X14950139Y-16332784D02*
X14931091Y-16323260D01*
X14931091Y-16323260D02*
X14921567Y-16313736D01*
X14921567Y-16313736D02*
X14912043Y-16294688D01*
X14912043Y-16294688D02*
X14902520Y-16256593D01*
X14902520Y-16256593D02*
X14902520Y-16208974D01*
X14902520Y-16208974D02*
X14912043Y-16170879D01*
X14912043Y-16170879D02*
X14921567Y-16151831D01*
X14921567Y-16151831D02*
X14931091Y-16142308D01*
X14931091Y-16142308D02*
X14950139Y-16132784D01*
X15102520Y-16332784D02*
X15102520Y-16199450D01*
X15102520Y-16218498D02*
X15112043Y-16208974D01*
X15112043Y-16208974D02*
X15131091Y-16199450D01*
X15131091Y-16199450D02*
X15159663Y-16199450D01*
X15159663Y-16199450D02*
X15178710Y-16208974D01*
X15178710Y-16208974D02*
X15188234Y-16228022D01*
X15188234Y-16228022D02*
X15188234Y-16332784D01*
X15188234Y-16228022D02*
X15197758Y-16208974D01*
X15197758Y-16208974D02*
X15216805Y-16199450D01*
X15216805Y-16199450D02*
X15245377Y-16199450D01*
X15245377Y-16199450D02*
X15264424Y-16208974D01*
X15264424Y-16208974D02*
X15273948Y-16228022D01*
X15273948Y-16228022D02*
X15273948Y-16332784D01*
X15369186Y-16332784D02*
X15369186Y-16199450D01*
X15369186Y-16218498D02*
X15378710Y-16208974D01*
X15378710Y-16208974D02*
X15397758Y-16199450D01*
X15397758Y-16199450D02*
X15426329Y-16199450D01*
X15426329Y-16199450D02*
X15445377Y-16208974D01*
X15445377Y-16208974D02*
X15454901Y-16228022D01*
X15454901Y-16228022D02*
X15454901Y-16332784D01*
X15454901Y-16228022D02*
X15464424Y-16208974D01*
X15464424Y-16208974D02*
X15483472Y-16199450D01*
X15483472Y-16199450D02*
X15512043Y-16199450D01*
X15512043Y-16199450D02*
X15531091Y-16208974D01*
X15531091Y-16208974D02*
X15540615Y-16228022D01*
X15540615Y-16228022D02*
X15540615Y-16332784D01*
X15931091Y-16123260D02*
X15759663Y-16380403D01*
X16188234Y-16132784D02*
X16207282Y-16132784D01*
X16207282Y-16132784D02*
X16226329Y-16142308D01*
X16226329Y-16142308D02*
X16235853Y-16151831D01*
X16235853Y-16151831D02*
X16245377Y-16170879D01*
X16245377Y-16170879D02*
X16254901Y-16208974D01*
X16254901Y-16208974D02*
X16254901Y-16256593D01*
X16254901Y-16256593D02*
X16245377Y-16294688D01*
X16245377Y-16294688D02*
X16235853Y-16313736D01*
X16235853Y-16313736D02*
X16226329Y-16323260D01*
X16226329Y-16323260D02*
X16207282Y-16332784D01*
X16207282Y-16332784D02*
X16188234Y-16332784D01*
X16188234Y-16332784D02*
X16169186Y-16323260D01*
X16169186Y-16323260D02*
X16159663Y-16313736D01*
X16159663Y-16313736D02*
X16150139Y-16294688D01*
X16150139Y-16294688D02*
X16140615Y-16256593D01*
X16140615Y-16256593D02*
X16140615Y-16208974D01*
X16140615Y-16208974D02*
X16150139Y-16170879D01*
X16150139Y-16170879D02*
X16159663Y-16151831D01*
X16159663Y-16151831D02*
X16169186Y-16142308D01*
X16169186Y-16142308D02*
X16188234Y-16132784D01*
X16340615Y-16313736D02*
X16350139Y-16323260D01*
X16350139Y-16323260D02*
X16340615Y-16332784D01*
X16340615Y-16332784D02*
X16331091Y-16323260D01*
X16331091Y-16323260D02*
X16340615Y-16313736D01*
X16340615Y-16313736D02*
X16340615Y-16332784D01*
X16473948Y-16132784D02*
X16492996Y-16132784D01*
X16492996Y-16132784D02*
X16512044Y-16142308D01*
X16512044Y-16142308D02*
X16521567Y-16151831D01*
X16521567Y-16151831D02*
X16531091Y-16170879D01*
X16531091Y-16170879D02*
X16540615Y-16208974D01*
X16540615Y-16208974D02*
X16540615Y-16256593D01*
X16540615Y-16256593D02*
X16531091Y-16294688D01*
X16531091Y-16294688D02*
X16521567Y-16313736D01*
X16521567Y-16313736D02*
X16512044Y-16323260D01*
X16512044Y-16323260D02*
X16492996Y-16332784D01*
X16492996Y-16332784D02*
X16473948Y-16332784D01*
X16473948Y-16332784D02*
X16454901Y-16323260D01*
X16454901Y-16323260D02*
X16445377Y-16313736D01*
X16445377Y-16313736D02*
X16435853Y-16294688D01*
X16435853Y-16294688D02*
X16426329Y-16256593D01*
X16426329Y-16256593D02*
X16426329Y-16208974D01*
X16426329Y-16208974D02*
X16435853Y-16170879D01*
X16435853Y-16170879D02*
X16445377Y-16151831D01*
X16445377Y-16151831D02*
X16454901Y-16142308D01*
X16454901Y-16142308D02*
X16473948Y-16132784D01*
X16616806Y-16151831D02*
X16626329Y-16142308D01*
X16626329Y-16142308D02*
X16645377Y-16132784D01*
X16645377Y-16132784D02*
X16692996Y-16132784D01*
X16692996Y-16132784D02*
X16712044Y-16142308D01*
X16712044Y-16142308D02*
X16721567Y-16151831D01*
X16721567Y-16151831D02*
X16731091Y-16170879D01*
X16731091Y-16170879D02*
X16731091Y-16189927D01*
X16731091Y-16189927D02*
X16721567Y-16218498D01*
X16721567Y-16218498D02*
X16607282Y-16332784D01*
X16607282Y-16332784D02*
X16731091Y-16332784D01*
X16826329Y-16332784D02*
X16864425Y-16332784D01*
X16864425Y-16332784D02*
X16883472Y-16323260D01*
X16883472Y-16323260D02*
X16892996Y-16313736D01*
X16892996Y-16313736D02*
X16912044Y-16285165D01*
X16912044Y-16285165D02*
X16921568Y-16247069D01*
X16921568Y-16247069D02*
X16921568Y-16170879D01*
X16921568Y-16170879D02*
X16912044Y-16151831D01*
X16912044Y-16151831D02*
X16902520Y-16142308D01*
X16902520Y-16142308D02*
X16883472Y-16132784D01*
X16883472Y-16132784D02*
X16845377Y-16132784D01*
X16845377Y-16132784D02*
X16826329Y-16142308D01*
X16826329Y-16142308D02*
X16816806Y-16151831D01*
X16816806Y-16151831D02*
X16807282Y-16170879D01*
X16807282Y-16170879D02*
X16807282Y-16218498D01*
X16807282Y-16218498D02*
X16816806Y-16237546D01*
X16816806Y-16237546D02*
X16826329Y-16247069D01*
X16826329Y-16247069D02*
X16845377Y-16256593D01*
X16845377Y-16256593D02*
X16883472Y-16256593D01*
X16883472Y-16256593D02*
X16902520Y-16247069D01*
X16902520Y-16247069D02*
X16912044Y-16237546D01*
X16912044Y-16237546D02*
X16921568Y-16218498D01*
X17102520Y-16132784D02*
X17007282Y-16132784D01*
X17007282Y-16132784D02*
X16997758Y-16228022D01*
X16997758Y-16228022D02*
X17007282Y-16218498D01*
X17007282Y-16218498D02*
X17026329Y-16208974D01*
X17026329Y-16208974D02*
X17073949Y-16208974D01*
X17073949Y-16208974D02*
X17092996Y-16218498D01*
X17092996Y-16218498D02*
X17102520Y-16228022D01*
X17102520Y-16228022D02*
X17112044Y-16247069D01*
X17112044Y-16247069D02*
X17112044Y-16294688D01*
X17112044Y-16294688D02*
X17102520Y-16313736D01*
X17102520Y-16313736D02*
X17092996Y-16323260D01*
X17092996Y-16323260D02*
X17073949Y-16332784D01*
X17073949Y-16332784D02*
X17026329Y-16332784D01*
X17026329Y-16332784D02*
X17007282Y-16323260D01*
X17007282Y-16323260D02*
X16997758Y-16313736D01*
X17188234Y-16132784D02*
X17188234Y-16170879D01*
X17264425Y-16132784D02*
X17264425Y-16170879D01*
X17559663Y-16408974D02*
X17550139Y-16399450D01*
X17550139Y-16399450D02*
X17531091Y-16370879D01*
X17531091Y-16370879D02*
X17521568Y-16351831D01*
X17521568Y-16351831D02*
X17512044Y-16323260D01*
X17512044Y-16323260D02*
X17502520Y-16275641D01*
X17502520Y-16275641D02*
X17502520Y-16237546D01*
X17502520Y-16237546D02*
X17512044Y-16189927D01*
X17512044Y-16189927D02*
X17521568Y-16161355D01*
X17521568Y-16161355D02*
X17531091Y-16142308D01*
X17531091Y-16142308D02*
X17550139Y-16113736D01*
X17550139Y-16113736D02*
X17559663Y-16104212D01*
X17626330Y-16151831D02*
X17635853Y-16142308D01*
X17635853Y-16142308D02*
X17654901Y-16132784D01*
X17654901Y-16132784D02*
X17702520Y-16132784D01*
X17702520Y-16132784D02*
X17721568Y-16142308D01*
X17721568Y-16142308D02*
X17731091Y-16151831D01*
X17731091Y-16151831D02*
X17740615Y-16170879D01*
X17740615Y-16170879D02*
X17740615Y-16189927D01*
X17740615Y-16189927D02*
X17731091Y-16218498D01*
X17731091Y-16218498D02*
X17616806Y-16332784D01*
X17616806Y-16332784D02*
X17740615Y-16332784D01*
X17978711Y-16332784D02*
X17978711Y-16132784D01*
X18064425Y-16332784D02*
X18064425Y-16228022D01*
X18064425Y-16228022D02*
X18054901Y-16208974D01*
X18054901Y-16208974D02*
X18035853Y-16199450D01*
X18035853Y-16199450D02*
X18007282Y-16199450D01*
X18007282Y-16199450D02*
X17988234Y-16208974D01*
X17988234Y-16208974D02*
X17978711Y-16218498D01*
X18188234Y-16332784D02*
X18169187Y-16323260D01*
X18169187Y-16323260D02*
X18159663Y-16313736D01*
X18159663Y-16313736D02*
X18150139Y-16294688D01*
X18150139Y-16294688D02*
X18150139Y-16237546D01*
X18150139Y-16237546D02*
X18159663Y-16218498D01*
X18159663Y-16218498D02*
X18169187Y-16208974D01*
X18169187Y-16208974D02*
X18188234Y-16199450D01*
X18188234Y-16199450D02*
X18216806Y-16199450D01*
X18216806Y-16199450D02*
X18235853Y-16208974D01*
X18235853Y-16208974D02*
X18245377Y-16218498D01*
X18245377Y-16218498D02*
X18254901Y-16237546D01*
X18254901Y-16237546D02*
X18254901Y-16294688D01*
X18254901Y-16294688D02*
X18245377Y-16313736D01*
X18245377Y-16313736D02*
X18235853Y-16323260D01*
X18235853Y-16323260D02*
X18216806Y-16332784D01*
X18216806Y-16332784D02*
X18188234Y-16332784D01*
X18369187Y-16332784D02*
X18350139Y-16323260D01*
X18350139Y-16323260D02*
X18340615Y-16304212D01*
X18340615Y-16304212D02*
X18340615Y-16132784D01*
X18521568Y-16323260D02*
X18502520Y-16332784D01*
X18502520Y-16332784D02*
X18464425Y-16332784D01*
X18464425Y-16332784D02*
X18445377Y-16323260D01*
X18445377Y-16323260D02*
X18435853Y-16304212D01*
X18435853Y-16304212D02*
X18435853Y-16228022D01*
X18435853Y-16228022D02*
X18445377Y-16208974D01*
X18445377Y-16208974D02*
X18464425Y-16199450D01*
X18464425Y-16199450D02*
X18502520Y-16199450D01*
X18502520Y-16199450D02*
X18521568Y-16208974D01*
X18521568Y-16208974D02*
X18531092Y-16228022D01*
X18531092Y-16228022D02*
X18531092Y-16247069D01*
X18531092Y-16247069D02*
X18435853Y-16266117D01*
X18607282Y-16323260D02*
X18626330Y-16332784D01*
X18626330Y-16332784D02*
X18664425Y-16332784D01*
X18664425Y-16332784D02*
X18683473Y-16323260D01*
X18683473Y-16323260D02*
X18692996Y-16304212D01*
X18692996Y-16304212D02*
X18692996Y-16294688D01*
X18692996Y-16294688D02*
X18683473Y-16275641D01*
X18683473Y-16275641D02*
X18664425Y-16266117D01*
X18664425Y-16266117D02*
X18635853Y-16266117D01*
X18635853Y-16266117D02*
X18616806Y-16256593D01*
X18616806Y-16256593D02*
X18607282Y-16237546D01*
X18607282Y-16237546D02*
X18607282Y-16228022D01*
X18607282Y-16228022D02*
X18616806Y-16208974D01*
X18616806Y-16208974D02*
X18635853Y-16199450D01*
X18635853Y-16199450D02*
X18664425Y-16199450D01*
X18664425Y-16199450D02*
X18683473Y-16208974D01*
X18759663Y-16408974D02*
X18769187Y-16399450D01*
X18769187Y-16399450D02*
X18788234Y-16370879D01*
X18788234Y-16370879D02*
X18797758Y-16351831D01*
X18797758Y-16351831D02*
X18807282Y-16323260D01*
X18807282Y-16323260D02*
X18816806Y-16275641D01*
X18816806Y-16275641D02*
X18816806Y-16237546D01*
X18816806Y-16237546D02*
X18807282Y-16189927D01*
X18807282Y-16189927D02*
X18797758Y-16161355D01*
X18797758Y-16161355D02*
X18788234Y-16142308D01*
X18788234Y-16142308D02*
X18769187Y-16113736D01*
X18769187Y-16113736D02*
X18759663Y-16104212D01*
D10*
X13972884Y-16533584D02*
X13972884Y-16477015D01*
X13916315Y-16477015D01*
X13916315Y-16533584D01*
X13972884Y-16533584D01*
D11*
X14283472Y-16396784D02*
X14302520Y-16396784D01*
X14302520Y-16396784D02*
X14321567Y-16406308D01*
X14321567Y-16406308D02*
X14331091Y-16415831D01*
X14331091Y-16415831D02*
X14340615Y-16434879D01*
X14340615Y-16434879D02*
X14350139Y-16472974D01*
X14350139Y-16472974D02*
X14350139Y-16520593D01*
X14350139Y-16520593D02*
X14340615Y-16558688D01*
X14340615Y-16558688D02*
X14331091Y-16577736D01*
X14331091Y-16577736D02*
X14321567Y-16587260D01*
X14321567Y-16587260D02*
X14302520Y-16596784D01*
X14302520Y-16596784D02*
X14283472Y-16596784D01*
X14283472Y-16596784D02*
X14264424Y-16587260D01*
X14264424Y-16587260D02*
X14254901Y-16577736D01*
X14254901Y-16577736D02*
X14245377Y-16558688D01*
X14245377Y-16558688D02*
X14235853Y-16520593D01*
X14235853Y-16520593D02*
X14235853Y-16472974D01*
X14235853Y-16472974D02*
X14245377Y-16434879D01*
X14245377Y-16434879D02*
X14254901Y-16415831D01*
X14254901Y-16415831D02*
X14264424Y-16406308D01*
X14264424Y-16406308D02*
X14283472Y-16396784D01*
X14435853Y-16577736D02*
X14445377Y-16587260D01*
X14445377Y-16587260D02*
X14435853Y-16596784D01*
X14435853Y-16596784D02*
X14426329Y-16587260D01*
X14426329Y-16587260D02*
X14435853Y-16577736D01*
X14435853Y-16577736D02*
X14435853Y-16596784D01*
X14559662Y-16482498D02*
X14540615Y-16472974D01*
X14540615Y-16472974D02*
X14531091Y-16463450D01*
X14531091Y-16463450D02*
X14521567Y-16444403D01*
X14521567Y-16444403D02*
X14521567Y-16434879D01*
X14521567Y-16434879D02*
X14531091Y-16415831D01*
X14531091Y-16415831D02*
X14540615Y-16406308D01*
X14540615Y-16406308D02*
X14559662Y-16396784D01*
X14559662Y-16396784D02*
X14597758Y-16396784D01*
X14597758Y-16396784D02*
X14616805Y-16406308D01*
X14616805Y-16406308D02*
X14626329Y-16415831D01*
X14626329Y-16415831D02*
X14635853Y-16434879D01*
X14635853Y-16434879D02*
X14635853Y-16444403D01*
X14635853Y-16444403D02*
X14626329Y-16463450D01*
X14626329Y-16463450D02*
X14616805Y-16472974D01*
X14616805Y-16472974D02*
X14597758Y-16482498D01*
X14597758Y-16482498D02*
X14559662Y-16482498D01*
X14559662Y-16482498D02*
X14540615Y-16492022D01*
X14540615Y-16492022D02*
X14531091Y-16501546D01*
X14531091Y-16501546D02*
X14521567Y-16520593D01*
X14521567Y-16520593D02*
X14521567Y-16558688D01*
X14521567Y-16558688D02*
X14531091Y-16577736D01*
X14531091Y-16577736D02*
X14540615Y-16587260D01*
X14540615Y-16587260D02*
X14559662Y-16596784D01*
X14559662Y-16596784D02*
X14597758Y-16596784D01*
X14597758Y-16596784D02*
X14616805Y-16587260D01*
X14616805Y-16587260D02*
X14626329Y-16577736D01*
X14626329Y-16577736D02*
X14635853Y-16558688D01*
X14635853Y-16558688D02*
X14635853Y-16520593D01*
X14635853Y-16520593D02*
X14626329Y-16501546D01*
X14626329Y-16501546D02*
X14616805Y-16492022D01*
X14616805Y-16492022D02*
X14597758Y-16482498D01*
X14759662Y-16396784D02*
X14778710Y-16396784D01*
X14778710Y-16396784D02*
X14797758Y-16406308D01*
X14797758Y-16406308D02*
X14807282Y-16415831D01*
X14807282Y-16415831D02*
X14816805Y-16434879D01*
X14816805Y-16434879D02*
X14826329Y-16472974D01*
X14826329Y-16472974D02*
X14826329Y-16520593D01*
X14826329Y-16520593D02*
X14816805Y-16558688D01*
X14816805Y-16558688D02*
X14807282Y-16577736D01*
X14807282Y-16577736D02*
X14797758Y-16587260D01*
X14797758Y-16587260D02*
X14778710Y-16596784D01*
X14778710Y-16596784D02*
X14759662Y-16596784D01*
X14759662Y-16596784D02*
X14740615Y-16587260D01*
X14740615Y-16587260D02*
X14731091Y-16577736D01*
X14731091Y-16577736D02*
X14721567Y-16558688D01*
X14721567Y-16558688D02*
X14712043Y-16520593D01*
X14712043Y-16520593D02*
X14712043Y-16472974D01*
X14712043Y-16472974D02*
X14721567Y-16434879D01*
X14721567Y-16434879D02*
X14731091Y-16415831D01*
X14731091Y-16415831D02*
X14740615Y-16406308D01*
X14740615Y-16406308D02*
X14759662Y-16396784D01*
X14950139Y-16396784D02*
X14969186Y-16396784D01*
X14969186Y-16396784D02*
X14988234Y-16406308D01*
X14988234Y-16406308D02*
X14997758Y-16415831D01*
X14997758Y-16415831D02*
X15007282Y-16434879D01*
X15007282Y-16434879D02*
X15016805Y-16472974D01*
X15016805Y-16472974D02*
X15016805Y-16520593D01*
X15016805Y-16520593D02*
X15007282Y-16558688D01*
X15007282Y-16558688D02*
X14997758Y-16577736D01*
X14997758Y-16577736D02*
X14988234Y-16587260D01*
X14988234Y-16587260D02*
X14969186Y-16596784D01*
X14969186Y-16596784D02*
X14950139Y-16596784D01*
X14950139Y-16596784D02*
X14931091Y-16587260D01*
X14931091Y-16587260D02*
X14921567Y-16577736D01*
X14921567Y-16577736D02*
X14912043Y-16558688D01*
X14912043Y-16558688D02*
X14902520Y-16520593D01*
X14902520Y-16520593D02*
X14902520Y-16472974D01*
X14902520Y-16472974D02*
X14912043Y-16434879D01*
X14912043Y-16434879D02*
X14921567Y-16415831D01*
X14921567Y-16415831D02*
X14931091Y-16406308D01*
X14931091Y-16406308D02*
X14950139Y-16396784D01*
X15102520Y-16596784D02*
X15102520Y-16463450D01*
X15102520Y-16482498D02*
X15112043Y-16472974D01*
X15112043Y-16472974D02*
X15131091Y-16463450D01*
X15131091Y-16463450D02*
X15159663Y-16463450D01*
X15159663Y-16463450D02*
X15178710Y-16472974D01*
X15178710Y-16472974D02*
X15188234Y-16492022D01*
X15188234Y-16492022D02*
X15188234Y-16596784D01*
X15188234Y-16492022D02*
X15197758Y-16472974D01*
X15197758Y-16472974D02*
X15216805Y-16463450D01*
X15216805Y-16463450D02*
X15245377Y-16463450D01*
X15245377Y-16463450D02*
X15264424Y-16472974D01*
X15264424Y-16472974D02*
X15273948Y-16492022D01*
X15273948Y-16492022D02*
X15273948Y-16596784D01*
X15369186Y-16596784D02*
X15369186Y-16463450D01*
X15369186Y-16482498D02*
X15378710Y-16472974D01*
X15378710Y-16472974D02*
X15397758Y-16463450D01*
X15397758Y-16463450D02*
X15426329Y-16463450D01*
X15426329Y-16463450D02*
X15445377Y-16472974D01*
X15445377Y-16472974D02*
X15454901Y-16492022D01*
X15454901Y-16492022D02*
X15454901Y-16596784D01*
X15454901Y-16492022D02*
X15464424Y-16472974D01*
X15464424Y-16472974D02*
X15483472Y-16463450D01*
X15483472Y-16463450D02*
X15512043Y-16463450D01*
X15512043Y-16463450D02*
X15531091Y-16472974D01*
X15531091Y-16472974D02*
X15540615Y-16492022D01*
X15540615Y-16492022D02*
X15540615Y-16596784D01*
X15931091Y-16387260D02*
X15759663Y-16644403D01*
X16188234Y-16396784D02*
X16207282Y-16396784D01*
X16207282Y-16396784D02*
X16226329Y-16406308D01*
X16226329Y-16406308D02*
X16235853Y-16415831D01*
X16235853Y-16415831D02*
X16245377Y-16434879D01*
X16245377Y-16434879D02*
X16254901Y-16472974D01*
X16254901Y-16472974D02*
X16254901Y-16520593D01*
X16254901Y-16520593D02*
X16245377Y-16558688D01*
X16245377Y-16558688D02*
X16235853Y-16577736D01*
X16235853Y-16577736D02*
X16226329Y-16587260D01*
X16226329Y-16587260D02*
X16207282Y-16596784D01*
X16207282Y-16596784D02*
X16188234Y-16596784D01*
X16188234Y-16596784D02*
X16169186Y-16587260D01*
X16169186Y-16587260D02*
X16159663Y-16577736D01*
X16159663Y-16577736D02*
X16150139Y-16558688D01*
X16150139Y-16558688D02*
X16140615Y-16520593D01*
X16140615Y-16520593D02*
X16140615Y-16472974D01*
X16140615Y-16472974D02*
X16150139Y-16434879D01*
X16150139Y-16434879D02*
X16159663Y-16415831D01*
X16159663Y-16415831D02*
X16169186Y-16406308D01*
X16169186Y-16406308D02*
X16188234Y-16396784D01*
X16340615Y-16577736D02*
X16350139Y-16587260D01*
X16350139Y-16587260D02*
X16340615Y-16596784D01*
X16340615Y-16596784D02*
X16331091Y-16587260D01*
X16331091Y-16587260D02*
X16340615Y-16577736D01*
X16340615Y-16577736D02*
X16340615Y-16596784D01*
X16473948Y-16396784D02*
X16492996Y-16396784D01*
X16492996Y-16396784D02*
X16512044Y-16406308D01*
X16512044Y-16406308D02*
X16521567Y-16415831D01*
X16521567Y-16415831D02*
X16531091Y-16434879D01*
X16531091Y-16434879D02*
X16540615Y-16472974D01*
X16540615Y-16472974D02*
X16540615Y-16520593D01*
X16540615Y-16520593D02*
X16531091Y-16558688D01*
X16531091Y-16558688D02*
X16521567Y-16577736D01*
X16521567Y-16577736D02*
X16512044Y-16587260D01*
X16512044Y-16587260D02*
X16492996Y-16596784D01*
X16492996Y-16596784D02*
X16473948Y-16596784D01*
X16473948Y-16596784D02*
X16454901Y-16587260D01*
X16454901Y-16587260D02*
X16445377Y-16577736D01*
X16445377Y-16577736D02*
X16435853Y-16558688D01*
X16435853Y-16558688D02*
X16426329Y-16520593D01*
X16426329Y-16520593D02*
X16426329Y-16472974D01*
X16426329Y-16472974D02*
X16435853Y-16434879D01*
X16435853Y-16434879D02*
X16445377Y-16415831D01*
X16445377Y-16415831D02*
X16454901Y-16406308D01*
X16454901Y-16406308D02*
X16473948Y-16396784D01*
X16607282Y-16396784D02*
X16731091Y-16396784D01*
X16731091Y-16396784D02*
X16664425Y-16472974D01*
X16664425Y-16472974D02*
X16692996Y-16472974D01*
X16692996Y-16472974D02*
X16712044Y-16482498D01*
X16712044Y-16482498D02*
X16721567Y-16492022D01*
X16721567Y-16492022D02*
X16731091Y-16511069D01*
X16731091Y-16511069D02*
X16731091Y-16558688D01*
X16731091Y-16558688D02*
X16721567Y-16577736D01*
X16721567Y-16577736D02*
X16712044Y-16587260D01*
X16712044Y-16587260D02*
X16692996Y-16596784D01*
X16692996Y-16596784D02*
X16635853Y-16596784D01*
X16635853Y-16596784D02*
X16616806Y-16587260D01*
X16616806Y-16587260D02*
X16607282Y-16577736D01*
X16921568Y-16596784D02*
X16807282Y-16596784D01*
X16864425Y-16596784D02*
X16864425Y-16396784D01*
X16864425Y-16396784D02*
X16845377Y-16425355D01*
X16845377Y-16425355D02*
X16826329Y-16444403D01*
X16826329Y-16444403D02*
X16807282Y-16453927D01*
X17102520Y-16396784D02*
X17007282Y-16396784D01*
X17007282Y-16396784D02*
X16997758Y-16492022D01*
X16997758Y-16492022D02*
X17007282Y-16482498D01*
X17007282Y-16482498D02*
X17026329Y-16472974D01*
X17026329Y-16472974D02*
X17073949Y-16472974D01*
X17073949Y-16472974D02*
X17092996Y-16482498D01*
X17092996Y-16482498D02*
X17102520Y-16492022D01*
X17102520Y-16492022D02*
X17112044Y-16511069D01*
X17112044Y-16511069D02*
X17112044Y-16558688D01*
X17112044Y-16558688D02*
X17102520Y-16577736D01*
X17102520Y-16577736D02*
X17092996Y-16587260D01*
X17092996Y-16587260D02*
X17073949Y-16596784D01*
X17073949Y-16596784D02*
X17026329Y-16596784D01*
X17026329Y-16596784D02*
X17007282Y-16587260D01*
X17007282Y-16587260D02*
X16997758Y-16577736D01*
X17188234Y-16396784D02*
X17188234Y-16434879D01*
X17264425Y-16396784D02*
X17264425Y-16434879D01*
X17559663Y-16672974D02*
X17550139Y-16663450D01*
X17550139Y-16663450D02*
X17531091Y-16634879D01*
X17531091Y-16634879D02*
X17521568Y-16615831D01*
X17521568Y-16615831D02*
X17512044Y-16587260D01*
X17512044Y-16587260D02*
X17502520Y-16539641D01*
X17502520Y-16539641D02*
X17502520Y-16501546D01*
X17502520Y-16501546D02*
X17512044Y-16453927D01*
X17512044Y-16453927D02*
X17521568Y-16425355D01*
X17521568Y-16425355D02*
X17531091Y-16406308D01*
X17531091Y-16406308D02*
X17550139Y-16377736D01*
X17550139Y-16377736D02*
X17559663Y-16368212D01*
X17626330Y-16415831D02*
X17635853Y-16406308D01*
X17635853Y-16406308D02*
X17654901Y-16396784D01*
X17654901Y-16396784D02*
X17702520Y-16396784D01*
X17702520Y-16396784D02*
X17721568Y-16406308D01*
X17721568Y-16406308D02*
X17731091Y-16415831D01*
X17731091Y-16415831D02*
X17740615Y-16434879D01*
X17740615Y-16434879D02*
X17740615Y-16453927D01*
X17740615Y-16453927D02*
X17731091Y-16482498D01*
X17731091Y-16482498D02*
X17616806Y-16596784D01*
X17616806Y-16596784D02*
X17740615Y-16596784D01*
X17978711Y-16596784D02*
X17978711Y-16396784D01*
X18064425Y-16596784D02*
X18064425Y-16492022D01*
X18064425Y-16492022D02*
X18054901Y-16472974D01*
X18054901Y-16472974D02*
X18035853Y-16463450D01*
X18035853Y-16463450D02*
X18007282Y-16463450D01*
X18007282Y-16463450D02*
X17988234Y-16472974D01*
X17988234Y-16472974D02*
X17978711Y-16482498D01*
X18188234Y-16596784D02*
X18169187Y-16587260D01*
X18169187Y-16587260D02*
X18159663Y-16577736D01*
X18159663Y-16577736D02*
X18150139Y-16558688D01*
X18150139Y-16558688D02*
X18150139Y-16501546D01*
X18150139Y-16501546D02*
X18159663Y-16482498D01*
X18159663Y-16482498D02*
X18169187Y-16472974D01*
X18169187Y-16472974D02*
X18188234Y-16463450D01*
X18188234Y-16463450D02*
X18216806Y-16463450D01*
X18216806Y-16463450D02*
X18235853Y-16472974D01*
X18235853Y-16472974D02*
X18245377Y-16482498D01*
X18245377Y-16482498D02*
X18254901Y-16501546D01*
X18254901Y-16501546D02*
X18254901Y-16558688D01*
X18254901Y-16558688D02*
X18245377Y-16577736D01*
X18245377Y-16577736D02*
X18235853Y-16587260D01*
X18235853Y-16587260D02*
X18216806Y-16596784D01*
X18216806Y-16596784D02*
X18188234Y-16596784D01*
X18369187Y-16596784D02*
X18350139Y-16587260D01*
X18350139Y-16587260D02*
X18340615Y-16568212D01*
X18340615Y-16568212D02*
X18340615Y-16396784D01*
X18521568Y-16587260D02*
X18502520Y-16596784D01*
X18502520Y-16596784D02*
X18464425Y-16596784D01*
X18464425Y-16596784D02*
X18445377Y-16587260D01*
X18445377Y-16587260D02*
X18435853Y-16568212D01*
X18435853Y-16568212D02*
X18435853Y-16492022D01*
X18435853Y-16492022D02*
X18445377Y-16472974D01*
X18445377Y-16472974D02*
X18464425Y-16463450D01*
X18464425Y-16463450D02*
X18502520Y-16463450D01*
X18502520Y-16463450D02*
X18521568Y-16472974D01*
X18521568Y-16472974D02*
X18531092Y-16492022D01*
X18531092Y-16492022D02*
X18531092Y-16511069D01*
X18531092Y-16511069D02*
X18435853Y-16530117D01*
X18607282Y-16587260D02*
X18626330Y-16596784D01*
X18626330Y-16596784D02*
X18664425Y-16596784D01*
X18664425Y-16596784D02*
X18683473Y-16587260D01*
X18683473Y-16587260D02*
X18692996Y-16568212D01*
X18692996Y-16568212D02*
X18692996Y-16558688D01*
X18692996Y-16558688D02*
X18683473Y-16539641D01*
X18683473Y-16539641D02*
X18664425Y-16530117D01*
X18664425Y-16530117D02*
X18635853Y-16530117D01*
X18635853Y-16530117D02*
X18616806Y-16520593D01*
X18616806Y-16520593D02*
X18607282Y-16501546D01*
X18607282Y-16501546D02*
X18607282Y-16492022D01*
X18607282Y-16492022D02*
X18616806Y-16472974D01*
X18616806Y-16472974D02*
X18635853Y-16463450D01*
X18635853Y-16463450D02*
X18664425Y-16463450D01*
X18664425Y-16463450D02*
X18683473Y-16472974D01*
X18759663Y-16672974D02*
X18769187Y-16663450D01*
X18769187Y-16663450D02*
X18788234Y-16634879D01*
X18788234Y-16634879D02*
X18797758Y-16615831D01*
X18797758Y-16615831D02*
X18807282Y-16587260D01*
X18807282Y-16587260D02*
X18816806Y-16539641D01*
X18816806Y-16539641D02*
X18816806Y-16501546D01*
X18816806Y-16501546D02*
X18807282Y-16453927D01*
X18807282Y-16453927D02*
X18797758Y-16425355D01*
X18797758Y-16425355D02*
X18788234Y-16406308D01*
X18788234Y-16406308D02*
X18769187Y-16377736D01*
X18769187Y-16377736D02*
X18759663Y-16368212D01*
D10*
X13943960Y-16809940D02*
X13984600Y-16769300D01*
X13943960Y-16728660D01*
X13903320Y-16769300D01*
X13943960Y-16809940D01*
D11*
X14283472Y-16660784D02*
X14302520Y-16660784D01*
X14302520Y-16660784D02*
X14321567Y-16670308D01*
X14321567Y-16670308D02*
X14331091Y-16679831D01*
X14331091Y-16679831D02*
X14340615Y-16698879D01*
X14340615Y-16698879D02*
X14350139Y-16736974D01*
X14350139Y-16736974D02*
X14350139Y-16784593D01*
X14350139Y-16784593D02*
X14340615Y-16822689D01*
X14340615Y-16822689D02*
X14331091Y-16841736D01*
X14331091Y-16841736D02*
X14321567Y-16851260D01*
X14321567Y-16851260D02*
X14302520Y-16860784D01*
X14302520Y-16860784D02*
X14283472Y-16860784D01*
X14283472Y-16860784D02*
X14264424Y-16851260D01*
X14264424Y-16851260D02*
X14254901Y-16841736D01*
X14254901Y-16841736D02*
X14245377Y-16822689D01*
X14245377Y-16822689D02*
X14235853Y-16784593D01*
X14235853Y-16784593D02*
X14235853Y-16736974D01*
X14235853Y-16736974D02*
X14245377Y-16698879D01*
X14245377Y-16698879D02*
X14254901Y-16679831D01*
X14254901Y-16679831D02*
X14264424Y-16670308D01*
X14264424Y-16670308D02*
X14283472Y-16660784D01*
X14435853Y-16841736D02*
X14445377Y-16851260D01*
X14445377Y-16851260D02*
X14435853Y-16860784D01*
X14435853Y-16860784D02*
X14426329Y-16851260D01*
X14426329Y-16851260D02*
X14435853Y-16841736D01*
X14435853Y-16841736D02*
X14435853Y-16860784D01*
X14559662Y-16746498D02*
X14540615Y-16736974D01*
X14540615Y-16736974D02*
X14531091Y-16727450D01*
X14531091Y-16727450D02*
X14521567Y-16708403D01*
X14521567Y-16708403D02*
X14521567Y-16698879D01*
X14521567Y-16698879D02*
X14531091Y-16679831D01*
X14531091Y-16679831D02*
X14540615Y-16670308D01*
X14540615Y-16670308D02*
X14559662Y-16660784D01*
X14559662Y-16660784D02*
X14597758Y-16660784D01*
X14597758Y-16660784D02*
X14616805Y-16670308D01*
X14616805Y-16670308D02*
X14626329Y-16679831D01*
X14626329Y-16679831D02*
X14635853Y-16698879D01*
X14635853Y-16698879D02*
X14635853Y-16708403D01*
X14635853Y-16708403D02*
X14626329Y-16727450D01*
X14626329Y-16727450D02*
X14616805Y-16736974D01*
X14616805Y-16736974D02*
X14597758Y-16746498D01*
X14597758Y-16746498D02*
X14559662Y-16746498D01*
X14559662Y-16746498D02*
X14540615Y-16756022D01*
X14540615Y-16756022D02*
X14531091Y-16765546D01*
X14531091Y-16765546D02*
X14521567Y-16784593D01*
X14521567Y-16784593D02*
X14521567Y-16822689D01*
X14521567Y-16822689D02*
X14531091Y-16841736D01*
X14531091Y-16841736D02*
X14540615Y-16851260D01*
X14540615Y-16851260D02*
X14559662Y-16860784D01*
X14559662Y-16860784D02*
X14597758Y-16860784D01*
X14597758Y-16860784D02*
X14616805Y-16851260D01*
X14616805Y-16851260D02*
X14626329Y-16841736D01*
X14626329Y-16841736D02*
X14635853Y-16822689D01*
X14635853Y-16822689D02*
X14635853Y-16784593D01*
X14635853Y-16784593D02*
X14626329Y-16765546D01*
X14626329Y-16765546D02*
X14616805Y-16756022D01*
X14616805Y-16756022D02*
X14597758Y-16746498D01*
X14826329Y-16860784D02*
X14712043Y-16860784D01*
X14769186Y-16860784D02*
X14769186Y-16660784D01*
X14769186Y-16660784D02*
X14750139Y-16689355D01*
X14750139Y-16689355D02*
X14731091Y-16708403D01*
X14731091Y-16708403D02*
X14712043Y-16717927D01*
X14892996Y-16660784D02*
X15016805Y-16660784D01*
X15016805Y-16660784D02*
X14950139Y-16736974D01*
X14950139Y-16736974D02*
X14978710Y-16736974D01*
X14978710Y-16736974D02*
X14997758Y-16746498D01*
X14997758Y-16746498D02*
X15007282Y-16756022D01*
X15007282Y-16756022D02*
X15016805Y-16775069D01*
X15016805Y-16775069D02*
X15016805Y-16822689D01*
X15016805Y-16822689D02*
X15007282Y-16841736D01*
X15007282Y-16841736D02*
X14997758Y-16851260D01*
X14997758Y-16851260D02*
X14978710Y-16860784D01*
X14978710Y-16860784D02*
X14921567Y-16860784D01*
X14921567Y-16860784D02*
X14902520Y-16851260D01*
X14902520Y-16851260D02*
X14892996Y-16841736D01*
X15102520Y-16860784D02*
X15102520Y-16727450D01*
X15102520Y-16746498D02*
X15112043Y-16736974D01*
X15112043Y-16736974D02*
X15131091Y-16727450D01*
X15131091Y-16727450D02*
X15159663Y-16727450D01*
X15159663Y-16727450D02*
X15178710Y-16736974D01*
X15178710Y-16736974D02*
X15188234Y-16756022D01*
X15188234Y-16756022D02*
X15188234Y-16860784D01*
X15188234Y-16756022D02*
X15197758Y-16736974D01*
X15197758Y-16736974D02*
X15216805Y-16727450D01*
X15216805Y-16727450D02*
X15245377Y-16727450D01*
X15245377Y-16727450D02*
X15264424Y-16736974D01*
X15264424Y-16736974D02*
X15273948Y-16756022D01*
X15273948Y-16756022D02*
X15273948Y-16860784D01*
X15369186Y-16860784D02*
X15369186Y-16727450D01*
X15369186Y-16746498D02*
X15378710Y-16736974D01*
X15378710Y-16736974D02*
X15397758Y-16727450D01*
X15397758Y-16727450D02*
X15426329Y-16727450D01*
X15426329Y-16727450D02*
X15445377Y-16736974D01*
X15445377Y-16736974D02*
X15454901Y-16756022D01*
X15454901Y-16756022D02*
X15454901Y-16860784D01*
X15454901Y-16756022D02*
X15464424Y-16736974D01*
X15464424Y-16736974D02*
X15483472Y-16727450D01*
X15483472Y-16727450D02*
X15512043Y-16727450D01*
X15512043Y-16727450D02*
X15531091Y-16736974D01*
X15531091Y-16736974D02*
X15540615Y-16756022D01*
X15540615Y-16756022D02*
X15540615Y-16860784D01*
X15931091Y-16651260D02*
X15759663Y-16908403D01*
X16188234Y-16660784D02*
X16207282Y-16660784D01*
X16207282Y-16660784D02*
X16226329Y-16670308D01*
X16226329Y-16670308D02*
X16235853Y-16679831D01*
X16235853Y-16679831D02*
X16245377Y-16698879D01*
X16245377Y-16698879D02*
X16254901Y-16736974D01*
X16254901Y-16736974D02*
X16254901Y-16784593D01*
X16254901Y-16784593D02*
X16245377Y-16822689D01*
X16245377Y-16822689D02*
X16235853Y-16841736D01*
X16235853Y-16841736D02*
X16226329Y-16851260D01*
X16226329Y-16851260D02*
X16207282Y-16860784D01*
X16207282Y-16860784D02*
X16188234Y-16860784D01*
X16188234Y-16860784D02*
X16169186Y-16851260D01*
X16169186Y-16851260D02*
X16159663Y-16841736D01*
X16159663Y-16841736D02*
X16150139Y-16822689D01*
X16150139Y-16822689D02*
X16140615Y-16784593D01*
X16140615Y-16784593D02*
X16140615Y-16736974D01*
X16140615Y-16736974D02*
X16150139Y-16698879D01*
X16150139Y-16698879D02*
X16159663Y-16679831D01*
X16159663Y-16679831D02*
X16169186Y-16670308D01*
X16169186Y-16670308D02*
X16188234Y-16660784D01*
X16340615Y-16841736D02*
X16350139Y-16851260D01*
X16350139Y-16851260D02*
X16340615Y-16860784D01*
X16340615Y-16860784D02*
X16331091Y-16851260D01*
X16331091Y-16851260D02*
X16340615Y-16841736D01*
X16340615Y-16841736D02*
X16340615Y-16860784D01*
X16473948Y-16660784D02*
X16492996Y-16660784D01*
X16492996Y-16660784D02*
X16512044Y-16670308D01*
X16512044Y-16670308D02*
X16521567Y-16679831D01*
X16521567Y-16679831D02*
X16531091Y-16698879D01*
X16531091Y-16698879D02*
X16540615Y-16736974D01*
X16540615Y-16736974D02*
X16540615Y-16784593D01*
X16540615Y-16784593D02*
X16531091Y-16822689D01*
X16531091Y-16822689D02*
X16521567Y-16841736D01*
X16521567Y-16841736D02*
X16512044Y-16851260D01*
X16512044Y-16851260D02*
X16492996Y-16860784D01*
X16492996Y-16860784D02*
X16473948Y-16860784D01*
X16473948Y-16860784D02*
X16454901Y-16851260D01*
X16454901Y-16851260D02*
X16445377Y-16841736D01*
X16445377Y-16841736D02*
X16435853Y-16822689D01*
X16435853Y-16822689D02*
X16426329Y-16784593D01*
X16426329Y-16784593D02*
X16426329Y-16736974D01*
X16426329Y-16736974D02*
X16435853Y-16698879D01*
X16435853Y-16698879D02*
X16445377Y-16679831D01*
X16445377Y-16679831D02*
X16454901Y-16670308D01*
X16454901Y-16670308D02*
X16473948Y-16660784D01*
X16607282Y-16660784D02*
X16731091Y-16660784D01*
X16731091Y-16660784D02*
X16664425Y-16736974D01*
X16664425Y-16736974D02*
X16692996Y-16736974D01*
X16692996Y-16736974D02*
X16712044Y-16746498D01*
X16712044Y-16746498D02*
X16721567Y-16756022D01*
X16721567Y-16756022D02*
X16731091Y-16775069D01*
X16731091Y-16775069D02*
X16731091Y-16822689D01*
X16731091Y-16822689D02*
X16721567Y-16841736D01*
X16721567Y-16841736D02*
X16712044Y-16851260D01*
X16712044Y-16851260D02*
X16692996Y-16860784D01*
X16692996Y-16860784D02*
X16635853Y-16860784D01*
X16635853Y-16860784D02*
X16616806Y-16851260D01*
X16616806Y-16851260D02*
X16607282Y-16841736D01*
X16807282Y-16679831D02*
X16816806Y-16670308D01*
X16816806Y-16670308D02*
X16835853Y-16660784D01*
X16835853Y-16660784D02*
X16883472Y-16660784D01*
X16883472Y-16660784D02*
X16902520Y-16670308D01*
X16902520Y-16670308D02*
X16912044Y-16679831D01*
X16912044Y-16679831D02*
X16921568Y-16698879D01*
X16921568Y-16698879D02*
X16921568Y-16717927D01*
X16921568Y-16717927D02*
X16912044Y-16746498D01*
X16912044Y-16746498D02*
X16797758Y-16860784D01*
X16797758Y-16860784D02*
X16921568Y-16860784D01*
X17045377Y-16660784D02*
X17064425Y-16660784D01*
X17064425Y-16660784D02*
X17083472Y-16670308D01*
X17083472Y-16670308D02*
X17092996Y-16679831D01*
X17092996Y-16679831D02*
X17102520Y-16698879D01*
X17102520Y-16698879D02*
X17112044Y-16736974D01*
X17112044Y-16736974D02*
X17112044Y-16784593D01*
X17112044Y-16784593D02*
X17102520Y-16822689D01*
X17102520Y-16822689D02*
X17092996Y-16841736D01*
X17092996Y-16841736D02*
X17083472Y-16851260D01*
X17083472Y-16851260D02*
X17064425Y-16860784D01*
X17064425Y-16860784D02*
X17045377Y-16860784D01*
X17045377Y-16860784D02*
X17026329Y-16851260D01*
X17026329Y-16851260D02*
X17016806Y-16841736D01*
X17016806Y-16841736D02*
X17007282Y-16822689D01*
X17007282Y-16822689D02*
X16997758Y-16784593D01*
X16997758Y-16784593D02*
X16997758Y-16736974D01*
X16997758Y-16736974D02*
X17007282Y-16698879D01*
X17007282Y-16698879D02*
X17016806Y-16679831D01*
X17016806Y-16679831D02*
X17026329Y-16670308D01*
X17026329Y-16670308D02*
X17045377Y-16660784D01*
X17188234Y-16660784D02*
X17188234Y-16698879D01*
X17264425Y-16660784D02*
X17264425Y-16698879D01*
X17559663Y-16936974D02*
X17550139Y-16927450D01*
X17550139Y-16927450D02*
X17531091Y-16898879D01*
X17531091Y-16898879D02*
X17521568Y-16879831D01*
X17521568Y-16879831D02*
X17512044Y-16851260D01*
X17512044Y-16851260D02*
X17502520Y-16803641D01*
X17502520Y-16803641D02*
X17502520Y-16765546D01*
X17502520Y-16765546D02*
X17512044Y-16717927D01*
X17512044Y-16717927D02*
X17521568Y-16689355D01*
X17521568Y-16689355D02*
X17531091Y-16670308D01*
X17531091Y-16670308D02*
X17550139Y-16641736D01*
X17550139Y-16641736D02*
X17559663Y-16632212D01*
X17616806Y-16660784D02*
X17740615Y-16660784D01*
X17740615Y-16660784D02*
X17673949Y-16736974D01*
X17673949Y-16736974D02*
X17702520Y-16736974D01*
X17702520Y-16736974D02*
X17721568Y-16746498D01*
X17721568Y-16746498D02*
X17731091Y-16756022D01*
X17731091Y-16756022D02*
X17740615Y-16775069D01*
X17740615Y-16775069D02*
X17740615Y-16822689D01*
X17740615Y-16822689D02*
X17731091Y-16841736D01*
X17731091Y-16841736D02*
X17721568Y-16851260D01*
X17721568Y-16851260D02*
X17702520Y-16860784D01*
X17702520Y-16860784D02*
X17645377Y-16860784D01*
X17645377Y-16860784D02*
X17626330Y-16851260D01*
X17626330Y-16851260D02*
X17616806Y-16841736D01*
X17978711Y-16860784D02*
X17978711Y-16660784D01*
X18064425Y-16860784D02*
X18064425Y-16756022D01*
X18064425Y-16756022D02*
X18054901Y-16736974D01*
X18054901Y-16736974D02*
X18035853Y-16727450D01*
X18035853Y-16727450D02*
X18007282Y-16727450D01*
X18007282Y-16727450D02*
X17988234Y-16736974D01*
X17988234Y-16736974D02*
X17978711Y-16746498D01*
X18188234Y-16860784D02*
X18169187Y-16851260D01*
X18169187Y-16851260D02*
X18159663Y-16841736D01*
X18159663Y-16841736D02*
X18150139Y-16822689D01*
X18150139Y-16822689D02*
X18150139Y-16765546D01*
X18150139Y-16765546D02*
X18159663Y-16746498D01*
X18159663Y-16746498D02*
X18169187Y-16736974D01*
X18169187Y-16736974D02*
X18188234Y-16727450D01*
X18188234Y-16727450D02*
X18216806Y-16727450D01*
X18216806Y-16727450D02*
X18235853Y-16736974D01*
X18235853Y-16736974D02*
X18245377Y-16746498D01*
X18245377Y-16746498D02*
X18254901Y-16765546D01*
X18254901Y-16765546D02*
X18254901Y-16822689D01*
X18254901Y-16822689D02*
X18245377Y-16841736D01*
X18245377Y-16841736D02*
X18235853Y-16851260D01*
X18235853Y-16851260D02*
X18216806Y-16860784D01*
X18216806Y-16860784D02*
X18188234Y-16860784D01*
X18369187Y-16860784D02*
X18350139Y-16851260D01*
X18350139Y-16851260D02*
X18340615Y-16832212D01*
X18340615Y-16832212D02*
X18340615Y-16660784D01*
X18521568Y-16851260D02*
X18502520Y-16860784D01*
X18502520Y-16860784D02*
X18464425Y-16860784D01*
X18464425Y-16860784D02*
X18445377Y-16851260D01*
X18445377Y-16851260D02*
X18435853Y-16832212D01*
X18435853Y-16832212D02*
X18435853Y-16756022D01*
X18435853Y-16756022D02*
X18445377Y-16736974D01*
X18445377Y-16736974D02*
X18464425Y-16727450D01*
X18464425Y-16727450D02*
X18502520Y-16727450D01*
X18502520Y-16727450D02*
X18521568Y-16736974D01*
X18521568Y-16736974D02*
X18531092Y-16756022D01*
X18531092Y-16756022D02*
X18531092Y-16775069D01*
X18531092Y-16775069D02*
X18435853Y-16794117D01*
X18607282Y-16851260D02*
X18626330Y-16860784D01*
X18626330Y-16860784D02*
X18664425Y-16860784D01*
X18664425Y-16860784D02*
X18683473Y-16851260D01*
X18683473Y-16851260D02*
X18692996Y-16832212D01*
X18692996Y-16832212D02*
X18692996Y-16822689D01*
X18692996Y-16822689D02*
X18683473Y-16803641D01*
X18683473Y-16803641D02*
X18664425Y-16794117D01*
X18664425Y-16794117D02*
X18635853Y-16794117D01*
X18635853Y-16794117D02*
X18616806Y-16784593D01*
X18616806Y-16784593D02*
X18607282Y-16765546D01*
X18607282Y-16765546D02*
X18607282Y-16756022D01*
X18607282Y-16756022D02*
X18616806Y-16736974D01*
X18616806Y-16736974D02*
X18635853Y-16727450D01*
X18635853Y-16727450D02*
X18664425Y-16727450D01*
X18664425Y-16727450D02*
X18683473Y-16736974D01*
X18759663Y-16936974D02*
X18769187Y-16927450D01*
X18769187Y-16927450D02*
X18788234Y-16898879D01*
X18788234Y-16898879D02*
X18797758Y-16879831D01*
X18797758Y-16879831D02*
X18807282Y-16851260D01*
X18807282Y-16851260D02*
X18816806Y-16803641D01*
X18816806Y-16803641D02*
X18816806Y-16765546D01*
X18816806Y-16765546D02*
X18807282Y-16717927D01*
X18807282Y-16717927D02*
X18797758Y-16689355D01*
X18797758Y-16689355D02*
X18788234Y-16670308D01*
X18788234Y-16670308D02*
X18769187Y-16641736D01*
X18769187Y-16641736D02*
X18759663Y-16632212D01*
D12*
X13834740Y-16958370D02*
X13984600Y-17108230D01*
X13984600Y-16958370D02*
X13834740Y-17108230D01*
X13984600Y-17033300D02*
G75*
G02*
X13834740Y-17033300I-74930J0D01*
G01*
X13834740Y-17033300D02*
G75*
G02*
X13984600Y-17033300I74930J0D01*
G01*
D11*
X14350139Y-17124784D02*
X14235853Y-17124784D01*
X14292996Y-17124784D02*
X14292996Y-16924784D01*
X14292996Y-16924784D02*
X14273948Y-16953355D01*
X14273948Y-16953355D02*
X14254901Y-16972403D01*
X14254901Y-16972403D02*
X14235853Y-16981927D01*
X14435853Y-17105736D02*
X14445377Y-17115260D01*
X14445377Y-17115260D02*
X14435853Y-17124784D01*
X14435853Y-17124784D02*
X14426329Y-17115260D01*
X14426329Y-17115260D02*
X14435853Y-17105736D01*
X14435853Y-17105736D02*
X14435853Y-17124784D01*
X14616805Y-16991450D02*
X14616805Y-17124784D01*
X14569186Y-16915260D02*
X14521567Y-17058117D01*
X14521567Y-17058117D02*
X14645377Y-17058117D01*
X14731091Y-17124784D02*
X14769186Y-17124784D01*
X14769186Y-17124784D02*
X14788234Y-17115260D01*
X14788234Y-17115260D02*
X14797758Y-17105736D01*
X14797758Y-17105736D02*
X14816805Y-17077165D01*
X14816805Y-17077165D02*
X14826329Y-17039070D01*
X14826329Y-17039070D02*
X14826329Y-16962879D01*
X14826329Y-16962879D02*
X14816805Y-16943831D01*
X14816805Y-16943831D02*
X14807282Y-16934308D01*
X14807282Y-16934308D02*
X14788234Y-16924784D01*
X14788234Y-16924784D02*
X14750139Y-16924784D01*
X14750139Y-16924784D02*
X14731091Y-16934308D01*
X14731091Y-16934308D02*
X14721567Y-16943831D01*
X14721567Y-16943831D02*
X14712043Y-16962879D01*
X14712043Y-16962879D02*
X14712043Y-17010498D01*
X14712043Y-17010498D02*
X14721567Y-17029546D01*
X14721567Y-17029546D02*
X14731091Y-17039070D01*
X14731091Y-17039070D02*
X14750139Y-17048593D01*
X14750139Y-17048593D02*
X14788234Y-17048593D01*
X14788234Y-17048593D02*
X14807282Y-17039070D01*
X14807282Y-17039070D02*
X14816805Y-17029546D01*
X14816805Y-17029546D02*
X14826329Y-17010498D01*
X14921567Y-17124784D02*
X14959662Y-17124784D01*
X14959662Y-17124784D02*
X14978710Y-17115260D01*
X14978710Y-17115260D02*
X14988234Y-17105736D01*
X14988234Y-17105736D02*
X15007282Y-17077165D01*
X15007282Y-17077165D02*
X15016805Y-17039070D01*
X15016805Y-17039070D02*
X15016805Y-16962879D01*
X15016805Y-16962879D02*
X15007282Y-16943831D01*
X15007282Y-16943831D02*
X14997758Y-16934308D01*
X14997758Y-16934308D02*
X14978710Y-16924784D01*
X14978710Y-16924784D02*
X14940615Y-16924784D01*
X14940615Y-16924784D02*
X14921567Y-16934308D01*
X14921567Y-16934308D02*
X14912043Y-16943831D01*
X14912043Y-16943831D02*
X14902520Y-16962879D01*
X14902520Y-16962879D02*
X14902520Y-17010498D01*
X14902520Y-17010498D02*
X14912043Y-17029546D01*
X14912043Y-17029546D02*
X14921567Y-17039070D01*
X14921567Y-17039070D02*
X14940615Y-17048593D01*
X14940615Y-17048593D02*
X14978710Y-17048593D01*
X14978710Y-17048593D02*
X14997758Y-17039070D01*
X14997758Y-17039070D02*
X15007282Y-17029546D01*
X15007282Y-17029546D02*
X15016805Y-17010498D01*
X15102520Y-17124784D02*
X15102520Y-16991450D01*
X15102520Y-17010498D02*
X15112043Y-17000974D01*
X15112043Y-17000974D02*
X15131091Y-16991450D01*
X15131091Y-16991450D02*
X15159663Y-16991450D01*
X15159663Y-16991450D02*
X15178710Y-17000974D01*
X15178710Y-17000974D02*
X15188234Y-17020022D01*
X15188234Y-17020022D02*
X15188234Y-17124784D01*
X15188234Y-17020022D02*
X15197758Y-17000974D01*
X15197758Y-17000974D02*
X15216805Y-16991450D01*
X15216805Y-16991450D02*
X15245377Y-16991450D01*
X15245377Y-16991450D02*
X15264424Y-17000974D01*
X15264424Y-17000974D02*
X15273948Y-17020022D01*
X15273948Y-17020022D02*
X15273948Y-17124784D01*
X15369186Y-17124784D02*
X15369186Y-16991450D01*
X15369186Y-17010498D02*
X15378710Y-17000974D01*
X15378710Y-17000974D02*
X15397758Y-16991450D01*
X15397758Y-16991450D02*
X15426329Y-16991450D01*
X15426329Y-16991450D02*
X15445377Y-17000974D01*
X15445377Y-17000974D02*
X15454901Y-17020022D01*
X15454901Y-17020022D02*
X15454901Y-17124784D01*
X15454901Y-17020022D02*
X15464424Y-17000974D01*
X15464424Y-17000974D02*
X15483472Y-16991450D01*
X15483472Y-16991450D02*
X15512043Y-16991450D01*
X15512043Y-16991450D02*
X15531091Y-17000974D01*
X15531091Y-17000974D02*
X15540615Y-17020022D01*
X15540615Y-17020022D02*
X15540615Y-17124784D01*
X15931091Y-16915260D02*
X15759663Y-17172403D01*
X16188234Y-16924784D02*
X16207282Y-16924784D01*
X16207282Y-16924784D02*
X16226329Y-16934308D01*
X16226329Y-16934308D02*
X16235853Y-16943831D01*
X16235853Y-16943831D02*
X16245377Y-16962879D01*
X16245377Y-16962879D02*
X16254901Y-17000974D01*
X16254901Y-17000974D02*
X16254901Y-17048593D01*
X16254901Y-17048593D02*
X16245377Y-17086689D01*
X16245377Y-17086689D02*
X16235853Y-17105736D01*
X16235853Y-17105736D02*
X16226329Y-17115260D01*
X16226329Y-17115260D02*
X16207282Y-17124784D01*
X16207282Y-17124784D02*
X16188234Y-17124784D01*
X16188234Y-17124784D02*
X16169186Y-17115260D01*
X16169186Y-17115260D02*
X16159663Y-17105736D01*
X16159663Y-17105736D02*
X16150139Y-17086689D01*
X16150139Y-17086689D02*
X16140615Y-17048593D01*
X16140615Y-17048593D02*
X16140615Y-17000974D01*
X16140615Y-17000974D02*
X16150139Y-16962879D01*
X16150139Y-16962879D02*
X16159663Y-16943831D01*
X16159663Y-16943831D02*
X16169186Y-16934308D01*
X16169186Y-16934308D02*
X16188234Y-16924784D01*
X16340615Y-17105736D02*
X16350139Y-17115260D01*
X16350139Y-17115260D02*
X16340615Y-17124784D01*
X16340615Y-17124784D02*
X16331091Y-17115260D01*
X16331091Y-17115260D02*
X16340615Y-17105736D01*
X16340615Y-17105736D02*
X16340615Y-17124784D01*
X16473948Y-16924784D02*
X16492996Y-16924784D01*
X16492996Y-16924784D02*
X16512044Y-16934308D01*
X16512044Y-16934308D02*
X16521567Y-16943831D01*
X16521567Y-16943831D02*
X16531091Y-16962879D01*
X16531091Y-16962879D02*
X16540615Y-17000974D01*
X16540615Y-17000974D02*
X16540615Y-17048593D01*
X16540615Y-17048593D02*
X16531091Y-17086689D01*
X16531091Y-17086689D02*
X16521567Y-17105736D01*
X16521567Y-17105736D02*
X16512044Y-17115260D01*
X16512044Y-17115260D02*
X16492996Y-17124784D01*
X16492996Y-17124784D02*
X16473948Y-17124784D01*
X16473948Y-17124784D02*
X16454901Y-17115260D01*
X16454901Y-17115260D02*
X16445377Y-17105736D01*
X16445377Y-17105736D02*
X16435853Y-17086689D01*
X16435853Y-17086689D02*
X16426329Y-17048593D01*
X16426329Y-17048593D02*
X16426329Y-17000974D01*
X16426329Y-17000974D02*
X16435853Y-16962879D01*
X16435853Y-16962879D02*
X16445377Y-16943831D01*
X16445377Y-16943831D02*
X16454901Y-16934308D01*
X16454901Y-16934308D02*
X16473948Y-16924784D01*
X16721567Y-16924784D02*
X16626329Y-16924784D01*
X16626329Y-16924784D02*
X16616806Y-17020022D01*
X16616806Y-17020022D02*
X16626329Y-17010498D01*
X16626329Y-17010498D02*
X16645377Y-17000974D01*
X16645377Y-17000974D02*
X16692996Y-17000974D01*
X16692996Y-17000974D02*
X16712044Y-17010498D01*
X16712044Y-17010498D02*
X16721567Y-17020022D01*
X16721567Y-17020022D02*
X16731091Y-17039070D01*
X16731091Y-17039070D02*
X16731091Y-17086689D01*
X16731091Y-17086689D02*
X16721567Y-17105736D01*
X16721567Y-17105736D02*
X16712044Y-17115260D01*
X16712044Y-17115260D02*
X16692996Y-17124784D01*
X16692996Y-17124784D02*
X16645377Y-17124784D01*
X16645377Y-17124784D02*
X16626329Y-17115260D01*
X16626329Y-17115260D02*
X16616806Y-17105736D01*
X16826329Y-17124784D02*
X16864425Y-17124784D01*
X16864425Y-17124784D02*
X16883472Y-17115260D01*
X16883472Y-17115260D02*
X16892996Y-17105736D01*
X16892996Y-17105736D02*
X16912044Y-17077165D01*
X16912044Y-17077165D02*
X16921568Y-17039070D01*
X16921568Y-17039070D02*
X16921568Y-16962879D01*
X16921568Y-16962879D02*
X16912044Y-16943831D01*
X16912044Y-16943831D02*
X16902520Y-16934308D01*
X16902520Y-16934308D02*
X16883472Y-16924784D01*
X16883472Y-16924784D02*
X16845377Y-16924784D01*
X16845377Y-16924784D02*
X16826329Y-16934308D01*
X16826329Y-16934308D02*
X16816806Y-16943831D01*
X16816806Y-16943831D02*
X16807282Y-16962879D01*
X16807282Y-16962879D02*
X16807282Y-17010498D01*
X16807282Y-17010498D02*
X16816806Y-17029546D01*
X16816806Y-17029546D02*
X16826329Y-17039070D01*
X16826329Y-17039070D02*
X16845377Y-17048593D01*
X16845377Y-17048593D02*
X16883472Y-17048593D01*
X16883472Y-17048593D02*
X16902520Y-17039070D01*
X16902520Y-17039070D02*
X16912044Y-17029546D01*
X16912044Y-17029546D02*
X16921568Y-17010498D01*
X17045377Y-16924784D02*
X17064425Y-16924784D01*
X17064425Y-16924784D02*
X17083472Y-16934308D01*
X17083472Y-16934308D02*
X17092996Y-16943831D01*
X17092996Y-16943831D02*
X17102520Y-16962879D01*
X17102520Y-16962879D02*
X17112044Y-17000974D01*
X17112044Y-17000974D02*
X17112044Y-17048593D01*
X17112044Y-17048593D02*
X17102520Y-17086689D01*
X17102520Y-17086689D02*
X17092996Y-17105736D01*
X17092996Y-17105736D02*
X17083472Y-17115260D01*
X17083472Y-17115260D02*
X17064425Y-17124784D01*
X17064425Y-17124784D02*
X17045377Y-17124784D01*
X17045377Y-17124784D02*
X17026329Y-17115260D01*
X17026329Y-17115260D02*
X17016806Y-17105736D01*
X17016806Y-17105736D02*
X17007282Y-17086689D01*
X17007282Y-17086689D02*
X16997758Y-17048593D01*
X16997758Y-17048593D02*
X16997758Y-17000974D01*
X16997758Y-17000974D02*
X17007282Y-16962879D01*
X17007282Y-16962879D02*
X17016806Y-16943831D01*
X17016806Y-16943831D02*
X17026329Y-16934308D01*
X17026329Y-16934308D02*
X17045377Y-16924784D01*
X17188234Y-16924784D02*
X17188234Y-16962879D01*
X17264425Y-16924784D02*
X17264425Y-16962879D01*
X17559663Y-17200974D02*
X17550139Y-17191450D01*
X17550139Y-17191450D02*
X17531091Y-17162879D01*
X17531091Y-17162879D02*
X17521568Y-17143831D01*
X17521568Y-17143831D02*
X17512044Y-17115260D01*
X17512044Y-17115260D02*
X17502520Y-17067641D01*
X17502520Y-17067641D02*
X17502520Y-17029546D01*
X17502520Y-17029546D02*
X17512044Y-16981927D01*
X17512044Y-16981927D02*
X17521568Y-16953355D01*
X17521568Y-16953355D02*
X17531091Y-16934308D01*
X17531091Y-16934308D02*
X17550139Y-16905736D01*
X17550139Y-16905736D02*
X17559663Y-16896212D01*
X17626330Y-16943831D02*
X17635853Y-16934308D01*
X17635853Y-16934308D02*
X17654901Y-16924784D01*
X17654901Y-16924784D02*
X17702520Y-16924784D01*
X17702520Y-16924784D02*
X17721568Y-16934308D01*
X17721568Y-16934308D02*
X17731091Y-16943831D01*
X17731091Y-16943831D02*
X17740615Y-16962879D01*
X17740615Y-16962879D02*
X17740615Y-16981927D01*
X17740615Y-16981927D02*
X17731091Y-17010498D01*
X17731091Y-17010498D02*
X17616806Y-17124784D01*
X17616806Y-17124784D02*
X17740615Y-17124784D01*
X17978711Y-17124784D02*
X17978711Y-16924784D01*
X18064425Y-17124784D02*
X18064425Y-17020022D01*
X18064425Y-17020022D02*
X18054901Y-17000974D01*
X18054901Y-17000974D02*
X18035853Y-16991450D01*
X18035853Y-16991450D02*
X18007282Y-16991450D01*
X18007282Y-16991450D02*
X17988234Y-17000974D01*
X17988234Y-17000974D02*
X17978711Y-17010498D01*
X18188234Y-17124784D02*
X18169187Y-17115260D01*
X18169187Y-17115260D02*
X18159663Y-17105736D01*
X18159663Y-17105736D02*
X18150139Y-17086689D01*
X18150139Y-17086689D02*
X18150139Y-17029546D01*
X18150139Y-17029546D02*
X18159663Y-17010498D01*
X18159663Y-17010498D02*
X18169187Y-17000974D01*
X18169187Y-17000974D02*
X18188234Y-16991450D01*
X18188234Y-16991450D02*
X18216806Y-16991450D01*
X18216806Y-16991450D02*
X18235853Y-17000974D01*
X18235853Y-17000974D02*
X18245377Y-17010498D01*
X18245377Y-17010498D02*
X18254901Y-17029546D01*
X18254901Y-17029546D02*
X18254901Y-17086689D01*
X18254901Y-17086689D02*
X18245377Y-17105736D01*
X18245377Y-17105736D02*
X18235853Y-17115260D01*
X18235853Y-17115260D02*
X18216806Y-17124784D01*
X18216806Y-17124784D02*
X18188234Y-17124784D01*
X18369187Y-17124784D02*
X18350139Y-17115260D01*
X18350139Y-17115260D02*
X18340615Y-17096212D01*
X18340615Y-17096212D02*
X18340615Y-16924784D01*
X18521568Y-17115260D02*
X18502520Y-17124784D01*
X18502520Y-17124784D02*
X18464425Y-17124784D01*
X18464425Y-17124784D02*
X18445377Y-17115260D01*
X18445377Y-17115260D02*
X18435853Y-17096212D01*
X18435853Y-17096212D02*
X18435853Y-17020022D01*
X18435853Y-17020022D02*
X18445377Y-17000974D01*
X18445377Y-17000974D02*
X18464425Y-16991450D01*
X18464425Y-16991450D02*
X18502520Y-16991450D01*
X18502520Y-16991450D02*
X18521568Y-17000974D01*
X18521568Y-17000974D02*
X18531092Y-17020022D01*
X18531092Y-17020022D02*
X18531092Y-17039070D01*
X18531092Y-17039070D02*
X18435853Y-17058117D01*
X18607282Y-17115260D02*
X18626330Y-17124784D01*
X18626330Y-17124784D02*
X18664425Y-17124784D01*
X18664425Y-17124784D02*
X18683473Y-17115260D01*
X18683473Y-17115260D02*
X18692996Y-17096212D01*
X18692996Y-17096212D02*
X18692996Y-17086689D01*
X18692996Y-17086689D02*
X18683473Y-17067641D01*
X18683473Y-17067641D02*
X18664425Y-17058117D01*
X18664425Y-17058117D02*
X18635853Y-17058117D01*
X18635853Y-17058117D02*
X18616806Y-17048593D01*
X18616806Y-17048593D02*
X18607282Y-17029546D01*
X18607282Y-17029546D02*
X18607282Y-17020022D01*
X18607282Y-17020022D02*
X18616806Y-17000974D01*
X18616806Y-17000974D02*
X18635853Y-16991450D01*
X18635853Y-16991450D02*
X18664425Y-16991450D01*
X18664425Y-16991450D02*
X18683473Y-17000974D01*
X18759663Y-17200974D02*
X18769187Y-17191450D01*
X18769187Y-17191450D02*
X18788234Y-17162879D01*
X18788234Y-17162879D02*
X18797758Y-17143831D01*
X18797758Y-17143831D02*
X18807282Y-17115260D01*
X18807282Y-17115260D02*
X18816806Y-17067641D01*
X18816806Y-17067641D02*
X18816806Y-17029546D01*
X18816806Y-17029546D02*
X18807282Y-16981927D01*
X18807282Y-16981927D02*
X18797758Y-16953355D01*
X18797758Y-16953355D02*
X18788234Y-16934308D01*
X18788234Y-16934308D02*
X18769187Y-16905736D01*
X18769187Y-16905736D02*
X18759663Y-16896212D01*
M02*
