%TF.GenerationSoftware,KiCad,Pcbnew,8.0.1*%
%TF.CreationDate,2024-04-25T21:49:38+02:00*%
%TF.ProjectId,pcb-design,7063622d-6465-4736-9967-6e2e6b696361,rev?*%
%TF.SameCoordinates,Original*%
%TF.FileFunction,Profile,NP*%
%FSLAX46Y46*%
G04 Gerber Fmt 4.6, Leading zero omitted, Abs format (unit mm)*
G04 Created by KiCad (PCBNEW 8.0.1) date 2024-04-25 21:49:38*
%MOMM*%
%LPD*%
G01*
G04 APERTURE LIST*
%ADD10C,0.150000*%
%TA.AperFunction,Profile*%
%ADD11C,0.100000*%
%TD*%
G04 APERTURE END LIST*
D10*
X161475819Y-139399665D02*
X161475819Y-138780618D01*
X161475819Y-138780618D02*
X161856771Y-139113951D01*
X161856771Y-139113951D02*
X161856771Y-138971094D01*
X161856771Y-138971094D02*
X161904390Y-138875856D01*
X161904390Y-138875856D02*
X161952009Y-138828237D01*
X161952009Y-138828237D02*
X162047247Y-138780618D01*
X162047247Y-138780618D02*
X162285342Y-138780618D01*
X162285342Y-138780618D02*
X162380580Y-138828237D01*
X162380580Y-138828237D02*
X162428200Y-138875856D01*
X162428200Y-138875856D02*
X162475819Y-138971094D01*
X162475819Y-138971094D02*
X162475819Y-139256808D01*
X162475819Y-139256808D02*
X162428200Y-139352046D01*
X162428200Y-139352046D02*
X162380580Y-139399665D01*
X162475819Y-137828237D02*
X162475819Y-138399665D01*
X162475819Y-138113951D02*
X161475819Y-138113951D01*
X161475819Y-138113951D02*
X161618676Y-138209189D01*
X161618676Y-138209189D02*
X161713914Y-138304427D01*
X161713914Y-138304427D02*
X161761533Y-138399665D01*
X162380580Y-137399665D02*
X162428200Y-137352046D01*
X162428200Y-137352046D02*
X162475819Y-137399665D01*
X162475819Y-137399665D02*
X162428200Y-137447284D01*
X162428200Y-137447284D02*
X162380580Y-137399665D01*
X162380580Y-137399665D02*
X162475819Y-137399665D01*
X162475819Y-136875856D02*
X162475819Y-136685380D01*
X162475819Y-136685380D02*
X162428200Y-136590142D01*
X162428200Y-136590142D02*
X162380580Y-136542523D01*
X162380580Y-136542523D02*
X162237723Y-136447285D01*
X162237723Y-136447285D02*
X162047247Y-136399666D01*
X162047247Y-136399666D02*
X161666295Y-136399666D01*
X161666295Y-136399666D02*
X161571057Y-136447285D01*
X161571057Y-136447285D02*
X161523438Y-136494904D01*
X161523438Y-136494904D02*
X161475819Y-136590142D01*
X161475819Y-136590142D02*
X161475819Y-136780618D01*
X161475819Y-136780618D02*
X161523438Y-136875856D01*
X161523438Y-136875856D02*
X161571057Y-136923475D01*
X161571057Y-136923475D02*
X161666295Y-136971094D01*
X161666295Y-136971094D02*
X161904390Y-136971094D01*
X161904390Y-136971094D02*
X161999628Y-136923475D01*
X161999628Y-136923475D02*
X162047247Y-136875856D01*
X162047247Y-136875856D02*
X162094866Y-136780618D01*
X162094866Y-136780618D02*
X162094866Y-136590142D01*
X162094866Y-136590142D02*
X162047247Y-136494904D01*
X162047247Y-136494904D02*
X161999628Y-136447285D01*
X161999628Y-136447285D02*
X161904390Y-136399666D01*
X161475819Y-135780618D02*
X161475819Y-135685380D01*
X161475819Y-135685380D02*
X161523438Y-135590142D01*
X161523438Y-135590142D02*
X161571057Y-135542523D01*
X161571057Y-135542523D02*
X161666295Y-135494904D01*
X161666295Y-135494904D02*
X161856771Y-135447285D01*
X161856771Y-135447285D02*
X162094866Y-135447285D01*
X162094866Y-135447285D02*
X162285342Y-135494904D01*
X162285342Y-135494904D02*
X162380580Y-135542523D01*
X162380580Y-135542523D02*
X162428200Y-135590142D01*
X162428200Y-135590142D02*
X162475819Y-135685380D01*
X162475819Y-135685380D02*
X162475819Y-135780618D01*
X162475819Y-135780618D02*
X162428200Y-135875856D01*
X162428200Y-135875856D02*
X162380580Y-135923475D01*
X162380580Y-135923475D02*
X162285342Y-135971094D01*
X162285342Y-135971094D02*
X162094866Y-136018713D01*
X162094866Y-136018713D02*
X161856771Y-136018713D01*
X161856771Y-136018713D02*
X161666295Y-135971094D01*
X161666295Y-135971094D02*
X161571057Y-135923475D01*
X161571057Y-135923475D02*
X161523438Y-135875856D01*
X161523438Y-135875856D02*
X161475819Y-135780618D01*
X161475819Y-134828237D02*
X161475819Y-134732999D01*
X161475819Y-134732999D02*
X161523438Y-134637761D01*
X161523438Y-134637761D02*
X161571057Y-134590142D01*
X161571057Y-134590142D02*
X161666295Y-134542523D01*
X161666295Y-134542523D02*
X161856771Y-134494904D01*
X161856771Y-134494904D02*
X162094866Y-134494904D01*
X162094866Y-134494904D02*
X162285342Y-134542523D01*
X162285342Y-134542523D02*
X162380580Y-134590142D01*
X162380580Y-134590142D02*
X162428200Y-134637761D01*
X162428200Y-134637761D02*
X162475819Y-134732999D01*
X162475819Y-134732999D02*
X162475819Y-134828237D01*
X162475819Y-134828237D02*
X162428200Y-134923475D01*
X162428200Y-134923475D02*
X162380580Y-134971094D01*
X162380580Y-134971094D02*
X162285342Y-135018713D01*
X162285342Y-135018713D02*
X162094866Y-135066332D01*
X162094866Y-135066332D02*
X161856771Y-135066332D01*
X161856771Y-135066332D02*
X161666295Y-135018713D01*
X161666295Y-135018713D02*
X161571057Y-134971094D01*
X161571057Y-134971094D02*
X161523438Y-134923475D01*
X161523438Y-134923475D02*
X161475819Y-134828237D01*
X161475819Y-133875856D02*
X161475819Y-133780618D01*
X161475819Y-133780618D02*
X161523438Y-133685380D01*
X161523438Y-133685380D02*
X161571057Y-133637761D01*
X161571057Y-133637761D02*
X161666295Y-133590142D01*
X161666295Y-133590142D02*
X161856771Y-133542523D01*
X161856771Y-133542523D02*
X162094866Y-133542523D01*
X162094866Y-133542523D02*
X162285342Y-133590142D01*
X162285342Y-133590142D02*
X162380580Y-133637761D01*
X162380580Y-133637761D02*
X162428200Y-133685380D01*
X162428200Y-133685380D02*
X162475819Y-133780618D01*
X162475819Y-133780618D02*
X162475819Y-133875856D01*
X162475819Y-133875856D02*
X162428200Y-133971094D01*
X162428200Y-133971094D02*
X162380580Y-134018713D01*
X162380580Y-134018713D02*
X162285342Y-134066332D01*
X162285342Y-134066332D02*
X162094866Y-134113951D01*
X162094866Y-134113951D02*
X161856771Y-134113951D01*
X161856771Y-134113951D02*
X161666295Y-134066332D01*
X161666295Y-134066332D02*
X161571057Y-134018713D01*
X161571057Y-134018713D02*
X161523438Y-133971094D01*
X161523438Y-133971094D02*
X161475819Y-133875856D01*
X162475819Y-132352046D02*
X161809152Y-132352046D01*
X161904390Y-132352046D02*
X161856771Y-132304427D01*
X161856771Y-132304427D02*
X161809152Y-132209189D01*
X161809152Y-132209189D02*
X161809152Y-132066332D01*
X161809152Y-132066332D02*
X161856771Y-131971094D01*
X161856771Y-131971094D02*
X161952009Y-131923475D01*
X161952009Y-131923475D02*
X162475819Y-131923475D01*
X161952009Y-131923475D02*
X161856771Y-131875856D01*
X161856771Y-131875856D02*
X161809152Y-131780618D01*
X161809152Y-131780618D02*
X161809152Y-131637761D01*
X161809152Y-131637761D02*
X161856771Y-131542522D01*
X161856771Y-131542522D02*
X161952009Y-131494903D01*
X161952009Y-131494903D02*
X162475819Y-131494903D01*
X162475819Y-131018713D02*
X161809152Y-131018713D01*
X161904390Y-131018713D02*
X161856771Y-130971094D01*
X161856771Y-130971094D02*
X161809152Y-130875856D01*
X161809152Y-130875856D02*
X161809152Y-130732999D01*
X161809152Y-130732999D02*
X161856771Y-130637761D01*
X161856771Y-130637761D02*
X161952009Y-130590142D01*
X161952009Y-130590142D02*
X162475819Y-130590142D01*
X161952009Y-130590142D02*
X161856771Y-130542523D01*
X161856771Y-130542523D02*
X161809152Y-130447285D01*
X161809152Y-130447285D02*
X161809152Y-130304428D01*
X161809152Y-130304428D02*
X161856771Y-130209189D01*
X161856771Y-130209189D02*
X161952009Y-130161570D01*
X161952009Y-130161570D02*
X162475819Y-130161570D01*
D11*
X159196000Y-118783000D02*
X163757420Y-118783000D01*
X159196000Y-150683000D02*
X163757420Y-150683000D01*
X163171000Y-118783000D02*
X163171000Y-150683000D01*
X163171000Y-118783000D02*
X163171000Y-150683000D01*
X163171000Y-118783000D02*
X163757421Y-119909504D01*
X163171000Y-118783000D02*
X162584579Y-119909504D01*
X163171000Y-150683000D02*
X162584579Y-149556496D01*
X163171000Y-150683000D02*
X163757421Y-149556496D01*
X139896000Y-118783000D02*
X139962000Y-150555000D01*
X148146000Y-135683000D02*
X148996000Y-135683000D01*
X158696000Y-138183000D02*
X158696000Y-150683000D01*
X152321000Y-136683000D02*
X152321000Y-135683000D01*
X158696000Y-138183000D02*
X148146000Y-138183000D01*
X147465271Y-114441999D02*
X147496000Y-118783000D01*
X148146000Y-138183000D02*
X148146000Y-135683000D01*
X158696000Y-135683000D02*
X152321000Y-135683000D01*
X158696000Y-150683000D02*
X139962000Y-150555000D01*
X141597613Y-114418587D02*
G75*
G02*
X147465271Y-114441999I2946387J3135587D01*
G01*
X148996000Y-135683000D02*
X148996000Y-136683000D01*
X158696000Y-118783000D02*
X147496000Y-118783000D01*
X141596000Y-118783000D02*
X139896000Y-118783000D01*
X148996000Y-136683000D02*
X152321000Y-136683000D01*
X158696000Y-135683000D02*
X158696000Y-118783000D01*
X141597613Y-114418587D02*
X141596000Y-118783000D01*
M02*
