%TF.GenerationSoftware,KiCad,Pcbnew,8.0.1*%
%TF.CreationDate,2024-04-25T21:49:44+02:00*%
%TF.ProjectId,pcb-design,7063622d-6465-4736-9967-6e2e6b696361,rev?*%
%TF.SameCoordinates,Original*%
%TF.FileFunction,Drillmap*%
%TF.FilePolarity,Positive*%
%FSLAX45Y45*%
G04 Gerber Fmt 4.5, Leading zero omitted, Abs format (unit mm)*
G04 Created by KiCad (PCBNEW 8.0.1) date 2024-04-25 21:49:44*
%MOMM*%
%LPD*%
G01*
G04 APERTURE LIST*
%ADD10C,0.100000*%
%ADD11C,0.200000*%
G04 APERTURE END LIST*
D10*
X13989600Y-11878300D02*
X13996200Y-15055500D01*
X14814600Y-13568300D02*
X14899600Y-13568300D01*
X15869600Y-13818300D02*
X15869600Y-15068300D01*
X15232100Y-13668300D02*
X15232100Y-13568300D01*
X15869600Y-13818300D02*
X14814600Y-13818300D01*
X14746527Y-11444200D02*
X14749600Y-11878300D01*
X14814600Y-13818300D02*
X14814600Y-13568300D01*
X15869600Y-13568300D02*
X15232100Y-13568300D01*
X15869600Y-15068300D02*
X13996200Y-15055500D01*
X14159761Y-11441859D02*
G75*
G02*
X14746527Y-11444200I294639J313559D01*
G01*
X14899600Y-13568300D02*
X14899600Y-13668300D01*
X15869600Y-11878300D02*
X14749600Y-11878300D01*
X14159600Y-11878300D02*
X13989600Y-11878300D01*
X14899600Y-13668300D02*
X15232100Y-13668300D01*
X15869600Y-13568300D02*
X15869600Y-11878300D01*
X14159761Y-11441859D02*
X14159600Y-11878300D01*
D11*
D10*
X14199600Y-11678300D02*
X14249600Y-11728300D01*
X14249600Y-11678300D02*
X14199600Y-11728300D01*
X14199600Y-11828300D02*
X14249600Y-11878300D01*
X14249600Y-11828300D02*
X14199600Y-11878300D01*
X14274600Y-11678300D02*
X14324600Y-11728300D01*
X14324600Y-11678300D02*
X14274600Y-11728300D01*
X14274600Y-11828300D02*
X14324600Y-11878300D01*
X14324600Y-11828300D02*
X14274600Y-11878300D01*
X14349600Y-11678300D02*
X14399600Y-11728300D01*
X14399600Y-11678300D02*
X14349600Y-11728300D01*
X14349600Y-11828300D02*
X14399600Y-11878300D01*
X14399600Y-11828300D02*
X14349600Y-11878300D01*
X14424600Y-11678300D02*
X14474600Y-11728300D01*
X14474600Y-11678300D02*
X14424600Y-11728300D01*
X14424600Y-11828300D02*
X14474600Y-11878300D01*
X14474600Y-11828300D02*
X14424600Y-11878300D01*
X14499600Y-11678300D02*
X14549600Y-11728300D01*
X14549600Y-11678300D02*
X14499600Y-11728300D01*
X14499600Y-11828300D02*
X14549600Y-11878300D01*
X14549600Y-11828300D02*
X14499600Y-11878300D01*
X14574600Y-11678300D02*
X14624600Y-11728300D01*
X14624600Y-11678300D02*
X14574600Y-11728300D01*
X14574600Y-11828300D02*
X14624600Y-11878300D01*
X14624600Y-11828300D02*
X14574600Y-11878300D01*
X14649600Y-11678300D02*
X14699600Y-11728300D01*
X14699600Y-11678300D02*
X14649600Y-11728300D01*
X14649600Y-11828300D02*
X14699600Y-11878300D01*
X14699600Y-11828300D02*
X14649600Y-11878300D01*
D11*
X14245377Y-15384784D02*
X14245377Y-15184784D01*
X14245377Y-15184784D02*
X14292996Y-15184784D01*
X14292996Y-15184784D02*
X14321567Y-15194308D01*
X14321567Y-15194308D02*
X14340615Y-15213355D01*
X14340615Y-15213355D02*
X14350139Y-15232403D01*
X14350139Y-15232403D02*
X14359662Y-15270498D01*
X14359662Y-15270498D02*
X14359662Y-15299069D01*
X14359662Y-15299069D02*
X14350139Y-15337165D01*
X14350139Y-15337165D02*
X14340615Y-15356212D01*
X14340615Y-15356212D02*
X14321567Y-15375260D01*
X14321567Y-15375260D02*
X14292996Y-15384784D01*
X14292996Y-15384784D02*
X14245377Y-15384784D01*
X14445377Y-15384784D02*
X14445377Y-15251450D01*
X14445377Y-15289546D02*
X14454901Y-15270498D01*
X14454901Y-15270498D02*
X14464424Y-15260974D01*
X14464424Y-15260974D02*
X14483472Y-15251450D01*
X14483472Y-15251450D02*
X14502520Y-15251450D01*
X14569186Y-15384784D02*
X14569186Y-15251450D01*
X14569186Y-15184784D02*
X14559662Y-15194308D01*
X14559662Y-15194308D02*
X14569186Y-15203831D01*
X14569186Y-15203831D02*
X14578710Y-15194308D01*
X14578710Y-15194308D02*
X14569186Y-15184784D01*
X14569186Y-15184784D02*
X14569186Y-15203831D01*
X14692996Y-15384784D02*
X14673948Y-15375260D01*
X14673948Y-15375260D02*
X14664424Y-15356212D01*
X14664424Y-15356212D02*
X14664424Y-15184784D01*
X14797758Y-15384784D02*
X14778710Y-15375260D01*
X14778710Y-15375260D02*
X14769186Y-15356212D01*
X14769186Y-15356212D02*
X14769186Y-15184784D01*
X15026329Y-15384784D02*
X15026329Y-15184784D01*
X15026329Y-15184784D02*
X15092996Y-15327641D01*
X15092996Y-15327641D02*
X15159662Y-15184784D01*
X15159662Y-15184784D02*
X15159662Y-15384784D01*
X15340615Y-15384784D02*
X15340615Y-15280022D01*
X15340615Y-15280022D02*
X15331091Y-15260974D01*
X15331091Y-15260974D02*
X15312043Y-15251450D01*
X15312043Y-15251450D02*
X15273948Y-15251450D01*
X15273948Y-15251450D02*
X15254901Y-15260974D01*
X15340615Y-15375260D02*
X15321567Y-15384784D01*
X15321567Y-15384784D02*
X15273948Y-15384784D01*
X15273948Y-15384784D02*
X15254901Y-15375260D01*
X15254901Y-15375260D02*
X15245377Y-15356212D01*
X15245377Y-15356212D02*
X15245377Y-15337165D01*
X15245377Y-15337165D02*
X15254901Y-15318117D01*
X15254901Y-15318117D02*
X15273948Y-15308593D01*
X15273948Y-15308593D02*
X15321567Y-15308593D01*
X15321567Y-15308593D02*
X15340615Y-15299069D01*
X15435853Y-15251450D02*
X15435853Y-15451450D01*
X15435853Y-15260974D02*
X15454901Y-15251450D01*
X15454901Y-15251450D02*
X15492996Y-15251450D01*
X15492996Y-15251450D02*
X15512043Y-15260974D01*
X15512043Y-15260974D02*
X15521567Y-15270498D01*
X15521567Y-15270498D02*
X15531091Y-15289546D01*
X15531091Y-15289546D02*
X15531091Y-15346688D01*
X15531091Y-15346688D02*
X15521567Y-15365736D01*
X15521567Y-15365736D02*
X15512043Y-15375260D01*
X15512043Y-15375260D02*
X15492996Y-15384784D01*
X15492996Y-15384784D02*
X15454901Y-15384784D01*
X15454901Y-15384784D02*
X15435853Y-15375260D01*
X15616805Y-15365736D02*
X15626329Y-15375260D01*
X15626329Y-15375260D02*
X15616805Y-15384784D01*
X15616805Y-15384784D02*
X15607282Y-15375260D01*
X15607282Y-15375260D02*
X15616805Y-15365736D01*
X15616805Y-15365736D02*
X15616805Y-15384784D01*
X15616805Y-15260974D02*
X15626329Y-15270498D01*
X15626329Y-15270498D02*
X15616805Y-15280022D01*
X15616805Y-15280022D02*
X15607282Y-15270498D01*
X15607282Y-15270498D02*
X15616805Y-15260974D01*
X15616805Y-15260974D02*
X15616805Y-15280022D01*
D10*
X13934600Y-15688300D02*
X13984600Y-15738300D01*
X13984600Y-15688300D02*
X13934600Y-15738300D01*
D11*
X14283472Y-15604784D02*
X14302520Y-15604784D01*
X14302520Y-15604784D02*
X14321567Y-15614308D01*
X14321567Y-15614308D02*
X14331091Y-15623831D01*
X14331091Y-15623831D02*
X14340615Y-15642879D01*
X14340615Y-15642879D02*
X14350139Y-15680974D01*
X14350139Y-15680974D02*
X14350139Y-15728593D01*
X14350139Y-15728593D02*
X14340615Y-15766688D01*
X14340615Y-15766688D02*
X14331091Y-15785736D01*
X14331091Y-15785736D02*
X14321567Y-15795260D01*
X14321567Y-15795260D02*
X14302520Y-15804784D01*
X14302520Y-15804784D02*
X14283472Y-15804784D01*
X14283472Y-15804784D02*
X14264424Y-15795260D01*
X14264424Y-15795260D02*
X14254901Y-15785736D01*
X14254901Y-15785736D02*
X14245377Y-15766688D01*
X14245377Y-15766688D02*
X14235853Y-15728593D01*
X14235853Y-15728593D02*
X14235853Y-15680974D01*
X14235853Y-15680974D02*
X14245377Y-15642879D01*
X14245377Y-15642879D02*
X14254901Y-15623831D01*
X14254901Y-15623831D02*
X14264424Y-15614308D01*
X14264424Y-15614308D02*
X14283472Y-15604784D01*
X14435853Y-15785736D02*
X14445377Y-15795260D01*
X14445377Y-15795260D02*
X14435853Y-15804784D01*
X14435853Y-15804784D02*
X14426329Y-15795260D01*
X14426329Y-15795260D02*
X14435853Y-15785736D01*
X14435853Y-15785736D02*
X14435853Y-15804784D01*
X14626329Y-15604784D02*
X14531091Y-15604784D01*
X14531091Y-15604784D02*
X14521567Y-15700022D01*
X14521567Y-15700022D02*
X14531091Y-15690498D01*
X14531091Y-15690498D02*
X14550139Y-15680974D01*
X14550139Y-15680974D02*
X14597758Y-15680974D01*
X14597758Y-15680974D02*
X14616805Y-15690498D01*
X14616805Y-15690498D02*
X14626329Y-15700022D01*
X14626329Y-15700022D02*
X14635853Y-15719069D01*
X14635853Y-15719069D02*
X14635853Y-15766688D01*
X14635853Y-15766688D02*
X14626329Y-15785736D01*
X14626329Y-15785736D02*
X14616805Y-15795260D01*
X14616805Y-15795260D02*
X14597758Y-15804784D01*
X14597758Y-15804784D02*
X14550139Y-15804784D01*
X14550139Y-15804784D02*
X14531091Y-15795260D01*
X14531091Y-15795260D02*
X14521567Y-15785736D01*
X14759662Y-15604784D02*
X14778710Y-15604784D01*
X14778710Y-15604784D02*
X14797758Y-15614308D01*
X14797758Y-15614308D02*
X14807282Y-15623831D01*
X14807282Y-15623831D02*
X14816805Y-15642879D01*
X14816805Y-15642879D02*
X14826329Y-15680974D01*
X14826329Y-15680974D02*
X14826329Y-15728593D01*
X14826329Y-15728593D02*
X14816805Y-15766688D01*
X14816805Y-15766688D02*
X14807282Y-15785736D01*
X14807282Y-15785736D02*
X14797758Y-15795260D01*
X14797758Y-15795260D02*
X14778710Y-15804784D01*
X14778710Y-15804784D02*
X14759662Y-15804784D01*
X14759662Y-15804784D02*
X14740615Y-15795260D01*
X14740615Y-15795260D02*
X14731091Y-15785736D01*
X14731091Y-15785736D02*
X14721567Y-15766688D01*
X14721567Y-15766688D02*
X14712043Y-15728593D01*
X14712043Y-15728593D02*
X14712043Y-15680974D01*
X14712043Y-15680974D02*
X14721567Y-15642879D01*
X14721567Y-15642879D02*
X14731091Y-15623831D01*
X14731091Y-15623831D02*
X14740615Y-15614308D01*
X14740615Y-15614308D02*
X14759662Y-15604784D01*
X14950139Y-15604784D02*
X14969186Y-15604784D01*
X14969186Y-15604784D02*
X14988234Y-15614308D01*
X14988234Y-15614308D02*
X14997758Y-15623831D01*
X14997758Y-15623831D02*
X15007282Y-15642879D01*
X15007282Y-15642879D02*
X15016805Y-15680974D01*
X15016805Y-15680974D02*
X15016805Y-15728593D01*
X15016805Y-15728593D02*
X15007282Y-15766688D01*
X15007282Y-15766688D02*
X14997758Y-15785736D01*
X14997758Y-15785736D02*
X14988234Y-15795260D01*
X14988234Y-15795260D02*
X14969186Y-15804784D01*
X14969186Y-15804784D02*
X14950139Y-15804784D01*
X14950139Y-15804784D02*
X14931091Y-15795260D01*
X14931091Y-15795260D02*
X14921567Y-15785736D01*
X14921567Y-15785736D02*
X14912043Y-15766688D01*
X14912043Y-15766688D02*
X14902520Y-15728593D01*
X14902520Y-15728593D02*
X14902520Y-15680974D01*
X14902520Y-15680974D02*
X14912043Y-15642879D01*
X14912043Y-15642879D02*
X14921567Y-15623831D01*
X14921567Y-15623831D02*
X14931091Y-15614308D01*
X14931091Y-15614308D02*
X14950139Y-15604784D01*
X15102520Y-15804784D02*
X15102520Y-15671450D01*
X15102520Y-15690498D02*
X15112043Y-15680974D01*
X15112043Y-15680974D02*
X15131091Y-15671450D01*
X15131091Y-15671450D02*
X15159663Y-15671450D01*
X15159663Y-15671450D02*
X15178710Y-15680974D01*
X15178710Y-15680974D02*
X15188234Y-15700022D01*
X15188234Y-15700022D02*
X15188234Y-15804784D01*
X15188234Y-15700022D02*
X15197758Y-15680974D01*
X15197758Y-15680974D02*
X15216805Y-15671450D01*
X15216805Y-15671450D02*
X15245377Y-15671450D01*
X15245377Y-15671450D02*
X15264424Y-15680974D01*
X15264424Y-15680974D02*
X15273948Y-15700022D01*
X15273948Y-15700022D02*
X15273948Y-15804784D01*
X15369186Y-15804784D02*
X15369186Y-15671450D01*
X15369186Y-15690498D02*
X15378710Y-15680974D01*
X15378710Y-15680974D02*
X15397758Y-15671450D01*
X15397758Y-15671450D02*
X15426329Y-15671450D01*
X15426329Y-15671450D02*
X15445377Y-15680974D01*
X15445377Y-15680974D02*
X15454901Y-15700022D01*
X15454901Y-15700022D02*
X15454901Y-15804784D01*
X15454901Y-15700022D02*
X15464424Y-15680974D01*
X15464424Y-15680974D02*
X15483472Y-15671450D01*
X15483472Y-15671450D02*
X15512043Y-15671450D01*
X15512043Y-15671450D02*
X15531091Y-15680974D01*
X15531091Y-15680974D02*
X15540615Y-15700022D01*
X15540615Y-15700022D02*
X15540615Y-15804784D01*
X15931091Y-15595260D02*
X15759663Y-15852403D01*
X16188234Y-15604784D02*
X16207282Y-15604784D01*
X16207282Y-15604784D02*
X16226329Y-15614308D01*
X16226329Y-15614308D02*
X16235853Y-15623831D01*
X16235853Y-15623831D02*
X16245377Y-15642879D01*
X16245377Y-15642879D02*
X16254901Y-15680974D01*
X16254901Y-15680974D02*
X16254901Y-15728593D01*
X16254901Y-15728593D02*
X16245377Y-15766688D01*
X16245377Y-15766688D02*
X16235853Y-15785736D01*
X16235853Y-15785736D02*
X16226329Y-15795260D01*
X16226329Y-15795260D02*
X16207282Y-15804784D01*
X16207282Y-15804784D02*
X16188234Y-15804784D01*
X16188234Y-15804784D02*
X16169186Y-15795260D01*
X16169186Y-15795260D02*
X16159663Y-15785736D01*
X16159663Y-15785736D02*
X16150139Y-15766688D01*
X16150139Y-15766688D02*
X16140615Y-15728593D01*
X16140615Y-15728593D02*
X16140615Y-15680974D01*
X16140615Y-15680974D02*
X16150139Y-15642879D01*
X16150139Y-15642879D02*
X16159663Y-15623831D01*
X16159663Y-15623831D02*
X16169186Y-15614308D01*
X16169186Y-15614308D02*
X16188234Y-15604784D01*
X16340615Y-15785736D02*
X16350139Y-15795260D01*
X16350139Y-15795260D02*
X16340615Y-15804784D01*
X16340615Y-15804784D02*
X16331091Y-15795260D01*
X16331091Y-15795260D02*
X16340615Y-15785736D01*
X16340615Y-15785736D02*
X16340615Y-15804784D01*
X16473948Y-15604784D02*
X16492996Y-15604784D01*
X16492996Y-15604784D02*
X16512044Y-15614308D01*
X16512044Y-15614308D02*
X16521567Y-15623831D01*
X16521567Y-15623831D02*
X16531091Y-15642879D01*
X16531091Y-15642879D02*
X16540615Y-15680974D01*
X16540615Y-15680974D02*
X16540615Y-15728593D01*
X16540615Y-15728593D02*
X16531091Y-15766688D01*
X16531091Y-15766688D02*
X16521567Y-15785736D01*
X16521567Y-15785736D02*
X16512044Y-15795260D01*
X16512044Y-15795260D02*
X16492996Y-15804784D01*
X16492996Y-15804784D02*
X16473948Y-15804784D01*
X16473948Y-15804784D02*
X16454901Y-15795260D01*
X16454901Y-15795260D02*
X16445377Y-15785736D01*
X16445377Y-15785736D02*
X16435853Y-15766688D01*
X16435853Y-15766688D02*
X16426329Y-15728593D01*
X16426329Y-15728593D02*
X16426329Y-15680974D01*
X16426329Y-15680974D02*
X16435853Y-15642879D01*
X16435853Y-15642879D02*
X16445377Y-15623831D01*
X16445377Y-15623831D02*
X16454901Y-15614308D01*
X16454901Y-15614308D02*
X16473948Y-15604784D01*
X16731091Y-15804784D02*
X16616806Y-15804784D01*
X16673948Y-15804784D02*
X16673948Y-15604784D01*
X16673948Y-15604784D02*
X16654901Y-15633355D01*
X16654901Y-15633355D02*
X16635853Y-15652403D01*
X16635853Y-15652403D02*
X16616806Y-15661927D01*
X16826329Y-15804784D02*
X16864425Y-15804784D01*
X16864425Y-15804784D02*
X16883472Y-15795260D01*
X16883472Y-15795260D02*
X16892996Y-15785736D01*
X16892996Y-15785736D02*
X16912044Y-15757165D01*
X16912044Y-15757165D02*
X16921568Y-15719069D01*
X16921568Y-15719069D02*
X16921568Y-15642879D01*
X16921568Y-15642879D02*
X16912044Y-15623831D01*
X16912044Y-15623831D02*
X16902520Y-15614308D01*
X16902520Y-15614308D02*
X16883472Y-15604784D01*
X16883472Y-15604784D02*
X16845377Y-15604784D01*
X16845377Y-15604784D02*
X16826329Y-15614308D01*
X16826329Y-15614308D02*
X16816806Y-15623831D01*
X16816806Y-15623831D02*
X16807282Y-15642879D01*
X16807282Y-15642879D02*
X16807282Y-15690498D01*
X16807282Y-15690498D02*
X16816806Y-15709546D01*
X16816806Y-15709546D02*
X16826329Y-15719069D01*
X16826329Y-15719069D02*
X16845377Y-15728593D01*
X16845377Y-15728593D02*
X16883472Y-15728593D01*
X16883472Y-15728593D02*
X16902520Y-15719069D01*
X16902520Y-15719069D02*
X16912044Y-15709546D01*
X16912044Y-15709546D02*
X16921568Y-15690498D01*
X16988234Y-15604784D02*
X17121568Y-15604784D01*
X17121568Y-15604784D02*
X17035853Y-15804784D01*
X17188234Y-15604784D02*
X17188234Y-15642879D01*
X17264425Y-15604784D02*
X17264425Y-15642879D01*
X17559663Y-15880974D02*
X17550139Y-15871450D01*
X17550139Y-15871450D02*
X17531091Y-15842879D01*
X17531091Y-15842879D02*
X17521568Y-15823831D01*
X17521568Y-15823831D02*
X17512044Y-15795260D01*
X17512044Y-15795260D02*
X17502520Y-15747641D01*
X17502520Y-15747641D02*
X17502520Y-15709546D01*
X17502520Y-15709546D02*
X17512044Y-15661927D01*
X17512044Y-15661927D02*
X17521568Y-15633355D01*
X17521568Y-15633355D02*
X17531091Y-15614308D01*
X17531091Y-15614308D02*
X17550139Y-15585736D01*
X17550139Y-15585736D02*
X17559663Y-15576212D01*
X17740615Y-15804784D02*
X17626330Y-15804784D01*
X17683472Y-15804784D02*
X17683472Y-15604784D01*
X17683472Y-15604784D02*
X17664425Y-15633355D01*
X17664425Y-15633355D02*
X17645377Y-15652403D01*
X17645377Y-15652403D02*
X17626330Y-15661927D01*
X17912044Y-15671450D02*
X17912044Y-15804784D01*
X17864425Y-15595260D02*
X17816806Y-15738117D01*
X17816806Y-15738117D02*
X17940615Y-15738117D01*
X18169187Y-15804784D02*
X18169187Y-15604784D01*
X18254901Y-15804784D02*
X18254901Y-15700022D01*
X18254901Y-15700022D02*
X18245377Y-15680974D01*
X18245377Y-15680974D02*
X18226330Y-15671450D01*
X18226330Y-15671450D02*
X18197758Y-15671450D01*
X18197758Y-15671450D02*
X18178711Y-15680974D01*
X18178711Y-15680974D02*
X18169187Y-15690498D01*
X18378711Y-15804784D02*
X18359663Y-15795260D01*
X18359663Y-15795260D02*
X18350139Y-15785736D01*
X18350139Y-15785736D02*
X18340615Y-15766688D01*
X18340615Y-15766688D02*
X18340615Y-15709546D01*
X18340615Y-15709546D02*
X18350139Y-15690498D01*
X18350139Y-15690498D02*
X18359663Y-15680974D01*
X18359663Y-15680974D02*
X18378711Y-15671450D01*
X18378711Y-15671450D02*
X18407282Y-15671450D01*
X18407282Y-15671450D02*
X18426330Y-15680974D01*
X18426330Y-15680974D02*
X18435853Y-15690498D01*
X18435853Y-15690498D02*
X18445377Y-15709546D01*
X18445377Y-15709546D02*
X18445377Y-15766688D01*
X18445377Y-15766688D02*
X18435853Y-15785736D01*
X18435853Y-15785736D02*
X18426330Y-15795260D01*
X18426330Y-15795260D02*
X18407282Y-15804784D01*
X18407282Y-15804784D02*
X18378711Y-15804784D01*
X18559663Y-15804784D02*
X18540615Y-15795260D01*
X18540615Y-15795260D02*
X18531092Y-15776212D01*
X18531092Y-15776212D02*
X18531092Y-15604784D01*
X18712044Y-15795260D02*
X18692996Y-15804784D01*
X18692996Y-15804784D02*
X18654901Y-15804784D01*
X18654901Y-15804784D02*
X18635853Y-15795260D01*
X18635853Y-15795260D02*
X18626330Y-15776212D01*
X18626330Y-15776212D02*
X18626330Y-15700022D01*
X18626330Y-15700022D02*
X18635853Y-15680974D01*
X18635853Y-15680974D02*
X18654901Y-15671450D01*
X18654901Y-15671450D02*
X18692996Y-15671450D01*
X18692996Y-15671450D02*
X18712044Y-15680974D01*
X18712044Y-15680974D02*
X18721568Y-15700022D01*
X18721568Y-15700022D02*
X18721568Y-15719069D01*
X18721568Y-15719069D02*
X18626330Y-15738117D01*
X18797758Y-15795260D02*
X18816806Y-15804784D01*
X18816806Y-15804784D02*
X18854901Y-15804784D01*
X18854901Y-15804784D02*
X18873949Y-15795260D01*
X18873949Y-15795260D02*
X18883473Y-15776212D01*
X18883473Y-15776212D02*
X18883473Y-15766688D01*
X18883473Y-15766688D02*
X18873949Y-15747641D01*
X18873949Y-15747641D02*
X18854901Y-15738117D01*
X18854901Y-15738117D02*
X18826330Y-15738117D01*
X18826330Y-15738117D02*
X18807282Y-15728593D01*
X18807282Y-15728593D02*
X18797758Y-15709546D01*
X18797758Y-15709546D02*
X18797758Y-15700022D01*
X18797758Y-15700022D02*
X18807282Y-15680974D01*
X18807282Y-15680974D02*
X18826330Y-15671450D01*
X18826330Y-15671450D02*
X18854901Y-15671450D01*
X18854901Y-15671450D02*
X18873949Y-15680974D01*
X18950139Y-15880974D02*
X18959663Y-15871450D01*
X18959663Y-15871450D02*
X18978711Y-15842879D01*
X18978711Y-15842879D02*
X18988234Y-15823831D01*
X18988234Y-15823831D02*
X18997758Y-15795260D01*
X18997758Y-15795260D02*
X19007282Y-15747641D01*
X19007282Y-15747641D02*
X19007282Y-15709546D01*
X19007282Y-15709546D02*
X18997758Y-15661927D01*
X18997758Y-15661927D02*
X18988234Y-15633355D01*
X18988234Y-15633355D02*
X18978711Y-15614308D01*
X18978711Y-15614308D02*
X18959663Y-15585736D01*
X18959663Y-15585736D02*
X18950139Y-15576212D01*
X19312044Y-15880974D02*
X19302520Y-15871450D01*
X19302520Y-15871450D02*
X19283473Y-15842879D01*
X19283473Y-15842879D02*
X19273949Y-15823831D01*
X19273949Y-15823831D02*
X19264425Y-15795260D01*
X19264425Y-15795260D02*
X19254901Y-15747641D01*
X19254901Y-15747641D02*
X19254901Y-15709546D01*
X19254901Y-15709546D02*
X19264425Y-15661927D01*
X19264425Y-15661927D02*
X19273949Y-15633355D01*
X19273949Y-15633355D02*
X19283473Y-15614308D01*
X19283473Y-15614308D02*
X19302520Y-15585736D01*
X19302520Y-15585736D02*
X19312044Y-15576212D01*
X19388234Y-15671450D02*
X19388234Y-15804784D01*
X19388234Y-15690498D02*
X19397758Y-15680974D01*
X19397758Y-15680974D02*
X19416806Y-15671450D01*
X19416806Y-15671450D02*
X19445377Y-15671450D01*
X19445377Y-15671450D02*
X19464425Y-15680974D01*
X19464425Y-15680974D02*
X19473949Y-15700022D01*
X19473949Y-15700022D02*
X19473949Y-15804784D01*
X19597758Y-15804784D02*
X19578711Y-15795260D01*
X19578711Y-15795260D02*
X19569187Y-15785736D01*
X19569187Y-15785736D02*
X19559663Y-15766688D01*
X19559663Y-15766688D02*
X19559663Y-15709546D01*
X19559663Y-15709546D02*
X19569187Y-15690498D01*
X19569187Y-15690498D02*
X19578711Y-15680974D01*
X19578711Y-15680974D02*
X19597758Y-15671450D01*
X19597758Y-15671450D02*
X19626330Y-15671450D01*
X19626330Y-15671450D02*
X19645377Y-15680974D01*
X19645377Y-15680974D02*
X19654901Y-15690498D01*
X19654901Y-15690498D02*
X19664425Y-15709546D01*
X19664425Y-15709546D02*
X19664425Y-15766688D01*
X19664425Y-15766688D02*
X19654901Y-15785736D01*
X19654901Y-15785736D02*
X19645377Y-15795260D01*
X19645377Y-15795260D02*
X19626330Y-15804784D01*
X19626330Y-15804784D02*
X19597758Y-15804784D01*
X19721568Y-15671450D02*
X19797758Y-15671450D01*
X19750139Y-15604784D02*
X19750139Y-15776212D01*
X19750139Y-15776212D02*
X19759663Y-15795260D01*
X19759663Y-15795260D02*
X19778711Y-15804784D01*
X19778711Y-15804784D02*
X19797758Y-15804784D01*
X20016806Y-15671450D02*
X20016806Y-15871450D01*
X20016806Y-15680974D02*
X20035854Y-15671450D01*
X20035854Y-15671450D02*
X20073949Y-15671450D01*
X20073949Y-15671450D02*
X20092996Y-15680974D01*
X20092996Y-15680974D02*
X20102520Y-15690498D01*
X20102520Y-15690498D02*
X20112044Y-15709546D01*
X20112044Y-15709546D02*
X20112044Y-15766688D01*
X20112044Y-15766688D02*
X20102520Y-15785736D01*
X20102520Y-15785736D02*
X20092996Y-15795260D01*
X20092996Y-15795260D02*
X20073949Y-15804784D01*
X20073949Y-15804784D02*
X20035854Y-15804784D01*
X20035854Y-15804784D02*
X20016806Y-15795260D01*
X20226330Y-15804784D02*
X20207282Y-15795260D01*
X20207282Y-15795260D02*
X20197758Y-15776212D01*
X20197758Y-15776212D02*
X20197758Y-15604784D01*
X20388235Y-15804784D02*
X20388235Y-15700022D01*
X20388235Y-15700022D02*
X20378711Y-15680974D01*
X20378711Y-15680974D02*
X20359663Y-15671450D01*
X20359663Y-15671450D02*
X20321568Y-15671450D01*
X20321568Y-15671450D02*
X20302520Y-15680974D01*
X20388235Y-15795260D02*
X20369187Y-15804784D01*
X20369187Y-15804784D02*
X20321568Y-15804784D01*
X20321568Y-15804784D02*
X20302520Y-15795260D01*
X20302520Y-15795260D02*
X20292996Y-15776212D01*
X20292996Y-15776212D02*
X20292996Y-15757165D01*
X20292996Y-15757165D02*
X20302520Y-15738117D01*
X20302520Y-15738117D02*
X20321568Y-15728593D01*
X20321568Y-15728593D02*
X20369187Y-15728593D01*
X20369187Y-15728593D02*
X20388235Y-15719069D01*
X20454901Y-15671450D02*
X20531092Y-15671450D01*
X20483473Y-15604784D02*
X20483473Y-15776212D01*
X20483473Y-15776212D02*
X20492996Y-15795260D01*
X20492996Y-15795260D02*
X20512044Y-15804784D01*
X20512044Y-15804784D02*
X20531092Y-15804784D01*
X20673949Y-15795260D02*
X20654901Y-15804784D01*
X20654901Y-15804784D02*
X20616806Y-15804784D01*
X20616806Y-15804784D02*
X20597758Y-15795260D01*
X20597758Y-15795260D02*
X20588235Y-15776212D01*
X20588235Y-15776212D02*
X20588235Y-15700022D01*
X20588235Y-15700022D02*
X20597758Y-15680974D01*
X20597758Y-15680974D02*
X20616806Y-15671450D01*
X20616806Y-15671450D02*
X20654901Y-15671450D01*
X20654901Y-15671450D02*
X20673949Y-15680974D01*
X20673949Y-15680974D02*
X20683473Y-15700022D01*
X20683473Y-15700022D02*
X20683473Y-15719069D01*
X20683473Y-15719069D02*
X20588235Y-15738117D01*
X20854901Y-15804784D02*
X20854901Y-15604784D01*
X20854901Y-15795260D02*
X20835854Y-15804784D01*
X20835854Y-15804784D02*
X20797758Y-15804784D01*
X20797758Y-15804784D02*
X20778711Y-15795260D01*
X20778711Y-15795260D02*
X20769187Y-15785736D01*
X20769187Y-15785736D02*
X20759663Y-15766688D01*
X20759663Y-15766688D02*
X20759663Y-15709546D01*
X20759663Y-15709546D02*
X20769187Y-15690498D01*
X20769187Y-15690498D02*
X20778711Y-15680974D01*
X20778711Y-15680974D02*
X20797758Y-15671450D01*
X20797758Y-15671450D02*
X20835854Y-15671450D01*
X20835854Y-15671450D02*
X20854901Y-15680974D01*
X20931092Y-15880974D02*
X20940616Y-15871450D01*
X20940616Y-15871450D02*
X20959663Y-15842879D01*
X20959663Y-15842879D02*
X20969187Y-15823831D01*
X20969187Y-15823831D02*
X20978711Y-15795260D01*
X20978711Y-15795260D02*
X20988235Y-15747641D01*
X20988235Y-15747641D02*
X20988235Y-15709546D01*
X20988235Y-15709546D02*
X20978711Y-15661927D01*
X20978711Y-15661927D02*
X20969187Y-15633355D01*
X20969187Y-15633355D02*
X20959663Y-15614308D01*
X20959663Y-15614308D02*
X20940616Y-15585736D01*
X20940616Y-15585736D02*
X20931092Y-15576212D01*
M02*
